<?xml version="1.0" encoding="utf-8" standalone="no"?>
<!DOCTYPE svg PUBLIC "-//W3C//DTD SVG 1.1//EN"
  "http://www.w3.org/Graphics/SVG/1.1/DTD/svg11.dtd">
<svg xmlns:xlink="http://www.w3.org/1999/xlink" width="504pt" height="360pt" viewBox="0 0 504 360" xmlns="http://www.w3.org/2000/svg" version="1.1">
 <metadata>
  <rdf:RDF xmlns:dc="http://purl.org/dc/elements/1.1/" xmlns:cc="http://creativecommons.org/ns#" xmlns:rdf="http://www.w3.org/1999/02/22-rdf-syntax-ns#">
   <cc:Work>
    <dc:type rdf:resource="http://purl.org/dc/dcmitype/StillImage"/>
    <dc:date>2026-09-01T22:35:43.589351</dc:date>
    <dc:format>image/svg+xml</dc:format>
    <dc:creator>
     <cc:Agent>
      <dc:title>Matplotlib v3.10.9, https://matplotlib.org/</dc:title>
     </cc:Agent>
    </dc:creator>
   </cc:Work>
  </rdf:RDF>
 </metadata>
 <defs>
  <style type="text/css">*{stroke-linejoin: round; stroke-linecap: butt}</style>
 </defs>
 <g id="figure_1">
  <g id="patch_1">
   <path d="M 0 360 
L 504 360 
L 504 0 
L 0 0 
z
" style="fill: #ffffff"/>
  </g>
  <g id="axes_1">
   <g id="patch_2">
    <path d="M 63 320.4 
L 453.6 320.4 
L 453.6 43.2 
L 63 43.2 
z
" style="fill: #ffffff"/>
   </g>
   <g id="FillBetweenPolyCollection_1">
    <defs>
     <path id="m3b4143d611" d="M 80.754545 -304.2 
L 80.754545 -178.2 
L 81.644498 -178.2 
L 82.53445 -178.2 
L 83.424402 -178.2 
L 84.314354 -178.2 
L 85.204306 -178.2 
L 86.094258 -178.2 
L 86.984211 -178.2 
L 87.874163 -178.2 
L 88.764115 -178.2 
L 89.654067 -178.2 
L 90.544019 -178.2 
L 91.433971 -178.2 
L 92.323923 -178.2 
L 93.213876 -178.2 
L 94.103828 -178.2 
L 94.99378 -178.2 
L 95.883732 -178.2 
L 96.773684 -178.2 
L 97.663636 -178.2 
L 98.553589 -178.2 
L 99.443541 -178.2 
L 100.333493 -178.2 
L 101.223445 -178.2 
L 102.113397 -178.2 
L 103.003349 -178.2 
L 103.893301 -178.2 
L 104.783254 -178.2 
L 105.673206 -178.2 
L 106.563158 -178.2 
L 107.45311 -178.2 
L 108.343062 -178.2 
L 109.233014 -178.2 
L 110.122967 -178.2 
L 111.012919 -178.2 
L 111.902871 -178.2 
L 112.792823 -178.2 
L 113.682775 -178.2 
L 114.572727 -178.2 
L 115.462679 -178.2 
L 116.352632 -178.2 
L 117.242584 -178.2 
L 118.132536 -178.2 
L 119.022488 -178.2 
L 119.91244 -178.2 
L 120.802392 -178.2 
L 121.692344 -178.2 
L 122.582297 -178.2 
L 123.472249 -178.2 
L 124.362201 -178.2 
L 125.252153 -178.2 
L 126.142105 -178.2 
L 127.032057 -178.2 
L 127.92201 -178.2 
L 128.811962 -178.2 
L 129.701914 -178.2 
L 130.591866 -178.2 
L 131.481818 -178.2 
L 132.37177 -178.2 
L 133.261722 -178.2 
L 134.151675 -178.2 
L 135.041627 -178.2 
L 135.931579 -178.2 
L 136.821531 -178.2 
L 137.711483 -178.2 
L 138.601435 -178.2 
L 139.491388 -178.2 
L 140.38134 -178.2 
L 141.271292 -178.2 
L 142.161244 -178.2 
L 143.051196 -178.2 
L 143.941148 -178.2 
L 144.8311 -178.2 
L 145.721053 -178.2 
L 146.611005 -178.2 
L 147.500957 -178.2 
L 148.390909 -178.2 
L 149.280861 -178.2 
L 150.170813 -178.2 
L 151.060766 -178.2 
L 151.950718 -178.2 
L 152.84067 -178.2 
L 153.730622 -178.2 
L 154.620574 -178.2 
L 155.510526 -178.2 
L 156.400478 -178.2 
L 157.290431 -178.2 
L 158.180383 -178.2 
L 159.070335 -178.2 
L 159.960287 -178.2 
L 160.850239 -178.2 
L 161.740191 -178.2 
L 162.630144 -178.2 
L 163.520096 -178.2 
L 164.410048 -178.2 
L 165.3 -178.2 
L 166.189952 -178.2 
L 167.079904 -178.2 
L 167.969856 -178.2 
L 168.859809 -178.2 
L 169.749761 -178.2 
L 170.639713 -178.2 
L 171.529665 -178.2 
L 172.419617 -178.2 
L 173.309569 -178.2 
L 174.199522 -178.2 
L 175.089474 -178.2 
L 175.979426 -178.2 
L 176.869378 -178.2 
L 177.75933 -178.2 
L 178.649282 -178.2 
L 179.539234 -178.2 
L 180.429187 -178.2 
L 181.319139 -178.2 
L 182.209091 -178.2 
L 183.099043 -178.2 
L 183.988995 -178.2 
L 184.878947 -178.2 
L 185.7689 -178.2 
L 186.658852 -178.2 
L 187.548804 -178.2 
L 188.438756 -178.2 
L 189.328708 -178.2 
L 190.21866 -178.2 
L 191.108612 -178.2 
L 191.998565 -178.2 
L 192.888517 -178.2 
L 193.778469 -178.2 
L 194.668421 -178.2 
L 195.558373 -178.2 
L 196.448325 -178.2 
L 197.338278 -178.2 
L 198.22823 -178.2 
L 199.118182 -178.2 
L 200.008134 -178.2 
L 200.898086 -178.2 
L 201.788038 -178.2 
L 202.67799 -178.2 
L 203.567943 -178.2 
L 204.457895 -178.2 
L 205.347847 -178.2 
L 206.237799 -178.2 
L 207.127751 -178.2 
L 208.017703 -178.2 
L 208.907656 -178.2 
L 209.797608 -178.2 
L 210.68756 -178.2 
L 211.577512 -178.2 
L 212.467464 -178.2 
L 213.357416 -178.2 
L 214.247368 -178.2 
L 215.137321 -178.2 
L 216.027273 -178.2 
L 216.917225 -178.2 
L 217.807177 -178.2 
L 218.697129 -178.2 
L 219.587081 -178.2 
L 220.477033 -178.2 
L 221.366986 -178.2 
L 222.256938 -178.2 
L 223.14689 -178.2 
L 224.036842 -178.2 
L 224.926794 -178.2 
L 225.816746 -178.2 
L 226.706699 -178.2 
L 227.596651 -178.2 
L 228.486603 -178.2 
L 229.376555 -178.2 
L 230.266507 -178.2 
L 231.156459 -178.2 
L 232.046411 -178.2 
L 232.936364 -178.2 
L 233.826316 -178.2 
L 234.716268 -178.2 
L 235.60622 -178.2 
L 236.496172 -178.2 
L 237.386124 -178.2 
L 238.276077 -178.2 
L 239.166029 -178.2 
L 240.055981 -178.2 
L 240.945933 -178.2 
L 241.835885 -178.2 
L 242.725837 -178.2 
L 243.615789 -178.2 
L 244.505742 -178.2 
L 245.395694 -178.2 
L 246.285646 -178.2 
L 247.175598 -178.2 
L 248.06555 -178.2 
L 248.955502 -178.2 
L 249.845455 -178.2 
L 250.735407 -178.2 
L 251.625359 -178.2 
L 252.515311 -178.2 
L 253.405263 -178.2 
L 254.295215 -178.2 
L 255.185167 -178.2 
L 256.07512 -178.2 
L 256.965072 -178.2 
L 257.855024 -178.2 
L 258.744976 -177.884211 
L 259.634928 -177.252632 
L 260.52488 -176.621053 
L 261.414833 -175.989474 
L 262.304785 -175.357895 
L 263.194737 -174.726316 
L 264.084689 -174.094737 
L 264.974641 -173.463158 
L 265.864593 -172.831579 
L 266.754545 -172.2 
L 267.644498 -171.568421 
L 268.53445 -170.936842 
L 269.424402 -170.305263 
L 270.314354 -169.673684 
L 271.204306 -169.042105 
L 272.094258 -168.410526 
L 272.984211 -167.778947 
L 273.874163 -167.147368 
L 274.764115 -166.515789 
L 275.654067 -165.884211 
L 276.544019 -165.252632 
L 277.433971 -164.621053 
L 278.323923 -163.989474 
L 279.213876 -163.357895 
L 280.103828 -162.726316 
L 280.99378 -162.094737 
L 281.883732 -161.463158 
L 282.773684 -160.831579 
L 283.663636 -160.2 
L 284.553589 -159.568421 
L 285.443541 -158.936842 
L 286.333493 -158.305263 
L 287.223445 -157.673684 
L 288.113397 -157.042105 
L 289.003349 -156.410526 
L 289.893301 -155.778947 
L 290.783254 -155.147368 
L 291.673206 -154.515789 
L 292.563158 -153.884211 
L 293.45311 -153.252632 
L 294.343062 -152.621053 
L 295.233014 -151.989474 
L 296.122967 -151.357895 
L 297.012919 -150.726316 
L 297.902871 -150.094737 
L 298.792823 -149.463158 
L 299.682775 -148.831579 
L 300.572727 -148.2 
L 301.462679 -147.568421 
L 302.352632 -146.936842 
L 303.242584 -146.305263 
L 304.132536 -145.673684 
L 305.022488 -145.042105 
L 305.91244 -144.410526 
L 306.802392 -143.778947 
L 307.692344 -143.147368 
L 308.582297 -142.515789 
L 309.472249 -141.884211 
L 310.362201 -141.252632 
L 311.252153 -140.621053 
L 312.142105 -139.989474 
L 313.032057 -139.357895 
L 313.92201 -138.726316 
L 314.811962 -138.094737 
L 315.701914 -137.463158 
L 316.591866 -136.831579 
L 317.481818 -136.2 
L 318.37177 -135.568421 
L 319.261722 -134.936842 
L 320.151675 -134.305263 
L 321.041627 -133.673684 
L 321.931579 -133.042105 
L 322.821531 -132.410526 
L 323.711483 -131.778947 
L 324.601435 -131.147368 
L 325.491388 -130.515789 
L 326.38134 -129.884211 
L 327.271292 -129.252632 
L 328.161244 -128.621053 
L 329.051196 -127.989474 
L 329.941148 -127.357895 
L 330.8311 -126.726316 
L 331.721053 -126.094737 
L 332.611005 -125.463158 
L 333.500957 -124.831579 
L 334.390909 -124.2 
L 335.280861 -123.568421 
L 336.170813 -122.936842 
L 337.060766 -122.305263 
L 337.950718 -121.673684 
L 338.84067 -121.042105 
L 339.730622 -120.410526 
L 340.620574 -119.778947 
L 341.510526 -119.147368 
L 342.400478 -118.515789 
L 343.290431 -117.884211 
L 344.180383 -117.252632 
L 345.070335 -116.621053 
L 345.960287 -115.989474 
L 346.850239 -115.357895 
L 347.740191 -114.726316 
L 348.630144 -114.094737 
L 349.520096 -113.463158 
L 350.410048 -112.831579 
L 351.3 -112.2 
L 352.189952 -111.568421 
L 353.079904 -110.936842 
L 353.969856 -110.305263 
L 354.859809 -109.673684 
L 355.749761 -109.042105 
L 356.639713 -108.410526 
L 357.529665 -107.778947 
L 358.419617 -107.147368 
L 359.309569 -106.515789 
L 360.199522 -105.884211 
L 361.089474 -105.252632 
L 361.979426 -104.621053 
L 362.869378 -103.989474 
L 363.75933 -103.357895 
L 364.649282 -102.726316 
L 365.539234 -102.094737 
L 366.429187 -101.463158 
L 367.319139 -100.831579 
L 368.209091 -100.2 
L 369.099043 -99.568421 
L 369.988995 -98.936842 
L 370.878947 -98.305263 
L 371.7689 -97.673684 
L 372.658852 -97.042105 
L 373.548804 -96.410526 
L 374.438756 -95.778947 
L 375.328708 -95.147368 
L 376.21866 -94.515789 
L 377.108612 -93.884211 
L 377.998565 -93.252632 
L 378.888517 -92.621053 
L 379.778469 -91.989474 
L 380.668421 -91.357895 
L 381.558373 -90.726316 
L 382.448325 -90.094737 
L 383.338278 -89.463158 
L 384.22823 -88.831579 
L 385.118182 -88.2 
L 386.008134 -87.568421 
L 386.898086 -86.936842 
L 387.788038 -86.305263 
L 388.67799 -85.673684 
L 389.567943 -85.042105 
L 390.457895 -84.410526 
L 391.347847 -83.778947 
L 392.237799 -83.147368 
L 393.127751 -82.515789 
L 394.017703 -81.884211 
L 394.907656 -81.252632 
L 395.797608 -80.621053 
L 396.68756 -79.989474 
L 397.577512 -79.357895 
L 398.467464 -78.726316 
L 399.357416 -78.094737 
L 400.247368 -77.463158 
L 401.137321 -76.831579 
L 402.027273 -76.2 
L 402.917225 -75.568421 
L 403.807177 -74.936842 
L 404.697129 -74.305263 
L 405.587081 -73.673684 
L 406.477033 -73.042105 
L 407.366986 -72.410526 
L 408.256938 -71.778947 
L 409.14689 -71.147368 
L 410.036842 -70.515789 
L 410.926794 -69.884211 
L 411.816746 -69.252632 
L 412.706699 -68.621053 
L 413.596651 -67.989474 
L 414.486603 -67.357895 
L 415.376555 -66.726316 
L 416.266507 -66.094737 
L 417.156459 -65.463158 
L 418.046411 -64.831579 
L 418.936364 -64.2 
L 419.826316 -63.568421 
L 420.716268 -62.936842 
L 421.60622 -62.305263 
L 422.496172 -61.673684 
L 423.386124 -61.042105 
L 424.276077 -60.410526 
L 425.166029 -59.778947 
L 426.055981 -59.147368 
L 426.945933 -58.515789 
L 427.835885 -57.884211 
L 428.725837 -57.252632 
L 429.615789 -56.621053 
L 430.505742 -55.989474 
L 431.395694 -55.357895 
L 432.285646 -54.726316 
L 433.175598 -54.094737 
L 434.06555 -53.463158 
L 434.955502 -52.831579 
L 435.845455 -52.2 
L 435.845455 -178.2 
L 435.845455 -178.2 
L 434.955502 -178.2 
L 434.06555 -178.2 
L 433.175598 -178.2 
L 432.285646 -178.2 
L 431.395694 -178.2 
L 430.505742 -178.2 
L 429.615789 -178.2 
L 428.725837 -178.2 
L 427.835885 -178.2 
L 426.945933 -178.2 
L 426.055981 -178.2 
L 425.166029 -178.2 
L 424.276077 -178.2 
L 423.386124 -178.2 
L 422.496172 -178.2 
L 421.60622 -178.2 
L 420.716268 -178.2 
L 419.826316 -178.2 
L 418.936364 -178.2 
L 418.046411 -178.2 
L 417.156459 -178.2 
L 416.266507 -178.2 
L 415.376555 -178.2 
L 414.486603 -178.2 
L 413.596651 -178.2 
L 412.706699 -178.2 
L 411.816746 -178.2 
L 410.926794 -178.2 
L 410.036842 -178.2 
L 409.14689 -178.2 
L 408.256938 -178.2 
L 407.366986 -178.2 
L 406.477033 -178.2 
L 405.587081 -178.2 
L 404.697129 -178.2 
L 403.807177 -178.2 
L 402.917225 -178.2 
L 402.027273 -178.2 
L 401.137321 -178.2 
L 400.247368 -178.2 
L 399.357416 -178.2 
L 398.467464 -178.2 
L 397.577512 -178.2 
L 396.68756 -178.2 
L 395.797608 -178.2 
L 394.907656 -178.2 
L 394.017703 -178.2 
L 393.127751 -178.2 
L 392.237799 -178.2 
L 391.347847 -178.2 
L 390.457895 -178.2 
L 389.567943 -178.2 
L 388.67799 -178.2 
L 387.788038 -178.2 
L 386.898086 -178.2 
L 386.008134 -178.2 
L 385.118182 -178.2 
L 384.22823 -178.2 
L 383.338278 -178.2 
L 382.448325 -178.2 
L 381.558373 -178.2 
L 380.668421 -178.2 
L 379.778469 -178.2 
L 378.888517 -178.2 
L 377.998565 -178.2 
L 377.108612 -178.2 
L 376.21866 -178.2 
L 375.328708 -178.2 
L 374.438756 -178.2 
L 373.548804 -178.2 
L 372.658852 -178.2 
L 371.7689 -178.2 
L 370.878947 -178.2 
L 369.988995 -178.2 
L 369.099043 -178.2 
L 368.209091 -178.2 
L 367.319139 -178.2 
L 366.429187 -178.2 
L 365.539234 -178.2 
L 364.649282 -178.2 
L 363.75933 -178.2 
L 362.869378 -178.2 
L 361.979426 -178.2 
L 361.089474 -178.2 
L 360.199522 -178.2 
L 359.309569 -178.2 
L 358.419617 -178.2 
L 357.529665 -178.2 
L 356.639713 -178.2 
L 355.749761 -178.2 
L 354.859809 -178.2 
L 353.969856 -178.2 
L 353.079904 -178.2 
L 352.189952 -178.2 
L 351.3 -178.2 
L 350.410048 -178.2 
L 349.520096 -178.2 
L 348.630144 -178.2 
L 347.740191 -178.2 
L 346.850239 -178.2 
L 345.960287 -178.2 
L 345.070335 -178.2 
L 344.180383 -178.2 
L 343.290431 -178.2 
L 342.400478 -178.2 
L 341.510526 -178.2 
L 340.620574 -178.2 
L 339.730622 -178.2 
L 338.84067 -178.2 
L 337.950718 -178.2 
L 337.060766 -178.2 
L 336.170813 -178.2 
L 335.280861 -178.2 
L 334.390909 -178.2 
L 333.500957 -178.2 
L 332.611005 -178.2 
L 331.721053 -178.2 
L 330.8311 -178.2 
L 329.941148 -178.2 
L 329.051196 -178.2 
L 328.161244 -178.2 
L 327.271292 -178.2 
L 326.38134 -178.2 
L 325.491388 -178.2 
L 324.601435 -178.2 
L 323.711483 -178.2 
L 322.821531 -178.2 
L 321.931579 -178.2 
L 321.041627 -178.2 
L 320.151675 -178.2 
L 319.261722 -178.2 
L 318.37177 -178.2 
L 317.481818 -178.2 
L 316.591866 -178.2 
L 315.701914 -178.2 
L 314.811962 -178.2 
L 313.92201 -178.2 
L 313.032057 -178.2 
L 312.142105 -178.2 
L 311.252153 -178.2 
L 310.362201 -178.2 
L 309.472249 -178.2 
L 308.582297 -178.2 
L 307.692344 -178.2 
L 306.802392 -178.2 
L 305.91244 -178.2 
L 305.022488 -178.2 
L 304.132536 -178.2 
L 303.242584 -178.2 
L 302.352632 -178.2 
L 301.462679 -178.2 
L 300.572727 -178.2 
L 299.682775 -178.2 
L 298.792823 -178.2 
L 297.902871 -178.2 
L 297.012919 -178.2 
L 296.122967 -178.2 
L 295.233014 -178.2 
L 294.343062 -178.2 
L 293.45311 -178.2 
L 292.563158 -178.2 
L 291.673206 -178.2 
L 290.783254 -178.2 
L 289.893301 -178.2 
L 289.003349 -178.2 
L 288.113397 -178.2 
L 287.223445 -178.2 
L 286.333493 -178.2 
L 285.443541 -178.2 
L 284.553589 -178.2 
L 283.663636 -178.2 
L 282.773684 -178.2 
L 281.883732 -178.2 
L 280.99378 -178.2 
L 280.103828 -178.2 
L 279.213876 -178.2 
L 278.323923 -178.2 
L 277.433971 -178.2 
L 276.544019 -178.2 
L 275.654067 -178.2 
L 274.764115 -178.2 
L 273.874163 -178.2 
L 272.984211 -178.2 
L 272.094258 -178.2 
L 271.204306 -178.2 
L 270.314354 -178.2 
L 269.424402 -178.2 
L 268.53445 -178.2 
L 267.644498 -178.2 
L 266.754545 -178.2 
L 265.864593 -178.2 
L 264.974641 -178.2 
L 264.084689 -178.2 
L 263.194737 -178.2 
L 262.304785 -178.2 
L 261.414833 -178.2 
L 260.52488 -178.2 
L 259.634928 -178.2 
L 258.744976 -178.2 
L 257.855024 -178.515789 
L 256.965072 -179.147368 
L 256.07512 -179.778947 
L 255.185167 -180.410526 
L 254.295215 -181.042105 
L 253.405263 -181.673684 
L 252.515311 -182.305263 
L 251.625359 -182.936842 
L 250.735407 -183.568421 
L 249.845455 -184.2 
L 248.955502 -184.831579 
L 248.06555 -185.463158 
L 247.175598 -186.094737 
L 246.285646 -186.726316 
L 245.395694 -187.357895 
L 244.505742 -187.989474 
L 243.615789 -188.621053 
L 242.725837 -189.252632 
L 241.835885 -189.884211 
L 240.945933 -190.515789 
L 240.055981 -191.147368 
L 239.166029 -191.778947 
L 238.276077 -192.410526 
L 237.386124 -193.042105 
L 236.496172 -193.673684 
L 235.60622 -194.305263 
L 234.716268 -194.936842 
L 233.826316 -195.568421 
L 232.936364 -196.2 
L 232.046411 -196.831579 
L 231.156459 -197.463158 
L 230.266507 -198.094737 
L 229.376555 -198.726316 
L 228.486603 -199.357895 
L 227.596651 -199.989474 
L 226.706699 -200.621053 
L 225.816746 -201.252632 
L 224.926794 -201.884211 
L 224.036842 -202.515789 
L 223.14689 -203.147368 
L 222.256938 -203.778947 
L 221.366986 -204.410526 
L 220.477033 -205.042105 
L 219.587081 -205.673684 
L 218.697129 -206.305263 
L 217.807177 -206.936842 
L 216.917225 -207.568421 
L 216.027273 -208.2 
L 215.137321 -208.831579 
L 214.247368 -209.463158 
L 213.357416 -210.094737 
L 212.467464 -210.726316 
L 211.577512 -211.357895 
L 210.68756 -211.989474 
L 209.797608 -212.621053 
L 208.907656 -213.252632 
L 208.017703 -213.884211 
L 207.127751 -214.515789 
L 206.237799 -215.147368 
L 205.347847 -215.778947 
L 204.457895 -216.410526 
L 203.567943 -217.042105 
L 202.67799 -217.673684 
L 201.788038 -218.305263 
L 200.898086 -218.936842 
L 200.008134 -219.568421 
L 199.118182 -220.2 
L 198.22823 -220.831579 
L 197.338278 -221.463158 
L 196.448325 -222.094737 
L 195.558373 -222.726316 
L 194.668421 -223.357895 
L 193.778469 -223.989474 
L 192.888517 -224.621053 
L 191.998565 -225.252632 
L 191.108612 -225.884211 
L 190.21866 -226.515789 
L 189.328708 -227.147368 
L 188.438756 -227.778947 
L 187.548804 -228.410526 
L 186.658852 -229.042105 
L 185.7689 -229.673684 
L 184.878947 -230.305263 
L 183.988995 -230.936842 
L 183.099043 -231.568421 
L 182.209091 -232.2 
L 181.319139 -232.831579 
L 180.429187 -233.463158 
L 179.539234 -234.094737 
L 178.649282 -234.726316 
L 177.75933 -235.357895 
L 176.869378 -235.989474 
L 175.979426 -236.621053 
L 175.089474 -237.252632 
L 174.199522 -237.884211 
L 173.309569 -238.515789 
L 172.419617 -239.147368 
L 171.529665 -239.778947 
L 170.639713 -240.410526 
L 169.749761 -241.042105 
L 168.859809 -241.673684 
L 167.969856 -242.305263 
L 167.079904 -242.936842 
L 166.189952 -243.568421 
L 165.3 -244.2 
L 164.410048 -244.831579 
L 163.520096 -245.463158 
L 162.630144 -246.094737 
L 161.740191 -246.726316 
L 160.850239 -247.357895 
L 159.960287 -247.989474 
L 159.070335 -248.621053 
L 158.180383 -249.252632 
L 157.290431 -249.884211 
L 156.400478 -250.515789 
L 155.510526 -251.147368 
L 154.620574 -251.778947 
L 153.730622 -252.410526 
L 152.84067 -253.042105 
L 151.950718 -253.673684 
L 151.060766 -254.305263 
L 150.170813 -254.936842 
L 149.280861 -255.568421 
L 148.390909 -256.2 
L 147.500957 -256.831579 
L 146.611005 -257.463158 
L 145.721053 -258.094737 
L 144.8311 -258.726316 
L 143.941148 -259.357895 
L 143.051196 -259.989474 
L 142.161244 -260.621053 
L 141.271292 -261.252632 
L 140.38134 -261.884211 
L 139.491388 -262.515789 
L 138.601435 -263.147368 
L 137.711483 -263.778947 
L 136.821531 -264.410526 
L 135.931579 -265.042105 
L 135.041627 -265.673684 
L 134.151675 -266.305263 
L 133.261722 -266.936842 
L 132.37177 -267.568421 
L 131.481818 -268.2 
L 130.591866 -268.831579 
L 129.701914 -269.463158 
L 128.811962 -270.094737 
L 127.92201 -270.726316 
L 127.032057 -271.357895 
L 126.142105 -271.989474 
L 125.252153 -272.621053 
L 124.362201 -273.252632 
L 123.472249 -273.884211 
L 122.582297 -274.515789 
L 121.692344 -275.147368 
L 120.802392 -275.778947 
L 119.91244 -276.410526 
L 119.022488 -277.042105 
L 118.132536 -277.673684 
L 117.242584 -278.305263 
L 116.352632 -278.936842 
L 115.462679 -279.568421 
L 114.572727 -280.2 
L 113.682775 -280.831579 
L 112.792823 -281.463158 
L 111.902871 -282.094737 
L 111.012919 -282.726316 
L 110.122967 -283.357895 
L 109.233014 -283.989474 
L 108.343062 -284.621053 
L 107.45311 -285.252632 
L 106.563158 -285.884211 
L 105.673206 -286.515789 
L 104.783254 -287.147368 
L 103.893301 -287.778947 
L 103.003349 -288.410526 
L 102.113397 -289.042105 
L 101.223445 -289.673684 
L 100.333493 -290.305263 
L 99.443541 -290.936842 
L 98.553589 -291.568421 
L 97.663636 -292.2 
L 96.773684 -292.831579 
L 95.883732 -293.463158 
L 94.99378 -294.094737 
L 94.103828 -294.726316 
L 93.213876 -295.357895 
L 92.323923 -295.989474 
L 91.433971 -296.621053 
L 90.544019 -297.252632 
L 89.654067 -297.884211 
L 88.764115 -298.515789 
L 87.874163 -299.147368 
L 86.984211 -299.778947 
L 86.094258 -300.410526 
L 85.204306 -301.042105 
L 84.314354 -301.673684 
L 83.424402 -302.305263 
L 82.53445 -302.936842 
L 81.644498 -303.568421 
L 80.754545 -304.2 
z
" style="stroke: #808080; stroke-opacity: 0.15"/>
    </defs>
    <g clip-path="url(#pdb243d6a42)">
     <use xlink:href="#m3b4143d611" x="0" y="360" style="fill: #808080; fill-opacity: 0.15; stroke: #808080; stroke-opacity: 0.15"/>
    </g>
   </g>
   <g id="matplotlib.axis_1">
    <g id="xtick_1">
     <g id="line2d_1">
      <path d="M 80.754545 320.4 
L 80.754545 43.2 
" clip-path="url(#pdb243d6a42)" style="fill: none; stroke: #b0b0b0; stroke-opacity: 0.3; stroke-width: 0.8; stroke-linecap: square"/>
     </g>
     <g id="line2d_2">
      <defs>
       <path id="m23b17c2086" d="M 0 0 
L 0 3.5 
" style="stroke: #000000; stroke-width: 0.8"/>
      </defs>
      <g>
       <use xlink:href="#m23b17c2086" x="80.754545" y="320.4" style="stroke: #000000; stroke-width: 0.8"/>
      </g>
     </g>
     <g id="text_1">
      <!-- 0 -->
      <g transform="translate(77.573295 334.998438) scale(0.1 -0.1)">
       <defs>
        <path id="DejaVuSans-30" d="M 2034 4250 
Q 1547 4250 1301 3770 
Q 1056 3291 1056 2328 
Q 1056 1369 1301 889 
Q 1547 409 2034 409 
Q 2525 409 2770 889 
Q 3016 1369 3016 2328 
Q 3016 3291 2770 3770 
Q 2525 4250 2034 4250 
z
M 2034 4750 
Q 2819 4750 3233 4129 
Q 3647 3509 3647 2328 
Q 3647 1150 3233 529 
Q 2819 -91 2034 -91 
Q 1250 -91 836 529 
Q 422 1150 422 2328 
Q 422 3509 836 4129 
Q 1250 4750 2034 4750 
z
" transform="scale(0.015625)"/>
       </defs>
       <use xlink:href="#DejaVuSans-30"/>
      </g>
     </g>
    </g>
    <g id="xtick_2">
     <g id="line2d_3">
      <path d="M 125.140909 320.4 
L 125.140909 43.2 
" clip-path="url(#pdb243d6a42)" style="fill: none; stroke: #b0b0b0; stroke-opacity: 0.3; stroke-width: 0.8; stroke-linecap: square"/>
     </g>
     <g id="line2d_4">
      <g>
       <use xlink:href="#m23b17c2086" x="125.140909" y="320.4" style="stroke: #000000; stroke-width: 0.8"/>
      </g>
     </g>
     <g id="text_2">
      <!-- 5000 -->
      <g transform="translate(112.415909 334.998438) scale(0.1 -0.1)">
       <defs>
        <path id="DejaVuSans-35" d="M 691 4666 
L 3169 4666 
L 3169 4134 
L 1269 4134 
L 1269 2991 
Q 1406 3038 1543 3061 
Q 1681 3084 1819 3084 
Q 2600 3084 3056 2656 
Q 3513 2228 3513 1497 
Q 3513 744 3044 326 
Q 2575 -91 1722 -91 
Q 1428 -91 1123 -41 
Q 819 9 494 109 
L 494 744 
Q 775 591 1075 516 
Q 1375 441 1709 441 
Q 2250 441 2565 725 
Q 2881 1009 2881 1497 
Q 2881 1984 2565 2268 
Q 2250 2553 1709 2553 
Q 1456 2553 1204 2497 
Q 953 2441 691 2322 
L 691 4666 
z
" transform="scale(0.015625)"/>
       </defs>
       <use xlink:href="#DejaVuSans-35"/>
       <use xlink:href="#DejaVuSans-30" transform="translate(63.623047 0)"/>
       <use xlink:href="#DejaVuSans-30" transform="translate(127.246094 0)"/>
       <use xlink:href="#DejaVuSans-30" transform="translate(190.869141 0)"/>
      </g>
     </g>
    </g>
    <g id="xtick_3">
     <g id="line2d_5">
      <path d="M 169.527273 320.4 
L 169.527273 43.2 
" clip-path="url(#pdb243d6a42)" style="fill: none; stroke: #b0b0b0; stroke-opacity: 0.3; stroke-width: 0.8; stroke-linecap: square"/>
     </g>
     <g id="line2d_6">
      <g>
       <use xlink:href="#m23b17c2086" x="169.527273" y="320.4" style="stroke: #000000; stroke-width: 0.8"/>
      </g>
     </g>
     <g id="text_3">
      <!-- 10000 -->
      <g transform="translate(153.621023 334.998438) scale(0.1 -0.1)">
       <defs>
        <path id="DejaVuSans-31" d="M 794 531 
L 1825 531 
L 1825 4091 
L 703 3866 
L 703 4441 
L 1819 4666 
L 2450 4666 
L 2450 531 
L 3481 531 
L 3481 0 
L 794 0 
L 794 531 
z
" transform="scale(0.015625)"/>
       </defs>
       <use xlink:href="#DejaVuSans-31"/>
       <use xlink:href="#DejaVuSans-30" transform="translate(63.623047 0)"/>
       <use xlink:href="#DejaVuSans-30" transform="translate(127.246094 0)"/>
       <use xlink:href="#DejaVuSans-30" transform="translate(190.869141 0)"/>
       <use xlink:href="#DejaVuSans-30" transform="translate(254.492188 0)"/>
      </g>
     </g>
    </g>
    <g id="xtick_4">
     <g id="line2d_7">
      <path d="M 213.913636 320.4 
L 213.913636 43.2 
" clip-path="url(#pdb243d6a42)" style="fill: none; stroke: #b0b0b0; stroke-opacity: 0.3; stroke-width: 0.8; stroke-linecap: square"/>
     </g>
     <g id="line2d_8">
      <g>
       <use xlink:href="#m23b17c2086" x="213.913636" y="320.4" style="stroke: #000000; stroke-width: 0.8"/>
      </g>
     </g>
     <g id="text_4">
      <!-- 15000 -->
      <g transform="translate(198.007386 334.998438) scale(0.1 -0.1)">
       <use xlink:href="#DejaVuSans-31"/>
       <use xlink:href="#DejaVuSans-35" transform="translate(63.623047 0)"/>
       <use xlink:href="#DejaVuSans-30" transform="translate(127.246094 0)"/>
       <use xlink:href="#DejaVuSans-30" transform="translate(190.869141 0)"/>
       <use xlink:href="#DejaVuSans-30" transform="translate(254.492188 0)"/>
      </g>
     </g>
    </g>
    <g id="xtick_5">
     <g id="line2d_9">
      <path d="M 258.3 320.4 
L 258.3 43.2 
" clip-path="url(#pdb243d6a42)" style="fill: none; stroke: #b0b0b0; stroke-opacity: 0.3; stroke-width: 0.8; stroke-linecap: square"/>
     </g>
     <g id="line2d_10">
      <g>
       <use xlink:href="#m23b17c2086" x="258.3" y="320.4" style="stroke: #000000; stroke-width: 0.8"/>
      </g>
     </g>
     <g id="text_5">
      <!-- 20000 -->
      <g transform="translate(242.39375 334.998438) scale(0.1 -0.1)">
       <defs>
        <path id="DejaVuSans-32" d="M 1228 531 
L 3431 531 
L 3431 0 
L 469 0 
L 469 531 
Q 828 903 1448 1529 
Q 2069 2156 2228 2338 
Q 2531 2678 2651 2914 
Q 2772 3150 2772 3378 
Q 2772 3750 2511 3984 
Q 2250 4219 1831 4219 
Q 1534 4219 1204 4116 
Q 875 4013 500 3803 
L 500 4441 
Q 881 4594 1212 4672 
Q 1544 4750 1819 4750 
Q 2544 4750 2975 4387 
Q 3406 4025 3406 3419 
Q 3406 3131 3298 2873 
Q 3191 2616 2906 2266 
Q 2828 2175 2409 1742 
Q 1991 1309 1228 531 
z
" transform="scale(0.015625)"/>
       </defs>
       <use xlink:href="#DejaVuSans-32"/>
       <use xlink:href="#DejaVuSans-30" transform="translate(63.623047 0)"/>
       <use xlink:href="#DejaVuSans-30" transform="translate(127.246094 0)"/>
       <use xlink:href="#DejaVuSans-30" transform="translate(190.869141 0)"/>
       <use xlink:href="#DejaVuSans-30" transform="translate(254.492188 0)"/>
      </g>
     </g>
    </g>
    <g id="xtick_6">
     <g id="line2d_11">
      <path d="M 302.686364 320.4 
L 302.686364 43.2 
" clip-path="url(#pdb243d6a42)" style="fill: none; stroke: #b0b0b0; stroke-opacity: 0.3; stroke-width: 0.8; stroke-linecap: square"/>
     </g>
     <g id="line2d_12">
      <g>
       <use xlink:href="#m23b17c2086" x="302.686364" y="320.4" style="stroke: #000000; stroke-width: 0.8"/>
      </g>
     </g>
     <g id="text_6">
      <!-- 25000 -->
      <g transform="translate(286.780114 334.998438) scale(0.1 -0.1)">
       <use xlink:href="#DejaVuSans-32"/>
       <use xlink:href="#DejaVuSans-35" transform="translate(63.623047 0)"/>
       <use xlink:href="#DejaVuSans-30" transform="translate(127.246094 0)"/>
       <use xlink:href="#DejaVuSans-30" transform="translate(190.869141 0)"/>
       <use xlink:href="#DejaVuSans-30" transform="translate(254.492188 0)"/>
      </g>
     </g>
    </g>
    <g id="xtick_7">
     <g id="line2d_13">
      <path d="M 347.072727 320.4 
L 347.072727 43.2 
" clip-path="url(#pdb243d6a42)" style="fill: none; stroke: #b0b0b0; stroke-opacity: 0.3; stroke-width: 0.8; stroke-linecap: square"/>
     </g>
     <g id="line2d_14">
      <g>
       <use xlink:href="#m23b17c2086" x="347.072727" y="320.4" style="stroke: #000000; stroke-width: 0.8"/>
      </g>
     </g>
     <g id="text_7">
      <!-- 30000 -->
      <g transform="translate(331.166477 334.998438) scale(0.1 -0.1)">
       <defs>
        <path id="DejaVuSans-33" d="M 2597 2516 
Q 3050 2419 3304 2112 
Q 3559 1806 3559 1356 
Q 3559 666 3084 287 
Q 2609 -91 1734 -91 
Q 1441 -91 1130 -33 
Q 819 25 488 141 
L 488 750 
Q 750 597 1062 519 
Q 1375 441 1716 441 
Q 2309 441 2620 675 
Q 2931 909 2931 1356 
Q 2931 1769 2642 2001 
Q 2353 2234 1838 2234 
L 1294 2234 
L 1294 2753 
L 1863 2753 
Q 2328 2753 2575 2939 
Q 2822 3125 2822 3475 
Q 2822 3834 2567 4026 
Q 2313 4219 1838 4219 
Q 1578 4219 1281 4162 
Q 984 4106 628 3988 
L 628 4550 
Q 988 4650 1302 4700 
Q 1616 4750 1894 4750 
Q 2613 4750 3031 4423 
Q 3450 4097 3450 3541 
Q 3450 3153 3228 2886 
Q 3006 2619 2597 2516 
z
" transform="scale(0.015625)"/>
       </defs>
       <use xlink:href="#DejaVuSans-33"/>
       <use xlink:href="#DejaVuSans-30" transform="translate(63.623047 0)"/>
       <use xlink:href="#DejaVuSans-30" transform="translate(127.246094 0)"/>
       <use xlink:href="#DejaVuSans-30" transform="translate(190.869141 0)"/>
       <use xlink:href="#DejaVuSans-30" transform="translate(254.492188 0)"/>
      </g>
     </g>
    </g>
    <g id="xtick_8">
     <g id="line2d_15">
      <path d="M 391.459091 320.4 
L 391.459091 43.2 
" clip-path="url(#pdb243d6a42)" style="fill: none; stroke: #b0b0b0; stroke-opacity: 0.3; stroke-width: 0.8; stroke-linecap: square"/>
     </g>
     <g id="line2d_16">
      <g>
       <use xlink:href="#m23b17c2086" x="391.459091" y="320.4" style="stroke: #000000; stroke-width: 0.8"/>
      </g>
     </g>
     <g id="text_8">
      <!-- 35000 -->
      <g transform="translate(375.552841 334.998438) scale(0.1 -0.1)">
       <use xlink:href="#DejaVuSans-33"/>
       <use xlink:href="#DejaVuSans-35" transform="translate(63.623047 0)"/>
       <use xlink:href="#DejaVuSans-30" transform="translate(127.246094 0)"/>
       <use xlink:href="#DejaVuSans-30" transform="translate(190.869141 0)"/>
       <use xlink:href="#DejaVuSans-30" transform="translate(254.492188 0)"/>
      </g>
     </g>
    </g>
    <g id="xtick_9">
     <g id="line2d_17">
      <path d="M 435.845455 320.4 
L 435.845455 43.2 
" clip-path="url(#pdb243d6a42)" style="fill: none; stroke: #b0b0b0; stroke-opacity: 0.3; stroke-width: 0.8; stroke-linecap: square"/>
     </g>
     <g id="line2d_18">
      <g>
       <use xlink:href="#m23b17c2086" x="435.845455" y="320.4" style="stroke: #000000; stroke-width: 0.8"/>
      </g>
     </g>
     <g id="text_9">
      <!-- 40000 -->
      <g transform="translate(419.939205 334.998438) scale(0.1 -0.1)">
       <defs>
        <path id="DejaVuSans-34" d="M 2419 4116 
L 825 1625 
L 2419 1625 
L 2419 4116 
z
M 2253 4666 
L 3047 4666 
L 3047 1625 
L 3713 1625 
L 3713 1100 
L 3047 1100 
L 3047 0 
L 2419 0 
L 2419 1100 
L 313 1100 
L 313 1709 
L 2253 4666 
z
" transform="scale(0.015625)"/>
       </defs>
       <use xlink:href="#DejaVuSans-34"/>
       <use xlink:href="#DejaVuSans-30" transform="translate(63.623047 0)"/>
       <use xlink:href="#DejaVuSans-30" transform="translate(127.246094 0)"/>
       <use xlink:href="#DejaVuSans-30" transform="translate(190.869141 0)"/>
       <use xlink:href="#DejaVuSans-30" transform="translate(254.492188 0)"/>
      </g>
     </g>
    </g>
    <g id="text_10">
     <!-- Octahedral splitting  Delta_o  (cm^-1) -->
     <g transform="translate(162.9125 348.676562) scale(0.1 -0.1)">
      <defs>
       <path id="DejaVuSans-4f" d="M 2522 4238 
Q 1834 4238 1429 3725 
Q 1025 3213 1025 2328 
Q 1025 1447 1429 934 
Q 1834 422 2522 422 
Q 3209 422 3611 934 
Q 4013 1447 4013 2328 
Q 4013 3213 3611 3725 
Q 3209 4238 2522 4238 
z
M 2522 4750 
Q 3503 4750 4090 4092 
Q 4678 3434 4678 2328 
Q 4678 1225 4090 567 
Q 3503 -91 2522 -91 
Q 1538 -91 948 565 
Q 359 1222 359 2328 
Q 359 3434 948 4092 
Q 1538 4750 2522 4750 
z
" transform="scale(0.015625)"/>
       <path id="DejaVuSans-63" d="M 3122 3366 
L 3122 2828 
Q 2878 2963 2633 3030 
Q 2388 3097 2138 3097 
Q 1578 3097 1268 2742 
Q 959 2388 959 1747 
Q 959 1106 1268 751 
Q 1578 397 2138 397 
Q 2388 397 2633 464 
Q 2878 531 3122 666 
L 3122 134 
Q 2881 22 2623 -34 
Q 2366 -91 2075 -91 
Q 1284 -91 818 406 
Q 353 903 353 1747 
Q 353 2603 823 3093 
Q 1294 3584 2113 3584 
Q 2378 3584 2631 3529 
Q 2884 3475 3122 3366 
z
" transform="scale(0.015625)"/>
       <path id="DejaVuSans-74" d="M 1172 4494 
L 1172 3500 
L 2356 3500 
L 2356 3053 
L 1172 3053 
L 1172 1153 
Q 1172 725 1289 603 
Q 1406 481 1766 481 
L 2356 481 
L 2356 0 
L 1766 0 
Q 1100 0 847 248 
Q 594 497 594 1153 
L 594 3053 
L 172 3053 
L 172 3500 
L 594 3500 
L 594 4494 
L 1172 4494 
z
" transform="scale(0.015625)"/>
       <path id="DejaVuSans-61" d="M 2194 1759 
Q 1497 1759 1228 1600 
Q 959 1441 959 1056 
Q 959 750 1161 570 
Q 1363 391 1709 391 
Q 2188 391 2477 730 
Q 2766 1069 2766 1631 
L 2766 1759 
L 2194 1759 
z
M 3341 1997 
L 3341 0 
L 2766 0 
L 2766 531 
Q 2569 213 2275 61 
Q 1981 -91 1556 -91 
Q 1019 -91 701 211 
Q 384 513 384 1019 
Q 384 1609 779 1909 
Q 1175 2209 1959 2209 
L 2766 2209 
L 2766 2266 
Q 2766 2663 2505 2880 
Q 2244 3097 1772 3097 
Q 1472 3097 1187 3025 
Q 903 2953 641 2809 
L 641 3341 
Q 956 3463 1253 3523 
Q 1550 3584 1831 3584 
Q 2591 3584 2966 3190 
Q 3341 2797 3341 1997 
z
" transform="scale(0.015625)"/>
       <path id="DejaVuSans-68" d="M 3513 2113 
L 3513 0 
L 2938 0 
L 2938 2094 
Q 2938 2591 2744 2837 
Q 2550 3084 2163 3084 
Q 1697 3084 1428 2787 
Q 1159 2491 1159 1978 
L 1159 0 
L 581 0 
L 581 4863 
L 1159 4863 
L 1159 2956 
Q 1366 3272 1645 3428 
Q 1925 3584 2291 3584 
Q 2894 3584 3203 3211 
Q 3513 2838 3513 2113 
z
" transform="scale(0.015625)"/>
       <path id="DejaVuSans-65" d="M 3597 1894 
L 3597 1613 
L 953 1613 
Q 991 1019 1311 708 
Q 1631 397 2203 397 
Q 2534 397 2845 478 
Q 3156 559 3463 722 
L 3463 178 
Q 3153 47 2828 -22 
Q 2503 -91 2169 -91 
Q 1331 -91 842 396 
Q 353 884 353 1716 
Q 353 2575 817 3079 
Q 1281 3584 2069 3584 
Q 2775 3584 3186 3129 
Q 3597 2675 3597 1894 
z
M 3022 2063 
Q 3016 2534 2758 2815 
Q 2500 3097 2075 3097 
Q 1594 3097 1305 2825 
Q 1016 2553 972 2059 
L 3022 2063 
z
" transform="scale(0.015625)"/>
       <path id="DejaVuSans-64" d="M 2906 2969 
L 2906 4863 
L 3481 4863 
L 3481 0 
L 2906 0 
L 2906 525 
Q 2725 213 2448 61 
Q 2172 -91 1784 -91 
Q 1150 -91 751 415 
Q 353 922 353 1747 
Q 353 2572 751 3078 
Q 1150 3584 1784 3584 
Q 2172 3584 2448 3432 
Q 2725 3281 2906 2969 
z
M 947 1747 
Q 947 1113 1208 752 
Q 1469 391 1925 391 
Q 2381 391 2643 752 
Q 2906 1113 2906 1747 
Q 2906 2381 2643 2742 
Q 2381 3103 1925 3103 
Q 1469 3103 1208 2742 
Q 947 2381 947 1747 
z
" transform="scale(0.015625)"/>
       <path id="DejaVuSans-72" d="M 2631 2963 
Q 2534 3019 2420 3045 
Q 2306 3072 2169 3072 
Q 1681 3072 1420 2755 
Q 1159 2438 1159 1844 
L 1159 0 
L 581 0 
L 581 3500 
L 1159 3500 
L 1159 2956 
Q 1341 3275 1631 3429 
Q 1922 3584 2338 3584 
Q 2397 3584 2469 3576 
Q 2541 3569 2628 3553 
L 2631 2963 
z
" transform="scale(0.015625)"/>
       <path id="DejaVuSans-6c" d="M 603 4863 
L 1178 4863 
L 1178 0 
L 603 0 
L 603 4863 
z
" transform="scale(0.015625)"/>
       <path id="DejaVuSans-20" transform="scale(0.015625)"/>
       <path id="DejaVuSans-73" d="M 2834 3397 
L 2834 2853 
Q 2591 2978 2328 3040 
Q 2066 3103 1784 3103 
Q 1356 3103 1142 2972 
Q 928 2841 928 2578 
Q 928 2378 1081 2264 
Q 1234 2150 1697 2047 
L 1894 2003 
Q 2506 1872 2764 1633 
Q 3022 1394 3022 966 
Q 3022 478 2636 193 
Q 2250 -91 1575 -91 
Q 1294 -91 989 -36 
Q 684 19 347 128 
L 347 722 
Q 666 556 975 473 
Q 1284 391 1588 391 
Q 1994 391 2212 530 
Q 2431 669 2431 922 
Q 2431 1156 2273 1281 
Q 2116 1406 1581 1522 
L 1381 1569 
Q 847 1681 609 1914 
Q 372 2147 372 2553 
Q 372 3047 722 3315 
Q 1072 3584 1716 3584 
Q 2034 3584 2315 3537 
Q 2597 3491 2834 3397 
z
" transform="scale(0.015625)"/>
       <path id="DejaVuSans-70" d="M 1159 525 
L 1159 -1331 
L 581 -1331 
L 581 3500 
L 1159 3500 
L 1159 2969 
Q 1341 3281 1617 3432 
Q 1894 3584 2278 3584 
Q 2916 3584 3314 3078 
Q 3713 2572 3713 1747 
Q 3713 922 3314 415 
Q 2916 -91 2278 -91 
Q 1894 -91 1617 61 
Q 1341 213 1159 525 
z
M 3116 1747 
Q 3116 2381 2855 2742 
Q 2594 3103 2138 3103 
Q 1681 3103 1420 2742 
Q 1159 2381 1159 1747 
Q 1159 1113 1420 752 
Q 1681 391 2138 391 
Q 2594 391 2855 752 
Q 3116 1113 3116 1747 
z
" transform="scale(0.015625)"/>
       <path id="DejaVuSans-69" d="M 603 3500 
L 1178 3500 
L 1178 0 
L 603 0 
L 603 3500 
z
M 603 4863 
L 1178 4863 
L 1178 4134 
L 603 4134 
L 603 4863 
z
" transform="scale(0.015625)"/>
       <path id="DejaVuSans-6e" d="M 3513 2113 
L 3513 0 
L 2938 0 
L 2938 2094 
Q 2938 2591 2744 2837 
Q 2550 3084 2163 3084 
Q 1697 3084 1428 2787 
Q 1159 2491 1159 1978 
L 1159 0 
L 581 0 
L 581 3500 
L 1159 3500 
L 1159 2956 
Q 1366 3272 1645 3428 
Q 1925 3584 2291 3584 
Q 2894 3584 3203 3211 
Q 3513 2838 3513 2113 
z
" transform="scale(0.015625)"/>
       <path id="DejaVuSans-67" d="M 2906 1791 
Q 2906 2416 2648 2759 
Q 2391 3103 1925 3103 
Q 1463 3103 1205 2759 
Q 947 2416 947 1791 
Q 947 1169 1205 825 
Q 1463 481 1925 481 
Q 2391 481 2648 825 
Q 2906 1169 2906 1791 
z
M 3481 434 
Q 3481 -459 3084 -895 
Q 2688 -1331 1869 -1331 
Q 1566 -1331 1297 -1286 
Q 1028 -1241 775 -1147 
L 775 -588 
Q 1028 -725 1275 -790 
Q 1522 -856 1778 -856 
Q 2344 -856 2625 -561 
Q 2906 -266 2906 331 
L 2906 616 
Q 2728 306 2450 153 
Q 2172 0 1784 0 
Q 1141 0 747 490 
Q 353 981 353 1791 
Q 353 2603 747 3093 
Q 1141 3584 1784 3584 
Q 2172 3584 2450 3431 
Q 2728 3278 2906 2969 
L 2906 3500 
L 3481 3500 
L 3481 434 
z
" transform="scale(0.015625)"/>
       <path id="DejaVuSans-44" d="M 1259 4147 
L 1259 519 
L 2022 519 
Q 2988 519 3436 956 
Q 3884 1394 3884 2338 
Q 3884 3275 3436 3711 
Q 2988 4147 2022 4147 
L 1259 4147 
z
M 628 4666 
L 1925 4666 
Q 3281 4666 3915 4102 
Q 4550 3538 4550 2338 
Q 4550 1131 3912 565 
Q 3275 0 1925 0 
L 628 0 
L 628 4666 
z
" transform="scale(0.015625)"/>
       <path id="DejaVuSans-5f" d="M 3263 -1063 
L 3263 -1509 
L -63 -1509 
L -63 -1063 
L 3263 -1063 
z
" transform="scale(0.015625)"/>
       <path id="DejaVuSans-6f" d="M 1959 3097 
Q 1497 3097 1228 2736 
Q 959 2375 959 1747 
Q 959 1119 1226 758 
Q 1494 397 1959 397 
Q 2419 397 2687 759 
Q 2956 1122 2956 1747 
Q 2956 2369 2687 2733 
Q 2419 3097 1959 3097 
z
M 1959 3584 
Q 2709 3584 3137 3096 
Q 3566 2609 3566 1747 
Q 3566 888 3137 398 
Q 2709 -91 1959 -91 
Q 1206 -91 779 398 
Q 353 888 353 1747 
Q 353 2609 779 3096 
Q 1206 3584 1959 3584 
z
" transform="scale(0.015625)"/>
       <path id="DejaVuSans-28" d="M 1984 4856 
Q 1566 4138 1362 3434 
Q 1159 2731 1159 2009 
Q 1159 1288 1364 580 
Q 1569 -128 1984 -844 
L 1484 -844 
Q 1016 -109 783 600 
Q 550 1309 550 2009 
Q 550 2706 781 3412 
Q 1013 4119 1484 4856 
L 1984 4856 
z
" transform="scale(0.015625)"/>
       <path id="DejaVuSans-6d" d="M 3328 2828 
Q 3544 3216 3844 3400 
Q 4144 3584 4550 3584 
Q 5097 3584 5394 3201 
Q 5691 2819 5691 2113 
L 5691 0 
L 5113 0 
L 5113 2094 
Q 5113 2597 4934 2840 
Q 4756 3084 4391 3084 
Q 3944 3084 3684 2787 
Q 3425 2491 3425 1978 
L 3425 0 
L 2847 0 
L 2847 2094 
Q 2847 2600 2669 2842 
Q 2491 3084 2119 3084 
Q 1678 3084 1418 2786 
Q 1159 2488 1159 1978 
L 1159 0 
L 581 0 
L 581 3500 
L 1159 3500 
L 1159 2956 
Q 1356 3278 1631 3431 
Q 1906 3584 2284 3584 
Q 2666 3584 2933 3390 
Q 3200 3197 3328 2828 
z
" transform="scale(0.015625)"/>
       <path id="DejaVuSans-5e" d="M 2988 4666 
L 4684 2925 
L 4056 2925 
L 2681 4159 
L 1306 2925 
L 678 2925 
L 2375 4666 
L 2988 4666 
z
" transform="scale(0.015625)"/>
       <path id="DejaVuSans-2d" d="M 313 2009 
L 1997 2009 
L 1997 1497 
L 313 1497 
L 313 2009 
z
" transform="scale(0.015625)"/>
       <path id="DejaVuSans-29" d="M 513 4856 
L 1013 4856 
Q 1481 4119 1714 3412 
Q 1947 2706 1947 2009 
Q 1947 1309 1714 600 
Q 1481 -109 1013 -844 
L 513 -844 
Q 928 -128 1133 580 
Q 1338 1288 1338 2009 
Q 1338 2731 1133 3434 
Q 928 4138 513 4856 
z
" transform="scale(0.015625)"/>
      </defs>
      <use xlink:href="#DejaVuSans-4f"/>
      <use xlink:href="#DejaVuSans-63" transform="translate(78.710938 0)"/>
      <use xlink:href="#DejaVuSans-74" transform="translate(133.691406 0)"/>
      <use xlink:href="#DejaVuSans-61" transform="translate(172.900391 0)"/>
      <use xlink:href="#DejaVuSans-68" transform="translate(234.179688 0)"/>
      <use xlink:href="#DejaVuSans-65" transform="translate(297.558594 0)"/>
      <use xlink:href="#DejaVuSans-64" transform="translate(359.082031 0)"/>
      <use xlink:href="#DejaVuSans-72" transform="translate(422.558594 0)"/>
      <use xlink:href="#DejaVuSans-61" transform="translate(463.671875 0)"/>
      <use xlink:href="#DejaVuSans-6c" transform="translate(524.951172 0)"/>
      <use xlink:href="#DejaVuSans-20" transform="translate(552.734375 0)"/>
      <use xlink:href="#DejaVuSans-73" transform="translate(584.521484 0)"/>
      <use xlink:href="#DejaVuSans-70" transform="translate(636.621094 0)"/>
      <use xlink:href="#DejaVuSans-6c" transform="translate(700.097656 0)"/>
      <use xlink:href="#DejaVuSans-69" transform="translate(727.880859 0)"/>
      <use xlink:href="#DejaVuSans-74" transform="translate(755.664062 0)"/>
      <use xlink:href="#DejaVuSans-74" transform="translate(794.873047 0)"/>
      <use xlink:href="#DejaVuSans-69" transform="translate(834.082031 0)"/>
      <use xlink:href="#DejaVuSans-6e" transform="translate(861.865234 0)"/>
      <use xlink:href="#DejaVuSans-67" transform="translate(925.244141 0)"/>
      <use xlink:href="#DejaVuSans-20" transform="translate(988.720703 0)"/>
      <use xlink:href="#DejaVuSans-20" transform="translate(1020.507812 0)"/>
      <use xlink:href="#DejaVuSans-44" transform="translate(1052.294922 0)"/>
      <use xlink:href="#DejaVuSans-65" transform="translate(1129.296875 0)"/>
      <use xlink:href="#DejaVuSans-6c" transform="translate(1190.820312 0)"/>
      <use xlink:href="#DejaVuSans-74" transform="translate(1218.603516 0)"/>
      <use xlink:href="#DejaVuSans-61" transform="translate(1257.8125 0)"/>
      <use xlink:href="#DejaVuSans-5f" transform="translate(1319.091797 0)"/>
      <use xlink:href="#DejaVuSans-6f" transform="translate(1369.091797 0)"/>
      <use xlink:href="#DejaVuSans-20" transform="translate(1430.273438 0)"/>
      <use xlink:href="#DejaVuSans-20" transform="translate(1462.060547 0)"/>
      <use xlink:href="#DejaVuSans-28" transform="translate(1493.847656 0)"/>
      <use xlink:href="#DejaVuSans-63" transform="translate(1532.861328 0)"/>
      <use xlink:href="#DejaVuSans-6d" transform="translate(1587.841797 0)"/>
      <use xlink:href="#DejaVuSans-5e" transform="translate(1685.253906 0)"/>
      <use xlink:href="#DejaVuSans-2d" transform="translate(1769.042969 0)"/>
      <use xlink:href="#DejaVuSans-31" transform="translate(1805.126953 0)"/>
      <use xlink:href="#DejaVuSans-29" transform="translate(1868.75 0)"/>
     </g>
    </g>
   </g>
   <g id="matplotlib.axis_2">
    <g id="ytick_1">
     <g id="line2d_19">
      <path d="M 63 307.8 
L 453.6 307.8 
" clip-path="url(#pdb243d6a42)" style="fill: none; stroke: #b0b0b0; stroke-opacity: 0.3; stroke-width: 0.8; stroke-linecap: square"/>
     </g>
     <g id="line2d_20">
      <defs>
       <path id="madf639d012" d="M 0 0 
L -3.5 0 
" style="stroke: #000000; stroke-width: 0.8"/>
      </defs>
      <g>
       <use xlink:href="#madf639d012" x="63" y="307.8" style="stroke: #000000; stroke-width: 0.8"/>
      </g>
     </g>
     <g id="text_11">
      <!-- −40000 -->
      <g transform="translate(15.807812 311.599219) scale(0.1 -0.1)">
       <defs>
        <path id="DejaVuSans-2212" d="M 678 2272 
L 4684 2272 
L 4684 1741 
L 678 1741 
L 678 2272 
z
" transform="scale(0.015625)"/>
       </defs>
       <use xlink:href="#DejaVuSans-2212"/>
       <use xlink:href="#DejaVuSans-34" transform="translate(83.789062 0)"/>
       <use xlink:href="#DejaVuSans-30" transform="translate(147.412109 0)"/>
       <use xlink:href="#DejaVuSans-30" transform="translate(211.035156 0)"/>
       <use xlink:href="#DejaVuSans-30" transform="translate(274.658203 0)"/>
       <use xlink:href="#DejaVuSans-30" transform="translate(338.28125 0)"/>
      </g>
     </g>
    </g>
    <g id="ytick_2">
     <g id="line2d_21">
      <path d="M 63 276.3 
L 453.6 276.3 
" clip-path="url(#pdb243d6a42)" style="fill: none; stroke: #b0b0b0; stroke-opacity: 0.3; stroke-width: 0.8; stroke-linecap: square"/>
     </g>
     <g id="line2d_22">
      <g>
       <use xlink:href="#madf639d012" x="63" y="276.3" style="stroke: #000000; stroke-width: 0.8"/>
      </g>
     </g>
     <g id="text_12">
      <!-- −30000 -->
      <g transform="translate(15.807812 280.099219) scale(0.1 -0.1)">
       <use xlink:href="#DejaVuSans-2212"/>
       <use xlink:href="#DejaVuSans-33" transform="translate(83.789062 0)"/>
       <use xlink:href="#DejaVuSans-30" transform="translate(147.412109 0)"/>
       <use xlink:href="#DejaVuSans-30" transform="translate(211.035156 0)"/>
       <use xlink:href="#DejaVuSans-30" transform="translate(274.658203 0)"/>
       <use xlink:href="#DejaVuSans-30" transform="translate(338.28125 0)"/>
      </g>
     </g>
    </g>
    <g id="ytick_3">
     <g id="line2d_23">
      <path d="M 63 244.8 
L 453.6 244.8 
" clip-path="url(#pdb243d6a42)" style="fill: none; stroke: #b0b0b0; stroke-opacity: 0.3; stroke-width: 0.8; stroke-linecap: square"/>
     </g>
     <g id="line2d_24">
      <g>
       <use xlink:href="#madf639d012" x="63" y="244.8" style="stroke: #000000; stroke-width: 0.8"/>
      </g>
     </g>
     <g id="text_13">
      <!-- −20000 -->
      <g transform="translate(15.807812 248.599219) scale(0.1 -0.1)">
       <use xlink:href="#DejaVuSans-2212"/>
       <use xlink:href="#DejaVuSans-32" transform="translate(83.789062 0)"/>
       <use xlink:href="#DejaVuSans-30" transform="translate(147.412109 0)"/>
       <use xlink:href="#DejaVuSans-30" transform="translate(211.035156 0)"/>
       <use xlink:href="#DejaVuSans-30" transform="translate(274.658203 0)"/>
       <use xlink:href="#DejaVuSans-30" transform="translate(338.28125 0)"/>
      </g>
     </g>
    </g>
    <g id="ytick_4">
     <g id="line2d_25">
      <path d="M 63 213.3 
L 453.6 213.3 
" clip-path="url(#pdb243d6a42)" style="fill: none; stroke: #b0b0b0; stroke-opacity: 0.3; stroke-width: 0.8; stroke-linecap: square"/>
     </g>
     <g id="line2d_26">
      <g>
       <use xlink:href="#madf639d012" x="63" y="213.3" style="stroke: #000000; stroke-width: 0.8"/>
      </g>
     </g>
     <g id="text_14">
      <!-- −10000 -->
      <g transform="translate(15.807812 217.099219) scale(0.1 -0.1)">
       <use xlink:href="#DejaVuSans-2212"/>
       <use xlink:href="#DejaVuSans-31" transform="translate(83.789062 0)"/>
       <use xlink:href="#DejaVuSans-30" transform="translate(147.412109 0)"/>
       <use xlink:href="#DejaVuSans-30" transform="translate(211.035156 0)"/>
       <use xlink:href="#DejaVuSans-30" transform="translate(274.658203 0)"/>
       <use xlink:href="#DejaVuSans-30" transform="translate(338.28125 0)"/>
      </g>
     </g>
    </g>
    <g id="ytick_5">
     <g id="line2d_27">
      <path d="M 63 181.8 
L 453.6 181.8 
" clip-path="url(#pdb243d6a42)" style="fill: none; stroke: #b0b0b0; stroke-opacity: 0.3; stroke-width: 0.8; stroke-linecap: square"/>
     </g>
     <g id="line2d_28">
      <g>
       <use xlink:href="#madf639d012" x="63" y="181.8" style="stroke: #000000; stroke-width: 0.8"/>
      </g>
     </g>
     <g id="text_15">
      <!-- 0 -->
      <g transform="translate(49.6375 185.599219) scale(0.1 -0.1)">
       <use xlink:href="#DejaVuSans-30"/>
      </g>
     </g>
    </g>
    <g id="ytick_6">
     <g id="line2d_29">
      <path d="M 63 150.3 
L 453.6 150.3 
" clip-path="url(#pdb243d6a42)" style="fill: none; stroke: #b0b0b0; stroke-opacity: 0.3; stroke-width: 0.8; stroke-linecap: square"/>
     </g>
     <g id="line2d_30">
      <g>
       <use xlink:href="#madf639d012" x="63" y="150.3" style="stroke: #000000; stroke-width: 0.8"/>
      </g>
     </g>
     <g id="text_16">
      <!-- 10000 -->
      <g transform="translate(24.1875 154.099219) scale(0.1 -0.1)">
       <use xlink:href="#DejaVuSans-31"/>
       <use xlink:href="#DejaVuSans-30" transform="translate(63.623047 0)"/>
       <use xlink:href="#DejaVuSans-30" transform="translate(127.246094 0)"/>
       <use xlink:href="#DejaVuSans-30" transform="translate(190.869141 0)"/>
       <use xlink:href="#DejaVuSans-30" transform="translate(254.492188 0)"/>
      </g>
     </g>
    </g>
    <g id="ytick_7">
     <g id="line2d_31">
      <path d="M 63 118.8 
L 453.6 118.8 
" clip-path="url(#pdb243d6a42)" style="fill: none; stroke: #b0b0b0; stroke-opacity: 0.3; stroke-width: 0.8; stroke-linecap: square"/>
     </g>
     <g id="line2d_32">
      <g>
       <use xlink:href="#madf639d012" x="63" y="118.8" style="stroke: #000000; stroke-width: 0.8"/>
      </g>
     </g>
     <g id="text_17">
      <!-- 20000 -->
      <g transform="translate(24.1875 122.599219) scale(0.1 -0.1)">
       <use xlink:href="#DejaVuSans-32"/>
       <use xlink:href="#DejaVuSans-30" transform="translate(63.623047 0)"/>
       <use xlink:href="#DejaVuSans-30" transform="translate(127.246094 0)"/>
       <use xlink:href="#DejaVuSans-30" transform="translate(190.869141 0)"/>
       <use xlink:href="#DejaVuSans-30" transform="translate(254.492188 0)"/>
      </g>
     </g>
    </g>
    <g id="ytick_8">
     <g id="line2d_33">
      <path d="M 63 87.3 
L 453.6 87.3 
" clip-path="url(#pdb243d6a42)" style="fill: none; stroke: #b0b0b0; stroke-opacity: 0.3; stroke-width: 0.8; stroke-linecap: square"/>
     </g>
     <g id="line2d_34">
      <g>
       <use xlink:href="#madf639d012" x="63" y="87.3" style="stroke: #000000; stroke-width: 0.8"/>
      </g>
     </g>
     <g id="text_18">
      <!-- 30000 -->
      <g transform="translate(24.1875 91.099219) scale(0.1 -0.1)">
       <use xlink:href="#DejaVuSans-33"/>
       <use xlink:href="#DejaVuSans-30" transform="translate(63.623047 0)"/>
       <use xlink:href="#DejaVuSans-30" transform="translate(127.246094 0)"/>
       <use xlink:href="#DejaVuSans-30" transform="translate(190.869141 0)"/>
       <use xlink:href="#DejaVuSans-30" transform="translate(254.492188 0)"/>
      </g>
     </g>
    </g>
    <g id="ytick_9">
     <g id="line2d_35">
      <path d="M 63 55.8 
L 453.6 55.8 
" clip-path="url(#pdb243d6a42)" style="fill: none; stroke: #b0b0b0; stroke-opacity: 0.3; stroke-width: 0.8; stroke-linecap: square"/>
     </g>
     <g id="line2d_36">
      <g>
       <use xlink:href="#madf639d012" x="63" y="55.8" style="stroke: #000000; stroke-width: 0.8"/>
      </g>
     </g>
     <g id="text_19">
      <!-- 40000 -->
      <g transform="translate(24.1875 59.599219) scale(0.1 -0.1)">
       <use xlink:href="#DejaVuSans-34"/>
       <use xlink:href="#DejaVuSans-30" transform="translate(63.623047 0)"/>
       <use xlink:href="#DejaVuSans-30" transform="translate(127.246094 0)"/>
       <use xlink:href="#DejaVuSans-30" transform="translate(190.869141 0)"/>
       <use xlink:href="#DejaVuSans-30" transform="translate(254.492188 0)"/>
      </g>
     </g>
    </g>
    <g id="text_20">
     <!-- Relative energy  (cm^-1) -->
     <g transform="translate(9.728125 244.850781) rotate(-90) scale(0.1 -0.1)">
      <defs>
       <path id="DejaVuSans-52" d="M 2841 2188 
Q 3044 2119 3236 1894 
Q 3428 1669 3622 1275 
L 4263 0 
L 3584 0 
L 2988 1197 
Q 2756 1666 2539 1819 
Q 2322 1972 1947 1972 
L 1259 1972 
L 1259 0 
L 628 0 
L 628 4666 
L 2053 4666 
Q 2853 4666 3247 4331 
Q 3641 3997 3641 3322 
Q 3641 2881 3436 2590 
Q 3231 2300 2841 2188 
z
M 1259 4147 
L 1259 2491 
L 2053 2491 
Q 2509 2491 2742 2702 
Q 2975 2913 2975 3322 
Q 2975 3731 2742 3939 
Q 2509 4147 2053 4147 
L 1259 4147 
z
" transform="scale(0.015625)"/>
       <path id="DejaVuSans-76" d="M 191 3500 
L 800 3500 
L 1894 563 
L 2988 3500 
L 3597 3500 
L 2284 0 
L 1503 0 
L 191 3500 
z
" transform="scale(0.015625)"/>
       <path id="DejaVuSans-79" d="M 2059 -325 
Q 1816 -950 1584 -1140 
Q 1353 -1331 966 -1331 
L 506 -1331 
L 506 -850 
L 844 -850 
Q 1081 -850 1212 -737 
Q 1344 -625 1503 -206 
L 1606 56 
L 191 3500 
L 800 3500 
L 1894 763 
L 2988 3500 
L 3597 3500 
L 2059 -325 
z
" transform="scale(0.015625)"/>
      </defs>
      <use xlink:href="#DejaVuSans-52"/>
      <use xlink:href="#DejaVuSans-65" transform="translate(64.982422 0)"/>
      <use xlink:href="#DejaVuSans-6c" transform="translate(126.505859 0)"/>
      <use xlink:href="#DejaVuSans-61" transform="translate(154.289062 0)"/>
      <use xlink:href="#DejaVuSans-74" transform="translate(215.568359 0)"/>
      <use xlink:href="#DejaVuSans-69" transform="translate(254.777344 0)"/>
      <use xlink:href="#DejaVuSans-76" transform="translate(282.560547 0)"/>
      <use xlink:href="#DejaVuSans-65" transform="translate(341.740234 0)"/>
      <use xlink:href="#DejaVuSans-20" transform="translate(403.263672 0)"/>
      <use xlink:href="#DejaVuSans-65" transform="translate(435.050781 0)"/>
      <use xlink:href="#DejaVuSans-6e" transform="translate(496.574219 0)"/>
      <use xlink:href="#DejaVuSans-65" transform="translate(559.953125 0)"/>
      <use xlink:href="#DejaVuSans-72" transform="translate(621.476562 0)"/>
      <use xlink:href="#DejaVuSans-67" transform="translate(660.839844 0)"/>
      <use xlink:href="#DejaVuSans-79" transform="translate(724.316406 0)"/>
      <use xlink:href="#DejaVuSans-20" transform="translate(783.496094 0)"/>
      <use xlink:href="#DejaVuSans-20" transform="translate(815.283203 0)"/>
      <use xlink:href="#DejaVuSans-28" transform="translate(847.070312 0)"/>
      <use xlink:href="#DejaVuSans-63" transform="translate(886.083984 0)"/>
      <use xlink:href="#DejaVuSans-6d" transform="translate(941.064453 0)"/>
      <use xlink:href="#DejaVuSans-5e" transform="translate(1038.476562 0)"/>
      <use xlink:href="#DejaVuSans-2d" transform="translate(1122.265625 0)"/>
      <use xlink:href="#DejaVuSans-31" transform="translate(1158.349609 0)"/>
      <use xlink:href="#DejaVuSans-29" transform="translate(1221.972656 0)"/>
     </g>
    </g>
   </g>
   <g id="line2d_37">
    <path d="M 80.754545 181.8 
L 435.845455 181.8 
L 435.845455 181.8 
" clip-path="url(#pdb243d6a42)" style="fill: none; stroke: #1f77b4; stroke-width: 1.5; stroke-linecap: square"/>
   </g>
   <g id="line2d_38">
    <path d="M 80.754545 55.8 
L 435.845455 307.8 
L 435.845455 307.8 
" clip-path="url(#pdb243d6a42)" style="fill: none; stroke: #d62728; stroke-width: 1.5; stroke-linecap: square"/>
   </g>
   <g id="line2d_39">
    <path d="M 258.3 320.4 
L 258.3 43.2 
" clip-path="url(#pdb243d6a42)" style="fill: none; stroke-dasharray: 4.44,1.92; stroke-dashoffset: 0; stroke: #000000; stroke-width: 1.2"/>
   </g>
   <g id="patch_3">
    <path d="M 63 320.4 
L 63 43.2 
" style="fill: none; stroke: #000000; stroke-width: 0.8; stroke-linejoin: miter; stroke-linecap: square"/>
   </g>
   <g id="patch_4">
    <path d="M 453.6 320.4 
L 453.6 43.2 
" style="fill: none; stroke: #000000; stroke-width: 0.8; stroke-linejoin: miter; stroke-linecap: square"/>
   </g>
   <g id="patch_5">
    <path d="M 63 320.4 
L 453.6 320.4 
" style="fill: none; stroke: #000000; stroke-width: 0.8; stroke-linejoin: miter; stroke-linecap: square"/>
   </g>
   <g id="patch_6">
    <path d="M 63 43.2 
L 453.6 43.2 
" style="fill: none; stroke: #000000; stroke-width: 0.8; stroke-linejoin: miter; stroke-linecap: square"/>
   </g>
   <g id="text_21">
    <!-- d5 high-spin vs low-spin energy in Oh crystal field -->
    <g transform="translate(108.289688 37.2) scale(0.12 -0.12)">
     <defs>
      <path id="DejaVuSans-77" d="M 269 3500 
L 844 3500 
L 1563 769 
L 2278 3500 
L 2956 3500 
L 3675 769 
L 4391 3500 
L 4966 3500 
L 4050 0 
L 3372 0 
L 2619 2869 
L 1863 0 
L 1184 0 
L 269 3500 
z
" transform="scale(0.015625)"/>
      <path id="DejaVuSans-66" d="M 2375 4863 
L 2375 4384 
L 1825 4384 
Q 1516 4384 1395 4259 
Q 1275 4134 1275 3809 
L 1275 3500 
L 2222 3500 
L 2222 3053 
L 1275 3053 
L 1275 0 
L 697 0 
L 697 3053 
L 147 3053 
L 147 3500 
L 697 3500 
L 697 3744 
Q 697 4328 969 4595 
Q 1241 4863 1831 4863 
L 2375 4863 
z
" transform="scale(0.015625)"/>
     </defs>
     <use xlink:href="#DejaVuSans-64"/>
     <use xlink:href="#DejaVuSans-35" transform="translate(63.476562 0)"/>
     <use xlink:href="#DejaVuSans-20" transform="translate(127.099609 0)"/>
     <use xlink:href="#DejaVuSans-68" transform="translate(158.886719 0)"/>
     <use xlink:href="#DejaVuSans-69" transform="translate(222.265625 0)"/>
     <use xlink:href="#DejaVuSans-67" transform="translate(250.048828 0)"/>
     <use xlink:href="#DejaVuSans-68" transform="translate(313.525391 0)"/>
     <use xlink:href="#DejaVuSans-2d" transform="translate(376.904297 0)"/>
     <use xlink:href="#DejaVuSans-73" transform="translate(412.988281 0)"/>
     <use xlink:href="#DejaVuSans-70" transform="translate(465.087891 0)"/>
     <use xlink:href="#DejaVuSans-69" transform="translate(528.564453 0)"/>
     <use xlink:href="#DejaVuSans-6e" transform="translate(556.347656 0)"/>
     <use xlink:href="#DejaVuSans-20" transform="translate(619.726562 0)"/>
     <use xlink:href="#DejaVuSans-76" transform="translate(651.513672 0)"/>
     <use xlink:href="#DejaVuSans-73" transform="translate(710.693359 0)"/>
     <use xlink:href="#DejaVuSans-20" transform="translate(762.792969 0)"/>
     <use xlink:href="#DejaVuSans-6c" transform="translate(794.580078 0)"/>
     <use xlink:href="#DejaVuSans-6f" transform="translate(822.363281 0)"/>
     <use xlink:href="#DejaVuSans-77" transform="translate(883.544922 0)"/>
     <use xlink:href="#DejaVuSans-2d" transform="translate(965.332031 0)"/>
     <use xlink:href="#DejaVuSans-73" transform="translate(1001.416016 0)"/>
     <use xlink:href="#DejaVuSans-70" transform="translate(1053.515625 0)"/>
     <use xlink:href="#DejaVuSans-69" transform="translate(1116.992188 0)"/>
     <use xlink:href="#DejaVuSans-6e" transform="translate(1144.775391 0)"/>
     <use xlink:href="#DejaVuSans-20" transform="translate(1208.154297 0)"/>
     <use xlink:href="#DejaVuSans-65" transform="translate(1239.941406 0)"/>
     <use xlink:href="#DejaVuSans-6e" transform="translate(1301.464844 0)"/>
     <use xlink:href="#DejaVuSans-65" transform="translate(1364.84375 0)"/>
     <use xlink:href="#DejaVuSans-72" transform="translate(1426.367188 0)"/>
     <use xlink:href="#DejaVuSans-67" transform="translate(1465.730469 0)"/>
     <use xlink:href="#DejaVuSans-79" transform="translate(1529.207031 0)"/>
     <use xlink:href="#DejaVuSans-20" transform="translate(1588.386719 0)"/>
     <use xlink:href="#DejaVuSans-69" transform="translate(1620.173828 0)"/>
     <use xlink:href="#DejaVuSans-6e" transform="translate(1647.957031 0)"/>
     <use xlink:href="#DejaVuSans-20" transform="translate(1711.335938 0)"/>
     <use xlink:href="#DejaVuSans-4f" transform="translate(1743.123047 0)"/>
     <use xlink:href="#DejaVuSans-68" transform="translate(1821.833984 0)"/>
     <use xlink:href="#DejaVuSans-20" transform="translate(1885.212891 0)"/>
     <use xlink:href="#DejaVuSans-63" transform="translate(1917 0)"/>
     <use xlink:href="#DejaVuSans-72" transform="translate(1971.980469 0)"/>
     <use xlink:href="#DejaVuSans-79" transform="translate(2013.09375 0)"/>
     <use xlink:href="#DejaVuSans-73" transform="translate(2072.273438 0)"/>
     <use xlink:href="#DejaVuSans-74" transform="translate(2124.373047 0)"/>
     <use xlink:href="#DejaVuSans-61" transform="translate(2163.582031 0)"/>
     <use xlink:href="#DejaVuSans-6c" transform="translate(2224.861328 0)"/>
     <use xlink:href="#DejaVuSans-20" transform="translate(2252.644531 0)"/>
     <use xlink:href="#DejaVuSans-66" transform="translate(2284.431641 0)"/>
     <use xlink:href="#DejaVuSans-69" transform="translate(2319.636719 0)"/>
     <use xlink:href="#DejaVuSans-65" transform="translate(2347.419922 0)"/>
     <use xlink:href="#DejaVuSans-6c" transform="translate(2408.943359 0)"/>
     <use xlink:href="#DejaVuSans-64" transform="translate(2436.726562 0)"/>
    </g>
   </g>
   <g id="legend_1">
    <g id="patch_7">
     <path d="M 299.182813 95.5125 
L 446.6 95.5125 
Q 448.6 95.5125 448.6 93.5125 
L 448.6 50.2 
Q 448.6 48.2 446.6 48.2 
L 299.182813 48.2 
Q 297.182813 48.2 297.182813 50.2 
L 297.182813 93.5125 
Q 297.182813 95.5125 299.182813 95.5125 
z
" style="fill: #ffffff; opacity: 0.8; stroke: #cccccc; stroke-linejoin: miter"/>
    </g>
    <g id="line2d_40">
     <path d="M 301.182813 56.298437 
L 311.182813 56.298437 
L 321.182813 56.298437 
" style="fill: none; stroke: #1f77b4; stroke-width: 1.5; stroke-linecap: square"/>
    </g>
    <g id="text_22">
     <!-- High-spin  t2g^3 eg^2 -->
     <g transform="translate(329.182813 59.798437) scale(0.1 -0.1)">
      <defs>
       <path id="DejaVuSans-48" d="M 628 4666 
L 1259 4666 
L 1259 2753 
L 3553 2753 
L 3553 4666 
L 4184 4666 
L 4184 0 
L 3553 0 
L 3553 2222 
L 1259 2222 
L 1259 0 
L 628 0 
L 628 4666 
z
" transform="scale(0.015625)"/>
      </defs>
      <use xlink:href="#DejaVuSans-48"/>
      <use xlink:href="#DejaVuSans-69" transform="translate(75.195312 0)"/>
      <use xlink:href="#DejaVuSans-67" transform="translate(102.978516 0)"/>
      <use xlink:href="#DejaVuSans-68" transform="translate(166.455078 0)"/>
      <use xlink:href="#DejaVuSans-2d" transform="translate(229.833984 0)"/>
      <use xlink:href="#DejaVuSans-73" transform="translate(265.917969 0)"/>
      <use xlink:href="#DejaVuSans-70" transform="translate(318.017578 0)"/>
      <use xlink:href="#DejaVuSans-69" transform="translate(381.494141 0)"/>
      <use xlink:href="#DejaVuSans-6e" transform="translate(409.277344 0)"/>
      <use xlink:href="#DejaVuSans-20" transform="translate(472.65625 0)"/>
      <use xlink:href="#DejaVuSans-20" transform="translate(504.443359 0)"/>
      <use xlink:href="#DejaVuSans-74" transform="translate(536.230469 0)"/>
      <use xlink:href="#DejaVuSans-32" transform="translate(575.439453 0)"/>
      <use xlink:href="#DejaVuSans-67" transform="translate(639.0625 0)"/>
      <use xlink:href="#DejaVuSans-5e" transform="translate(702.539062 0)"/>
      <use xlink:href="#DejaVuSans-33" transform="translate(786.328125 0)"/>
      <use xlink:href="#DejaVuSans-20" transform="translate(849.951172 0)"/>
      <use xlink:href="#DejaVuSans-65" transform="translate(881.738281 0)"/>
      <use xlink:href="#DejaVuSans-67" transform="translate(943.261719 0)"/>
      <use xlink:href="#DejaVuSans-5e" transform="translate(1006.738281 0)"/>
      <use xlink:href="#DejaVuSans-32" transform="translate(1090.527344 0)"/>
     </g>
    </g>
    <g id="line2d_41">
     <path d="M 301.182813 70.976562 
L 311.182813 70.976562 
L 321.182813 70.976562 
" style="fill: none; stroke: #d62728; stroke-width: 1.5; stroke-linecap: square"/>
    </g>
    <g id="text_23">
     <!-- Low-spin  t2g^5 -->
     <g transform="translate(329.182813 74.476562) scale(0.1 -0.1)">
      <defs>
       <path id="DejaVuSans-4c" d="M 628 4666 
L 1259 4666 
L 1259 531 
L 3531 531 
L 3531 0 
L 628 0 
L 628 4666 
z
" transform="scale(0.015625)"/>
      </defs>
      <use xlink:href="#DejaVuSans-4c"/>
      <use xlink:href="#DejaVuSans-6f" transform="translate(53.962891 0)"/>
      <use xlink:href="#DejaVuSans-77" transform="translate(115.144531 0)"/>
      <use xlink:href="#DejaVuSans-2d" transform="translate(196.931641 0)"/>
      <use xlink:href="#DejaVuSans-73" transform="translate(233.015625 0)"/>
      <use xlink:href="#DejaVuSans-70" transform="translate(285.115234 0)"/>
      <use xlink:href="#DejaVuSans-69" transform="translate(348.591797 0)"/>
      <use xlink:href="#DejaVuSans-6e" transform="translate(376.375 0)"/>
      <use xlink:href="#DejaVuSans-20" transform="translate(439.753906 0)"/>
      <use xlink:href="#DejaVuSans-20" transform="translate(471.541016 0)"/>
      <use xlink:href="#DejaVuSans-74" transform="translate(503.328125 0)"/>
      <use xlink:href="#DejaVuSans-32" transform="translate(542.537109 0)"/>
      <use xlink:href="#DejaVuSans-67" transform="translate(606.160156 0)"/>
      <use xlink:href="#DejaVuSans-5e" transform="translate(669.636719 0)"/>
      <use xlink:href="#DejaVuSans-35" transform="translate(753.425781 0)"/>
     </g>
    </g>
    <g id="line2d_42">
     <path d="M 301.182813 85.654687 
L 311.182813 85.654687 
L 321.182813 85.654687 
" style="fill: none; stroke-dasharray: 4.44,1.92; stroke-dashoffset: 0; stroke: #000000; stroke-width: 1.2"/>
    </g>
    <g id="text_24">
     <!-- crossover  Delta_o = P -->
     <g transform="translate(329.182813 89.154687) scale(0.1 -0.1)">
      <defs>
       <path id="DejaVuSans-3d" d="M 678 2906 
L 4684 2906 
L 4684 2381 
L 678 2381 
L 678 2906 
z
M 678 1631 
L 4684 1631 
L 4684 1100 
L 678 1100 
L 678 1631 
z
" transform="scale(0.015625)"/>
       <path id="DejaVuSans-50" d="M 1259 4147 
L 1259 2394 
L 2053 2394 
Q 2494 2394 2734 2622 
Q 2975 2850 2975 3272 
Q 2975 3691 2734 3919 
Q 2494 4147 2053 4147 
L 1259 4147 
z
M 628 4666 
L 2053 4666 
Q 2838 4666 3239 4311 
Q 3641 3956 3641 3272 
Q 3641 2581 3239 2228 
Q 2838 1875 2053 1875 
L 1259 1875 
L 1259 0 
L 628 0 
L 628 4666 
z
" transform="scale(0.015625)"/>
      </defs>
      <use xlink:href="#DejaVuSans-63"/>
      <use xlink:href="#DejaVuSans-72" transform="translate(54.980469 0)"/>
      <use xlink:href="#DejaVuSans-6f" transform="translate(93.84375 0)"/>
      <use xlink:href="#DejaVuSans-73" transform="translate(155.025391 0)"/>
      <use xlink:href="#DejaVuSans-73" transform="translate(207.125 0)"/>
      <use xlink:href="#DejaVuSans-6f" transform="translate(259.224609 0)"/>
      <use xlink:href="#DejaVuSans-76" transform="translate(320.40625 0)"/>
      <use xlink:href="#DejaVuSans-65" transform="translate(379.585938 0)"/>
      <use xlink:href="#DejaVuSans-72" transform="translate(441.109375 0)"/>
      <use xlink:href="#DejaVuSans-20" transform="translate(482.222656 0)"/>
      <use xlink:href="#DejaVuSans-20" transform="translate(514.009766 0)"/>
      <use xlink:href="#DejaVuSans-44" transform="translate(545.796875 0)"/>
      <use xlink:href="#DejaVuSans-65" transform="translate(622.798828 0)"/>
      <use xlink:href="#DejaVuSans-6c" transform="translate(684.322266 0)"/>
      <use xlink:href="#DejaVuSans-74" transform="translate(712.105469 0)"/>
      <use xlink:href="#DejaVuSans-61" transform="translate(751.314453 0)"/>
      <use xlink:href="#DejaVuSans-5f" transform="translate(812.59375 0)"/>
      <use xlink:href="#DejaVuSans-6f" transform="translate(862.59375 0)"/>
      <use xlink:href="#DejaVuSans-20" transform="translate(923.775391 0)"/>
      <use xlink:href="#DejaVuSans-3d" transform="translate(955.5625 0)"/>
      <use xlink:href="#DejaVuSans-20" transform="translate(1039.351562 0)"/>
      <use xlink:href="#DejaVuSans-50" transform="translate(1071.138672 0)"/>
     </g>
    </g>
   </g>
  </g>
 </g>
 <defs>
  <clipPath id="pdb243d6a42">
   <rect x="63" y="43.2" width="390.6" height="277.2"/>
  </clipPath>
 </defs>
</svg>
