<?xml version="1.0" encoding="utf-8" standalone="no"?>
<!DOCTYPE svg PUBLIC "-//W3C//DTD SVG 1.1//EN"
  "http://www.w3.org/Graphics/SVG/1.1/DTD/svg11.dtd">
<svg xmlns:xlink="http://www.w3.org/1999/xlink" width="518.4pt" height="576pt" viewBox="0 0 518.4 576" xmlns="http://www.w3.org/2000/svg" version="1.1">
 <metadata>
  <rdf:RDF xmlns:dc="http://purl.org/dc/elements/1.1/" xmlns:cc="http://creativecommons.org/ns#" xmlns:rdf="http://www.w3.org/1999/02/22-rdf-syntax-ns#">
   <cc:Work>
    <dc:type rdf:resource="http://purl.org/dc/dcmitype/StillImage"/>
    <dc:date>2026-09-01T22:26:59.331108</dc:date>
    <dc:format>image/svg+xml</dc:format>
    <dc:creator>
     <cc:Agent>
      <dc:title>Matplotlib v3.10.9, https://matplotlib.org/</dc:title>
     </cc:Agent>
    </dc:creator>
   </cc:Work>
  </rdf:RDF>
 </metadata>
 <defs>
  <style type="text/css">*{stroke-linejoin: round; stroke-linecap: butt}</style>
 </defs>
 <g id="figure_1">
  <g id="patch_1">
   <path d="M 0 576 
L 518.4 576 
L 518.4 0 
L 0 0 
z
" style="fill: #ffffff"/>
  </g>
  <g id="axes_1">
   <g id="patch_2">
    <path d="M 53.228 247.84 
L 507.6 247.84 
L 507.6 26.88 
L 53.228 26.88 
z
" style="fill: #ffffff"/>
   </g>
   <g id="matplotlib.axis_1">
    <g id="xtick_1">
     <g id="line2d_1">
      <path d="M 72.152965 247.84 
L 72.152965 26.88 
" clip-path="url(#p87eb44a2f5)" style="fill: none; stroke: #b0b0b0; stroke-opacity: 0.3; stroke-width: 0.8; stroke-linecap: square"/>
     </g>
     <g id="line2d_2">
      <defs>
       <path id="m14190c09ce" d="M 0 0 
L 0 3.5 
" style="stroke: #000000; stroke-width: 0.8"/>
      </defs>
      <g>
       <use xlink:href="#m14190c09ce" x="72.152965" y="247.84" style="stroke: #000000; stroke-width: 0.8"/>
      </g>
     </g>
     <g id="text_1">
      <!-- 0 -->
      <g transform="translate(68.971715 262.438437) scale(0.1 -0.1)">
       <defs>
        <path id="DejaVuSans-30" d="M 2034 4250 
Q 1547 4250 1301 3770 
Q 1056 3291 1056 2328 
Q 1056 1369 1301 889 
Q 1547 409 2034 409 
Q 2525 409 2770 889 
Q 3016 1369 3016 2328 
Q 3016 3291 2770 3770 
Q 2525 4250 2034 4250 
z
M 2034 4750 
Q 2819 4750 3233 4129 
Q 3647 3509 3647 2328 
Q 3647 1150 3233 529 
Q 2819 -91 2034 -91 
Q 1250 -91 836 529 
Q 422 1150 422 2328 
Q 422 3509 836 4129 
Q 1250 4750 2034 4750 
z
" transform="scale(0.015625)"/>
       </defs>
       <use xlink:href="#DejaVuSans-30"/>
      </g>
     </g>
    </g>
    <g id="xtick_2">
     <g id="line2d_3">
      <path d="M 141.285259 247.84 
L 141.285259 26.88 
" clip-path="url(#p87eb44a2f5)" style="fill: none; stroke: #b0b0b0; stroke-opacity: 0.3; stroke-width: 0.8; stroke-linecap: square"/>
     </g>
     <g id="line2d_4">
      <g>
       <use xlink:href="#m14190c09ce" x="141.285259" y="247.84" style="stroke: #000000; stroke-width: 0.8"/>
      </g>
     </g>
     <g id="text_2">
      <!-- 2 -->
      <g transform="translate(138.104009 262.438437) scale(0.1 -0.1)">
       <defs>
        <path id="DejaVuSans-32" d="M 1228 531 
L 3431 531 
L 3431 0 
L 469 0 
L 469 531 
Q 828 903 1448 1529 
Q 2069 2156 2228 2338 
Q 2531 2678 2651 2914 
Q 2772 3150 2772 3378 
Q 2772 3750 2511 3984 
Q 2250 4219 1831 4219 
Q 1534 4219 1204 4116 
Q 875 4013 500 3803 
L 500 4441 
Q 881 4594 1212 4672 
Q 1544 4750 1819 4750 
Q 2544 4750 2975 4387 
Q 3406 4025 3406 3419 
Q 3406 3131 3298 2873 
Q 3191 2616 2906 2266 
Q 2828 2175 2409 1742 
Q 1991 1309 1228 531 
z
" transform="scale(0.015625)"/>
       </defs>
       <use xlink:href="#DejaVuSans-32"/>
      </g>
     </g>
    </g>
    <g id="xtick_3">
     <g id="line2d_5">
      <path d="M 210.417553 247.84 
L 210.417553 26.88 
" clip-path="url(#p87eb44a2f5)" style="fill: none; stroke: #b0b0b0; stroke-opacity: 0.3; stroke-width: 0.8; stroke-linecap: square"/>
     </g>
     <g id="line2d_6">
      <g>
       <use xlink:href="#m14190c09ce" x="210.417553" y="247.84" style="stroke: #000000; stroke-width: 0.8"/>
      </g>
     </g>
     <g id="text_3">
      <!-- 4 -->
      <g transform="translate(207.236303 262.438437) scale(0.1 -0.1)">
       <defs>
        <path id="DejaVuSans-34" d="M 2419 4116 
L 825 1625 
L 2419 1625 
L 2419 4116 
z
M 2253 4666 
L 3047 4666 
L 3047 1625 
L 3713 1625 
L 3713 1100 
L 3047 1100 
L 3047 0 
L 2419 0 
L 2419 1100 
L 313 1100 
L 313 1709 
L 2253 4666 
z
" transform="scale(0.015625)"/>
       </defs>
       <use xlink:href="#DejaVuSans-34"/>
      </g>
     </g>
    </g>
    <g id="xtick_4">
     <g id="line2d_7">
      <path d="M 279.549846 247.84 
L 279.549846 26.88 
" clip-path="url(#p87eb44a2f5)" style="fill: none; stroke: #b0b0b0; stroke-opacity: 0.3; stroke-width: 0.8; stroke-linecap: square"/>
     </g>
     <g id="line2d_8">
      <g>
       <use xlink:href="#m14190c09ce" x="279.549846" y="247.84" style="stroke: #000000; stroke-width: 0.8"/>
      </g>
     </g>
     <g id="text_4">
      <!-- 6 -->
      <g transform="translate(276.368596 262.438437) scale(0.1 -0.1)">
       <defs>
        <path id="DejaVuSans-36" d="M 2113 2584 
Q 1688 2584 1439 2293 
Q 1191 2003 1191 1497 
Q 1191 994 1439 701 
Q 1688 409 2113 409 
Q 2538 409 2786 701 
Q 3034 994 3034 1497 
Q 3034 2003 2786 2293 
Q 2538 2584 2113 2584 
z
M 3366 4563 
L 3366 3988 
Q 3128 4100 2886 4159 
Q 2644 4219 2406 4219 
Q 1781 4219 1451 3797 
Q 1122 3375 1075 2522 
Q 1259 2794 1537 2939 
Q 1816 3084 2150 3084 
Q 2853 3084 3261 2657 
Q 3669 2231 3669 1497 
Q 3669 778 3244 343 
Q 2819 -91 2113 -91 
Q 1303 -91 875 529 
Q 447 1150 447 2328 
Q 447 3434 972 4092 
Q 1497 4750 2381 4750 
Q 2619 4750 2861 4703 
Q 3103 4656 3366 4563 
z
" transform="scale(0.015625)"/>
       </defs>
       <use xlink:href="#DejaVuSans-36"/>
      </g>
     </g>
    </g>
    <g id="xtick_5">
     <g id="line2d_9">
      <path d="M 348.68214 247.84 
L 348.68214 26.88 
" clip-path="url(#p87eb44a2f5)" style="fill: none; stroke: #b0b0b0; stroke-opacity: 0.3; stroke-width: 0.8; stroke-linecap: square"/>
     </g>
     <g id="line2d_10">
      <g>
       <use xlink:href="#m14190c09ce" x="348.68214" y="247.84" style="stroke: #000000; stroke-width: 0.8"/>
      </g>
     </g>
     <g id="text_5">
      <!-- 8 -->
      <g transform="translate(345.50089 262.438437) scale(0.1 -0.1)">
       <defs>
        <path id="DejaVuSans-38" d="M 2034 2216 
Q 1584 2216 1326 1975 
Q 1069 1734 1069 1313 
Q 1069 891 1326 650 
Q 1584 409 2034 409 
Q 2484 409 2743 651 
Q 3003 894 3003 1313 
Q 3003 1734 2745 1975 
Q 2488 2216 2034 2216 
z
M 1403 2484 
Q 997 2584 770 2862 
Q 544 3141 544 3541 
Q 544 4100 942 4425 
Q 1341 4750 2034 4750 
Q 2731 4750 3128 4425 
Q 3525 4100 3525 3541 
Q 3525 3141 3298 2862 
Q 3072 2584 2669 2484 
Q 3125 2378 3379 2068 
Q 3634 1759 3634 1313 
Q 3634 634 3220 271 
Q 2806 -91 2034 -91 
Q 1263 -91 848 271 
Q 434 634 434 1313 
Q 434 1759 690 2068 
Q 947 2378 1403 2484 
z
M 1172 3481 
Q 1172 3119 1398 2916 
Q 1625 2713 2034 2713 
Q 2441 2713 2670 2916 
Q 2900 3119 2900 3481 
Q 2900 3844 2670 4047 
Q 2441 4250 2034 4250 
Q 1625 4250 1398 4047 
Q 1172 3844 1172 3481 
z
" transform="scale(0.015625)"/>
       </defs>
       <use xlink:href="#DejaVuSans-38"/>
      </g>
     </g>
    </g>
    <g id="xtick_6">
     <g id="line2d_11">
      <path d="M 417.814434 247.84 
L 417.814434 26.88 
" clip-path="url(#p87eb44a2f5)" style="fill: none; stroke: #b0b0b0; stroke-opacity: 0.3; stroke-width: 0.8; stroke-linecap: square"/>
     </g>
     <g id="line2d_12">
      <g>
       <use xlink:href="#m14190c09ce" x="417.814434" y="247.84" style="stroke: #000000; stroke-width: 0.8"/>
      </g>
     </g>
     <g id="text_6">
      <!-- 10 -->
      <g transform="translate(411.451934 262.438437) scale(0.1 -0.1)">
       <defs>
        <path id="DejaVuSans-31" d="M 794 531 
L 1825 531 
L 1825 4091 
L 703 3866 
L 703 4441 
L 1819 4666 
L 2450 4666 
L 2450 531 
L 3481 531 
L 3481 0 
L 794 0 
L 794 531 
z
" transform="scale(0.015625)"/>
       </defs>
       <use xlink:href="#DejaVuSans-31"/>
       <use xlink:href="#DejaVuSans-30" transform="translate(63.623047 0)"/>
      </g>
     </g>
    </g>
    <g id="xtick_7">
     <g id="line2d_13">
      <path d="M 486.946727 247.84 
L 486.946727 26.88 
" clip-path="url(#p87eb44a2f5)" style="fill: none; stroke: #b0b0b0; stroke-opacity: 0.3; stroke-width: 0.8; stroke-linecap: square"/>
     </g>
     <g id="line2d_14">
      <g>
       <use xlink:href="#m14190c09ce" x="486.946727" y="247.84" style="stroke: #000000; stroke-width: 0.8"/>
      </g>
     </g>
     <g id="text_7">
      <!-- 12 -->
      <g transform="translate(480.584227 262.438437) scale(0.1 -0.1)">
       <use xlink:href="#DejaVuSans-31"/>
       <use xlink:href="#DejaVuSans-32" transform="translate(63.623047 0)"/>
      </g>
     </g>
    </g>
    <g id="text_8">
     <!-- Photon energy $\hbar\omega$ (eV) -->
     <g transform="translate(222.614 276.118125) scale(0.1 -0.1)">
      <defs>
       <path id="DejaVuSans-50" d="M 1259 4147 
L 1259 2394 
L 2053 2394 
Q 2494 2394 2734 2622 
Q 2975 2850 2975 3272 
Q 2975 3691 2734 3919 
Q 2494 4147 2053 4147 
L 1259 4147 
z
M 628 4666 
L 2053 4666 
Q 2838 4666 3239 4311 
Q 3641 3956 3641 3272 
Q 3641 2581 3239 2228 
Q 2838 1875 2053 1875 
L 1259 1875 
L 1259 0 
L 628 0 
L 628 4666 
z
" transform="scale(0.015625)"/>
       <path id="DejaVuSans-68" d="M 3513 2113 
L 3513 0 
L 2938 0 
L 2938 2094 
Q 2938 2591 2744 2837 
Q 2550 3084 2163 3084 
Q 1697 3084 1428 2787 
Q 1159 2491 1159 1978 
L 1159 0 
L 581 0 
L 581 4863 
L 1159 4863 
L 1159 2956 
Q 1366 3272 1645 3428 
Q 1925 3584 2291 3584 
Q 2894 3584 3203 3211 
Q 3513 2838 3513 2113 
z
" transform="scale(0.015625)"/>
       <path id="DejaVuSans-6f" d="M 1959 3097 
Q 1497 3097 1228 2736 
Q 959 2375 959 1747 
Q 959 1119 1226 758 
Q 1494 397 1959 397 
Q 2419 397 2687 759 
Q 2956 1122 2956 1747 
Q 2956 2369 2687 2733 
Q 2419 3097 1959 3097 
z
M 1959 3584 
Q 2709 3584 3137 3096 
Q 3566 2609 3566 1747 
Q 3566 888 3137 398 
Q 2709 -91 1959 -91 
Q 1206 -91 779 398 
Q 353 888 353 1747 
Q 353 2609 779 3096 
Q 1206 3584 1959 3584 
z
" transform="scale(0.015625)"/>
       <path id="DejaVuSans-74" d="M 1172 4494 
L 1172 3500 
L 2356 3500 
L 2356 3053 
L 1172 3053 
L 1172 1153 
Q 1172 725 1289 603 
Q 1406 481 1766 481 
L 2356 481 
L 2356 0 
L 1766 0 
Q 1100 0 847 248 
Q 594 497 594 1153 
L 594 3053 
L 172 3053 
L 172 3500 
L 594 3500 
L 594 4494 
L 1172 4494 
z
" transform="scale(0.015625)"/>
       <path id="DejaVuSans-6e" d="M 3513 2113 
L 3513 0 
L 2938 0 
L 2938 2094 
Q 2938 2591 2744 2837 
Q 2550 3084 2163 3084 
Q 1697 3084 1428 2787 
Q 1159 2491 1159 1978 
L 1159 0 
L 581 0 
L 581 3500 
L 1159 3500 
L 1159 2956 
Q 1366 3272 1645 3428 
Q 1925 3584 2291 3584 
Q 2894 3584 3203 3211 
Q 3513 2838 3513 2113 
z
" transform="scale(0.015625)"/>
       <path id="DejaVuSans-20" transform="scale(0.015625)"/>
       <path id="DejaVuSans-65" d="M 3597 1894 
L 3597 1613 
L 953 1613 
Q 991 1019 1311 708 
Q 1631 397 2203 397 
Q 2534 397 2845 478 
Q 3156 559 3463 722 
L 3463 178 
Q 3153 47 2828 -22 
Q 2503 -91 2169 -91 
Q 1331 -91 842 396 
Q 353 884 353 1716 
Q 353 2575 817 3079 
Q 1281 3584 2069 3584 
Q 2775 3584 3186 3129 
Q 3597 2675 3597 1894 
z
M 3022 2063 
Q 3016 2534 2758 2815 
Q 2500 3097 2075 3097 
Q 1594 3097 1305 2825 
Q 1016 2553 972 2059 
L 3022 2063 
z
" transform="scale(0.015625)"/>
       <path id="DejaVuSans-72" d="M 2631 2963 
Q 2534 3019 2420 3045 
Q 2306 3072 2169 3072 
Q 1681 3072 1420 2755 
Q 1159 2438 1159 1844 
L 1159 0 
L 581 0 
L 581 3500 
L 1159 3500 
L 1159 2956 
Q 1341 3275 1631 3429 
Q 1922 3584 2338 3584 
Q 2397 3584 2469 3576 
Q 2541 3569 2628 3553 
L 2631 2963 
z
" transform="scale(0.015625)"/>
       <path id="DejaVuSans-67" d="M 2906 1791 
Q 2906 2416 2648 2759 
Q 2391 3103 1925 3103 
Q 1463 3103 1205 2759 
Q 947 2416 947 1791 
Q 947 1169 1205 825 
Q 1463 481 1925 481 
Q 2391 481 2648 825 
Q 2906 1169 2906 1791 
z
M 3481 434 
Q 3481 -459 3084 -895 
Q 2688 -1331 1869 -1331 
Q 1566 -1331 1297 -1286 
Q 1028 -1241 775 -1147 
L 775 -588 
Q 1028 -725 1275 -790 
Q 1522 -856 1778 -856 
Q 2344 -856 2625 -561 
Q 2906 -266 2906 331 
L 2906 616 
Q 2728 306 2450 153 
Q 2172 0 1784 0 
Q 1141 0 747 490 
Q 353 981 353 1791 
Q 353 2603 747 3093 
Q 1141 3584 1784 3584 
Q 2172 3584 2450 3431 
Q 2728 3278 2906 2969 
L 2906 3500 
L 3481 3500 
L 3481 434 
z
" transform="scale(0.015625)"/>
       <path id="DejaVuSans-79" d="M 2059 -325 
Q 1816 -950 1584 -1140 
Q 1353 -1331 966 -1331 
L 506 -1331 
L 506 -850 
L 844 -850 
Q 1081 -850 1212 -737 
Q 1344 -625 1503 -206 
L 1606 56 
L 191 3500 
L 800 3500 
L 1894 763 
L 2988 3500 
L 3597 3500 
L 2059 -325 
z
" transform="scale(0.015625)"/>
       <path id="DejaVuSans-Oblique-127" d="M 3634 2113 
L 3225 0 
L 2650 0 
L 3056 2094 
Q 3094 2291 3094 2450 
Q 3094 2688 3006 2838 
Q 2863 3084 2475 3084 
Q 2009 3084 1681 2788 
Q 1356 2491 1256 1978 
L 872 0 
L 294 0 
L 1066 3969 
L 675 3969 
L 775 4481 
L 1166 4481 
L 1238 4863 
L 1816 4863 
L 1744 4481 
L 2844 4481 
L 2744 3969 
L 1644 3969 
L 1447 2956 
Q 1713 3272 2025 3428 
Q 2331 3584 2700 3584 
Q 3300 3584 3538 3213 
Q 3688 2975 3688 2606 
Q 3688 2381 3634 2113 
z
" transform="scale(0.015625)"/>
       <path id="DejaVuSans-Oblique-3c9" d="M 1369 -91 
Q 72 -91 434 1766 
Q 575 2500 1256 3500 
L 1875 3500 
Q 1231 2500 1088 1750 
Q 819 397 1519 397 
Q 2166 397 2478 2078 
L 3009 2078 
Q 2669 388 3316 397 
Q 4013 403 4275 1750 
Q 4419 2500 4169 3500 
L 4788 3500 
Q 5075 2500 4934 1766 
Q 4578 -94 3278 -91 
Q 2428 -88 2503 844 
Q 2194 -91 1369 -91 
z
" transform="scale(0.015625)"/>
       <path id="DejaVuSans-28" d="M 1984 4856 
Q 1566 4138 1362 3434 
Q 1159 2731 1159 2009 
Q 1159 1288 1364 580 
Q 1569 -128 1984 -844 
L 1484 -844 
Q 1016 -109 783 600 
Q 550 1309 550 2009 
Q 550 2706 781 3412 
Q 1013 4119 1484 4856 
L 1984 4856 
z
" transform="scale(0.015625)"/>
       <path id="DejaVuSans-56" d="M 1831 0 
L 50 4666 
L 709 4666 
L 2188 738 
L 3669 4666 
L 4325 4666 
L 2547 0 
L 1831 0 
z
" transform="scale(0.015625)"/>
       <path id="DejaVuSans-29" d="M 513 4856 
L 1013 4856 
Q 1481 4119 1714 3412 
Q 1947 2706 1947 2009 
Q 1947 1309 1714 600 
Q 1481 -109 1013 -844 
L 513 -844 
Q 928 -128 1133 580 
Q 1338 1288 1338 2009 
Q 1338 2731 1133 3434 
Q 928 4138 513 4856 
z
" transform="scale(0.015625)"/>
      </defs>
      <use xlink:href="#DejaVuSans-50" transform="translate(0 0.015625)"/>
      <use xlink:href="#DejaVuSans-68" transform="translate(60.302734 0.015625)"/>
      <use xlink:href="#DejaVuSans-6f" transform="translate(123.681641 0.015625)"/>
      <use xlink:href="#DejaVuSans-74" transform="translate(184.863281 0.015625)"/>
      <use xlink:href="#DejaVuSans-6f" transform="translate(224.072266 0.015625)"/>
      <use xlink:href="#DejaVuSans-6e" transform="translate(285.253906 0.015625)"/>
      <use xlink:href="#DejaVuSans-20" transform="translate(348.632812 0.015625)"/>
      <use xlink:href="#DejaVuSans-65" transform="translate(380.419922 0.015625)"/>
      <use xlink:href="#DejaVuSans-6e" transform="translate(441.943359 0.015625)"/>
      <use xlink:href="#DejaVuSans-65" transform="translate(505.322266 0.015625)"/>
      <use xlink:href="#DejaVuSans-72" transform="translate(566.845703 0.015625)"/>
      <use xlink:href="#DejaVuSans-67" transform="translate(607.958984 0.015625)"/>
      <use xlink:href="#DejaVuSans-79" transform="translate(671.435547 0.015625)"/>
      <use xlink:href="#DejaVuSans-20" transform="translate(730.615234 0.015625)"/>
      <use xlink:href="#DejaVuSans-Oblique-127" transform="translate(762.402344 0.015625)"/>
      <use xlink:href="#DejaVuSans-Oblique-3c9" transform="translate(831.884766 0.015625)"/>
      <use xlink:href="#DejaVuSans-20" transform="translate(915.625 0.015625)"/>
      <use xlink:href="#DejaVuSans-28" transform="translate(947.412109 0.015625)"/>
      <use xlink:href="#DejaVuSans-65" transform="translate(986.425781 0.015625)"/>
      <use xlink:href="#DejaVuSans-56" transform="translate(1047.949219 0.015625)"/>
      <use xlink:href="#DejaVuSans-29" transform="translate(1116.357422 0.015625)"/>
     </g>
    </g>
   </g>
   <g id="matplotlib.axis_2">
    <g id="ytick_1">
     <g id="line2d_15">
      <path d="M 53.228 243.985951 
L 507.6 243.985951 
" clip-path="url(#p87eb44a2f5)" style="fill: none; stroke: #b0b0b0; stroke-opacity: 0.3; stroke-width: 0.8; stroke-linecap: square"/>
     </g>
     <g id="line2d_16">
      <defs>
       <path id="m10d8f46da9" d="M 0 0 
L -3.5 0 
" style="stroke: #000000; stroke-width: 0.8"/>
      </defs>
      <g>
       <use xlink:href="#m10d8f46da9" x="53.228" y="243.985951" style="stroke: #000000; stroke-width: 0.8"/>
      </g>
     </g>
     <g id="text_9">
      <!-- −10 -->
      <g transform="translate(25.123313 247.78517) scale(0.1 -0.1)">
       <defs>
        <path id="DejaVuSans-2212" d="M 678 2272 
L 4684 2272 
L 4684 1741 
L 678 1741 
L 678 2272 
z
" transform="scale(0.015625)"/>
       </defs>
       <use xlink:href="#DejaVuSans-2212"/>
       <use xlink:href="#DejaVuSans-31" transform="translate(83.789062 0)"/>
       <use xlink:href="#DejaVuSans-30" transform="translate(147.412109 0)"/>
      </g>
     </g>
    </g>
    <g id="ytick_2">
     <g id="line2d_17">
      <path d="M 53.228 210.962841 
L 507.6 210.962841 
" clip-path="url(#p87eb44a2f5)" style="fill: none; stroke: #b0b0b0; stroke-opacity: 0.3; stroke-width: 0.8; stroke-linecap: square"/>
     </g>
     <g id="line2d_18">
      <g>
       <use xlink:href="#m10d8f46da9" x="53.228" y="210.962841" style="stroke: #000000; stroke-width: 0.8"/>
      </g>
     </g>
     <g id="text_10">
      <!-- −5 -->
      <g transform="translate(31.485813 214.762059) scale(0.1 -0.1)">
       <defs>
        <path id="DejaVuSans-35" d="M 691 4666 
L 3169 4666 
L 3169 4134 
L 1269 4134 
L 1269 2991 
Q 1406 3038 1543 3061 
Q 1681 3084 1819 3084 
Q 2600 3084 3056 2656 
Q 3513 2228 3513 1497 
Q 3513 744 3044 326 
Q 2575 -91 1722 -91 
Q 1428 -91 1123 -41 
Q 819 9 494 109 
L 494 744 
Q 775 591 1075 516 
Q 1375 441 1709 441 
Q 2250 441 2565 725 
Q 2881 1009 2881 1497 
Q 2881 1984 2565 2268 
Q 2250 2553 1709 2553 
Q 1456 2553 1204 2497 
Q 953 2441 691 2322 
L 691 4666 
z
" transform="scale(0.015625)"/>
       </defs>
       <use xlink:href="#DejaVuSans-2212"/>
       <use xlink:href="#DejaVuSans-35" transform="translate(83.789062 0)"/>
      </g>
     </g>
    </g>
    <g id="ytick_3">
     <g id="line2d_19">
      <path d="M 53.228 177.93973 
L 507.6 177.93973 
" clip-path="url(#p87eb44a2f5)" style="fill: none; stroke: #b0b0b0; stroke-opacity: 0.3; stroke-width: 0.8; stroke-linecap: square"/>
     </g>
     <g id="line2d_20">
      <g>
       <use xlink:href="#m10d8f46da9" x="53.228" y="177.93973" style="stroke: #000000; stroke-width: 0.8"/>
      </g>
     </g>
     <g id="text_11">
      <!-- 0 -->
      <g transform="translate(39.8655 181.738948) scale(0.1 -0.1)">
       <use xlink:href="#DejaVuSans-30"/>
      </g>
     </g>
    </g>
    <g id="ytick_4">
     <g id="line2d_21">
      <path d="M 53.228 144.916619 
L 507.6 144.916619 
" clip-path="url(#p87eb44a2f5)" style="fill: none; stroke: #b0b0b0; stroke-opacity: 0.3; stroke-width: 0.8; stroke-linecap: square"/>
     </g>
     <g id="line2d_22">
      <g>
       <use xlink:href="#m10d8f46da9" x="53.228" y="144.916619" style="stroke: #000000; stroke-width: 0.8"/>
      </g>
     </g>
     <g id="text_12">
      <!-- 5 -->
      <g transform="translate(39.8655 148.715838) scale(0.1 -0.1)">
       <use xlink:href="#DejaVuSans-35"/>
      </g>
     </g>
    </g>
    <g id="ytick_5">
     <g id="line2d_23">
      <path d="M 53.228 111.893508 
L 507.6 111.893508 
" clip-path="url(#p87eb44a2f5)" style="fill: none; stroke: #b0b0b0; stroke-opacity: 0.3; stroke-width: 0.8; stroke-linecap: square"/>
     </g>
     <g id="line2d_24">
      <g>
       <use xlink:href="#m10d8f46da9" x="53.228" y="111.893508" style="stroke: #000000; stroke-width: 0.8"/>
      </g>
     </g>
     <g id="text_13">
      <!-- 10 -->
      <g transform="translate(33.503 115.692727) scale(0.1 -0.1)">
       <use xlink:href="#DejaVuSans-31"/>
       <use xlink:href="#DejaVuSans-30" transform="translate(63.623047 0)"/>
      </g>
     </g>
    </g>
    <g id="ytick_6">
     <g id="line2d_25">
      <path d="M 53.228 78.870397 
L 507.6 78.870397 
" clip-path="url(#p87eb44a2f5)" style="fill: none; stroke: #b0b0b0; stroke-opacity: 0.3; stroke-width: 0.8; stroke-linecap: square"/>
     </g>
     <g id="line2d_26">
      <g>
       <use xlink:href="#m10d8f46da9" x="53.228" y="78.870397" style="stroke: #000000; stroke-width: 0.8"/>
      </g>
     </g>
     <g id="text_14">
      <!-- 15 -->
      <g transform="translate(33.503 82.669616) scale(0.1 -0.1)">
       <use xlink:href="#DejaVuSans-31"/>
       <use xlink:href="#DejaVuSans-35" transform="translate(63.623047 0)"/>
      </g>
     </g>
    </g>
    <g id="ytick_7">
     <g id="line2d_27">
      <path d="M 53.228 45.847287 
L 507.6 45.847287 
" clip-path="url(#p87eb44a2f5)" style="fill: none; stroke: #b0b0b0; stroke-opacity: 0.3; stroke-width: 0.8; stroke-linecap: square"/>
     </g>
     <g id="line2d_28">
      <g>
       <use xlink:href="#m10d8f46da9" x="53.228" y="45.847287" style="stroke: #000000; stroke-width: 0.8"/>
      </g>
     </g>
     <g id="text_15">
      <!-- 20 -->
      <g transform="translate(33.503 49.646505) scale(0.1 -0.1)">
       <use xlink:href="#DejaVuSans-32"/>
       <use xlink:href="#DejaVuSans-30" transform="translate(63.623047 0)"/>
      </g>
     </g>
    </g>
    <g id="text_16">
     <!-- $\varepsilon_1,\ \varepsilon_2$ -->
     <g transform="translate(19.043625 151.71) rotate(-90) scale(0.1 -0.1)">
      <defs>
       <path id="DejaVuSans-Oblique-3b5" d="M 1263 1888 
Q 925 1963 778 2166 
Q 669 2309 669 2503 
Q 669 3034 1175 3344 
Q 1575 3588 2188 3588 
Q 2425 3588 2684 3550 
Q 2944 3513 3234 3438 
L 3134 2916 
Q 2847 3006 2606 3047 
Q 2359 3088 2138 3088 
Q 1766 3088 1522 2944 
Q 1228 2772 1228 2522 
Q 1228 2356 1381 2241 
Q 1563 2103 1925 2103 
L 2409 2103 
L 2319 1628 
L 1856 1628 
Q 1425 1628 1172 1469 
Q 828 1253 828 916 
Q 828 703 1013 563 
Q 1244 388 1716 388 
Q 2006 388 2284 444 
Q 2563 503 2806 619 
L 2700 84 
Q 2403 -3 2131 -47 
Q 1859 -91 1609 -91 
Q 866 -91 516 194 
Q 250 413 250 781 
Q 250 1278 600 1584 
Q 859 1813 1263 1888 
z
" transform="scale(0.015625)"/>
       <path id="DejaVuSans-2c" d="M 750 794 
L 1409 794 
L 1409 256 
L 897 -744 
L 494 -744 
L 750 256 
L 750 794 
z
" transform="scale(0.015625)"/>
      </defs>
      <use xlink:href="#DejaVuSans-Oblique-3b5" transform="translate(0 0.9375)"/>
      <use xlink:href="#DejaVuSans-31" transform="translate(54.052734 -15.46875) scale(0.7)"/>
      <use xlink:href="#DejaVuSans-2c" transform="translate(101.323242 0.9375)"/>
      <use xlink:href="#DejaVuSans-Oblique-3b5" transform="translate(185.063152 0.9375)"/>
      <use xlink:href="#DejaVuSans-32" transform="translate(239.115886 -15.46875) scale(0.7)"/>
     </g>
    </g>
   </g>
   <g id="line2d_29">
    <path d="M 73.881273 177.919436 
L 122.112435 177.242405 
L 143.47195 176.727882 
L 158.285807 176.161181 
L 169.310072 175.525241 
L 177.92278 174.809006 
L 184.812946 174.013411 
L 190.325079 173.160646 
L 194.803687 172.263206 
L 198.937786 171.206992 
L 202.38287 170.099212 
L 205.483444 168.865104 
L 208.239511 167.520584 
L 210.651069 166.097311 
L 212.718119 164.645337 
L 214.785168 162.925465 
L 216.50771 161.240113 
L 218.230251 159.273722 
L 219.952793 156.964596 
L 221.675334 154.234889 
L 223.053368 151.682972 
L 224.431401 148.737275 
L 225.809434 145.323125 
L 227.187467 141.351361 
L 228.5655 136.716928 
L 229.943534 131.298897 
L 231.321567 124.963689 
L 232.6996 117.574578 
L 234.077633 109.012549 
L 235.455667 99.215841 
L 237.178208 85.347638 
L 241.656816 47.922006 
L 242.690341 41.890332 
L 243.379357 39.075987 
L 244.068374 37.391821 
L 244.412882 37.002691 
L 244.757391 36.923636 
L 245.101899 37.155698 
L 245.446407 37.695814 
L 246.135424 39.668201 
L 246.824441 42.741213 
L 247.513457 46.767975 
L 248.546982 54.203789 
L 250.269524 68.755597 
L 253.370098 95.201011 
L 255.09264 107.825977 
L 256.470673 116.540575 
L 257.848706 124.070188 
L 259.226739 130.529251 
L 260.604773 136.053708 
L 261.982806 140.77824 
L 263.360839 144.825646 
L 264.738872 148.303037 
L 266.461414 151.985569 
L 268.183955 155.064885 
L 269.906497 157.657034 
L 271.629038 159.853787 
L 273.35158 161.727739 
L 275.41863 163.630631 
L 277.485679 165.22883 
L 279.897238 166.787207 
L 282.308796 168.083781 
L 285.064862 169.313884 
L 288.165437 170.447767 
L 291.61052 171.469659 
L 295.744619 172.447604 
L 300.567736 173.337469 
L 306.079869 174.117925 
L 312.625526 174.816361 
L 320.893726 175.460045 
L 331.228975 176.023864 
L 344.32029 176.504211 
L 361.890214 176.914601 
L 386.694811 177.255151 
L 423.901708 177.523993 
L 485.568694 177.72285 
L 486.946727 177.725599 
L 486.946727 177.725599 
" clip-path="url(#p87eb44a2f5)" style="fill: none; stroke: #1f4e79; stroke-width: 2; stroke-linecap: square"/>
   </g>
   <g id="line2d_30">
    <path d="M 73.881273 154.425608 
L 88.006113 154.285911 
L 101.441937 153.934972 
L 114.188744 153.381471 
L 125.902026 152.648817 
L 136.237275 151.784151 
L 145.539 150.78776 
L 153.807199 149.684128 
L 161.041873 148.507113 
L 167.587531 147.229556 
L 173.444172 145.873566 
L 178.956305 144.369545 
L 183.779421 142.830246 
L 188.258029 141.172107 
L 192.392129 139.403542 
L 196.18172 137.539424 
L 199.626803 135.602567 
L 202.727378 133.624932 
L 205.827953 131.385003 
L 208.584019 129.13641 
L 211.340085 126.606146 
L 214.096152 123.751998 
L 216.50771 120.954275 
L 218.919268 117.848055 
L 221.675334 113.900678 
L 224.431401 109.552198 
L 230.977059 98.990203 
L 232.010584 97.743152 
L 233.044108 96.833094 
L 233.733125 96.482436 
L 234.422142 96.395482 
L 235.111158 96.631673 
L 235.800175 97.258589 
L 236.489191 98.351471 
L 237.178208 99.991814 
L 237.867225 102.264737 
L 238.556241 105.254751 
L 239.245258 109.039686 
L 240.278783 116.339424 
L 241.312308 125.66452 
L 242.345833 136.917679 
L 243.723866 154.281869 
L 247.168949 199.248897 
L 248.546982 213.423765 
L 249.580507 221.737863 
L 250.614032 228.056225 
L 251.303048 231.239872 
L 251.992065 233.685749 
L 252.681082 235.477326 
L 253.370098 236.700038 
L 254.059115 237.436605 
L 254.748131 237.764023 
L 255.437148 237.751889 
L 256.126165 237.461712 
L 256.815181 236.946896 
L 257.848706 235.851543 
L 259.226739 233.974738 
L 261.293789 230.680875 
L 267.494939 220.519545 
L 270.251005 216.535835 
L 273.007071 212.974631 
L 275.763138 209.812759 
L 278.519204 207.009525 
L 281.275271 204.520898 
L 284.375845 202.04572 
L 287.47642 199.864127 
L 290.921503 197.730852 
L 294.366586 195.855215 
L 298.156178 194.040916 
L 302.290277 192.309395 
L 306.768885 190.674606 
L 311.592001 189.144332 
L 317.104134 187.633621 
L 323.305284 186.178855 
L 330.19545 184.804571 
L 337.774632 183.525321 
L 346.38734 182.302998 
L 356.033572 181.160652 
L 367.057838 180.07993 
L 379.804645 179.056611 
L 394.618502 178.094539 
L 412.188426 177.185028 
L 432.858924 176.34564 
L 457.663522 175.568997 
L 486.946727 174.874217 
L 486.946727 174.874217 
" clip-path="url(#p87eb44a2f5)" style="fill: none; stroke: #c00000; stroke-width: 1.8; stroke-linecap: square"/>
   </g>
   <g id="line2d_31">
    <path d="M 73.881273 154.427104 
L 88.006113 154.287438 
L 101.441937 153.936566 
L 114.188744 153.383176 
L 125.902026 152.650688 
L 136.237275 151.786235 
L 145.539 150.790126 
L 153.807199 149.686851 
L 161.041873 148.510276 
L 167.587531 147.233254 
L 173.444172 145.877917 
L 178.956305 144.374731 
L 183.779421 142.836418 
L 188.258029 141.1795 
L 192.392129 139.412438 
L 196.18172 137.550143 
L 199.626803 135.615438 
L 202.727378 133.640322 
L 205.827953 131.403678 
L 208.584019 129.158891 
L 211.340085 126.633587 
L 214.096152 123.786004 
L 216.50771 120.995854 
L 218.919268 117.899575 
L 221.675334 113.967632 
L 224.431401 109.64081 
L 230.63255 99.636034 
L 232.010584 97.947085 
L 233.044108 97.060976 
L 233.733125 96.727118 
L 234.422142 96.657332 
L 235.111158 96.910664 
L 235.800175 97.554151 
L 236.489191 98.662301 
L 237.178208 100.31568 
L 237.867225 102.59826 
L 238.556241 105.593216 
L 239.245258 109.376901 
L 240.278783 116.659901 
L 241.312308 125.946728 
L 242.345833 137.138266 
L 244.068374 158.970548 
L 246.824441 195.029941 
L 248.202474 209.939178 
L 249.235999 218.894415 
L 250.269524 225.84984 
L 251.303048 230.926894 
L 251.992065 233.380118 
L 252.681082 235.182803 
L 253.370098 236.419192 
L 254.059115 237.17102 
L 254.748131 237.514508 
L 255.437148 237.518658 
L 256.126165 237.244549 
L 256.815181 236.745282 
L 257.848706 235.671871 
L 259.226739 233.82126 
L 261.293789 230.559935 
L 267.494939 220.458365 
L 270.251005 216.489531 
L 273.007071 212.939029 
L 275.763138 209.784977 
L 278.519204 206.987548 
L 281.275271 204.503302 
L 284.375845 202.03184 
L 287.47642 199.853047 
L 290.921503 197.722124 
L 294.366586 195.848268 
L 298.156178 194.035459 
L 302.290277 192.305173 
L 306.768885 190.671396 
L 311.592001 189.141937 
L 317.104134 187.631914 
L 323.305284 186.17771 
L 330.19545 184.803875 
L 337.774632 183.524981 
L 346.38734 182.302947 
L 356.033572 181.160827 
L 367.057838 180.080283 
L 379.804645 179.057106 
L 394.618502 178.095143 
L 412.188426 177.185717 
L 432.858924 176.346394 
L 457.663522 175.569802 
L 486.946727 174.875061 
L 486.946727 174.875061 
" clip-path="url(#p87eb44a2f5)" style="fill: none; stroke-dasharray: 4.44,1.92; stroke-dashoffset: 0; stroke: #2e7d32; stroke-width: 1.2"/>
   </g>
   <g id="line2d_32">
    <path d="M 244.9837 247.84 
L 244.9837 26.88 
" clip-path="url(#p87eb44a2f5)" style="fill: none; stroke-dasharray: 1,1.65; stroke-dashoffset: 0; stroke: #888888"/>
   </g>
   <g id="patch_3">
    <path d="M 53.228 247.84 
L 53.228 26.88 
" style="fill: none; stroke: #000000; stroke-width: 0.8; stroke-linejoin: miter; stroke-linecap: square"/>
   </g>
   <g id="patch_4">
    <path d="M 507.6 247.84 
L 507.6 26.88 
" style="fill: none; stroke: #000000; stroke-width: 0.8; stroke-linejoin: miter; stroke-linecap: square"/>
   </g>
   <g id="patch_5">
    <path d="M 53.228 247.84 
L 507.6 247.84 
" style="fill: none; stroke: #000000; stroke-width: 0.8; stroke-linejoin: miter; stroke-linecap: square"/>
   </g>
   <g id="patch_6">
    <path d="M 53.228 26.88 
L 507.6 26.88 
" style="fill: none; stroke: #000000; stroke-width: 0.8; stroke-linejoin: miter; stroke-linecap: square"/>
   </g>
   <g id="text_17">
    <!-- Fig 2a. Kramers–Kronig inversion validated on a Lorentz oscillator -->
    <g transform="translate(83.8465 20.88) scale(0.12 -0.12)">
     <defs>
      <path id="DejaVuSans-46" d="M 628 4666 
L 3309 4666 
L 3309 4134 
L 1259 4134 
L 1259 2759 
L 3109 2759 
L 3109 2228 
L 1259 2228 
L 1259 0 
L 628 0 
L 628 4666 
z
" transform="scale(0.015625)"/>
      <path id="DejaVuSans-69" d="M 603 3500 
L 1178 3500 
L 1178 0 
L 603 0 
L 603 3500 
z
M 603 4863 
L 1178 4863 
L 1178 4134 
L 603 4134 
L 603 4863 
z
" transform="scale(0.015625)"/>
      <path id="DejaVuSans-61" d="M 2194 1759 
Q 1497 1759 1228 1600 
Q 959 1441 959 1056 
Q 959 750 1161 570 
Q 1363 391 1709 391 
Q 2188 391 2477 730 
Q 2766 1069 2766 1631 
L 2766 1759 
L 2194 1759 
z
M 3341 1997 
L 3341 0 
L 2766 0 
L 2766 531 
Q 2569 213 2275 61 
Q 1981 -91 1556 -91 
Q 1019 -91 701 211 
Q 384 513 384 1019 
Q 384 1609 779 1909 
Q 1175 2209 1959 2209 
L 2766 2209 
L 2766 2266 
Q 2766 2663 2505 2880 
Q 2244 3097 1772 3097 
Q 1472 3097 1187 3025 
Q 903 2953 641 2809 
L 641 3341 
Q 956 3463 1253 3523 
Q 1550 3584 1831 3584 
Q 2591 3584 2966 3190 
Q 3341 2797 3341 1997 
z
" transform="scale(0.015625)"/>
      <path id="DejaVuSans-2e" d="M 684 794 
L 1344 794 
L 1344 0 
L 684 0 
L 684 794 
z
" transform="scale(0.015625)"/>
      <path id="DejaVuSans-4b" d="M 628 4666 
L 1259 4666 
L 1259 2694 
L 3353 4666 
L 4166 4666 
L 1850 2491 
L 4331 0 
L 3500 0 
L 1259 2247 
L 1259 0 
L 628 0 
L 628 4666 
z
" transform="scale(0.015625)"/>
      <path id="DejaVuSans-6d" d="M 3328 2828 
Q 3544 3216 3844 3400 
Q 4144 3584 4550 3584 
Q 5097 3584 5394 3201 
Q 5691 2819 5691 2113 
L 5691 0 
L 5113 0 
L 5113 2094 
Q 5113 2597 4934 2840 
Q 4756 3084 4391 3084 
Q 3944 3084 3684 2787 
Q 3425 2491 3425 1978 
L 3425 0 
L 2847 0 
L 2847 2094 
Q 2847 2600 2669 2842 
Q 2491 3084 2119 3084 
Q 1678 3084 1418 2786 
Q 1159 2488 1159 1978 
L 1159 0 
L 581 0 
L 581 3500 
L 1159 3500 
L 1159 2956 
Q 1356 3278 1631 3431 
Q 1906 3584 2284 3584 
Q 2666 3584 2933 3390 
Q 3200 3197 3328 2828 
z
" transform="scale(0.015625)"/>
      <path id="DejaVuSans-73" d="M 2834 3397 
L 2834 2853 
Q 2591 2978 2328 3040 
Q 2066 3103 1784 3103 
Q 1356 3103 1142 2972 
Q 928 2841 928 2578 
Q 928 2378 1081 2264 
Q 1234 2150 1697 2047 
L 1894 2003 
Q 2506 1872 2764 1633 
Q 3022 1394 3022 966 
Q 3022 478 2636 193 
Q 2250 -91 1575 -91 
Q 1294 -91 989 -36 
Q 684 19 347 128 
L 347 722 
Q 666 556 975 473 
Q 1284 391 1588 391 
Q 1994 391 2212 530 
Q 2431 669 2431 922 
Q 2431 1156 2273 1281 
Q 2116 1406 1581 1522 
L 1381 1569 
Q 847 1681 609 1914 
Q 372 2147 372 2553 
Q 372 3047 722 3315 
Q 1072 3584 1716 3584 
Q 2034 3584 2315 3537 
Q 2597 3491 2834 3397 
z
" transform="scale(0.015625)"/>
      <path id="DejaVuSans-2013" d="M 313 1978 
L 2888 1978 
L 2888 1528 
L 313 1528 
L 313 1978 
z
" transform="scale(0.015625)"/>
      <path id="DejaVuSans-76" d="M 191 3500 
L 800 3500 
L 1894 563 
L 2988 3500 
L 3597 3500 
L 2284 0 
L 1503 0 
L 191 3500 
z
" transform="scale(0.015625)"/>
      <path id="DejaVuSans-6c" d="M 603 4863 
L 1178 4863 
L 1178 0 
L 603 0 
L 603 4863 
z
" transform="scale(0.015625)"/>
      <path id="DejaVuSans-64" d="M 2906 2969 
L 2906 4863 
L 3481 4863 
L 3481 0 
L 2906 0 
L 2906 525 
Q 2725 213 2448 61 
Q 2172 -91 1784 -91 
Q 1150 -91 751 415 
Q 353 922 353 1747 
Q 353 2572 751 3078 
Q 1150 3584 1784 3584 
Q 2172 3584 2448 3432 
Q 2725 3281 2906 2969 
z
M 947 1747 
Q 947 1113 1208 752 
Q 1469 391 1925 391 
Q 2381 391 2643 752 
Q 2906 1113 2906 1747 
Q 2906 2381 2643 2742 
Q 2381 3103 1925 3103 
Q 1469 3103 1208 2742 
Q 947 2381 947 1747 
z
" transform="scale(0.015625)"/>
      <path id="DejaVuSans-4c" d="M 628 4666 
L 1259 4666 
L 1259 531 
L 3531 531 
L 3531 0 
L 628 0 
L 628 4666 
z
" transform="scale(0.015625)"/>
      <path id="DejaVuSans-7a" d="M 353 3500 
L 3084 3500 
L 3084 2975 
L 922 459 
L 3084 459 
L 3084 0 
L 275 0 
L 275 525 
L 2438 3041 
L 353 3041 
L 353 3500 
z
" transform="scale(0.015625)"/>
      <path id="DejaVuSans-63" d="M 3122 3366 
L 3122 2828 
Q 2878 2963 2633 3030 
Q 2388 3097 2138 3097 
Q 1578 3097 1268 2742 
Q 959 2388 959 1747 
Q 959 1106 1268 751 
Q 1578 397 2138 397 
Q 2388 397 2633 464 
Q 2878 531 3122 666 
L 3122 134 
Q 2881 22 2623 -34 
Q 2366 -91 2075 -91 
Q 1284 -91 818 406 
Q 353 903 353 1747 
Q 353 2603 823 3093 
Q 1294 3584 2113 3584 
Q 2378 3584 2631 3529 
Q 2884 3475 3122 3366 
z
" transform="scale(0.015625)"/>
     </defs>
     <use xlink:href="#DejaVuSans-46"/>
     <use xlink:href="#DejaVuSans-69" transform="translate(50.269531 0)"/>
     <use xlink:href="#DejaVuSans-67" transform="translate(78.052734 0)"/>
     <use xlink:href="#DejaVuSans-20" transform="translate(141.529297 0)"/>
     <use xlink:href="#DejaVuSans-32" transform="translate(173.316406 0)"/>
     <use xlink:href="#DejaVuSans-61" transform="translate(236.939453 0)"/>
     <use xlink:href="#DejaVuSans-2e" transform="translate(298.21875 0)"/>
     <use xlink:href="#DejaVuSans-20" transform="translate(330.005859 0)"/>
     <use xlink:href="#DejaVuSans-4b" transform="translate(361.792969 0)"/>
     <use xlink:href="#DejaVuSans-72" transform="translate(427.369141 0)"/>
     <use xlink:href="#DejaVuSans-61" transform="translate(468.482422 0)"/>
     <use xlink:href="#DejaVuSans-6d" transform="translate(529.761719 0)"/>
     <use xlink:href="#DejaVuSans-65" transform="translate(627.173828 0)"/>
     <use xlink:href="#DejaVuSans-72" transform="translate(688.697266 0)"/>
     <use xlink:href="#DejaVuSans-73" transform="translate(729.810547 0)"/>
     <use xlink:href="#DejaVuSans-2013" transform="translate(781.910156 0)"/>
     <use xlink:href="#DejaVuSans-4b" transform="translate(831.910156 0)"/>
     <use xlink:href="#DejaVuSans-72" transform="translate(897.486328 0)"/>
     <use xlink:href="#DejaVuSans-6f" transform="translate(936.349609 0)"/>
     <use xlink:href="#DejaVuSans-6e" transform="translate(997.53125 0)"/>
     <use xlink:href="#DejaVuSans-69" transform="translate(1060.910156 0)"/>
     <use xlink:href="#DejaVuSans-67" transform="translate(1088.693359 0)"/>
     <use xlink:href="#DejaVuSans-20" transform="translate(1152.169922 0)"/>
     <use xlink:href="#DejaVuSans-69" transform="translate(1183.957031 0)"/>
     <use xlink:href="#DejaVuSans-6e" transform="translate(1211.740234 0)"/>
     <use xlink:href="#DejaVuSans-76" transform="translate(1275.119141 0)"/>
     <use xlink:href="#DejaVuSans-65" transform="translate(1334.298828 0)"/>
     <use xlink:href="#DejaVuSans-72" transform="translate(1395.822266 0)"/>
     <use xlink:href="#DejaVuSans-73" transform="translate(1436.935547 0)"/>
     <use xlink:href="#DejaVuSans-69" transform="translate(1489.035156 0)"/>
     <use xlink:href="#DejaVuSans-6f" transform="translate(1516.818359 0)"/>
     <use xlink:href="#DejaVuSans-6e" transform="translate(1578 0)"/>
     <use xlink:href="#DejaVuSans-20" transform="translate(1641.378906 0)"/>
     <use xlink:href="#DejaVuSans-76" transform="translate(1673.166016 0)"/>
     <use xlink:href="#DejaVuSans-61" transform="translate(1732.345703 0)"/>
     <use xlink:href="#DejaVuSans-6c" transform="translate(1793.625 0)"/>
     <use xlink:href="#DejaVuSans-69" transform="translate(1821.408203 0)"/>
     <use xlink:href="#DejaVuSans-64" transform="translate(1849.191406 0)"/>
     <use xlink:href="#DejaVuSans-61" transform="translate(1912.667969 0)"/>
     <use xlink:href="#DejaVuSans-74" transform="translate(1973.947266 0)"/>
     <use xlink:href="#DejaVuSans-65" transform="translate(2013.15625 0)"/>
     <use xlink:href="#DejaVuSans-64" transform="translate(2074.679688 0)"/>
     <use xlink:href="#DejaVuSans-20" transform="translate(2138.15625 0)"/>
     <use xlink:href="#DejaVuSans-6f" transform="translate(2169.943359 0)"/>
     <use xlink:href="#DejaVuSans-6e" transform="translate(2231.125 0)"/>
     <use xlink:href="#DejaVuSans-20" transform="translate(2294.503906 0)"/>
     <use xlink:href="#DejaVuSans-61" transform="translate(2326.291016 0)"/>
     <use xlink:href="#DejaVuSans-20" transform="translate(2387.570312 0)"/>
     <use xlink:href="#DejaVuSans-4c" transform="translate(2419.357422 0)"/>
     <use xlink:href="#DejaVuSans-6f" transform="translate(2473.320312 0)"/>
     <use xlink:href="#DejaVuSans-72" transform="translate(2534.501953 0)"/>
     <use xlink:href="#DejaVuSans-65" transform="translate(2573.365234 0)"/>
     <use xlink:href="#DejaVuSans-6e" transform="translate(2634.888672 0)"/>
     <use xlink:href="#DejaVuSans-74" transform="translate(2698.267578 0)"/>
     <use xlink:href="#DejaVuSans-7a" transform="translate(2737.476562 0)"/>
     <use xlink:href="#DejaVuSans-20" transform="translate(2789.966797 0)"/>
     <use xlink:href="#DejaVuSans-6f" transform="translate(2821.753906 0)"/>
     <use xlink:href="#DejaVuSans-73" transform="translate(2882.935547 0)"/>
     <use xlink:href="#DejaVuSans-63" transform="translate(2935.035156 0)"/>
     <use xlink:href="#DejaVuSans-69" transform="translate(2990.015625 0)"/>
     <use xlink:href="#DejaVuSans-6c" transform="translate(3017.798828 0)"/>
     <use xlink:href="#DejaVuSans-6c" transform="translate(3045.582031 0)"/>
     <use xlink:href="#DejaVuSans-61" transform="translate(3073.365234 0)"/>
     <use xlink:href="#DejaVuSans-74" transform="translate(3134.644531 0)"/>
     <use xlink:href="#DejaVuSans-6f" transform="translate(3173.853516 0)"/>
     <use xlink:href="#DejaVuSans-72" transform="translate(3235.035156 0)"/>
    </g>
   </g>
   <g id="legend_1">
    <g id="patch_7">
     <path d="M 366.12 73.750313 
L 501.3 73.750313 
Q 503.1 73.750313 503.1 71.950313 
L 503.1 33.18 
Q 503.1 31.38 501.3 31.38 
L 366.12 31.38 
Q 364.32 31.38 364.32 33.18 
L 364.32 71.950313 
Q 364.32 73.750313 366.12 73.750313 
z
" style="fill: #ffffff; opacity: 0.8; stroke: #cccccc; stroke-linejoin: miter"/>
    </g>
    <g id="line2d_33">
     <path d="M 367.92 38.67 
L 376.92 38.67 
L 385.92 38.67 
" style="fill: none; stroke: #1f4e79; stroke-width: 2; stroke-linecap: square"/>
    </g>
    <g id="text_18">
     <!-- $\varepsilon_2(\omega)$ (input) -->
     <g transform="translate(393.12 41.82) scale(0.09 -0.09)">
      <defs>
       <path id="DejaVuSans-70" d="M 1159 525 
L 1159 -1331 
L 581 -1331 
L 581 3500 
L 1159 3500 
L 1159 2969 
Q 1341 3281 1617 3432 
Q 1894 3584 2278 3584 
Q 2916 3584 3314 3078 
Q 3713 2572 3713 1747 
Q 3713 922 3314 415 
Q 2916 -91 2278 -91 
Q 1894 -91 1617 61 
Q 1341 213 1159 525 
z
M 3116 1747 
Q 3116 2381 2855 2742 
Q 2594 3103 2138 3103 
Q 1681 3103 1420 2742 
Q 1159 2381 1159 1747 
Q 1159 1113 1420 752 
Q 1681 391 2138 391 
Q 2594 391 2855 752 
Q 3116 1113 3116 1747 
z
" transform="scale(0.015625)"/>
       <path id="DejaVuSans-75" d="M 544 1381 
L 544 3500 
L 1119 3500 
L 1119 1403 
Q 1119 906 1312 657 
Q 1506 409 1894 409 
Q 2359 409 2629 706 
Q 2900 1003 2900 1516 
L 2900 3500 
L 3475 3500 
L 3475 0 
L 2900 0 
L 2900 538 
Q 2691 219 2414 64 
Q 2138 -91 1772 -91 
Q 1169 -91 856 284 
Q 544 659 544 1381 
z
M 1991 3584 
L 1991 3584 
z
" transform="scale(0.015625)"/>
      </defs>
      <use xlink:href="#DejaVuSans-Oblique-3b5" transform="translate(0 0.015625)"/>
      <use xlink:href="#DejaVuSans-32" transform="translate(54.052734 -16.390625) scale(0.7)"/>
      <use xlink:href="#DejaVuSans-28" transform="translate(101.323242 0.015625)"/>
      <use xlink:href="#DejaVuSans-Oblique-3c9" transform="translate(140.336914 0.015625)"/>
      <use xlink:href="#DejaVuSans-29" transform="translate(224.077148 0.015625)"/>
      <use xlink:href="#DejaVuSans-20" transform="translate(263.09082 0.015625)"/>
      <use xlink:href="#DejaVuSans-28" transform="translate(294.87793 0.015625)"/>
      <use xlink:href="#DejaVuSans-69" transform="translate(333.891602 0.015625)"/>
      <use xlink:href="#DejaVuSans-6e" transform="translate(361.674805 0.015625)"/>
      <use xlink:href="#DejaVuSans-70" transform="translate(425.053711 0.015625)"/>
      <use xlink:href="#DejaVuSans-75" transform="translate(488.530273 0.015625)"/>
      <use xlink:href="#DejaVuSans-74" transform="translate(551.90918 0.015625)"/>
      <use xlink:href="#DejaVuSans-29" transform="translate(591.118164 0.015625)"/>
     </g>
    </g>
    <g id="line2d_34">
     <path d="M 367.92 51.9 
L 376.92 51.9 
L 385.92 51.9 
" style="fill: none; stroke: #c00000; stroke-width: 1.8; stroke-linecap: square"/>
    </g>
    <g id="text_19">
     <!-- $\varepsilon_1(\omega)$ analytic -->
     <g transform="translate(393.12 55.05) scale(0.09 -0.09)">
      <use xlink:href="#DejaVuSans-Oblique-3b5" transform="translate(0 0.015625)"/>
      <use xlink:href="#DejaVuSans-31" transform="translate(54.052734 -16.390625) scale(0.7)"/>
      <use xlink:href="#DejaVuSans-28" transform="translate(101.323242 0.015625)"/>
      <use xlink:href="#DejaVuSans-Oblique-3c9" transform="translate(140.336914 0.015625)"/>
      <use xlink:href="#DejaVuSans-29" transform="translate(224.077148 0.015625)"/>
      <use xlink:href="#DejaVuSans-20" transform="translate(263.09082 0.015625)"/>
      <use xlink:href="#DejaVuSans-61" transform="translate(294.87793 0.015625)"/>
      <use xlink:href="#DejaVuSans-6e" transform="translate(356.157227 0.015625)"/>
      <use xlink:href="#DejaVuSans-61" transform="translate(419.536133 0.015625)"/>
      <use xlink:href="#DejaVuSans-6c" transform="translate(480.81543 0.015625)"/>
      <use xlink:href="#DejaVuSans-79" transform="translate(508.598633 0.015625)"/>
      <use xlink:href="#DejaVuSans-74" transform="translate(567.77832 0.015625)"/>
      <use xlink:href="#DejaVuSans-69" transform="translate(606.987305 0.015625)"/>
      <use xlink:href="#DejaVuSans-63" transform="translate(634.770508 0.015625)"/>
     </g>
    </g>
    <g id="line2d_35">
     <path d="M 367.92 65.128594 
L 376.92 65.128594 
L 385.92 65.128594 
" style="fill: none; stroke-dasharray: 4.44,1.92; stroke-dashoffset: 0; stroke: #2e7d32; stroke-width: 1.2"/>
    </g>
    <g id="text_20">
     <!-- $\varepsilon_1(\omega)$ from KK inversion -->
     <g transform="translate(393.12 68.278594) scale(0.09 -0.09)">
      <defs>
       <path id="DejaVuSans-66" d="M 2375 4863 
L 2375 4384 
L 1825 4384 
Q 1516 4384 1395 4259 
Q 1275 4134 1275 3809 
L 1275 3500 
L 2222 3500 
L 2222 3053 
L 1275 3053 
L 1275 0 
L 697 0 
L 697 3053 
L 147 3053 
L 147 3500 
L 697 3500 
L 697 3744 
Q 697 4328 969 4595 
Q 1241 4863 1831 4863 
L 2375 4863 
z
" transform="scale(0.015625)"/>
      </defs>
      <use xlink:href="#DejaVuSans-Oblique-3b5" transform="translate(0 0.015625)"/>
      <use xlink:href="#DejaVuSans-31" transform="translate(54.052734 -16.390625) scale(0.7)"/>
      <use xlink:href="#DejaVuSans-28" transform="translate(101.323242 0.015625)"/>
      <use xlink:href="#DejaVuSans-Oblique-3c9" transform="translate(140.336914 0.015625)"/>
      <use xlink:href="#DejaVuSans-29" transform="translate(224.077148 0.015625)"/>
      <use xlink:href="#DejaVuSans-20" transform="translate(263.09082 0.015625)"/>
      <use xlink:href="#DejaVuSans-66" transform="translate(294.87793 0.015625)"/>
      <use xlink:href="#DejaVuSans-72" transform="translate(330.083008 0.015625)"/>
      <use xlink:href="#DejaVuSans-6f" transform="translate(371.196289 0.015625)"/>
      <use xlink:href="#DejaVuSans-6d" transform="translate(432.37793 0.015625)"/>
      <use xlink:href="#DejaVuSans-20" transform="translate(529.790039 0.015625)"/>
      <use xlink:href="#DejaVuSans-4b" transform="translate(561.577148 0.015625)"/>
      <use xlink:href="#DejaVuSans-4b" transform="translate(627.15332 0.015625)"/>
      <use xlink:href="#DejaVuSans-20" transform="translate(692.729492 0.015625)"/>
      <use xlink:href="#DejaVuSans-69" transform="translate(724.516602 0.015625)"/>
      <use xlink:href="#DejaVuSans-6e" transform="translate(752.299805 0.015625)"/>
      <use xlink:href="#DejaVuSans-76" transform="translate(815.678711 0.015625)"/>
      <use xlink:href="#DejaVuSans-65" transform="translate(874.858398 0.015625)"/>
      <use xlink:href="#DejaVuSans-72" transform="translate(936.381836 0.015625)"/>
      <use xlink:href="#DejaVuSans-73" transform="translate(977.495117 0.015625)"/>
      <use xlink:href="#DejaVuSans-69" transform="translate(1029.594727 0.015625)"/>
      <use xlink:href="#DejaVuSans-6f" transform="translate(1057.37793 0.015625)"/>
      <use xlink:href="#DejaVuSans-6e" transform="translate(1118.55957 0.015625)"/>
     </g>
    </g>
   </g>
  </g>
  <g id="axes_2">
   <g id="patch_8">
    <path d="M 53.228 531.16 
L 507.6 531.16 
L 507.6 310.2 
L 53.228 310.2 
z
" style="fill: #ffffff"/>
   </g>
   <g id="matplotlib.axis_3">
    <g id="xtick_8">
     <g id="line2d_36">
      <path d="M 72.152965 531.16 
L 72.152965 310.2 
" clip-path="url(#pe28dd4b748)" style="fill: none; stroke: #b0b0b0; stroke-opacity: 0.3; stroke-width: 0.8; stroke-linecap: square"/>
     </g>
     <g id="line2d_37">
      <g>
       <use xlink:href="#m14190c09ce" x="72.152965" y="531.16" style="stroke: #000000; stroke-width: 0.8"/>
      </g>
     </g>
     <g id="text_21">
      <!-- 0 -->
      <g transform="translate(68.971715 545.758438) scale(0.1 -0.1)">
       <use xlink:href="#DejaVuSans-30"/>
      </g>
     </g>
    </g>
    <g id="xtick_9">
     <g id="line2d_38">
      <path d="M 141.285259 531.16 
L 141.285259 310.2 
" clip-path="url(#pe28dd4b748)" style="fill: none; stroke: #b0b0b0; stroke-opacity: 0.3; stroke-width: 0.8; stroke-linecap: square"/>
     </g>
     <g id="line2d_39">
      <g>
       <use xlink:href="#m14190c09ce" x="141.285259" y="531.16" style="stroke: #000000; stroke-width: 0.8"/>
      </g>
     </g>
     <g id="text_22">
      <!-- 2 -->
      <g transform="translate(138.104009 545.758438) scale(0.1 -0.1)">
       <use xlink:href="#DejaVuSans-32"/>
      </g>
     </g>
    </g>
    <g id="xtick_10">
     <g id="line2d_40">
      <path d="M 210.417553 531.16 
L 210.417553 310.2 
" clip-path="url(#pe28dd4b748)" style="fill: none; stroke: #b0b0b0; stroke-opacity: 0.3; stroke-width: 0.8; stroke-linecap: square"/>
     </g>
     <g id="line2d_41">
      <g>
       <use xlink:href="#m14190c09ce" x="210.417553" y="531.16" style="stroke: #000000; stroke-width: 0.8"/>
      </g>
     </g>
     <g id="text_23">
      <!-- 4 -->
      <g transform="translate(207.236303 545.758438) scale(0.1 -0.1)">
       <use xlink:href="#DejaVuSans-34"/>
      </g>
     </g>
    </g>
    <g id="xtick_11">
     <g id="line2d_42">
      <path d="M 279.549846 531.16 
L 279.549846 310.2 
" clip-path="url(#pe28dd4b748)" style="fill: none; stroke: #b0b0b0; stroke-opacity: 0.3; stroke-width: 0.8; stroke-linecap: square"/>
     </g>
     <g id="line2d_43">
      <g>
       <use xlink:href="#m14190c09ce" x="279.549846" y="531.16" style="stroke: #000000; stroke-width: 0.8"/>
      </g>
     </g>
     <g id="text_24">
      <!-- 6 -->
      <g transform="translate(276.368596 545.758438) scale(0.1 -0.1)">
       <use xlink:href="#DejaVuSans-36"/>
      </g>
     </g>
    </g>
    <g id="xtick_12">
     <g id="line2d_44">
      <path d="M 348.68214 531.16 
L 348.68214 310.2 
" clip-path="url(#pe28dd4b748)" style="fill: none; stroke: #b0b0b0; stroke-opacity: 0.3; stroke-width: 0.8; stroke-linecap: square"/>
     </g>
     <g id="line2d_45">
      <g>
       <use xlink:href="#m14190c09ce" x="348.68214" y="531.16" style="stroke: #000000; stroke-width: 0.8"/>
      </g>
     </g>
     <g id="text_25">
      <!-- 8 -->
      <g transform="translate(345.50089 545.758438) scale(0.1 -0.1)">
       <use xlink:href="#DejaVuSans-38"/>
      </g>
     </g>
    </g>
    <g id="xtick_13">
     <g id="line2d_46">
      <path d="M 417.814434 531.16 
L 417.814434 310.2 
" clip-path="url(#pe28dd4b748)" style="fill: none; stroke: #b0b0b0; stroke-opacity: 0.3; stroke-width: 0.8; stroke-linecap: square"/>
     </g>
     <g id="line2d_47">
      <g>
       <use xlink:href="#m14190c09ce" x="417.814434" y="531.16" style="stroke: #000000; stroke-width: 0.8"/>
      </g>
     </g>
     <g id="text_26">
      <!-- 10 -->
      <g transform="translate(411.451934 545.758438) scale(0.1 -0.1)">
       <use xlink:href="#DejaVuSans-31"/>
       <use xlink:href="#DejaVuSans-30" transform="translate(63.623047 0)"/>
      </g>
     </g>
    </g>
    <g id="xtick_14">
     <g id="line2d_48">
      <path d="M 486.946727 531.16 
L 486.946727 310.2 
" clip-path="url(#pe28dd4b748)" style="fill: none; stroke: #b0b0b0; stroke-opacity: 0.3; stroke-width: 0.8; stroke-linecap: square"/>
     </g>
     <g id="line2d_49">
      <g>
       <use xlink:href="#m14190c09ce" x="486.946727" y="531.16" style="stroke: #000000; stroke-width: 0.8"/>
      </g>
     </g>
     <g id="text_27">
      <!-- 12 -->
      <g transform="translate(480.584227 545.758438) scale(0.1 -0.1)">
       <use xlink:href="#DejaVuSans-31"/>
       <use xlink:href="#DejaVuSans-32" transform="translate(63.623047 0)"/>
      </g>
     </g>
    </g>
    <g id="text_28">
     <!-- Photon energy $\hbar\omega$ (eV) -->
     <g transform="translate(222.614 559.438125) scale(0.1 -0.1)">
      <use xlink:href="#DejaVuSans-50" transform="translate(0 0.015625)"/>
      <use xlink:href="#DejaVuSans-68" transform="translate(60.302734 0.015625)"/>
      <use xlink:href="#DejaVuSans-6f" transform="translate(123.681641 0.015625)"/>
      <use xlink:href="#DejaVuSans-74" transform="translate(184.863281 0.015625)"/>
      <use xlink:href="#DejaVuSans-6f" transform="translate(224.072266 0.015625)"/>
      <use xlink:href="#DejaVuSans-6e" transform="translate(285.253906 0.015625)"/>
      <use xlink:href="#DejaVuSans-20" transform="translate(348.632812 0.015625)"/>
      <use xlink:href="#DejaVuSans-65" transform="translate(380.419922 0.015625)"/>
      <use xlink:href="#DejaVuSans-6e" transform="translate(441.943359 0.015625)"/>
      <use xlink:href="#DejaVuSans-65" transform="translate(505.322266 0.015625)"/>
      <use xlink:href="#DejaVuSans-72" transform="translate(566.845703 0.015625)"/>
      <use xlink:href="#DejaVuSans-67" transform="translate(607.958984 0.015625)"/>
      <use xlink:href="#DejaVuSans-79" transform="translate(671.435547 0.015625)"/>
      <use xlink:href="#DejaVuSans-20" transform="translate(730.615234 0.015625)"/>
      <use xlink:href="#DejaVuSans-Oblique-127" transform="translate(762.402344 0.015625)"/>
      <use xlink:href="#DejaVuSans-Oblique-3c9" transform="translate(831.884766 0.015625)"/>
      <use xlink:href="#DejaVuSans-20" transform="translate(915.625 0.015625)"/>
      <use xlink:href="#DejaVuSans-28" transform="translate(947.412109 0.015625)"/>
      <use xlink:href="#DejaVuSans-65" transform="translate(986.425781 0.015625)"/>
      <use xlink:href="#DejaVuSans-56" transform="translate(1047.949219 0.015625)"/>
      <use xlink:href="#DejaVuSans-29" transform="translate(1116.357422 0.015625)"/>
     </g>
    </g>
   </g>
   <g id="matplotlib.axis_4">
    <g id="ytick_8">
     <g id="line2d_50">
      <path d="M 53.228 521.158395 
L 507.6 521.158395 
" clip-path="url(#pe28dd4b748)" style="fill: none; stroke: #b0b0b0; stroke-opacity: 0.3; stroke-width: 0.8; stroke-linecap: square"/>
     </g>
     <g id="line2d_51">
      <g>
       <use xlink:href="#m10d8f46da9" x="53.228" y="521.158395" style="stroke: #000000; stroke-width: 0.8"/>
      </g>
     </g>
     <g id="text_29">
      <!-- 0.0 -->
      <g transform="translate(30.324875 524.957614) scale(0.1 -0.1)">
       <use xlink:href="#DejaVuSans-30"/>
       <use xlink:href="#DejaVuSans-2e" transform="translate(63.623047 0)"/>
       <use xlink:href="#DejaVuSans-30" transform="translate(95.410156 0)"/>
      </g>
     </g>
    </g>
    <g id="ytick_9">
     <g id="line2d_52">
      <path d="M 53.228 495.347208 
L 507.6 495.347208 
" clip-path="url(#pe28dd4b748)" style="fill: none; stroke: #b0b0b0; stroke-opacity: 0.3; stroke-width: 0.8; stroke-linecap: square"/>
     </g>
     <g id="line2d_53">
      <g>
       <use xlink:href="#m10d8f46da9" x="53.228" y="495.347208" style="stroke: #000000; stroke-width: 0.8"/>
      </g>
     </g>
     <g id="text_30">
      <!-- 0.5 -->
      <g transform="translate(30.324875 499.146427) scale(0.1 -0.1)">
       <use xlink:href="#DejaVuSans-30"/>
       <use xlink:href="#DejaVuSans-2e" transform="translate(63.623047 0)"/>
       <use xlink:href="#DejaVuSans-35" transform="translate(95.410156 0)"/>
      </g>
     </g>
    </g>
    <g id="ytick_10">
     <g id="line2d_54">
      <path d="M 53.228 469.536021 
L 507.6 469.536021 
" clip-path="url(#pe28dd4b748)" style="fill: none; stroke: #b0b0b0; stroke-opacity: 0.3; stroke-width: 0.8; stroke-linecap: square"/>
     </g>
     <g id="line2d_55">
      <g>
       <use xlink:href="#m10d8f46da9" x="53.228" y="469.536021" style="stroke: #000000; stroke-width: 0.8"/>
      </g>
     </g>
     <g id="text_31">
      <!-- 1.0 -->
      <g transform="translate(30.324875 473.335239) scale(0.1 -0.1)">
       <use xlink:href="#DejaVuSans-31"/>
       <use xlink:href="#DejaVuSans-2e" transform="translate(63.623047 0)"/>
       <use xlink:href="#DejaVuSans-30" transform="translate(95.410156 0)"/>
      </g>
     </g>
    </g>
    <g id="ytick_11">
     <g id="line2d_56">
      <path d="M 53.228 443.724833 
L 507.6 443.724833 
" clip-path="url(#pe28dd4b748)" style="fill: none; stroke: #b0b0b0; stroke-opacity: 0.3; stroke-width: 0.8; stroke-linecap: square"/>
     </g>
     <g id="line2d_57">
      <g>
       <use xlink:href="#m10d8f46da9" x="53.228" y="443.724833" style="stroke: #000000; stroke-width: 0.8"/>
      </g>
     </g>
     <g id="text_32">
      <!-- 1.5 -->
      <g transform="translate(30.324875 447.524052) scale(0.1 -0.1)">
       <use xlink:href="#DejaVuSans-31"/>
       <use xlink:href="#DejaVuSans-2e" transform="translate(63.623047 0)"/>
       <use xlink:href="#DejaVuSans-35" transform="translate(95.410156 0)"/>
      </g>
     </g>
    </g>
    <g id="ytick_12">
     <g id="line2d_58">
      <path d="M 53.228 417.913646 
L 507.6 417.913646 
" clip-path="url(#pe28dd4b748)" style="fill: none; stroke: #b0b0b0; stroke-opacity: 0.3; stroke-width: 0.8; stroke-linecap: square"/>
     </g>
     <g id="line2d_59">
      <g>
       <use xlink:href="#m10d8f46da9" x="53.228" y="417.913646" style="stroke: #000000; stroke-width: 0.8"/>
      </g>
     </g>
     <g id="text_33">
      <!-- 2.0 -->
      <g transform="translate(30.324875 421.712865) scale(0.1 -0.1)">
       <use xlink:href="#DejaVuSans-32"/>
       <use xlink:href="#DejaVuSans-2e" transform="translate(63.623047 0)"/>
       <use xlink:href="#DejaVuSans-30" transform="translate(95.410156 0)"/>
      </g>
     </g>
    </g>
    <g id="ytick_13">
     <g id="line2d_60">
      <path d="M 53.228 392.102459 
L 507.6 392.102459 
" clip-path="url(#pe28dd4b748)" style="fill: none; stroke: #b0b0b0; stroke-opacity: 0.3; stroke-width: 0.8; stroke-linecap: square"/>
     </g>
     <g id="line2d_61">
      <g>
       <use xlink:href="#m10d8f46da9" x="53.228" y="392.102459" style="stroke: #000000; stroke-width: 0.8"/>
      </g>
     </g>
     <g id="text_34">
      <!-- 2.5 -->
      <g transform="translate(30.324875 395.901678) scale(0.1 -0.1)">
       <use xlink:href="#DejaVuSans-32"/>
       <use xlink:href="#DejaVuSans-2e" transform="translate(63.623047 0)"/>
       <use xlink:href="#DejaVuSans-35" transform="translate(95.410156 0)"/>
      </g>
     </g>
    </g>
    <g id="ytick_14">
     <g id="line2d_62">
      <path d="M 53.228 366.291272 
L 507.6 366.291272 
" clip-path="url(#pe28dd4b748)" style="fill: none; stroke: #b0b0b0; stroke-opacity: 0.3; stroke-width: 0.8; stroke-linecap: square"/>
     </g>
     <g id="line2d_63">
      <g>
       <use xlink:href="#m10d8f46da9" x="53.228" y="366.291272" style="stroke: #000000; stroke-width: 0.8"/>
      </g>
     </g>
     <g id="text_35">
      <!-- 3.0 -->
      <g transform="translate(30.324875 370.090491) scale(0.1 -0.1)">
       <defs>
        <path id="DejaVuSans-33" d="M 2597 2516 
Q 3050 2419 3304 2112 
Q 3559 1806 3559 1356 
Q 3559 666 3084 287 
Q 2609 -91 1734 -91 
Q 1441 -91 1130 -33 
Q 819 25 488 141 
L 488 750 
Q 750 597 1062 519 
Q 1375 441 1716 441 
Q 2309 441 2620 675 
Q 2931 909 2931 1356 
Q 2931 1769 2642 2001 
Q 2353 2234 1838 2234 
L 1294 2234 
L 1294 2753 
L 1863 2753 
Q 2328 2753 2575 2939 
Q 2822 3125 2822 3475 
Q 2822 3834 2567 4026 
Q 2313 4219 1838 4219 
Q 1578 4219 1281 4162 
Q 984 4106 628 3988 
L 628 4550 
Q 988 4650 1302 4700 
Q 1616 4750 1894 4750 
Q 2613 4750 3031 4423 
Q 3450 4097 3450 3541 
Q 3450 3153 3228 2886 
Q 3006 2619 2597 2516 
z
" transform="scale(0.015625)"/>
       </defs>
       <use xlink:href="#DejaVuSans-33"/>
       <use xlink:href="#DejaVuSans-2e" transform="translate(63.623047 0)"/>
       <use xlink:href="#DejaVuSans-30" transform="translate(95.410156 0)"/>
      </g>
     </g>
    </g>
    <g id="ytick_15">
     <g id="line2d_64">
      <path d="M 53.228 340.480085 
L 507.6 340.480085 
" clip-path="url(#pe28dd4b748)" style="fill: none; stroke: #b0b0b0; stroke-opacity: 0.3; stroke-width: 0.8; stroke-linecap: square"/>
     </g>
     <g id="line2d_65">
      <g>
       <use xlink:href="#m10d8f46da9" x="53.228" y="340.480085" style="stroke: #000000; stroke-width: 0.8"/>
      </g>
     </g>
     <g id="text_36">
      <!-- 3.5 -->
      <g transform="translate(30.324875 344.279303) scale(0.1 -0.1)">
       <use xlink:href="#DejaVuSans-33"/>
       <use xlink:href="#DejaVuSans-2e" transform="translate(63.623047 0)"/>
       <use xlink:href="#DejaVuSans-35" transform="translate(95.410156 0)"/>
      </g>
     </g>
    </g>
    <g id="ytick_16">
     <g id="line2d_66">
      <path d="M 53.228 314.668897 
L 507.6 314.668897 
" clip-path="url(#pe28dd4b748)" style="fill: none; stroke: #b0b0b0; stroke-opacity: 0.3; stroke-width: 0.8; stroke-linecap: square"/>
     </g>
     <g id="line2d_67">
      <g>
       <use xlink:href="#m10d8f46da9" x="53.228" y="314.668897" style="stroke: #000000; stroke-width: 0.8"/>
      </g>
     </g>
     <g id="text_37">
      <!-- 4.0 -->
      <g transform="translate(30.324875 318.468116) scale(0.1 -0.1)">
       <use xlink:href="#DejaVuSans-34"/>
       <use xlink:href="#DejaVuSans-2e" transform="translate(63.623047 0)"/>
       <use xlink:href="#DejaVuSans-30" transform="translate(95.410156 0)"/>
      </g>
     </g>
    </g>
    <g id="text_38">
     <!-- $n$, $\kappa$ -->
     <g transform="translate(24.245188 429.98) rotate(-90) scale(0.1 -0.1)">
      <defs>
       <path id="DejaVuSans-Oblique-6e" d="M 3566 2113 
L 3156 0 
L 2578 0 
L 2988 2091 
Q 3016 2238 3031 2350 
Q 3047 2463 3047 2528 
Q 3047 2791 2881 2937 
Q 2716 3084 2419 3084 
Q 1956 3084 1622 2776 
Q 1288 2469 1184 1941 
L 800 0 
L 225 0 
L 903 3500 
L 1478 3500 
L 1363 2950 
Q 1603 3253 1940 3418 
Q 2278 3584 2650 3584 
Q 3113 3584 3367 3334 
Q 3622 3084 3622 2631 
Q 3622 2519 3608 2391 
Q 3594 2263 3566 2113 
z
" transform="scale(0.015625)"/>
       <path id="DejaVuSans-Oblique-3ba" d="M 938 3500 
L 1531 3500 
L 1247 2047 
L 3041 3500 
L 3741 3500 
L 2106 2181 
L 3275 0 
L 2572 0 
L 1628 1806 
L 1122 1403 
L 850 0 
L 256 0 
L 938 3500 
z
" transform="scale(0.015625)"/>
      </defs>
      <use xlink:href="#DejaVuSans-Oblique-6e"/>
      <use xlink:href="#DejaVuSans-2c" transform="translate(63.378906 0)"/>
      <use xlink:href="#DejaVuSans-20" transform="translate(95.166016 0)"/>
      <use xlink:href="#DejaVuSans-Oblique-3ba" transform="translate(126.953125 0)"/>
     </g>
    </g>
   </g>
   <g id="line2d_68">
    <path d="M 73.881273 423.754033 
L 83.527505 423.607077 
L 93.173738 423.239427 
L 102.475462 422.665352 
L 111.432678 421.892855 
L 120.045385 420.925959 
L 127.969076 419.818767 
L 135.548259 418.537852 
L 142.438425 417.157699 
L 148.984083 415.627079 
L 155.185232 413.948469 
L 161.041873 412.125382 
L 166.209498 410.293454 
L 171.032614 408.364095 
L 175.85573 406.188288 
L 180.334338 403.910764 
L 184.468438 401.552002 
L 188.258029 399.138371 
L 192.04762 396.445224 
L 195.492703 393.715446 
L 198.593278 390.993461 
L 201.693853 387.981861 
L 204.794428 384.636269 
L 207.550494 381.339419 
L 210.30656 377.693175 
L 213.062627 373.646921 
L 215.474185 369.733357 
L 217.885743 365.427945 
L 220.297301 360.688492 
L 222.708859 355.478304 
L 225.120417 349.778847 
L 227.876484 342.702575 
L 234.422142 325.458623 
L 235.800175 322.681211 
L 236.8337 321.164178 
L 237.522716 320.521134 
L 238.211733 320.243636 
L 238.556241 320.262391 
L 238.90075 320.397391 
L 239.589766 321.050034 
L 240.278783 322.267752 
L 240.967799 324.110844 
L 241.656816 326.6284 
L 242.345833 329.852603 
L 243.379357 336.028388 
L 244.412882 343.730378 
L 245.790916 355.977536 
L 247.857965 376.853507 
L 250.614032 404.669169 
L 252.336573 420.072496 
L 254.059115 433.397525 
L 255.437148 442.569155 
L 256.815181 450.52983 
L 258.193214 457.418704 
L 259.571248 463.379455 
L 260.949281 468.546451 
L 262.671822 474.069052 
L 264.394364 478.733298 
L 266.116905 482.698696 
L 267.839447 486.093 
L 269.561988 489.018111 
L 271.28453 491.55536 
L 273.35158 494.178835 
L 275.41863 496.425746 
L 277.485679 498.365101 
L 279.897238 500.310442 
L 282.308796 501.977089 
L 285.064862 503.605955 
L 288.165437 505.155825 
L 291.61052 506.599613 
L 295.400111 507.922056 
L 299.534211 509.11697 
L 304.012819 510.184567 
L 309.180443 511.189756 
L 315.037084 512.103689 
L 321.92725 512.946222 
L 329.850941 513.679602 
L 338.808157 514.275495 
L 348.45439 514.692422 
L 358.44513 514.898417 
L 367.402346 514.863989 
L 374.637021 514.627343 
L 380.493662 514.220831 
L 384.97227 513.699967 
L 388.761861 513.035644 
L 391.862436 512.270833 
L 394.618502 511.374532 
L 397.374569 510.255034 
L 400.819652 508.596948 
L 411.843917 503.071035 
L 416.667034 501.008215 
L 421.49015 499.183315 
L 427.002283 497.343933 
L 432.858924 495.625627 
L 439.404582 493.93783 
L 446.639256 492.302571 
L 454.907455 490.670971 
L 463.864671 489.132095 
L 473.855412 487.639998 
L 485.224186 486.171833 
L 486.946727 485.967532 
L 486.946727 485.967532 
" clip-path="url(#pe28dd4b748)" style="fill: none; stroke: #c00000; stroke-width: 1.8; stroke-linecap: square"/>
   </g>
   <g id="line2d_69">
    <path d="M 73.881273 423.757131 
L 83.527505 423.610209 
L 93.173738 423.242616 
L 102.475462 422.66863 
L 111.432678 421.896261 
L 120.045385 420.929538 
L 127.969076 419.822563 
L 135.548259 418.541915 
L 142.438425 417.162081 
L 148.984083 415.631854 
L 155.185232 413.953727 
L 161.041873 412.131227 
L 166.209498 410.299942 
L 171.032614 408.371341 
L 175.85573 406.196493 
L 180.334338 403.9201 
L 184.468438 401.56266 
L 188.258029 399.150552 
L 192.04762 396.459323 
L 195.492703 393.731745 
L 198.593278 391.012198 
L 201.693853 388.003631 
L 204.794428 384.661869 
L 207.550494 381.369311 
L 210.30656 377.728469 
L 213.062627 373.689094 
L 215.474185 369.783161 
L 217.885743 365.487368 
L 220.297301 360.760145 
L 222.708859 355.56561 
L 225.120417 349.88624 
L 227.876484 342.839768 
L 234.422142 325.695292 
L 235.800175 322.937259 
L 236.8337 321.430259 
L 237.522716 320.790456 
L 238.211733 320.512486 
L 238.556241 320.529344 
L 238.90075 320.661201 
L 239.589766 321.303435 
L 240.278783 322.504729 
L 240.967799 324.325025 
L 241.656816 326.813481 
L 242.345833 330.002876 
L 243.379357 336.118453 
L 244.412882 343.75615 
L 245.790916 355.92368 
L 247.857965 376.71971 
L 250.95854 407.751093 
L 252.681082 422.769766 
L 254.403623 435.695831 
L 255.781656 444.570465 
L 257.15969 452.265444 
L 258.537723 458.922552 
L 259.915756 464.684096 
L 261.293789 469.68123 
L 263.016331 475.026966 
L 264.738872 479.547006 
L 266.461414 483.39451 
L 268.183955 486.69198 
L 269.906497 489.537089 
L 271.629038 492.007821 
L 273.696088 494.565607 
L 275.763138 496.758972 
L 277.830188 498.654281 
L 280.241746 500.557602 
L 282.653304 502.190077 
L 285.40937 503.787268 
L 288.509945 505.308664 
L 291.955028 506.727453 
L 295.744619 508.028343 
L 299.878719 509.204916 
L 304.701835 510.329928 
L 309.86946 511.30745 
L 316.070609 512.243733 
L 322.960775 513.054226 
L 330.884466 513.759552 
L 339.841682 514.330521 
L 349.487915 514.724441 
L 359.134147 514.904015 
L 368.091363 514.85135 
L 375.326037 514.5924 
L 380.83817 514.189852 
L 385.316778 513.651445 
L 389.106369 512.964624 
L 392.206944 512.174517 
L 394.963011 511.251538 
L 397.719077 510.106256 
L 401.16416 508.427678 
L 411.499409 503.235289 
L 416.322525 501.154029 
L 421.145642 499.312967 
L 426.657774 497.458256 
L 432.514415 495.726724 
L 439.060073 494.026997 
L 446.294748 492.381148 
L 454.562947 490.739863 
L 463.520163 489.192603 
L 473.510903 487.693023 
L 484.879677 486.218078 
L 486.946727 485.972364 
L 486.946727 485.972364 
" clip-path="url(#pe28dd4b748)" style="fill: none; stroke-dasharray: 4.44,1.92; stroke-dashoffset: 0; stroke: #2e7d32; stroke-width: 1.2"/>
   </g>
   <g id="line2d_70">
    <path d="M 73.881273 521.116364 
L 114.533252 520.018551 
L 134.514734 519.257271 
L 148.984083 518.491984 
L 160.352857 517.672292 
L 169.310072 516.812297 
L 176.889255 515.863079 
L 183.090405 514.8688 
L 188.258029 513.831604 
L 192.736637 512.725148 
L 196.870737 511.476493 
L 200.31582 510.218294 
L 203.416394 508.868207 
L 206.172461 507.449329 
L 208.928527 505.771243 
L 211.340085 504.036988 
L 213.407135 502.305693 
L 215.474185 500.297232 
L 217.541235 497.949167 
L 219.263776 495.675721 
L 220.986318 493.052192 
L 222.708859 490.005073 
L 224.431401 486.442233 
L 226.153942 482.248037 
L 227.531976 478.341969 
L 228.910009 473.849983 
L 230.288042 468.666523 
L 231.666075 462.670275 
L 233.044108 455.726958 
L 234.422142 447.697683 
L 235.800175 438.457011 
L 237.522716 425.09106 
L 239.245258 409.800483 
L 244.757391 358.179016 
L 245.790916 350.899516 
L 246.824441 345.145426 
L 247.513457 342.210793 
L 248.202474 339.994956 
L 248.89149 338.469108 
L 249.580507 337.586203 
L 249.925015 337.367579 
L 250.269524 337.286694 
L 250.614032 337.335054 
L 251.303048 337.784974 
L 251.992065 338.648772 
L 252.681082 339.860644 
L 253.714607 342.199333 
L 255.09264 346.018322 
L 257.15969 352.600998 
L 264.049856 375.2697 
L 266.805922 383.389575 
L 269.561988 390.805954 
L 272.318055 397.557846 
L 275.074121 403.709667 
L 277.830188 409.330448 
L 280.586254 414.48532 
L 283.686829 419.799868 
L 286.787404 424.669948 
L 289.887978 429.156206 
L 293.333061 433.752595 
L 296.778144 437.996449 
L 300.567736 442.315154 
L 304.701835 446.669261 
L 308.835935 450.705705 
L 313.314543 454.774032 
L 318.137659 458.85556 
L 323.305284 462.93927 
L 329.161925 467.268442 
L 335.363074 471.571682 
L 342.597749 476.30786 
L 351.210456 481.658585 
L 363.612755 489.065413 
L 377.737595 497.555023 
L 385.316778 502.381728 
L 398.752602 511.095357 
L 401.508668 512.501876 
L 404.264735 513.653599 
L 407.020801 514.574834 
L 410.465884 515.471559 
L 414.255475 516.222478 
L 419.078592 516.939717 
L 424.935233 517.58068 
L 432.514415 518.180833 
L 442.505156 518.73819 
L 455.94098 519.249751 
L 474.19992 519.706526 
L 486.946727 519.930821 
L 486.946727 519.930821 
" clip-path="url(#pe28dd4b748)" style="fill: none; stroke: #7030a0; stroke-width: 1.4; stroke-linecap: square"/>
   </g>
   <g id="patch_9">
    <path d="M 53.228 531.16 
L 53.228 310.2 
" style="fill: none; stroke: #000000; stroke-width: 0.8; stroke-linejoin: miter; stroke-linecap: square"/>
   </g>
   <g id="patch_10">
    <path d="M 507.6 531.16 
L 507.6 310.2 
" style="fill: none; stroke: #000000; stroke-width: 0.8; stroke-linejoin: miter; stroke-linecap: square"/>
   </g>
   <g id="patch_11">
    <path d="M 53.228 531.16 
L 507.6 531.16 
" style="fill: none; stroke: #000000; stroke-width: 0.8; stroke-linejoin: miter; stroke-linecap: square"/>
   </g>
   <g id="patch_12">
    <path d="M 53.228 310.2 
L 507.6 310.2 
" style="fill: none; stroke: #000000; stroke-width: 0.8; stroke-linejoin: miter; stroke-linecap: square"/>
   </g>
   <g id="text_39">
    <!-- Fig 2b. Refractive index recovered from $\varepsilon_2$ via KK -->
    <g transform="translate(132.214 304.2) scale(0.12 -0.12)">
     <defs>
      <path id="DejaVuSans-62" d="M 3116 1747 
Q 3116 2381 2855 2742 
Q 2594 3103 2138 3103 
Q 1681 3103 1420 2742 
Q 1159 2381 1159 1747 
Q 1159 1113 1420 752 
Q 1681 391 2138 391 
Q 2594 391 2855 752 
Q 3116 1113 3116 1747 
z
M 1159 2969 
Q 1341 3281 1617 3432 
Q 1894 3584 2278 3584 
Q 2916 3584 3314 3078 
Q 3713 2572 3713 1747 
Q 3713 922 3314 415 
Q 2916 -91 2278 -91 
Q 1894 -91 1617 61 
Q 1341 213 1159 525 
L 1159 0 
L 581 0 
L 581 4863 
L 1159 4863 
L 1159 2969 
z
" transform="scale(0.015625)"/>
      <path id="DejaVuSans-52" d="M 2841 2188 
Q 3044 2119 3236 1894 
Q 3428 1669 3622 1275 
L 4263 0 
L 3584 0 
L 2988 1197 
Q 2756 1666 2539 1819 
Q 2322 1972 1947 1972 
L 1259 1972 
L 1259 0 
L 628 0 
L 628 4666 
L 2053 4666 
Q 2853 4666 3247 4331 
Q 3641 3997 3641 3322 
Q 3641 2881 3436 2590 
Q 3231 2300 2841 2188 
z
M 1259 4147 
L 1259 2491 
L 2053 2491 
Q 2509 2491 2742 2702 
Q 2975 2913 2975 3322 
Q 2975 3731 2742 3939 
Q 2509 4147 2053 4147 
L 1259 4147 
z
" transform="scale(0.015625)"/>
      <path id="DejaVuSans-78" d="M 3513 3500 
L 2247 1797 
L 3578 0 
L 2900 0 
L 1881 1375 
L 863 0 
L 184 0 
L 1544 1831 
L 300 3500 
L 978 3500 
L 1906 2253 
L 2834 3500 
L 3513 3500 
z
" transform="scale(0.015625)"/>
     </defs>
     <use xlink:href="#DejaVuSans-46" transform="translate(0 0.015625)"/>
     <use xlink:href="#DejaVuSans-69" transform="translate(57.519531 0.015625)"/>
     <use xlink:href="#DejaVuSans-67" transform="translate(85.302734 0.015625)"/>
     <use xlink:href="#DejaVuSans-20" transform="translate(148.779297 0.015625)"/>
     <use xlink:href="#DejaVuSans-32" transform="translate(180.566406 0.015625)"/>
     <use xlink:href="#DejaVuSans-62" transform="translate(244.189453 0.015625)"/>
     <use xlink:href="#DejaVuSans-2e" transform="translate(307.666016 0.015625)"/>
     <use xlink:href="#DejaVuSans-20" transform="translate(339.453125 0.015625)"/>
     <use xlink:href="#DejaVuSans-52" transform="translate(371.240234 0.015625)"/>
     <use xlink:href="#DejaVuSans-65" transform="translate(440.722656 0.015625)"/>
     <use xlink:href="#DejaVuSans-66" transform="translate(502.246094 0.015625)"/>
     <use xlink:href="#DejaVuSans-72" transform="translate(537.451172 0.015625)"/>
     <use xlink:href="#DejaVuSans-61" transform="translate(578.564453 0.015625)"/>
     <use xlink:href="#DejaVuSans-63" transform="translate(639.84375 0.015625)"/>
     <use xlink:href="#DejaVuSans-74" transform="translate(694.824219 0.015625)"/>
     <use xlink:href="#DejaVuSans-69" transform="translate(734.033203 0.015625)"/>
     <use xlink:href="#DejaVuSans-76" transform="translate(761.816406 0.015625)"/>
     <use xlink:href="#DejaVuSans-65" transform="translate(820.996094 0.015625)"/>
     <use xlink:href="#DejaVuSans-20" transform="translate(882.519531 0.015625)"/>
     <use xlink:href="#DejaVuSans-69" transform="translate(914.306641 0.015625)"/>
     <use xlink:href="#DejaVuSans-6e" transform="translate(942.089844 0.015625)"/>
     <use xlink:href="#DejaVuSans-64" transform="translate(1005.46875 0.015625)"/>
     <use xlink:href="#DejaVuSans-65" transform="translate(1068.945312 0.015625)"/>
     <use xlink:href="#DejaVuSans-78" transform="translate(1130.46875 0.015625)"/>
     <use xlink:href="#DejaVuSans-20" transform="translate(1189.648438 0.015625)"/>
     <use xlink:href="#DejaVuSans-72" transform="translate(1221.435547 0.015625)"/>
     <use xlink:href="#DejaVuSans-65" transform="translate(1262.548828 0.015625)"/>
     <use xlink:href="#DejaVuSans-63" transform="translate(1324.072266 0.015625)"/>
     <use xlink:href="#DejaVuSans-6f" transform="translate(1379.052734 0.015625)"/>
     <use xlink:href="#DejaVuSans-76" transform="translate(1440.234375 0.015625)"/>
     <use xlink:href="#DejaVuSans-65" transform="translate(1499.414062 0.015625)"/>
     <use xlink:href="#DejaVuSans-72" transform="translate(1560.9375 0.015625)"/>
     <use xlink:href="#DejaVuSans-65" transform="translate(1602.050781 0.015625)"/>
     <use xlink:href="#DejaVuSans-64" transform="translate(1663.574219 0.015625)"/>
     <use xlink:href="#DejaVuSans-20" transform="translate(1727.050781 0.015625)"/>
     <use xlink:href="#DejaVuSans-66" transform="translate(1758.837891 0.015625)"/>
     <use xlink:href="#DejaVuSans-72" transform="translate(1794.042969 0.015625)"/>
     <use xlink:href="#DejaVuSans-6f" transform="translate(1835.15625 0.015625)"/>
     <use xlink:href="#DejaVuSans-6d" transform="translate(1896.337891 0.015625)"/>
     <use xlink:href="#DejaVuSans-20" transform="translate(1993.75 0.015625)"/>
     <use xlink:href="#DejaVuSans-Oblique-3b5" transform="translate(2025.537109 0.015625)"/>
     <use xlink:href="#DejaVuSans-32" transform="translate(2079.589844 -16.390625) scale(0.7)"/>
     <use xlink:href="#DejaVuSans-20" transform="translate(2126.860352 0.015625)"/>
     <use xlink:href="#DejaVuSans-76" transform="translate(2158.647461 0.015625)"/>
     <use xlink:href="#DejaVuSans-69" transform="translate(2217.827148 0.015625)"/>
     <use xlink:href="#DejaVuSans-61" transform="translate(2245.610352 0.015625)"/>
     <use xlink:href="#DejaVuSans-20" transform="translate(2306.889648 0.015625)"/>
     <use xlink:href="#DejaVuSans-4b" transform="translate(2338.676758 0.015625)"/>
     <use xlink:href="#DejaVuSans-4b" transform="translate(2404.25293 0.015625)"/>
    </g>
   </g>
   <g id="legend_2">
    <g id="patch_13">
     <path d="M 391.14 357.050625 
L 501.3 357.050625 
Q 503.1 357.050625 503.1 355.250625 
L 503.1 316.5 
Q 503.1 314.7 501.3 314.7 
L 391.14 314.7 
Q 389.34 314.7 389.34 316.5 
L 389.34 355.250625 
Q 389.34 357.050625 391.14 357.050625 
z
" style="fill: #ffffff; opacity: 0.8; stroke: #cccccc; stroke-linejoin: miter"/>
    </g>
    <g id="line2d_71">
     <path d="M 392.94 321.99 
L 401.94 321.99 
L 410.94 321.99 
" style="fill: none; stroke: #c00000; stroke-width: 1.8; stroke-linecap: square"/>
    </g>
    <g id="text_40">
     <!-- $n(\omega)$ analytic -->
     <g transform="translate(418.14 325.14) scale(0.09 -0.09)">
      <use xlink:href="#DejaVuSans-Oblique-6e" transform="translate(0 0.015625)"/>
      <use xlink:href="#DejaVuSans-28" transform="translate(63.378906 0.015625)"/>
      <use xlink:href="#DejaVuSans-Oblique-3c9" transform="translate(102.392578 0.015625)"/>
      <use xlink:href="#DejaVuSans-29" transform="translate(186.132812 0.015625)"/>
      <use xlink:href="#DejaVuSans-20" transform="translate(225.146484 0.015625)"/>
      <use xlink:href="#DejaVuSans-61" transform="translate(256.933594 0.015625)"/>
      <use xlink:href="#DejaVuSans-6e" transform="translate(318.212891 0.015625)"/>
      <use xlink:href="#DejaVuSans-61" transform="translate(381.591797 0.015625)"/>
      <use xlink:href="#DejaVuSans-6c" transform="translate(442.871094 0.015625)"/>
      <use xlink:href="#DejaVuSans-79" transform="translate(470.654297 0.015625)"/>
      <use xlink:href="#DejaVuSans-74" transform="translate(529.833984 0.015625)"/>
      <use xlink:href="#DejaVuSans-69" transform="translate(569.042969 0.015625)"/>
      <use xlink:href="#DejaVuSans-63" transform="translate(596.826172 0.015625)"/>
     </g>
    </g>
    <g id="line2d_72">
     <path d="M 392.94 335.218594 
L 401.94 335.218594 
L 410.94 335.218594 
" style="fill: none; stroke-dasharray: 4.44,1.92; stroke-dashoffset: 0; stroke: #2e7d32; stroke-width: 1.2"/>
    </g>
    <g id="text_41">
     <!-- $n(\omega)$ from KK + $\varepsilon_2$ -->
     <g transform="translate(418.14 338.368594) scale(0.09 -0.09)">
      <defs>
       <path id="DejaVuSans-2b" d="M 2944 4013 
L 2944 2272 
L 4684 2272 
L 4684 1741 
L 2944 1741 
L 2944 0 
L 2419 0 
L 2419 1741 
L 678 1741 
L 678 2272 
L 2419 2272 
L 2419 4013 
L 2944 4013 
z
" transform="scale(0.015625)"/>
      </defs>
      <use xlink:href="#DejaVuSans-Oblique-6e" transform="translate(0 0.015625)"/>
      <use xlink:href="#DejaVuSans-28" transform="translate(63.378906 0.015625)"/>
      <use xlink:href="#DejaVuSans-Oblique-3c9" transform="translate(102.392578 0.015625)"/>
      <use xlink:href="#DejaVuSans-29" transform="translate(186.132812 0.015625)"/>
      <use xlink:href="#DejaVuSans-20" transform="translate(225.146484 0.015625)"/>
      <use xlink:href="#DejaVuSans-66" transform="translate(256.933594 0.015625)"/>
      <use xlink:href="#DejaVuSans-72" transform="translate(292.138672 0.015625)"/>
      <use xlink:href="#DejaVuSans-6f" transform="translate(333.251953 0.015625)"/>
      <use xlink:href="#DejaVuSans-6d" transform="translate(394.433594 0.015625)"/>
      <use xlink:href="#DejaVuSans-20" transform="translate(491.845703 0.015625)"/>
      <use xlink:href="#DejaVuSans-4b" transform="translate(523.632812 0.015625)"/>
      <use xlink:href="#DejaVuSans-4b" transform="translate(589.208984 0.015625)"/>
      <use xlink:href="#DejaVuSans-20" transform="translate(654.785156 0.015625)"/>
      <use xlink:href="#DejaVuSans-2b" transform="translate(686.572266 0.015625)"/>
      <use xlink:href="#DejaVuSans-20" transform="translate(770.361328 0.015625)"/>
      <use xlink:href="#DejaVuSans-Oblique-3b5" transform="translate(802.148438 0.015625)"/>
      <use xlink:href="#DejaVuSans-32" transform="translate(856.201172 -16.390625) scale(0.7)"/>
     </g>
    </g>
    <g id="line2d_73">
     <path d="M 392.94 348.428906 
L 401.94 348.428906 
L 410.94 348.428906 
" style="fill: none; stroke: #7030a0; stroke-width: 1.4; stroke-linecap: square"/>
    </g>
    <g id="text_42">
     <!-- $\kappa(\omega)$ -->
     <g transform="translate(418.14 351.578906) scale(0.09 -0.09)">
      <use xlink:href="#DejaVuSans-Oblique-3ba" transform="translate(0 0.125)"/>
      <use xlink:href="#DejaVuSans-28" transform="translate(58.935547 0.125)"/>
      <use xlink:href="#DejaVuSans-Oblique-3c9" transform="translate(97.949219 0.125)"/>
      <use xlink:href="#DejaVuSans-29" transform="translate(181.689453 0.125)"/>
     </g>
    </g>
   </g>
  </g>
 </g>
 <defs>
  <clipPath id="p87eb44a2f5">
   <rect x="53.228" y="26.88" width="454.372" height="220.96"/>
  </clipPath>
  <clipPath id="pe28dd4b748">
   <rect x="53.228" y="310.2" width="454.372" height="220.96"/>
  </clipPath>
 </defs>
</svg>
