<?xml version="1.0" encoding="utf-8" standalone="no"?>
<!DOCTYPE svg PUBLIC "-//W3C//DTD SVG 1.1//EN"
  "http://www.w3.org/Graphics/SVG/1.1/DTD/svg11.dtd">
<svg xmlns:xlink="http://www.w3.org/1999/xlink" width="460.8pt" height="316.8pt" viewBox="0 0 460.8 316.8" xmlns="http://www.w3.org/2000/svg" version="1.1">
 <metadata>
  <rdf:RDF xmlns:dc="http://purl.org/dc/elements/1.1/" xmlns:cc="http://creativecommons.org/ns#" xmlns:rdf="http://www.w3.org/1999/02/22-rdf-syntax-ns#">
   <cc:Work>
    <dc:type rdf:resource="http://purl.org/dc/dcmitype/StillImage"/>
    <dc:date>2026-09-01T13:59:30.378037</dc:date>
    <dc:format>image/svg+xml</dc:format>
    <dc:creator>
     <cc:Agent>
      <dc:title>Matplotlib v3.10.9, https://matplotlib.org/</dc:title>
     </cc:Agent>
    </dc:creator>
   </cc:Work>
  </rdf:RDF>
 </metadata>
 <defs>
  <style type="text/css">*{stroke-linejoin: round; stroke-linecap: butt}</style>
 </defs>
 <g id="figure_1">
  <g id="patch_1">
   <path d="M 0 316.8 
L 460.8 316.8 
L 460.8 0 
L 0 0 
z
" style="fill: #ffffff"/>
  </g>
  <g id="axes_1">
   <g id="patch_2">
    <path d="M 48.08 274.84 
L 443.7 274.84 
L 443.7 26.88 
L 48.08 26.88 
z
" style="fill: #ffffff"/>
   </g>
   <g id="matplotlib.axis_1">
    <g id="xtick_1">
     <g id="line2d_1">
      <path d="M 48.08 274.84 
L 48.08 26.88 
" clip-path="url(#pd0a0ce4c87)" style="fill: none; stroke: #b0b0b0; stroke-opacity: 0.3; stroke-width: 0.8; stroke-linecap: square"/>
     </g>
     <g id="line2d_2">
      <defs>
       <path id="m830eaf93f4" d="M 0 0 
L 0 3.5 
" style="stroke: #000000; stroke-width: 0.8"/>
      </defs>
      <g>
       <use xlink:href="#m830eaf93f4" x="48.08" y="274.84" style="stroke: #000000; stroke-width: 0.8"/>
      </g>
     </g>
     <g id="text_1">
      <!-- 0 -->
      <g transform="translate(44.89875 289.438438) scale(0.1 -0.1)">
       <defs>
        <path id="DejaVuSans-30" d="M 2034 4250 
Q 1547 4250 1301 3770 
Q 1056 3291 1056 2328 
Q 1056 1369 1301 889 
Q 1547 409 2034 409 
Q 2525 409 2770 889 
Q 3016 1369 3016 2328 
Q 3016 3291 2770 3770 
Q 2525 4250 2034 4250 
z
M 2034 4750 
Q 2819 4750 3233 4129 
Q 3647 3509 3647 2328 
Q 3647 1150 3233 529 
Q 2819 -91 2034 -91 
Q 1250 -91 836 529 
Q 422 1150 422 2328 
Q 422 3509 836 4129 
Q 1250 4750 2034 4750 
z
" transform="scale(0.015625)"/>
       </defs>
       <use xlink:href="#DejaVuSans-30"/>
      </g>
     </g>
    </g>
    <g id="xtick_2">
     <g id="line2d_3">
      <path d="M 127.204 274.84 
L 127.204 26.88 
" clip-path="url(#pd0a0ce4c87)" style="fill: none; stroke: #b0b0b0; stroke-opacity: 0.3; stroke-width: 0.8; stroke-linecap: square"/>
     </g>
     <g id="line2d_4">
      <g>
       <use xlink:href="#m830eaf93f4" x="127.204" y="274.84" style="stroke: #000000; stroke-width: 0.8"/>
      </g>
     </g>
     <g id="text_2">
      <!-- 5 -->
      <g transform="translate(124.02275 289.438438) scale(0.1 -0.1)">
       <defs>
        <path id="DejaVuSans-35" d="M 691 4666 
L 3169 4666 
L 3169 4134 
L 1269 4134 
L 1269 2991 
Q 1406 3038 1543 3061 
Q 1681 3084 1819 3084 
Q 2600 3084 3056 2656 
Q 3513 2228 3513 1497 
Q 3513 744 3044 326 
Q 2575 -91 1722 -91 
Q 1428 -91 1123 -41 
Q 819 9 494 109 
L 494 744 
Q 775 591 1075 516 
Q 1375 441 1709 441 
Q 2250 441 2565 725 
Q 2881 1009 2881 1497 
Q 2881 1984 2565 2268 
Q 2250 2553 1709 2553 
Q 1456 2553 1204 2497 
Q 953 2441 691 2322 
L 691 4666 
z
" transform="scale(0.015625)"/>
       </defs>
       <use xlink:href="#DejaVuSans-35"/>
      </g>
     </g>
    </g>
    <g id="xtick_3">
     <g id="line2d_5">
      <path d="M 206.328 274.84 
L 206.328 26.88 
" clip-path="url(#pd0a0ce4c87)" style="fill: none; stroke: #b0b0b0; stroke-opacity: 0.3; stroke-width: 0.8; stroke-linecap: square"/>
     </g>
     <g id="line2d_6">
      <g>
       <use xlink:href="#m830eaf93f4" x="206.328" y="274.84" style="stroke: #000000; stroke-width: 0.8"/>
      </g>
     </g>
     <g id="text_3">
      <!-- 10 -->
      <g transform="translate(199.9655 289.438438) scale(0.1 -0.1)">
       <defs>
        <path id="DejaVuSans-31" d="M 794 531 
L 1825 531 
L 1825 4091 
L 703 3866 
L 703 4441 
L 1819 4666 
L 2450 4666 
L 2450 531 
L 3481 531 
L 3481 0 
L 794 0 
L 794 531 
z
" transform="scale(0.015625)"/>
       </defs>
       <use xlink:href="#DejaVuSans-31"/>
       <use xlink:href="#DejaVuSans-30" transform="translate(63.623047 0)"/>
      </g>
     </g>
    </g>
    <g id="xtick_4">
     <g id="line2d_7">
      <path d="M 285.452 274.84 
L 285.452 26.88 
" clip-path="url(#pd0a0ce4c87)" style="fill: none; stroke: #b0b0b0; stroke-opacity: 0.3; stroke-width: 0.8; stroke-linecap: square"/>
     </g>
     <g id="line2d_8">
      <g>
       <use xlink:href="#m830eaf93f4" x="285.452" y="274.84" style="stroke: #000000; stroke-width: 0.8"/>
      </g>
     </g>
     <g id="text_4">
      <!-- 15 -->
      <g transform="translate(279.0895 289.438438) scale(0.1 -0.1)">
       <use xlink:href="#DejaVuSans-31"/>
       <use xlink:href="#DejaVuSans-35" transform="translate(63.623047 0)"/>
      </g>
     </g>
    </g>
    <g id="xtick_5">
     <g id="line2d_9">
      <path d="M 364.576 274.84 
L 364.576 26.88 
" clip-path="url(#pd0a0ce4c87)" style="fill: none; stroke: #b0b0b0; stroke-opacity: 0.3; stroke-width: 0.8; stroke-linecap: square"/>
     </g>
     <g id="line2d_10">
      <g>
       <use xlink:href="#m830eaf93f4" x="364.576" y="274.84" style="stroke: #000000; stroke-width: 0.8"/>
      </g>
     </g>
     <g id="text_5">
      <!-- 20 -->
      <g transform="translate(358.2135 289.438438) scale(0.1 -0.1)">
       <defs>
        <path id="DejaVuSans-32" d="M 1228 531 
L 3431 531 
L 3431 0 
L 469 0 
L 469 531 
Q 828 903 1448 1529 
Q 2069 2156 2228 2338 
Q 2531 2678 2651 2914 
Q 2772 3150 2772 3378 
Q 2772 3750 2511 3984 
Q 2250 4219 1831 4219 
Q 1534 4219 1204 4116 
Q 875 4013 500 3803 
L 500 4441 
Q 881 4594 1212 4672 
Q 1544 4750 1819 4750 
Q 2544 4750 2975 4387 
Q 3406 4025 3406 3419 
Q 3406 3131 3298 2873 
Q 3191 2616 2906 2266 
Q 2828 2175 2409 1742 
Q 1991 1309 1228 531 
z
" transform="scale(0.015625)"/>
       </defs>
       <use xlink:href="#DejaVuSans-32"/>
       <use xlink:href="#DejaVuSans-30" transform="translate(63.623047 0)"/>
      </g>
     </g>
    </g>
    <g id="xtick_6">
     <g id="line2d_11">
      <path d="M 443.7 274.84 
L 443.7 26.88 
" clip-path="url(#pd0a0ce4c87)" style="fill: none; stroke: #b0b0b0; stroke-opacity: 0.3; stroke-width: 0.8; stroke-linecap: square"/>
     </g>
     <g id="line2d_12">
      <g>
       <use xlink:href="#m830eaf93f4" x="443.7" y="274.84" style="stroke: #000000; stroke-width: 0.8"/>
      </g>
     </g>
     <g id="text_6">
      <!-- 25 -->
      <g transform="translate(437.3375 289.438438) scale(0.1 -0.1)">
       <use xlink:href="#DejaVuSans-32"/>
       <use xlink:href="#DejaVuSans-35" transform="translate(63.623047 0)"/>
      </g>
     </g>
    </g>
    <g id="text_7">
     <!-- r / a0 -->
     <g transform="translate(232.726719 303.116562) scale(0.1 -0.1)">
      <defs>
       <path id="DejaVuSans-72" d="M 2631 2963 
Q 2534 3019 2420 3045 
Q 2306 3072 2169 3072 
Q 1681 3072 1420 2755 
Q 1159 2438 1159 1844 
L 1159 0 
L 581 0 
L 581 3500 
L 1159 3500 
L 1159 2956 
Q 1341 3275 1631 3429 
Q 1922 3584 2338 3584 
Q 2397 3584 2469 3576 
Q 2541 3569 2628 3553 
L 2631 2963 
z
" transform="scale(0.015625)"/>
       <path id="DejaVuSans-20" transform="scale(0.015625)"/>
       <path id="DejaVuSans-2f" d="M 1625 4666 
L 2156 4666 
L 531 -594 
L 0 -594 
L 1625 4666 
z
" transform="scale(0.015625)"/>
       <path id="DejaVuSans-61" d="M 2194 1759 
Q 1497 1759 1228 1600 
Q 959 1441 959 1056 
Q 959 750 1161 570 
Q 1363 391 1709 391 
Q 2188 391 2477 730 
Q 2766 1069 2766 1631 
L 2766 1759 
L 2194 1759 
z
M 3341 1997 
L 3341 0 
L 2766 0 
L 2766 531 
Q 2569 213 2275 61 
Q 1981 -91 1556 -91 
Q 1019 -91 701 211 
Q 384 513 384 1019 
Q 384 1609 779 1909 
Q 1175 2209 1959 2209 
L 2766 2209 
L 2766 2266 
Q 2766 2663 2505 2880 
Q 2244 3097 1772 3097 
Q 1472 3097 1187 3025 
Q 903 2953 641 2809 
L 641 3341 
Q 956 3463 1253 3523 
Q 1550 3584 1831 3584 
Q 2591 3584 2966 3190 
Q 3341 2797 3341 1997 
z
" transform="scale(0.015625)"/>
      </defs>
      <use xlink:href="#DejaVuSans-72"/>
      <use xlink:href="#DejaVuSans-20" transform="translate(41.113281 0)"/>
      <use xlink:href="#DejaVuSans-2f" transform="translate(72.900391 0)"/>
      <use xlink:href="#DejaVuSans-20" transform="translate(106.591797 0)"/>
      <use xlink:href="#DejaVuSans-61" transform="translate(138.378906 0)"/>
      <use xlink:href="#DejaVuSans-30" transform="translate(199.658203 0)"/>
     </g>
    </g>
   </g>
   <g id="matplotlib.axis_2">
    <g id="ytick_1">
     <g id="line2d_13">
      <path d="M 48.08 263.569091 
L 443.7 263.569091 
" clip-path="url(#pd0a0ce4c87)" style="fill: none; stroke: #b0b0b0; stroke-opacity: 0.3; stroke-width: 0.8; stroke-linecap: square"/>
     </g>
     <g id="line2d_14">
      <defs>
       <path id="m20ae9e83d1" d="M 0 0 
L -3.5 0 
" style="stroke: #000000; stroke-width: 0.8"/>
      </defs>
      <g>
       <use xlink:href="#m20ae9e83d1" x="48.08" y="263.569091" style="stroke: #000000; stroke-width: 0.8"/>
      </g>
     </g>
     <g id="text_8">
      <!-- 0.0 -->
      <g transform="translate(25.176875 267.36831) scale(0.1 -0.1)">
       <defs>
        <path id="DejaVuSans-2e" d="M 684 794 
L 1344 794 
L 1344 0 
L 684 0 
L 684 794 
z
" transform="scale(0.015625)"/>
       </defs>
       <use xlink:href="#DejaVuSans-30"/>
       <use xlink:href="#DejaVuSans-2e" transform="translate(63.623047 0)"/>
       <use xlink:href="#DejaVuSans-30" transform="translate(95.410156 0)"/>
      </g>
     </g>
    </g>
    <g id="ytick_2">
     <g id="line2d_15">
      <path d="M 48.08 220.613376 
L 443.7 220.613376 
" clip-path="url(#pd0a0ce4c87)" style="fill: none; stroke: #b0b0b0; stroke-opacity: 0.3; stroke-width: 0.8; stroke-linecap: square"/>
     </g>
     <g id="line2d_16">
      <g>
       <use xlink:href="#m20ae9e83d1" x="48.08" y="220.613376" style="stroke: #000000; stroke-width: 0.8"/>
      </g>
     </g>
     <g id="text_9">
      <!-- 0.5 -->
      <g transform="translate(25.176875 224.412595) scale(0.1 -0.1)">
       <use xlink:href="#DejaVuSans-30"/>
       <use xlink:href="#DejaVuSans-2e" transform="translate(63.623047 0)"/>
       <use xlink:href="#DejaVuSans-35" transform="translate(95.410156 0)"/>
      </g>
     </g>
    </g>
    <g id="ytick_3">
     <g id="line2d_17">
      <path d="M 48.08 177.657662 
L 443.7 177.657662 
" clip-path="url(#pd0a0ce4c87)" style="fill: none; stroke: #b0b0b0; stroke-opacity: 0.3; stroke-width: 0.8; stroke-linecap: square"/>
     </g>
     <g id="line2d_18">
      <g>
       <use xlink:href="#m20ae9e83d1" x="48.08" y="177.657662" style="stroke: #000000; stroke-width: 0.8"/>
      </g>
     </g>
     <g id="text_10">
      <!-- 1.0 -->
      <g transform="translate(25.176875 181.456881) scale(0.1 -0.1)">
       <use xlink:href="#DejaVuSans-31"/>
       <use xlink:href="#DejaVuSans-2e" transform="translate(63.623047 0)"/>
       <use xlink:href="#DejaVuSans-30" transform="translate(95.410156 0)"/>
      </g>
     </g>
    </g>
    <g id="ytick_4">
     <g id="line2d_19">
      <path d="M 48.08 134.701947 
L 443.7 134.701947 
" clip-path="url(#pd0a0ce4c87)" style="fill: none; stroke: #b0b0b0; stroke-opacity: 0.3; stroke-width: 0.8; stroke-linecap: square"/>
     </g>
     <g id="line2d_20">
      <g>
       <use xlink:href="#m20ae9e83d1" x="48.08" y="134.701947" style="stroke: #000000; stroke-width: 0.8"/>
      </g>
     </g>
     <g id="text_11">
      <!-- 1.5 -->
      <g transform="translate(25.176875 138.501166) scale(0.1 -0.1)">
       <use xlink:href="#DejaVuSans-31"/>
       <use xlink:href="#DejaVuSans-2e" transform="translate(63.623047 0)"/>
       <use xlink:href="#DejaVuSans-35" transform="translate(95.410156 0)"/>
      </g>
     </g>
    </g>
    <g id="ytick_5">
     <g id="line2d_21">
      <path d="M 48.08 91.746233 
L 443.7 91.746233 
" clip-path="url(#pd0a0ce4c87)" style="fill: none; stroke: #b0b0b0; stroke-opacity: 0.3; stroke-width: 0.8; stroke-linecap: square"/>
     </g>
     <g id="line2d_22">
      <g>
       <use xlink:href="#m20ae9e83d1" x="48.08" y="91.746233" style="stroke: #000000; stroke-width: 0.8"/>
      </g>
     </g>
     <g id="text_12">
      <!-- 2.0 -->
      <g transform="translate(25.176875 95.545451) scale(0.1 -0.1)">
       <use xlink:href="#DejaVuSans-32"/>
       <use xlink:href="#DejaVuSans-2e" transform="translate(63.623047 0)"/>
       <use xlink:href="#DejaVuSans-30" transform="translate(95.410156 0)"/>
      </g>
     </g>
    </g>
    <g id="ytick_6">
     <g id="line2d_23">
      <path d="M 48.08 48.790518 
L 443.7 48.790518 
" clip-path="url(#pd0a0ce4c87)" style="fill: none; stroke: #b0b0b0; stroke-opacity: 0.3; stroke-width: 0.8; stroke-linecap: square"/>
     </g>
     <g id="line2d_24">
      <g>
       <use xlink:href="#m20ae9e83d1" x="48.08" y="48.790518" style="stroke: #000000; stroke-width: 0.8"/>
      </g>
     </g>
     <g id="text_13">
      <!-- 2.5 -->
      <g transform="translate(25.176875 52.589737) scale(0.1 -0.1)">
       <use xlink:href="#DejaVuSans-32"/>
       <use xlink:href="#DejaVuSans-2e" transform="translate(63.623047 0)"/>
       <use xlink:href="#DejaVuSans-35" transform="translate(95.410156 0)"/>
      </g>
     </g>
    </g>
    <g id="text_14">
     <!-- radial probability density |R(r)|^2 r^2 -->
     <g transform="translate(18.819063 245.958438) rotate(-90) scale(0.1 -0.1)">
      <defs>
       <path id="DejaVuSans-64" d="M 2906 2969 
L 2906 4863 
L 3481 4863 
L 3481 0 
L 2906 0 
L 2906 525 
Q 2725 213 2448 61 
Q 2172 -91 1784 -91 
Q 1150 -91 751 415 
Q 353 922 353 1747 
Q 353 2572 751 3078 
Q 1150 3584 1784 3584 
Q 2172 3584 2448 3432 
Q 2725 3281 2906 2969 
z
M 947 1747 
Q 947 1113 1208 752 
Q 1469 391 1925 391 
Q 2381 391 2643 752 
Q 2906 1113 2906 1747 
Q 2906 2381 2643 2742 
Q 2381 3103 1925 3103 
Q 1469 3103 1208 2742 
Q 947 2381 947 1747 
z
" transform="scale(0.015625)"/>
       <path id="DejaVuSans-69" d="M 603 3500 
L 1178 3500 
L 1178 0 
L 603 0 
L 603 3500 
z
M 603 4863 
L 1178 4863 
L 1178 4134 
L 603 4134 
L 603 4863 
z
" transform="scale(0.015625)"/>
       <path id="DejaVuSans-6c" d="M 603 4863 
L 1178 4863 
L 1178 0 
L 603 0 
L 603 4863 
z
" transform="scale(0.015625)"/>
       <path id="DejaVuSans-70" d="M 1159 525 
L 1159 -1331 
L 581 -1331 
L 581 3500 
L 1159 3500 
L 1159 2969 
Q 1341 3281 1617 3432 
Q 1894 3584 2278 3584 
Q 2916 3584 3314 3078 
Q 3713 2572 3713 1747 
Q 3713 922 3314 415 
Q 2916 -91 2278 -91 
Q 1894 -91 1617 61 
Q 1341 213 1159 525 
z
M 3116 1747 
Q 3116 2381 2855 2742 
Q 2594 3103 2138 3103 
Q 1681 3103 1420 2742 
Q 1159 2381 1159 1747 
Q 1159 1113 1420 752 
Q 1681 391 2138 391 
Q 2594 391 2855 752 
Q 3116 1113 3116 1747 
z
" transform="scale(0.015625)"/>
       <path id="DejaVuSans-6f" d="M 1959 3097 
Q 1497 3097 1228 2736 
Q 959 2375 959 1747 
Q 959 1119 1226 758 
Q 1494 397 1959 397 
Q 2419 397 2687 759 
Q 2956 1122 2956 1747 
Q 2956 2369 2687 2733 
Q 2419 3097 1959 3097 
z
M 1959 3584 
Q 2709 3584 3137 3096 
Q 3566 2609 3566 1747 
Q 3566 888 3137 398 
Q 2709 -91 1959 -91 
Q 1206 -91 779 398 
Q 353 888 353 1747 
Q 353 2609 779 3096 
Q 1206 3584 1959 3584 
z
" transform="scale(0.015625)"/>
       <path id="DejaVuSans-62" d="M 3116 1747 
Q 3116 2381 2855 2742 
Q 2594 3103 2138 3103 
Q 1681 3103 1420 2742 
Q 1159 2381 1159 1747 
Q 1159 1113 1420 752 
Q 1681 391 2138 391 
Q 2594 391 2855 752 
Q 3116 1113 3116 1747 
z
M 1159 2969 
Q 1341 3281 1617 3432 
Q 1894 3584 2278 3584 
Q 2916 3584 3314 3078 
Q 3713 2572 3713 1747 
Q 3713 922 3314 415 
Q 2916 -91 2278 -91 
Q 1894 -91 1617 61 
Q 1341 213 1159 525 
L 1159 0 
L 581 0 
L 581 4863 
L 1159 4863 
L 1159 2969 
z
" transform="scale(0.015625)"/>
       <path id="DejaVuSans-74" d="M 1172 4494 
L 1172 3500 
L 2356 3500 
L 2356 3053 
L 1172 3053 
L 1172 1153 
Q 1172 725 1289 603 
Q 1406 481 1766 481 
L 2356 481 
L 2356 0 
L 1766 0 
Q 1100 0 847 248 
Q 594 497 594 1153 
L 594 3053 
L 172 3053 
L 172 3500 
L 594 3500 
L 594 4494 
L 1172 4494 
z
" transform="scale(0.015625)"/>
       <path id="DejaVuSans-79" d="M 2059 -325 
Q 1816 -950 1584 -1140 
Q 1353 -1331 966 -1331 
L 506 -1331 
L 506 -850 
L 844 -850 
Q 1081 -850 1212 -737 
Q 1344 -625 1503 -206 
L 1606 56 
L 191 3500 
L 800 3500 
L 1894 763 
L 2988 3500 
L 3597 3500 
L 2059 -325 
z
" transform="scale(0.015625)"/>
       <path id="DejaVuSans-65" d="M 3597 1894 
L 3597 1613 
L 953 1613 
Q 991 1019 1311 708 
Q 1631 397 2203 397 
Q 2534 397 2845 478 
Q 3156 559 3463 722 
L 3463 178 
Q 3153 47 2828 -22 
Q 2503 -91 2169 -91 
Q 1331 -91 842 396 
Q 353 884 353 1716 
Q 353 2575 817 3079 
Q 1281 3584 2069 3584 
Q 2775 3584 3186 3129 
Q 3597 2675 3597 1894 
z
M 3022 2063 
Q 3016 2534 2758 2815 
Q 2500 3097 2075 3097 
Q 1594 3097 1305 2825 
Q 1016 2553 972 2059 
L 3022 2063 
z
" transform="scale(0.015625)"/>
       <path id="DejaVuSans-6e" d="M 3513 2113 
L 3513 0 
L 2938 0 
L 2938 2094 
Q 2938 2591 2744 2837 
Q 2550 3084 2163 3084 
Q 1697 3084 1428 2787 
Q 1159 2491 1159 1978 
L 1159 0 
L 581 0 
L 581 3500 
L 1159 3500 
L 1159 2956 
Q 1366 3272 1645 3428 
Q 1925 3584 2291 3584 
Q 2894 3584 3203 3211 
Q 3513 2838 3513 2113 
z
" transform="scale(0.015625)"/>
       <path id="DejaVuSans-73" d="M 2834 3397 
L 2834 2853 
Q 2591 2978 2328 3040 
Q 2066 3103 1784 3103 
Q 1356 3103 1142 2972 
Q 928 2841 928 2578 
Q 928 2378 1081 2264 
Q 1234 2150 1697 2047 
L 1894 2003 
Q 2506 1872 2764 1633 
Q 3022 1394 3022 966 
Q 3022 478 2636 193 
Q 2250 -91 1575 -91 
Q 1294 -91 989 -36 
Q 684 19 347 128 
L 347 722 
Q 666 556 975 473 
Q 1284 391 1588 391 
Q 1994 391 2212 530 
Q 2431 669 2431 922 
Q 2431 1156 2273 1281 
Q 2116 1406 1581 1522 
L 1381 1569 
Q 847 1681 609 1914 
Q 372 2147 372 2553 
Q 372 3047 722 3315 
Q 1072 3584 1716 3584 
Q 2034 3584 2315 3537 
Q 2597 3491 2834 3397 
z
" transform="scale(0.015625)"/>
       <path id="DejaVuSans-7c" d="M 1344 4891 
L 1344 -1509 
L 813 -1509 
L 813 4891 
L 1344 4891 
z
" transform="scale(0.015625)"/>
       <path id="DejaVuSans-52" d="M 2841 2188 
Q 3044 2119 3236 1894 
Q 3428 1669 3622 1275 
L 4263 0 
L 3584 0 
L 2988 1197 
Q 2756 1666 2539 1819 
Q 2322 1972 1947 1972 
L 1259 1972 
L 1259 0 
L 628 0 
L 628 4666 
L 2053 4666 
Q 2853 4666 3247 4331 
Q 3641 3997 3641 3322 
Q 3641 2881 3436 2590 
Q 3231 2300 2841 2188 
z
M 1259 4147 
L 1259 2491 
L 2053 2491 
Q 2509 2491 2742 2702 
Q 2975 2913 2975 3322 
Q 2975 3731 2742 3939 
Q 2509 4147 2053 4147 
L 1259 4147 
z
" transform="scale(0.015625)"/>
       <path id="DejaVuSans-28" d="M 1984 4856 
Q 1566 4138 1362 3434 
Q 1159 2731 1159 2009 
Q 1159 1288 1364 580 
Q 1569 -128 1984 -844 
L 1484 -844 
Q 1016 -109 783 600 
Q 550 1309 550 2009 
Q 550 2706 781 3412 
Q 1013 4119 1484 4856 
L 1984 4856 
z
" transform="scale(0.015625)"/>
       <path id="DejaVuSans-29" d="M 513 4856 
L 1013 4856 
Q 1481 4119 1714 3412 
Q 1947 2706 1947 2009 
Q 1947 1309 1714 600 
Q 1481 -109 1013 -844 
L 513 -844 
Q 928 -128 1133 580 
Q 1338 1288 1338 2009 
Q 1338 2731 1133 3434 
Q 928 4138 513 4856 
z
" transform="scale(0.015625)"/>
       <path id="DejaVuSans-5e" d="M 2988 4666 
L 4684 2925 
L 4056 2925 
L 2681 4159 
L 1306 2925 
L 678 2925 
L 2375 4666 
L 2988 4666 
z
" transform="scale(0.015625)"/>
      </defs>
      <use xlink:href="#DejaVuSans-72"/>
      <use xlink:href="#DejaVuSans-61" transform="translate(41.113281 0)"/>
      <use xlink:href="#DejaVuSans-64" transform="translate(102.392578 0)"/>
      <use xlink:href="#DejaVuSans-69" transform="translate(165.869141 0)"/>
      <use xlink:href="#DejaVuSans-61" transform="translate(193.652344 0)"/>
      <use xlink:href="#DejaVuSans-6c" transform="translate(254.931641 0)"/>
      <use xlink:href="#DejaVuSans-20" transform="translate(282.714844 0)"/>
      <use xlink:href="#DejaVuSans-70" transform="translate(314.501953 0)"/>
      <use xlink:href="#DejaVuSans-72" transform="translate(377.978516 0)"/>
      <use xlink:href="#DejaVuSans-6f" transform="translate(416.841797 0)"/>
      <use xlink:href="#DejaVuSans-62" transform="translate(478.023438 0)"/>
      <use xlink:href="#DejaVuSans-61" transform="translate(541.5 0)"/>
      <use xlink:href="#DejaVuSans-62" transform="translate(602.779297 0)"/>
      <use xlink:href="#DejaVuSans-69" transform="translate(666.255859 0)"/>
      <use xlink:href="#DejaVuSans-6c" transform="translate(694.039062 0)"/>
      <use xlink:href="#DejaVuSans-69" transform="translate(721.822266 0)"/>
      <use xlink:href="#DejaVuSans-74" transform="translate(749.605469 0)"/>
      <use xlink:href="#DejaVuSans-79" transform="translate(788.814453 0)"/>
      <use xlink:href="#DejaVuSans-20" transform="translate(847.994141 0)"/>
      <use xlink:href="#DejaVuSans-64" transform="translate(879.78125 0)"/>
      <use xlink:href="#DejaVuSans-65" transform="translate(943.257812 0)"/>
      <use xlink:href="#DejaVuSans-6e" transform="translate(1004.78125 0)"/>
      <use xlink:href="#DejaVuSans-73" transform="translate(1068.160156 0)"/>
      <use xlink:href="#DejaVuSans-69" transform="translate(1120.259766 0)"/>
      <use xlink:href="#DejaVuSans-74" transform="translate(1148.042969 0)"/>
      <use xlink:href="#DejaVuSans-79" transform="translate(1187.251953 0)"/>
      <use xlink:href="#DejaVuSans-20" transform="translate(1246.431641 0)"/>
      <use xlink:href="#DejaVuSans-7c" transform="translate(1278.21875 0)"/>
      <use xlink:href="#DejaVuSans-52" transform="translate(1311.910156 0)"/>
      <use xlink:href="#DejaVuSans-28" transform="translate(1381.392578 0)"/>
      <use xlink:href="#DejaVuSans-72" transform="translate(1420.40625 0)"/>
      <use xlink:href="#DejaVuSans-29" transform="translate(1461.519531 0)"/>
      <use xlink:href="#DejaVuSans-7c" transform="translate(1500.533203 0)"/>
      <use xlink:href="#DejaVuSans-5e" transform="translate(1534.224609 0)"/>
      <use xlink:href="#DejaVuSans-32" transform="translate(1618.013672 0)"/>
      <use xlink:href="#DejaVuSans-20" transform="translate(1681.636719 0)"/>
      <use xlink:href="#DejaVuSans-72" transform="translate(1713.423828 0)"/>
      <use xlink:href="#DejaVuSans-5e" transform="translate(1754.537109 0)"/>
      <use xlink:href="#DejaVuSans-32" transform="translate(1838.326172 0)"/>
     </g>
    </g>
    <g id="text_15">
     <!-- 1e20 -->
     <g transform="translate(48.08 23.88) scale(0.1 -0.1)">
      <use xlink:href="#DejaVuSans-31"/>
      <use xlink:href="#DejaVuSans-65" transform="translate(63.623047 0)"/>
      <use xlink:href="#DejaVuSans-32" transform="translate(125.146484 0)"/>
      <use xlink:href="#DejaVuSans-30" transform="translate(188.769531 0)"/>
     </g>
    </g>
   </g>
   <g id="line2d_25">
    <path d="M 48.378883 263.569091 
L 48.677765 220.640897 
L 49.574413 167.745928 
L 50.471061 126.677001 
L 51.367709 95.507324 
L 52.264356 72.587219 
L 53.161004 56.506853 
L 53.758769 48.985012 
L 54.356535 43.653964 
L 54.9543 40.234723 
L 55.552065 38.477305 
L 55.850948 38.150909 
L 56.14983 38.157982 
L 56.448713 38.474251 
L 56.747596 39.076784 
L 57.345361 41.055228 
L 57.943126 43.93425 
L 58.839774 49.636148 
L 60.035304 59.198225 
L 61.529717 73.219787 
L 64.518543 104.105684 
L 67.806252 137.270702 
L 69.89843 156.331158 
L 71.990608 173.352324 
L 73.783904 186.252719 
L 75.5772 197.630967 
L 77.370495 207.57392 
L 79.163791 216.195797 
L 80.957086 223.623516 
L 82.750382 229.986847 
L 84.543678 235.412031 
L 86.336973 240.017883 
L 88.130269 243.913606 
L 89.923565 247.197807 
L 91.71686 249.958302 
L 93.510156 252.272438 
L 95.303451 254.20773 
L 97.096747 255.822662 
L 98.890043 257.167582 
L 100.982221 258.452527 
L 103.074399 259.485948 
L 105.46546 260.419561 
L 108.155403 261.222139 
L 111.144229 261.8804 
L 114.730821 262.434801 
L 119.21406 262.882125 
L 124.892829 263.207169 
L 132.962659 263.424849 
L 146.711259 263.539599 
L 188.255941 263.568871 
L 443.800567 263.569091 
L 443.800567 263.569091 
" clip-path="url(#pd0a0ce4c87)" style="fill: none; stroke: #1f77b4; stroke-width: 1.6; stroke-linecap: square"/>
   </g>
   <g id="line2d_26">
    <path d="M 48.378883 263.569091 
L 48.677765 258.203821 
L 49.574413 251.61614 
L 50.471061 246.556502 
L 51.367709 242.799288 
L 52.264356 240.145228 
L 52.862122 238.901111 
L 53.459887 238.022132 
L 54.057652 237.465515 
L 54.655417 237.192117 
L 55.253182 237.166163 
L 55.850948 237.355013 
L 56.747596 237.976735 
L 57.644243 238.926278 
L 58.839774 240.570711 
L 60.633069 243.548609 
L 66.610721 254.00854 
L 68.404017 256.591134 
L 70.197313 258.765895 
L 71.691726 260.251478 
L 73.186139 261.441768 
L 74.680552 262.347877 
L 76.174965 262.987268 
L 77.669378 263.381689 
L 79.163791 263.555531 
L 80.957086 263.509261 
L 82.750382 263.227453 
L 84.84256 262.659452 
L 87.233621 261.774623 
L 90.52133 260.300427 
L 100.982221 255.409462 
L 104.568812 254.080772 
L 107.856521 253.109716 
L 111.144229 252.386151 
L 114.431938 251.904822 
L 117.719647 251.649552 
L 121.306238 251.601607 
L 125.191712 251.781409 
L 129.674951 252.228677 
L 135.054838 253.01125 
L 142.22802 254.300165 
L 163.149802 258.188601 
L 171.518515 259.451117 
L 179.887228 260.483815 
L 188.554824 261.324299 
L 198.119067 262.018585 
L 208.878841 262.56719 
L 221.730793 262.988438 
L 238.169336 263.289056 
L 261.781062 263.475608 
L 305.417922 263.558113 
L 443.800567 263.569084 
L 443.800567 263.569084 
" clip-path="url(#pd0a0ce4c87)" style="fill: none; stroke: #ff7f0e; stroke-width: 1.6; stroke-linecap: square"/>
   </g>
   <g id="line2d_27">
    <path d="M 48.378883 263.569091 
L 48.677765 261.979423 
L 49.574413 260.028843 
L 50.471061 258.533737 
L 51.367709 257.428062 
L 52.264356 256.653103 
L 53.161004 256.156797 
L 54.057652 255.893108 
L 54.9543 255.821452 
L 56.14983 255.963657 
L 57.644243 256.423957 
L 59.437539 257.242505 
L 63.02413 259.215821 
L 66.311839 260.921943 
L 68.7029 261.92943 
L 71.09396 262.691852 
L 73.485021 263.205085 
L 75.876082 263.487128 
L 78.566026 263.566962 
L 81.554852 263.42373 
L 85.440325 262.993141 
L 101.579986 260.896886 
L 106.362108 260.655543 
L 111.144229 260.639283 
L 116.524116 260.8475 
L 123.398416 261.351602 
L 146.113494 263.195878 
L 153.884442 263.494004 
L 161.655389 263.566505 
L 170.322985 263.420507 
L 181.381641 262.998353 
L 218.741967 261.396204 
L 232.191684 261.150928 
L 246.538049 261.118839 
L 263.87324 261.315783 
L 291.669322 261.891325 
L 334.708417 262.749123 
L 367.286621 263.154917 
L 406.141359 263.404951 
L 443.800567 263.507728 
L 443.800567 263.507728 
" clip-path="url(#pd0a0ce4c87)" style="fill: none; stroke: #2ca02c; stroke-width: 1.6; stroke-linecap: square"/>
   </g>
   <g id="line2d_28">
    <path d="M 48.378883 263.569091 
L 51.367709 263.476048 
L 53.459887 263.211908 
L 55.552065 262.73066 
L 57.644243 262.02855 
L 60.035304 260.982204 
L 62.725248 259.557119 
L 66.610721 257.211303 
L 74.381669 252.44397 
L 77.669378 250.70048 
L 80.658204 249.349798 
L 83.64703 248.25074 
L 86.336973 247.485738 
L 89.026917 246.931745 
L 92.015743 246.553484 
L 95.004569 246.407103 
L 98.292277 246.485973 
L 101.878869 246.818701 
L 105.764342 247.416399 
L 110.247582 248.338266 
L 115.926351 249.741037 
L 127.881655 252.998173 
L 136.848133 255.31308 
L 144.021316 256.944581 
L 150.895616 258.288841 
L 158.068798 259.460805 
L 165.540863 260.448546 
L 173.610694 261.281748 
L 182.577172 261.972683 
L 192.73918 262.523997 
L 204.993367 262.954209 
L 220.535262 263.263382 
L 242.652575 263.460565 
L 282.105079 263.553483 
L 443.800567 263.569088 
L 443.800567 263.569088 
" clip-path="url(#pd0a0ce4c87)" style="fill: none; stroke: #d62728; stroke-width: 1.6; stroke-linecap: square"/>
   </g>
   <g id="line2d_29">
    <path d="M 48.378883 263.569091 
L 53.161004 263.461729 
L 56.747596 263.146726 
L 60.633069 262.575698 
L 66.610721 261.432338 
L 73.783904 260.108035 
L 78.267143 259.509261 
L 82.451499 259.173066 
L 86.635856 259.060875 
L 91.119095 259.170219 
L 96.200099 259.529923 
L 102.476634 260.210239 
L 124.593947 262.808322 
L 131.468246 263.279212 
L 138.342546 263.523883 
L 145.515729 263.557236 
L 153.884442 263.365942 
L 164.943098 262.869086 
L 197.222419 261.285075 
L 209.775489 260.967277 
L 222.926323 260.860474 
L 237.870453 260.968265 
L 257.895588 261.351872 
L 327.236352 262.845661 
L 359.515673 263.21295 
L 400.163707 263.438108 
L 443.800567 263.528614 
L 443.800567 263.528614 
" clip-path="url(#pd0a0ce4c87)" style="fill: none; stroke: #9467bd; stroke-width: 1.6; stroke-linecap: square"/>
   </g>
   <g id="line2d_30">
    <path d="M 48.378883 263.569091 
L 54.9543 263.463738 
L 60.633069 263.129225 
L 79.462673 261.797822 
L 85.440325 261.71187 
L 92.015743 261.841808 
L 100.683338 262.255283 
L 121.60512 263.338813 
L 130.870481 263.544624 
L 141.03249 263.53936 
L 154.482207 263.286391 
L 182.876054 262.704104 
L 197.820184 262.662752 
L 215.753141 262.851883 
L 268.356479 263.551944 
L 291.071557 263.529601 
L 322.45423 263.248471 
L 375.356451 262.779212 
L 411.222363 262.713759 
L 443.800567 262.805596 
L 443.800567 262.805596 
" clip-path="url(#pd0a0ce4c87)" style="fill: none; stroke: #8c564b; stroke-width: 1.6; stroke-linecap: square"/>
   </g>
   <g id="line2d_31">
    <path d="M 48.378883 263.569091 
L 74.680552 263.460077 
L 86.038091 263.16937 
L 97.39563 262.652106 
L 112.937525 261.694579 
L 134.15819 260.411909 
L 146.412377 259.90375 
L 158.068798 259.641662 
L 170.322985 259.594582 
L 184.071585 259.77437 
L 201.406776 260.238315 
L 278.518487 262.577353 
L 305.716804 263.01823 
L 338.593891 263.317718 
L 384.322929 263.493042 
L 443.800567 263.555077 
L 443.800567 263.555077 
" clip-path="url(#pd0a0ce4c87)" style="fill: none; stroke: #e377c2; stroke-width: 1.6; stroke-linecap: square"/>
   </g>
   <g id="line2d_32">
    <path d="M 48.378883 263.569091 
L 78.864908 263.458327 
L 94.406804 263.143168 
L 135.652603 262.15049 
L 149.700085 262.143849 
L 165.540863 262.368769 
L 230.099506 263.552606 
L 251.021288 263.528829 
L 279.415135 263.250354 
L 334.708417 262.685303 
L 368.183268 262.603151 
L 410.325716 262.73977 
L 443.800567 262.930233 
L 443.800567 262.930233 
" clip-path="url(#pd0a0ce4c87)" style="fill: none; stroke: #7f7f7f; stroke-width: 1.6; stroke-linecap: square"/>
   </g>
   <g id="line2d_33">
    <path d="M 48.378883 263.569091 
L 82.152617 263.460342 
L 103.672164 263.111846 
L 128.47942 262.753481 
L 145.216846 262.751138 
L 165.241981 262.987494 
L 207.085545 263.533379 
L 229.50174 263.550769 
L 263.275475 263.316036 
L 301.83133 263.117061 
L 335.306182 263.186936 
L 436.926267 263.56349 
L 443.800567 263.553632 
L 443.800567 263.553632 
" clip-path="url(#pd0a0ce4c87)" style="fill: none; stroke: #bcbd22; stroke-width: 1.6; stroke-linecap: square"/>
   </g>
   <g id="patch_3">
    <path d="M 48.08 274.84 
L 48.08 26.88 
" style="fill: none; stroke: #000000; stroke-width: 0.8; stroke-linejoin: miter; stroke-linecap: square"/>
   </g>
   <g id="patch_4">
    <path d="M 443.7 274.84 
L 443.7 26.88 
" style="fill: none; stroke: #000000; stroke-width: 0.8; stroke-linejoin: miter; stroke-linecap: square"/>
   </g>
   <g id="patch_5">
    <path d="M 48.08 274.84 
L 443.7 274.84 
" style="fill: none; stroke: #000000; stroke-width: 0.8; stroke-linejoin: miter; stroke-linecap: square"/>
   </g>
   <g id="patch_6">
    <path d="M 48.08 26.88 
L 443.7 26.88 
" style="fill: none; stroke: #000000; stroke-width: 0.8; stroke-linejoin: miter; stroke-linecap: square"/>
   </g>
   <g id="text_16">
    <!-- Hydrogen radial probability densities -->
    <g transform="translate(135.084063 20.88) scale(0.12 -0.12)">
     <defs>
      <path id="DejaVuSans-48" d="M 628 4666 
L 1259 4666 
L 1259 2753 
L 3553 2753 
L 3553 4666 
L 4184 4666 
L 4184 0 
L 3553 0 
L 3553 2222 
L 1259 2222 
L 1259 0 
L 628 0 
L 628 4666 
z
" transform="scale(0.015625)"/>
      <path id="DejaVuSans-67" d="M 2906 1791 
Q 2906 2416 2648 2759 
Q 2391 3103 1925 3103 
Q 1463 3103 1205 2759 
Q 947 2416 947 1791 
Q 947 1169 1205 825 
Q 1463 481 1925 481 
Q 2391 481 2648 825 
Q 2906 1169 2906 1791 
z
M 3481 434 
Q 3481 -459 3084 -895 
Q 2688 -1331 1869 -1331 
Q 1566 -1331 1297 -1286 
Q 1028 -1241 775 -1147 
L 775 -588 
Q 1028 -725 1275 -790 
Q 1522 -856 1778 -856 
Q 2344 -856 2625 -561 
Q 2906 -266 2906 331 
L 2906 616 
Q 2728 306 2450 153 
Q 2172 0 1784 0 
Q 1141 0 747 490 
Q 353 981 353 1791 
Q 353 2603 747 3093 
Q 1141 3584 1784 3584 
Q 2172 3584 2450 3431 
Q 2728 3278 2906 2969 
L 2906 3500 
L 3481 3500 
L 3481 434 
z
" transform="scale(0.015625)"/>
     </defs>
     <use xlink:href="#DejaVuSans-48"/>
     <use xlink:href="#DejaVuSans-79" transform="translate(75.195312 0)"/>
     <use xlink:href="#DejaVuSans-64" transform="translate(134.375 0)"/>
     <use xlink:href="#DejaVuSans-72" transform="translate(197.851562 0)"/>
     <use xlink:href="#DejaVuSans-6f" transform="translate(236.714844 0)"/>
     <use xlink:href="#DejaVuSans-67" transform="translate(297.896484 0)"/>
     <use xlink:href="#DejaVuSans-65" transform="translate(361.373047 0)"/>
     <use xlink:href="#DejaVuSans-6e" transform="translate(422.896484 0)"/>
     <use xlink:href="#DejaVuSans-20" transform="translate(486.275391 0)"/>
     <use xlink:href="#DejaVuSans-72" transform="translate(518.0625 0)"/>
     <use xlink:href="#DejaVuSans-61" transform="translate(559.175781 0)"/>
     <use xlink:href="#DejaVuSans-64" transform="translate(620.455078 0)"/>
     <use xlink:href="#DejaVuSans-69" transform="translate(683.931641 0)"/>
     <use xlink:href="#DejaVuSans-61" transform="translate(711.714844 0)"/>
     <use xlink:href="#DejaVuSans-6c" transform="translate(772.994141 0)"/>
     <use xlink:href="#DejaVuSans-20" transform="translate(800.777344 0)"/>
     <use xlink:href="#DejaVuSans-70" transform="translate(832.564453 0)"/>
     <use xlink:href="#DejaVuSans-72" transform="translate(896.041016 0)"/>
     <use xlink:href="#DejaVuSans-6f" transform="translate(934.904297 0)"/>
     <use xlink:href="#DejaVuSans-62" transform="translate(996.085938 0)"/>
     <use xlink:href="#DejaVuSans-61" transform="translate(1059.5625 0)"/>
     <use xlink:href="#DejaVuSans-62" transform="translate(1120.841797 0)"/>
     <use xlink:href="#DejaVuSans-69" transform="translate(1184.318359 0)"/>
     <use xlink:href="#DejaVuSans-6c" transform="translate(1212.101562 0)"/>
     <use xlink:href="#DejaVuSans-69" transform="translate(1239.884766 0)"/>
     <use xlink:href="#DejaVuSans-74" transform="translate(1267.667969 0)"/>
     <use xlink:href="#DejaVuSans-79" transform="translate(1306.876953 0)"/>
     <use xlink:href="#DejaVuSans-20" transform="translate(1366.056641 0)"/>
     <use xlink:href="#DejaVuSans-64" transform="translate(1397.84375 0)"/>
     <use xlink:href="#DejaVuSans-65" transform="translate(1461.320312 0)"/>
     <use xlink:href="#DejaVuSans-6e" transform="translate(1522.84375 0)"/>
     <use xlink:href="#DejaVuSans-73" transform="translate(1586.222656 0)"/>
     <use xlink:href="#DejaVuSans-69" transform="translate(1638.322266 0)"/>
     <use xlink:href="#DejaVuSans-74" transform="translate(1666.105469 0)"/>
     <use xlink:href="#DejaVuSans-69" transform="translate(1705.314453 0)"/>
     <use xlink:href="#DejaVuSans-65" transform="translate(1733.097656 0)"/>
     <use xlink:href="#DejaVuSans-73" transform="translate(1794.621094 0)"/>
    </g>
   </g>
   <g id="legend_1">
    <g id="patch_7">
     <path d="M 376.535 138.9625 
L 438.1 138.9625 
Q 439.7 138.9625 439.7 137.3625 
L 439.7 32.48 
Q 439.7 30.88 438.1 30.88 
L 376.535 30.88 
Q 374.935 30.88 374.935 32.48 
L 374.935 137.3625 
Q 374.935 138.9625 376.535 138.9625 
z
" style="fill: #ffffff; opacity: 0.8; stroke: #cccccc; stroke-linejoin: miter"/>
    </g>
    <g id="line2d_34">
     <path d="M 378.135 37.35875 
L 386.135 37.35875 
L 394.135 37.35875 
" style="fill: none; stroke: #1f77b4; stroke-width: 1.6; stroke-linecap: square"/>
    </g>
    <g id="text_17">
     <!-- n=1, l=0 -->
     <g transform="translate(400.535 40.15875) scale(0.08 -0.08)">
      <defs>
       <path id="DejaVuSans-3d" d="M 678 2906 
L 4684 2906 
L 4684 2381 
L 678 2381 
L 678 2906 
z
M 678 1631 
L 4684 1631 
L 4684 1100 
L 678 1100 
L 678 1631 
z
" transform="scale(0.015625)"/>
       <path id="DejaVuSans-2c" d="M 750 794 
L 1409 794 
L 1409 256 
L 897 -744 
L 494 -744 
L 750 256 
L 750 794 
z
" transform="scale(0.015625)"/>
      </defs>
      <use xlink:href="#DejaVuSans-6e"/>
      <use xlink:href="#DejaVuSans-3d" transform="translate(63.378906 0)"/>
      <use xlink:href="#DejaVuSans-31" transform="translate(147.167969 0)"/>
      <use xlink:href="#DejaVuSans-2c" transform="translate(210.791016 0)"/>
      <use xlink:href="#DejaVuSans-20" transform="translate(242.578125 0)"/>
      <use xlink:href="#DejaVuSans-6c" transform="translate(274.365234 0)"/>
      <use xlink:href="#DejaVuSans-3d" transform="translate(302.148438 0)"/>
      <use xlink:href="#DejaVuSans-30" transform="translate(385.9375 0)"/>
     </g>
    </g>
    <g id="line2d_35">
     <path d="M 378.135 49.10125 
L 386.135 49.10125 
L 394.135 49.10125 
" style="fill: none; stroke: #ff7f0e; stroke-width: 1.6; stroke-linecap: square"/>
    </g>
    <g id="text_18">
     <!-- n=2, l=0 -->
     <g transform="translate(400.535 51.90125) scale(0.08 -0.08)">
      <use xlink:href="#DejaVuSans-6e"/>
      <use xlink:href="#DejaVuSans-3d" transform="translate(63.378906 0)"/>
      <use xlink:href="#DejaVuSans-32" transform="translate(147.167969 0)"/>
      <use xlink:href="#DejaVuSans-2c" transform="translate(210.791016 0)"/>
      <use xlink:href="#DejaVuSans-20" transform="translate(242.578125 0)"/>
      <use xlink:href="#DejaVuSans-6c" transform="translate(274.365234 0)"/>
      <use xlink:href="#DejaVuSans-3d" transform="translate(302.148438 0)"/>
      <use xlink:href="#DejaVuSans-30" transform="translate(385.9375 0)"/>
     </g>
    </g>
    <g id="line2d_36">
     <path d="M 378.135 60.84375 
L 386.135 60.84375 
L 394.135 60.84375 
" style="fill: none; stroke: #2ca02c; stroke-width: 1.6; stroke-linecap: square"/>
    </g>
    <g id="text_19">
     <!-- n=3, l=0 -->
     <g transform="translate(400.535 63.64375) scale(0.08 -0.08)">
      <defs>
       <path id="DejaVuSans-33" d="M 2597 2516 
Q 3050 2419 3304 2112 
Q 3559 1806 3559 1356 
Q 3559 666 3084 287 
Q 2609 -91 1734 -91 
Q 1441 -91 1130 -33 
Q 819 25 488 141 
L 488 750 
Q 750 597 1062 519 
Q 1375 441 1716 441 
Q 2309 441 2620 675 
Q 2931 909 2931 1356 
Q 2931 1769 2642 2001 
Q 2353 2234 1838 2234 
L 1294 2234 
L 1294 2753 
L 1863 2753 
Q 2328 2753 2575 2939 
Q 2822 3125 2822 3475 
Q 2822 3834 2567 4026 
Q 2313 4219 1838 4219 
Q 1578 4219 1281 4162 
Q 984 4106 628 3988 
L 628 4550 
Q 988 4650 1302 4700 
Q 1616 4750 1894 4750 
Q 2613 4750 3031 4423 
Q 3450 4097 3450 3541 
Q 3450 3153 3228 2886 
Q 3006 2619 2597 2516 
z
" transform="scale(0.015625)"/>
      </defs>
      <use xlink:href="#DejaVuSans-6e"/>
      <use xlink:href="#DejaVuSans-3d" transform="translate(63.378906 0)"/>
      <use xlink:href="#DejaVuSans-33" transform="translate(147.167969 0)"/>
      <use xlink:href="#DejaVuSans-2c" transform="translate(210.791016 0)"/>
      <use xlink:href="#DejaVuSans-20" transform="translate(242.578125 0)"/>
      <use xlink:href="#DejaVuSans-6c" transform="translate(274.365234 0)"/>
      <use xlink:href="#DejaVuSans-3d" transform="translate(302.148438 0)"/>
      <use xlink:href="#DejaVuSans-30" transform="translate(385.9375 0)"/>
     </g>
    </g>
    <g id="line2d_37">
     <path d="M 378.135 72.58625 
L 386.135 72.58625 
L 394.135 72.58625 
" style="fill: none; stroke: #d62728; stroke-width: 1.6; stroke-linecap: square"/>
    </g>
    <g id="text_20">
     <!-- n=2, l=1 -->
     <g transform="translate(400.535 75.38625) scale(0.08 -0.08)">
      <use xlink:href="#DejaVuSans-6e"/>
      <use xlink:href="#DejaVuSans-3d" transform="translate(63.378906 0)"/>
      <use xlink:href="#DejaVuSans-32" transform="translate(147.167969 0)"/>
      <use xlink:href="#DejaVuSans-2c" transform="translate(210.791016 0)"/>
      <use xlink:href="#DejaVuSans-20" transform="translate(242.578125 0)"/>
      <use xlink:href="#DejaVuSans-6c" transform="translate(274.365234 0)"/>
      <use xlink:href="#DejaVuSans-3d" transform="translate(302.148438 0)"/>
      <use xlink:href="#DejaVuSans-31" transform="translate(385.9375 0)"/>
     </g>
    </g>
    <g id="line2d_38">
     <path d="M 378.135 84.32875 
L 386.135 84.32875 
L 394.135 84.32875 
" style="fill: none; stroke: #9467bd; stroke-width: 1.6; stroke-linecap: square"/>
    </g>
    <g id="text_21">
     <!-- n=3, l=1 -->
     <g transform="translate(400.535 87.12875) scale(0.08 -0.08)">
      <use xlink:href="#DejaVuSans-6e"/>
      <use xlink:href="#DejaVuSans-3d" transform="translate(63.378906 0)"/>
      <use xlink:href="#DejaVuSans-33" transform="translate(147.167969 0)"/>
      <use xlink:href="#DejaVuSans-2c" transform="translate(210.791016 0)"/>
      <use xlink:href="#DejaVuSans-20" transform="translate(242.578125 0)"/>
      <use xlink:href="#DejaVuSans-6c" transform="translate(274.365234 0)"/>
      <use xlink:href="#DejaVuSans-3d" transform="translate(302.148438 0)"/>
      <use xlink:href="#DejaVuSans-31" transform="translate(385.9375 0)"/>
     </g>
    </g>
    <g id="line2d_39">
     <path d="M 378.135 96.07125 
L 386.135 96.07125 
L 394.135 96.07125 
" style="fill: none; stroke: #8c564b; stroke-width: 1.6; stroke-linecap: square"/>
    </g>
    <g id="text_22">
     <!-- n=4, l=1 -->
     <g transform="translate(400.535 98.87125) scale(0.08 -0.08)">
      <defs>
       <path id="DejaVuSans-34" d="M 2419 4116 
L 825 1625 
L 2419 1625 
L 2419 4116 
z
M 2253 4666 
L 3047 4666 
L 3047 1625 
L 3713 1625 
L 3713 1100 
L 3047 1100 
L 3047 0 
L 2419 0 
L 2419 1100 
L 313 1100 
L 313 1709 
L 2253 4666 
z
" transform="scale(0.015625)"/>
      </defs>
      <use xlink:href="#DejaVuSans-6e"/>
      <use xlink:href="#DejaVuSans-3d" transform="translate(63.378906 0)"/>
      <use xlink:href="#DejaVuSans-34" transform="translate(147.167969 0)"/>
      <use xlink:href="#DejaVuSans-2c" transform="translate(210.791016 0)"/>
      <use xlink:href="#DejaVuSans-20" transform="translate(242.578125 0)"/>
      <use xlink:href="#DejaVuSans-6c" transform="translate(274.365234 0)"/>
      <use xlink:href="#DejaVuSans-3d" transform="translate(302.148438 0)"/>
      <use xlink:href="#DejaVuSans-31" transform="translate(385.9375 0)"/>
     </g>
    </g>
    <g id="line2d_40">
     <path d="M 378.135 107.81375 
L 386.135 107.81375 
L 394.135 107.81375 
" style="fill: none; stroke: #e377c2; stroke-width: 1.6; stroke-linecap: square"/>
    </g>
    <g id="text_23">
     <!-- n=3, l=2 -->
     <g transform="translate(400.535 110.61375) scale(0.08 -0.08)">
      <use xlink:href="#DejaVuSans-6e"/>
      <use xlink:href="#DejaVuSans-3d" transform="translate(63.378906 0)"/>
      <use xlink:href="#DejaVuSans-33" transform="translate(147.167969 0)"/>
      <use xlink:href="#DejaVuSans-2c" transform="translate(210.791016 0)"/>
      <use xlink:href="#DejaVuSans-20" transform="translate(242.578125 0)"/>
      <use xlink:href="#DejaVuSans-6c" transform="translate(274.365234 0)"/>
      <use xlink:href="#DejaVuSans-3d" transform="translate(302.148438 0)"/>
      <use xlink:href="#DejaVuSans-32" transform="translate(385.9375 0)"/>
     </g>
    </g>
    <g id="line2d_41">
     <path d="M 378.135 119.55625 
L 386.135 119.55625 
L 394.135 119.55625 
" style="fill: none; stroke: #7f7f7f; stroke-width: 1.6; stroke-linecap: square"/>
    </g>
    <g id="text_24">
     <!-- n=4, l=2 -->
     <g transform="translate(400.535 122.35625) scale(0.08 -0.08)">
      <use xlink:href="#DejaVuSans-6e"/>
      <use xlink:href="#DejaVuSans-3d" transform="translate(63.378906 0)"/>
      <use xlink:href="#DejaVuSans-34" transform="translate(147.167969 0)"/>
      <use xlink:href="#DejaVuSans-2c" transform="translate(210.791016 0)"/>
      <use xlink:href="#DejaVuSans-20" transform="translate(242.578125 0)"/>
      <use xlink:href="#DejaVuSans-6c" transform="translate(274.365234 0)"/>
      <use xlink:href="#DejaVuSans-3d" transform="translate(302.148438 0)"/>
      <use xlink:href="#DejaVuSans-32" transform="translate(385.9375 0)"/>
     </g>
    </g>
    <g id="line2d_42">
     <path d="M 378.135 131.29875 
L 386.135 131.29875 
L 394.135 131.29875 
" style="fill: none; stroke: #bcbd22; stroke-width: 1.6; stroke-linecap: square"/>
    </g>
    <g id="text_25">
     <!-- n=5, l=2 -->
     <g transform="translate(400.535 134.09875) scale(0.08 -0.08)">
      <use xlink:href="#DejaVuSans-6e"/>
      <use xlink:href="#DejaVuSans-3d" transform="translate(63.378906 0)"/>
      <use xlink:href="#DejaVuSans-35" transform="translate(147.167969 0)"/>
      <use xlink:href="#DejaVuSans-2c" transform="translate(210.791016 0)"/>
      <use xlink:href="#DejaVuSans-20" transform="translate(242.578125 0)"/>
      <use xlink:href="#DejaVuSans-6c" transform="translate(274.365234 0)"/>
      <use xlink:href="#DejaVuSans-3d" transform="translate(302.148438 0)"/>
      <use xlink:href="#DejaVuSans-32" transform="translate(385.9375 0)"/>
     </g>
    </g>
   </g>
  </g>
 </g>
 <defs>
  <clipPath id="pd0a0ce4c87">
   <rect x="48.08" y="26.88" width="395.62" height="247.96"/>
  </clipPath>
 </defs>
</svg>
