<?xml version="1.0" encoding="utf-8" standalone="no"?>
<!DOCTYPE svg PUBLIC "-//W3C//DTD SVG 1.1//EN"
  "http://www.w3.org/Graphics/SVG/1.1/DTD/svg11.dtd">
<svg xmlns:xlink="http://www.w3.org/1999/xlink" width="936pt" height="288pt" viewBox="0 0 936 288" xmlns="http://www.w3.org/2000/svg" version="1.1">
 <metadata>
  <rdf:RDF xmlns:dc="http://purl.org/dc/elements/1.1/" xmlns:cc="http://creativecommons.org/ns#" xmlns:rdf="http://www.w3.org/1999/02/22-rdf-syntax-ns#">
   <cc:Work>
    <dc:type rdf:resource="http://purl.org/dc/dcmitype/StillImage"/>
    <dc:date>2026-09-01T20:11:24.798687</dc:date>
    <dc:format>image/svg+xml</dc:format>
    <dc:creator>
     <cc:Agent>
      <dc:title>Matplotlib v3.10.9, https://matplotlib.org/</dc:title>
     </cc:Agent>
    </dc:creator>
   </cc:Work>
  </rdf:RDF>
 </metadata>
 <defs>
  <style type="text/css">*{stroke-linejoin: round; stroke-linecap: butt}</style>
 </defs>
 <g id="figure_1">
  <g id="patch_1">
   <path d="M 0 288 
L 936 288 
L 936 0 
L 0 0 
z
" style="fill: #ffffff"/>
  </g>
  <g id="axes_1">
   <g id="patch_2">
    <path d="M 47.72 246.04 
L 305.798867 246.04 
L 305.798867 26.88 
L 47.72 26.88 
z
" style="fill: #ffffff"/>
   </g>
   <g id="matplotlib.axis_1">
    <g id="xtick_1">
     <g id="line2d_1">
      <path d="M 83.897161 246.04 
L 83.897161 26.88 
" clip-path="url(#pba4c77f8a6)" style="fill: none; stroke-dasharray: 0.8,1.32; stroke-dashoffset: 0; stroke: #b0b0b0; stroke-width: 0.8"/>
     </g>
     <g id="line2d_2">
      <defs>
       <path id="m356b3e27ef" d="M 0 0 
L 0 3.5 
" style="stroke: #000000; stroke-width: 0.8"/>
      </defs>
      <g>
       <use xlink:href="#m356b3e27ef" x="83.897161" y="246.04" style="stroke: #000000; stroke-width: 0.8"/>
      </g>
     </g>
     <g id="text_1">
      <!-- −1.0 -->
      <g transform="translate(71.755755 260.638438) scale(0.1 -0.1)">
       <defs>
        <path id="DejaVuSans-2212" d="M 678 2272 
L 4684 2272 
L 4684 1741 
L 678 1741 
L 678 2272 
z
" transform="scale(0.015625)"/>
        <path id="DejaVuSans-31" d="M 794 531 
L 1825 531 
L 1825 4091 
L 703 3866 
L 703 4441 
L 1819 4666 
L 2450 4666 
L 2450 531 
L 3481 531 
L 3481 0 
L 794 0 
L 794 531 
z
" transform="scale(0.015625)"/>
        <path id="DejaVuSans-2e" d="M 684 794 
L 1344 794 
L 1344 0 
L 684 0 
L 684 794 
z
" transform="scale(0.015625)"/>
        <path id="DejaVuSans-30" d="M 2034 4250 
Q 1547 4250 1301 3770 
Q 1056 3291 1056 2328 
Q 1056 1369 1301 889 
Q 1547 409 2034 409 
Q 2525 409 2770 889 
Q 3016 1369 3016 2328 
Q 3016 3291 2770 3770 
Q 2525 4250 2034 4250 
z
M 2034 4750 
Q 2819 4750 3233 4129 
Q 3647 3509 3647 2328 
Q 3647 1150 3233 529 
Q 2819 -91 2034 -91 
Q 1250 -91 836 529 
Q 422 1150 422 2328 
Q 422 3509 836 4129 
Q 1250 4750 2034 4750 
z
" transform="scale(0.015625)"/>
       </defs>
       <use xlink:href="#DejaVuSans-2212"/>
       <use xlink:href="#DejaVuSans-31" transform="translate(83.789062 0)"/>
       <use xlink:href="#DejaVuSans-2e" transform="translate(147.412109 0)"/>
       <use xlink:href="#DejaVuSans-30" transform="translate(179.199219 0)"/>
      </g>
     </g>
    </g>
    <g id="xtick_2">
     <g id="line2d_3">
      <path d="M 131.525323 246.04 
L 131.525323 26.88 
" clip-path="url(#pba4c77f8a6)" style="fill: none; stroke-dasharray: 0.8,1.32; stroke-dashoffset: 0; stroke: #b0b0b0; stroke-width: 0.8"/>
     </g>
     <g id="line2d_4">
      <g>
       <use xlink:href="#m356b3e27ef" x="131.525323" y="246.04" style="stroke: #000000; stroke-width: 0.8"/>
      </g>
     </g>
     <g id="text_2">
      <!-- −0.5 -->
      <g transform="translate(119.383917 260.638438) scale(0.1 -0.1)">
       <defs>
        <path id="DejaVuSans-35" d="M 691 4666 
L 3169 4666 
L 3169 4134 
L 1269 4134 
L 1269 2991 
Q 1406 3038 1543 3061 
Q 1681 3084 1819 3084 
Q 2600 3084 3056 2656 
Q 3513 2228 3513 1497 
Q 3513 744 3044 326 
Q 2575 -91 1722 -91 
Q 1428 -91 1123 -41 
Q 819 9 494 109 
L 494 744 
Q 775 591 1075 516 
Q 1375 441 1709 441 
Q 2250 441 2565 725 
Q 2881 1009 2881 1497 
Q 2881 1984 2565 2268 
Q 2250 2553 1709 2553 
Q 1456 2553 1204 2497 
Q 953 2441 691 2322 
L 691 4666 
z
" transform="scale(0.015625)"/>
       </defs>
       <use xlink:href="#DejaVuSans-2212"/>
       <use xlink:href="#DejaVuSans-30" transform="translate(83.789062 0)"/>
       <use xlink:href="#DejaVuSans-2e" transform="translate(147.412109 0)"/>
       <use xlink:href="#DejaVuSans-35" transform="translate(179.199219 0)"/>
      </g>
     </g>
    </g>
    <g id="xtick_3">
     <g id="line2d_5">
      <path d="M 179.153486 246.04 
L 179.153486 26.88 
" clip-path="url(#pba4c77f8a6)" style="fill: none; stroke-dasharray: 0.8,1.32; stroke-dashoffset: 0; stroke: #b0b0b0; stroke-width: 0.8"/>
     </g>
     <g id="line2d_6">
      <g>
       <use xlink:href="#m356b3e27ef" x="179.153486" y="246.04" style="stroke: #000000; stroke-width: 0.8"/>
      </g>
     </g>
     <g id="text_3">
      <!-- 0.0 -->
      <g transform="translate(171.201924 260.638438) scale(0.1 -0.1)">
       <use xlink:href="#DejaVuSans-30"/>
       <use xlink:href="#DejaVuSans-2e" transform="translate(63.623047 0)"/>
       <use xlink:href="#DejaVuSans-30" transform="translate(95.410156 0)"/>
      </g>
     </g>
    </g>
    <g id="xtick_4">
     <g id="line2d_7">
      <path d="M 226.781649 246.04 
L 226.781649 26.88 
" clip-path="url(#pba4c77f8a6)" style="fill: none; stroke-dasharray: 0.8,1.32; stroke-dashoffset: 0; stroke: #b0b0b0; stroke-width: 0.8"/>
     </g>
     <g id="line2d_8">
      <g>
       <use xlink:href="#m356b3e27ef" x="226.781649" y="246.04" style="stroke: #000000; stroke-width: 0.8"/>
      </g>
     </g>
     <g id="text_4">
      <!-- 0.5 -->
      <g transform="translate(218.830086 260.638438) scale(0.1 -0.1)">
       <use xlink:href="#DejaVuSans-30"/>
       <use xlink:href="#DejaVuSans-2e" transform="translate(63.623047 0)"/>
       <use xlink:href="#DejaVuSans-35" transform="translate(95.410156 0)"/>
      </g>
     </g>
    </g>
    <g id="xtick_5">
     <g id="line2d_9">
      <path d="M 274.409811 246.04 
L 274.409811 26.88 
" clip-path="url(#pba4c77f8a6)" style="fill: none; stroke-dasharray: 0.8,1.32; stroke-dashoffset: 0; stroke: #b0b0b0; stroke-width: 0.8"/>
     </g>
     <g id="line2d_10">
      <g>
       <use xlink:href="#m356b3e27ef" x="274.409811" y="246.04" style="stroke: #000000; stroke-width: 0.8"/>
      </g>
     </g>
     <g id="text_5">
      <!-- 1.0 -->
      <g transform="translate(266.458249 260.638438) scale(0.1 -0.1)">
       <use xlink:href="#DejaVuSans-31"/>
       <use xlink:href="#DejaVuSans-2e" transform="translate(63.623047 0)"/>
       <use xlink:href="#DejaVuSans-30" transform="translate(95.410156 0)"/>
      </g>
     </g>
    </g>
    <g id="text_6">
     <!-- k a / (2 pi)  (dimensionless) -->
     <g transform="translate(108.457871 274.316562) scale(0.1 -0.1)">
      <defs>
       <path id="DejaVuSans-6b" d="M 581 4863 
L 1159 4863 
L 1159 1991 
L 2875 3500 
L 3609 3500 
L 1753 1863 
L 3688 0 
L 2938 0 
L 1159 1709 
L 1159 0 
L 581 0 
L 581 4863 
z
" transform="scale(0.015625)"/>
       <path id="DejaVuSans-20" transform="scale(0.015625)"/>
       <path id="DejaVuSans-61" d="M 2194 1759 
Q 1497 1759 1228 1600 
Q 959 1441 959 1056 
Q 959 750 1161 570 
Q 1363 391 1709 391 
Q 2188 391 2477 730 
Q 2766 1069 2766 1631 
L 2766 1759 
L 2194 1759 
z
M 3341 1997 
L 3341 0 
L 2766 0 
L 2766 531 
Q 2569 213 2275 61 
Q 1981 -91 1556 -91 
Q 1019 -91 701 211 
Q 384 513 384 1019 
Q 384 1609 779 1909 
Q 1175 2209 1959 2209 
L 2766 2209 
L 2766 2266 
Q 2766 2663 2505 2880 
Q 2244 3097 1772 3097 
Q 1472 3097 1187 3025 
Q 903 2953 641 2809 
L 641 3341 
Q 956 3463 1253 3523 
Q 1550 3584 1831 3584 
Q 2591 3584 2966 3190 
Q 3341 2797 3341 1997 
z
" transform="scale(0.015625)"/>
       <path id="DejaVuSans-2f" d="M 1625 4666 
L 2156 4666 
L 531 -594 
L 0 -594 
L 1625 4666 
z
" transform="scale(0.015625)"/>
       <path id="DejaVuSans-28" d="M 1984 4856 
Q 1566 4138 1362 3434 
Q 1159 2731 1159 2009 
Q 1159 1288 1364 580 
Q 1569 -128 1984 -844 
L 1484 -844 
Q 1016 -109 783 600 
Q 550 1309 550 2009 
Q 550 2706 781 3412 
Q 1013 4119 1484 4856 
L 1984 4856 
z
" transform="scale(0.015625)"/>
       <path id="DejaVuSans-32" d="M 1228 531 
L 3431 531 
L 3431 0 
L 469 0 
L 469 531 
Q 828 903 1448 1529 
Q 2069 2156 2228 2338 
Q 2531 2678 2651 2914 
Q 2772 3150 2772 3378 
Q 2772 3750 2511 3984 
Q 2250 4219 1831 4219 
Q 1534 4219 1204 4116 
Q 875 4013 500 3803 
L 500 4441 
Q 881 4594 1212 4672 
Q 1544 4750 1819 4750 
Q 2544 4750 2975 4387 
Q 3406 4025 3406 3419 
Q 3406 3131 3298 2873 
Q 3191 2616 2906 2266 
Q 2828 2175 2409 1742 
Q 1991 1309 1228 531 
z
" transform="scale(0.015625)"/>
       <path id="DejaVuSans-70" d="M 1159 525 
L 1159 -1331 
L 581 -1331 
L 581 3500 
L 1159 3500 
L 1159 2969 
Q 1341 3281 1617 3432 
Q 1894 3584 2278 3584 
Q 2916 3584 3314 3078 
Q 3713 2572 3713 1747 
Q 3713 922 3314 415 
Q 2916 -91 2278 -91 
Q 1894 -91 1617 61 
Q 1341 213 1159 525 
z
M 3116 1747 
Q 3116 2381 2855 2742 
Q 2594 3103 2138 3103 
Q 1681 3103 1420 2742 
Q 1159 2381 1159 1747 
Q 1159 1113 1420 752 
Q 1681 391 2138 391 
Q 2594 391 2855 752 
Q 3116 1113 3116 1747 
z
" transform="scale(0.015625)"/>
       <path id="DejaVuSans-69" d="M 603 3500 
L 1178 3500 
L 1178 0 
L 603 0 
L 603 3500 
z
M 603 4863 
L 1178 4863 
L 1178 4134 
L 603 4134 
L 603 4863 
z
" transform="scale(0.015625)"/>
       <path id="DejaVuSans-29" d="M 513 4856 
L 1013 4856 
Q 1481 4119 1714 3412 
Q 1947 2706 1947 2009 
Q 1947 1309 1714 600 
Q 1481 -109 1013 -844 
L 513 -844 
Q 928 -128 1133 580 
Q 1338 1288 1338 2009 
Q 1338 2731 1133 3434 
Q 928 4138 513 4856 
z
" transform="scale(0.015625)"/>
       <path id="DejaVuSans-64" d="M 2906 2969 
L 2906 4863 
L 3481 4863 
L 3481 0 
L 2906 0 
L 2906 525 
Q 2725 213 2448 61 
Q 2172 -91 1784 -91 
Q 1150 -91 751 415 
Q 353 922 353 1747 
Q 353 2572 751 3078 
Q 1150 3584 1784 3584 
Q 2172 3584 2448 3432 
Q 2725 3281 2906 2969 
z
M 947 1747 
Q 947 1113 1208 752 
Q 1469 391 1925 391 
Q 2381 391 2643 752 
Q 2906 1113 2906 1747 
Q 2906 2381 2643 2742 
Q 2381 3103 1925 3103 
Q 1469 3103 1208 2742 
Q 947 2381 947 1747 
z
" transform="scale(0.015625)"/>
       <path id="DejaVuSans-6d" d="M 3328 2828 
Q 3544 3216 3844 3400 
Q 4144 3584 4550 3584 
Q 5097 3584 5394 3201 
Q 5691 2819 5691 2113 
L 5691 0 
L 5113 0 
L 5113 2094 
Q 5113 2597 4934 2840 
Q 4756 3084 4391 3084 
Q 3944 3084 3684 2787 
Q 3425 2491 3425 1978 
L 3425 0 
L 2847 0 
L 2847 2094 
Q 2847 2600 2669 2842 
Q 2491 3084 2119 3084 
Q 1678 3084 1418 2786 
Q 1159 2488 1159 1978 
L 1159 0 
L 581 0 
L 581 3500 
L 1159 3500 
L 1159 2956 
Q 1356 3278 1631 3431 
Q 1906 3584 2284 3584 
Q 2666 3584 2933 3390 
Q 3200 3197 3328 2828 
z
" transform="scale(0.015625)"/>
       <path id="DejaVuSans-65" d="M 3597 1894 
L 3597 1613 
L 953 1613 
Q 991 1019 1311 708 
Q 1631 397 2203 397 
Q 2534 397 2845 478 
Q 3156 559 3463 722 
L 3463 178 
Q 3153 47 2828 -22 
Q 2503 -91 2169 -91 
Q 1331 -91 842 396 
Q 353 884 353 1716 
Q 353 2575 817 3079 
Q 1281 3584 2069 3584 
Q 2775 3584 3186 3129 
Q 3597 2675 3597 1894 
z
M 3022 2063 
Q 3016 2534 2758 2815 
Q 2500 3097 2075 3097 
Q 1594 3097 1305 2825 
Q 1016 2553 972 2059 
L 3022 2063 
z
" transform="scale(0.015625)"/>
       <path id="DejaVuSans-6e" d="M 3513 2113 
L 3513 0 
L 2938 0 
L 2938 2094 
Q 2938 2591 2744 2837 
Q 2550 3084 2163 3084 
Q 1697 3084 1428 2787 
Q 1159 2491 1159 1978 
L 1159 0 
L 581 0 
L 581 3500 
L 1159 3500 
L 1159 2956 
Q 1366 3272 1645 3428 
Q 1925 3584 2291 3584 
Q 2894 3584 3203 3211 
Q 3513 2838 3513 2113 
z
" transform="scale(0.015625)"/>
       <path id="DejaVuSans-73" d="M 2834 3397 
L 2834 2853 
Q 2591 2978 2328 3040 
Q 2066 3103 1784 3103 
Q 1356 3103 1142 2972 
Q 928 2841 928 2578 
Q 928 2378 1081 2264 
Q 1234 2150 1697 2047 
L 1894 2003 
Q 2506 1872 2764 1633 
Q 3022 1394 3022 966 
Q 3022 478 2636 193 
Q 2250 -91 1575 -91 
Q 1294 -91 989 -36 
Q 684 19 347 128 
L 347 722 
Q 666 556 975 473 
Q 1284 391 1588 391 
Q 1994 391 2212 530 
Q 2431 669 2431 922 
Q 2431 1156 2273 1281 
Q 2116 1406 1581 1522 
L 1381 1569 
Q 847 1681 609 1914 
Q 372 2147 372 2553 
Q 372 3047 722 3315 
Q 1072 3584 1716 3584 
Q 2034 3584 2315 3537 
Q 2597 3491 2834 3397 
z
" transform="scale(0.015625)"/>
       <path id="DejaVuSans-6f" d="M 1959 3097 
Q 1497 3097 1228 2736 
Q 959 2375 959 1747 
Q 959 1119 1226 758 
Q 1494 397 1959 397 
Q 2419 397 2687 759 
Q 2956 1122 2956 1747 
Q 2956 2369 2687 2733 
Q 2419 3097 1959 3097 
z
M 1959 3584 
Q 2709 3584 3137 3096 
Q 3566 2609 3566 1747 
Q 3566 888 3137 398 
Q 2709 -91 1959 -91 
Q 1206 -91 779 398 
Q 353 888 353 1747 
Q 353 2609 779 3096 
Q 1206 3584 1959 3584 
z
" transform="scale(0.015625)"/>
       <path id="DejaVuSans-6c" d="M 603 4863 
L 1178 4863 
L 1178 0 
L 603 0 
L 603 4863 
z
" transform="scale(0.015625)"/>
      </defs>
      <use xlink:href="#DejaVuSans-6b"/>
      <use xlink:href="#DejaVuSans-20" transform="translate(57.910156 0)"/>
      <use xlink:href="#DejaVuSans-61" transform="translate(89.697266 0)"/>
      <use xlink:href="#DejaVuSans-20" transform="translate(150.976562 0)"/>
      <use xlink:href="#DejaVuSans-2f" transform="translate(182.763672 0)"/>
      <use xlink:href="#DejaVuSans-20" transform="translate(216.455078 0)"/>
      <use xlink:href="#DejaVuSans-28" transform="translate(248.242188 0)"/>
      <use xlink:href="#DejaVuSans-32" transform="translate(287.255859 0)"/>
      <use xlink:href="#DejaVuSans-20" transform="translate(350.878906 0)"/>
      <use xlink:href="#DejaVuSans-70" transform="translate(382.666016 0)"/>
      <use xlink:href="#DejaVuSans-69" transform="translate(446.142578 0)"/>
      <use xlink:href="#DejaVuSans-29" transform="translate(473.925781 0)"/>
      <use xlink:href="#DejaVuSans-20" transform="translate(512.939453 0)"/>
      <use xlink:href="#DejaVuSans-20" transform="translate(544.726562 0)"/>
      <use xlink:href="#DejaVuSans-28" transform="translate(576.513672 0)"/>
      <use xlink:href="#DejaVuSans-64" transform="translate(615.527344 0)"/>
      <use xlink:href="#DejaVuSans-69" transform="translate(679.003906 0)"/>
      <use xlink:href="#DejaVuSans-6d" transform="translate(706.787109 0)"/>
      <use xlink:href="#DejaVuSans-65" transform="translate(804.199219 0)"/>
      <use xlink:href="#DejaVuSans-6e" transform="translate(865.722656 0)"/>
      <use xlink:href="#DejaVuSans-73" transform="translate(929.101562 0)"/>
      <use xlink:href="#DejaVuSans-69" transform="translate(981.201172 0)"/>
      <use xlink:href="#DejaVuSans-6f" transform="translate(1008.984375 0)"/>
      <use xlink:href="#DejaVuSans-6e" transform="translate(1070.166016 0)"/>
      <use xlink:href="#DejaVuSans-6c" transform="translate(1133.544922 0)"/>
      <use xlink:href="#DejaVuSans-65" transform="translate(1161.328125 0)"/>
      <use xlink:href="#DejaVuSans-73" transform="translate(1222.851562 0)"/>
      <use xlink:href="#DejaVuSans-73" transform="translate(1274.951172 0)"/>
      <use xlink:href="#DejaVuSans-29" transform="translate(1327.050781 0)"/>
     </g>
    </g>
    <g id="text_7">
     <!-- 1e19 -->
     <g transform="translate(280.558242 273.316562) scale(0.1 -0.1)">
      <defs>
       <path id="DejaVuSans-39" d="M 703 97 
L 703 672 
Q 941 559 1184 500 
Q 1428 441 1663 441 
Q 2288 441 2617 861 
Q 2947 1281 2994 2138 
Q 2813 1869 2534 1725 
Q 2256 1581 1919 1581 
Q 1219 1581 811 2004 
Q 403 2428 403 3163 
Q 403 3881 828 4315 
Q 1253 4750 1959 4750 
Q 2769 4750 3195 4129 
Q 3622 3509 3622 2328 
Q 3622 1225 3098 567 
Q 2575 -91 1691 -91 
Q 1453 -91 1209 -44 
Q 966 3 703 97 
z
M 1959 2075 
Q 2384 2075 2632 2365 
Q 2881 2656 2881 3163 
Q 2881 3666 2632 3958 
Q 2384 4250 1959 4250 
Q 1534 4250 1286 3958 
Q 1038 3666 1038 3163 
Q 1038 2656 1286 2365 
Q 1534 2075 1959 2075 
z
" transform="scale(0.015625)"/>
      </defs>
      <use xlink:href="#DejaVuSans-31"/>
      <use xlink:href="#DejaVuSans-65" transform="translate(63.623047 0)"/>
      <use xlink:href="#DejaVuSans-31" transform="translate(125.146484 0)"/>
      <use xlink:href="#DejaVuSans-39" transform="translate(188.769531 0)"/>
     </g>
    </g>
   </g>
   <g id="matplotlib.axis_2">
    <g id="ytick_1">
     <g id="line2d_11">
      <path d="M 47.72 236.078182 
L 305.798867 236.078182 
" clip-path="url(#pba4c77f8a6)" style="fill: none; stroke-dasharray: 0.8,1.32; stroke-dashoffset: 0; stroke: #b0b0b0; stroke-width: 0.8"/>
     </g>
     <g id="line2d_12">
      <defs>
       <path id="mea39538103" d="M 0 0 
L -3.5 0 
" style="stroke: #000000; stroke-width: 0.8"/>
      </defs>
      <g>
       <use xlink:href="#mea39538103" x="47.72" y="236.078182" style="stroke: #000000; stroke-width: 0.8"/>
      </g>
     </g>
     <g id="text_8">
      <!-- 0.0 -->
      <g transform="translate(24.816875 239.877401) scale(0.1 -0.1)">
       <use xlink:href="#DejaVuSans-30"/>
       <use xlink:href="#DejaVuSans-2e" transform="translate(63.623047 0)"/>
       <use xlink:href="#DejaVuSans-30" transform="translate(95.410156 0)"/>
      </g>
     </g>
    </g>
    <g id="ytick_2">
     <g id="line2d_13">
      <path d="M 47.72 211.173636 
L 305.798867 211.173636 
" clip-path="url(#pba4c77f8a6)" style="fill: none; stroke-dasharray: 0.8,1.32; stroke-dashoffset: 0; stroke: #b0b0b0; stroke-width: 0.8"/>
     </g>
     <g id="line2d_14">
      <g>
       <use xlink:href="#mea39538103" x="47.72" y="211.173636" style="stroke: #000000; stroke-width: 0.8"/>
      </g>
     </g>
     <g id="text_9">
      <!-- 0.5 -->
      <g transform="translate(24.816875 214.972855) scale(0.1 -0.1)">
       <use xlink:href="#DejaVuSans-30"/>
       <use xlink:href="#DejaVuSans-2e" transform="translate(63.623047 0)"/>
       <use xlink:href="#DejaVuSans-35" transform="translate(95.410156 0)"/>
      </g>
     </g>
    </g>
    <g id="ytick_3">
     <g id="line2d_15">
      <path d="M 47.72 186.269091 
L 305.798867 186.269091 
" clip-path="url(#pba4c77f8a6)" style="fill: none; stroke-dasharray: 0.8,1.32; stroke-dashoffset: 0; stroke: #b0b0b0; stroke-width: 0.8"/>
     </g>
     <g id="line2d_16">
      <g>
       <use xlink:href="#mea39538103" x="47.72" y="186.269091" style="stroke: #000000; stroke-width: 0.8"/>
      </g>
     </g>
     <g id="text_10">
      <!-- 1.0 -->
      <g transform="translate(24.816875 190.06831) scale(0.1 -0.1)">
       <use xlink:href="#DejaVuSans-31"/>
       <use xlink:href="#DejaVuSans-2e" transform="translate(63.623047 0)"/>
       <use xlink:href="#DejaVuSans-30" transform="translate(95.410156 0)"/>
      </g>
     </g>
    </g>
    <g id="ytick_4">
     <g id="line2d_17">
      <path d="M 47.72 161.364545 
L 305.798867 161.364545 
" clip-path="url(#pba4c77f8a6)" style="fill: none; stroke-dasharray: 0.8,1.32; stroke-dashoffset: 0; stroke: #b0b0b0; stroke-width: 0.8"/>
     </g>
     <g id="line2d_18">
      <g>
       <use xlink:href="#mea39538103" x="47.72" y="161.364545" style="stroke: #000000; stroke-width: 0.8"/>
      </g>
     </g>
     <g id="text_11">
      <!-- 1.5 -->
      <g transform="translate(24.816875 165.163764) scale(0.1 -0.1)">
       <use xlink:href="#DejaVuSans-31"/>
       <use xlink:href="#DejaVuSans-2e" transform="translate(63.623047 0)"/>
       <use xlink:href="#DejaVuSans-35" transform="translate(95.410156 0)"/>
      </g>
     </g>
    </g>
    <g id="ytick_5">
     <g id="line2d_19">
      <path d="M 47.72 136.46 
L 305.798867 136.46 
" clip-path="url(#pba4c77f8a6)" style="fill: none; stroke-dasharray: 0.8,1.32; stroke-dashoffset: 0; stroke: #b0b0b0; stroke-width: 0.8"/>
     </g>
     <g id="line2d_20">
      <g>
       <use xlink:href="#mea39538103" x="47.72" y="136.46" style="stroke: #000000; stroke-width: 0.8"/>
      </g>
     </g>
     <g id="text_12">
      <!-- 2.0 -->
      <g transform="translate(24.816875 140.259219) scale(0.1 -0.1)">
       <use xlink:href="#DejaVuSans-32"/>
       <use xlink:href="#DejaVuSans-2e" transform="translate(63.623047 0)"/>
       <use xlink:href="#DejaVuSans-30" transform="translate(95.410156 0)"/>
      </g>
     </g>
    </g>
    <g id="ytick_6">
     <g id="line2d_21">
      <path d="M 47.72 111.555455 
L 305.798867 111.555455 
" clip-path="url(#pba4c77f8a6)" style="fill: none; stroke-dasharray: 0.8,1.32; stroke-dashoffset: 0; stroke: #b0b0b0; stroke-width: 0.8"/>
     </g>
     <g id="line2d_22">
      <g>
       <use xlink:href="#mea39538103" x="47.72" y="111.555455" style="stroke: #000000; stroke-width: 0.8"/>
      </g>
     </g>
     <g id="text_13">
      <!-- 2.5 -->
      <g transform="translate(24.816875 115.354673) scale(0.1 -0.1)">
       <use xlink:href="#DejaVuSans-32"/>
       <use xlink:href="#DejaVuSans-2e" transform="translate(63.623047 0)"/>
       <use xlink:href="#DejaVuSans-35" transform="translate(95.410156 0)"/>
      </g>
     </g>
    </g>
    <g id="ytick_7">
     <g id="line2d_23">
      <path d="M 47.72 86.650909 
L 305.798867 86.650909 
" clip-path="url(#pba4c77f8a6)" style="fill: none; stroke-dasharray: 0.8,1.32; stroke-dashoffset: 0; stroke: #b0b0b0; stroke-width: 0.8"/>
     </g>
     <g id="line2d_24">
      <g>
       <use xlink:href="#mea39538103" x="47.72" y="86.650909" style="stroke: #000000; stroke-width: 0.8"/>
      </g>
     </g>
     <g id="text_14">
      <!-- 3.0 -->
      <g transform="translate(24.816875 90.450128) scale(0.1 -0.1)">
       <defs>
        <path id="DejaVuSans-33" d="M 2597 2516 
Q 3050 2419 3304 2112 
Q 3559 1806 3559 1356 
Q 3559 666 3084 287 
Q 2609 -91 1734 -91 
Q 1441 -91 1130 -33 
Q 819 25 488 141 
L 488 750 
Q 750 597 1062 519 
Q 1375 441 1716 441 
Q 2309 441 2620 675 
Q 2931 909 2931 1356 
Q 2931 1769 2642 2001 
Q 2353 2234 1838 2234 
L 1294 2234 
L 1294 2753 
L 1863 2753 
Q 2328 2753 2575 2939 
Q 2822 3125 2822 3475 
Q 2822 3834 2567 4026 
Q 2313 4219 1838 4219 
Q 1578 4219 1281 4162 
Q 984 4106 628 3988 
L 628 4550 
Q 988 4650 1302 4700 
Q 1616 4750 1894 4750 
Q 2613 4750 3031 4423 
Q 3450 4097 3450 3541 
Q 3450 3153 3228 2886 
Q 3006 2619 2597 2516 
z
" transform="scale(0.015625)"/>
       </defs>
       <use xlink:href="#DejaVuSans-33"/>
       <use xlink:href="#DejaVuSans-2e" transform="translate(63.623047 0)"/>
       <use xlink:href="#DejaVuSans-30" transform="translate(95.410156 0)"/>
      </g>
     </g>
    </g>
    <g id="ytick_8">
     <g id="line2d_25">
      <path d="M 47.72 61.746364 
L 305.798867 61.746364 
" clip-path="url(#pba4c77f8a6)" style="fill: none; stroke-dasharray: 0.8,1.32; stroke-dashoffset: 0; stroke: #b0b0b0; stroke-width: 0.8"/>
     </g>
     <g id="line2d_26">
      <g>
       <use xlink:href="#mea39538103" x="47.72" y="61.746364" style="stroke: #000000; stroke-width: 0.8"/>
      </g>
     </g>
     <g id="text_15">
      <!-- 3.5 -->
      <g transform="translate(24.816875 65.545582) scale(0.1 -0.1)">
       <use xlink:href="#DejaVuSans-33"/>
       <use xlink:href="#DejaVuSans-2e" transform="translate(63.623047 0)"/>
       <use xlink:href="#DejaVuSans-35" transform="translate(95.410156 0)"/>
      </g>
     </g>
    </g>
    <g id="ytick_9">
     <g id="line2d_27">
      <path d="M 47.72 36.841818 
L 305.798867 36.841818 
" clip-path="url(#pba4c77f8a6)" style="fill: none; stroke-dasharray: 0.8,1.32; stroke-dashoffset: 0; stroke: #b0b0b0; stroke-width: 0.8"/>
     </g>
     <g id="line2d_28">
      <g>
       <use xlink:href="#mea39538103" x="47.72" y="36.841818" style="stroke: #000000; stroke-width: 0.8"/>
      </g>
     </g>
     <g id="text_16">
      <!-- 4.0 -->
      <g transform="translate(24.816875 40.641037) scale(0.1 -0.1)">
       <defs>
        <path id="DejaVuSans-34" d="M 2419 4116 
L 825 1625 
L 2419 1625 
L 2419 4116 
z
M 2253 4666 
L 3047 4666 
L 3047 1625 
L 3713 1625 
L 3713 1100 
L 3047 1100 
L 3047 0 
L 2419 0 
L 2419 1100 
L 313 1100 
L 313 1709 
L 2253 4666 
z
" transform="scale(0.015625)"/>
       </defs>
       <use xlink:href="#DejaVuSans-34"/>
       <use xlink:href="#DejaVuSans-2e" transform="translate(63.623047 0)"/>
       <use xlink:href="#DejaVuSans-30" transform="translate(95.410156 0)"/>
      </g>
     </g>
    </g>
    <g id="text_17">
     <!-- omega (THz) -->
     <g transform="translate(18.737188 168.633437) rotate(-90) scale(0.1 -0.1)">
      <defs>
       <path id="DejaVuSans-67" d="M 2906 1791 
Q 2906 2416 2648 2759 
Q 2391 3103 1925 3103 
Q 1463 3103 1205 2759 
Q 947 2416 947 1791 
Q 947 1169 1205 825 
Q 1463 481 1925 481 
Q 2391 481 2648 825 
Q 2906 1169 2906 1791 
z
M 3481 434 
Q 3481 -459 3084 -895 
Q 2688 -1331 1869 -1331 
Q 1566 -1331 1297 -1286 
Q 1028 -1241 775 -1147 
L 775 -588 
Q 1028 -725 1275 -790 
Q 1522 -856 1778 -856 
Q 2344 -856 2625 -561 
Q 2906 -266 2906 331 
L 2906 616 
Q 2728 306 2450 153 
Q 2172 0 1784 0 
Q 1141 0 747 490 
Q 353 981 353 1791 
Q 353 2603 747 3093 
Q 1141 3584 1784 3584 
Q 2172 3584 2450 3431 
Q 2728 3278 2906 2969 
L 2906 3500 
L 3481 3500 
L 3481 434 
z
" transform="scale(0.015625)"/>
       <path id="DejaVuSans-54" d="M -19 4666 
L 3928 4666 
L 3928 4134 
L 2272 4134 
L 2272 0 
L 1638 0 
L 1638 4134 
L -19 4134 
L -19 4666 
z
" transform="scale(0.015625)"/>
       <path id="DejaVuSans-48" d="M 628 4666 
L 1259 4666 
L 1259 2753 
L 3553 2753 
L 3553 4666 
L 4184 4666 
L 4184 0 
L 3553 0 
L 3553 2222 
L 1259 2222 
L 1259 0 
L 628 0 
L 628 4666 
z
" transform="scale(0.015625)"/>
       <path id="DejaVuSans-7a" d="M 353 3500 
L 3084 3500 
L 3084 2975 
L 922 459 
L 3084 459 
L 3084 0 
L 275 0 
L 275 525 
L 2438 3041 
L 353 3041 
L 353 3500 
z
" transform="scale(0.015625)"/>
      </defs>
      <use xlink:href="#DejaVuSans-6f"/>
      <use xlink:href="#DejaVuSans-6d" transform="translate(61.181641 0)"/>
      <use xlink:href="#DejaVuSans-65" transform="translate(158.59375 0)"/>
      <use xlink:href="#DejaVuSans-67" transform="translate(220.117188 0)"/>
      <use xlink:href="#DejaVuSans-61" transform="translate(283.59375 0)"/>
      <use xlink:href="#DejaVuSans-20" transform="translate(344.873047 0)"/>
      <use xlink:href="#DejaVuSans-28" transform="translate(376.660156 0)"/>
      <use xlink:href="#DejaVuSans-54" transform="translate(415.673828 0)"/>
      <use xlink:href="#DejaVuSans-48" transform="translate(476.757812 0)"/>
      <use xlink:href="#DejaVuSans-7a" transform="translate(551.953125 0)"/>
      <use xlink:href="#DejaVuSans-29" transform="translate(604.443359 0)"/>
     </g>
    </g>
   </g>
   <g id="line2d_29">
    <path d="M 59.450858 36.841818 
L 64.238963 37.234966 
L 69.027068 38.412856 
L 73.815173 40.370842 
L 78.603278 43.101195 
L 83.391383 46.59314 
L 88.179488 50.832896 
L 92.967594 55.80373 
L 97.755699 61.486025 
L 102.543804 67.857356 
L 107.331909 74.892578 
L 112.120014 82.563925 
L 116.908119 90.841123 
L 121.696224 99.691506 
L 126.48433 109.080144 
L 131.272435 118.969986 
L 136.06054 129.322 
L 140.848645 140.095332 
L 145.63675 151.247464 
L 150.424855 162.734385 
L 155.21296 174.51076 
L 160.001065 186.530113 
L 164.789171 198.74501 
L 169.577276 211.107244 
L 174.365381 223.568027 
L 179.153486 236.078182 
L 183.941591 223.568027 
L 188.729696 211.107244 
L 193.517801 198.74501 
L 198.305907 186.530113 
L 203.094012 174.51076 
L 207.882117 162.734385 
L 212.670222 151.247464 
L 217.458327 140.095332 
L 222.246432 129.322 
L 227.034537 118.969986 
L 231.822643 109.080144 
L 236.610748 99.691506 
L 241.398853 90.841123 
L 246.186958 82.563925 
L 250.975063 74.892578 
L 255.763168 67.857356 
L 260.551273 61.486025 
L 265.339378 55.80373 
L 270.127484 50.832896 
L 274.915589 46.59314 
L 279.703694 43.101195 
L 284.491799 40.370842 
L 289.279904 38.412856 
L 294.068009 37.234966 
" clip-path="url(#pba4c77f8a6)" style="fill: none; stroke: #0000ff; stroke-width: 1.5; stroke-linecap: square"/>
   </g>
   <g id="patch_3">
    <path d="M 47.72 246.04 
L 47.72 26.88 
" style="fill: none; stroke: #000000; stroke-width: 0.8; stroke-linejoin: miter; stroke-linecap: square"/>
   </g>
   <g id="patch_4">
    <path d="M 305.798867 246.04 
L 305.798867 26.88 
" style="fill: none; stroke: #000000; stroke-width: 0.8; stroke-linejoin: miter; stroke-linecap: square"/>
   </g>
   <g id="patch_5">
    <path d="M 47.72 246.04 
L 305.798867 246.04 
" style="fill: none; stroke: #000000; stroke-width: 0.8; stroke-linejoin: miter; stroke-linecap: square"/>
   </g>
   <g id="patch_6">
    <path d="M 47.72 26.88 
L 305.798867 26.88 
" style="fill: none; stroke: #000000; stroke-width: 0.8; stroke-linejoin: miter; stroke-linecap: square"/>
   </g>
   <g id="text_18">
    <!-- (a) Dispersion of 1D oscillator chain -->
    <g transform="translate(69.487871 20.88) scale(0.12 -0.12)">
     <defs>
      <path id="DejaVuSans-44" d="M 1259 4147 
L 1259 519 
L 2022 519 
Q 2988 519 3436 956 
Q 3884 1394 3884 2338 
Q 3884 3275 3436 3711 
Q 2988 4147 2022 4147 
L 1259 4147 
z
M 628 4666 
L 1925 4666 
Q 3281 4666 3915 4102 
Q 4550 3538 4550 2338 
Q 4550 1131 3912 565 
Q 3275 0 1925 0 
L 628 0 
L 628 4666 
z
" transform="scale(0.015625)"/>
      <path id="DejaVuSans-72" d="M 2631 2963 
Q 2534 3019 2420 3045 
Q 2306 3072 2169 3072 
Q 1681 3072 1420 2755 
Q 1159 2438 1159 1844 
L 1159 0 
L 581 0 
L 581 3500 
L 1159 3500 
L 1159 2956 
Q 1341 3275 1631 3429 
Q 1922 3584 2338 3584 
Q 2397 3584 2469 3576 
Q 2541 3569 2628 3553 
L 2631 2963 
z
" transform="scale(0.015625)"/>
      <path id="DejaVuSans-66" d="M 2375 4863 
L 2375 4384 
L 1825 4384 
Q 1516 4384 1395 4259 
Q 1275 4134 1275 3809 
L 1275 3500 
L 2222 3500 
L 2222 3053 
L 1275 3053 
L 1275 0 
L 697 0 
L 697 3053 
L 147 3053 
L 147 3500 
L 697 3500 
L 697 3744 
Q 697 4328 969 4595 
Q 1241 4863 1831 4863 
L 2375 4863 
z
" transform="scale(0.015625)"/>
      <path id="DejaVuSans-63" d="M 3122 3366 
L 3122 2828 
Q 2878 2963 2633 3030 
Q 2388 3097 2138 3097 
Q 1578 3097 1268 2742 
Q 959 2388 959 1747 
Q 959 1106 1268 751 
Q 1578 397 2138 397 
Q 2388 397 2633 464 
Q 2878 531 3122 666 
L 3122 134 
Q 2881 22 2623 -34 
Q 2366 -91 2075 -91 
Q 1284 -91 818 406 
Q 353 903 353 1747 
Q 353 2603 823 3093 
Q 1294 3584 2113 3584 
Q 2378 3584 2631 3529 
Q 2884 3475 3122 3366 
z
" transform="scale(0.015625)"/>
      <path id="DejaVuSans-74" d="M 1172 4494 
L 1172 3500 
L 2356 3500 
L 2356 3053 
L 1172 3053 
L 1172 1153 
Q 1172 725 1289 603 
Q 1406 481 1766 481 
L 2356 481 
L 2356 0 
L 1766 0 
Q 1100 0 847 248 
Q 594 497 594 1153 
L 594 3053 
L 172 3053 
L 172 3500 
L 594 3500 
L 594 4494 
L 1172 4494 
z
" transform="scale(0.015625)"/>
      <path id="DejaVuSans-68" d="M 3513 2113 
L 3513 0 
L 2938 0 
L 2938 2094 
Q 2938 2591 2744 2837 
Q 2550 3084 2163 3084 
Q 1697 3084 1428 2787 
Q 1159 2491 1159 1978 
L 1159 0 
L 581 0 
L 581 4863 
L 1159 4863 
L 1159 2956 
Q 1366 3272 1645 3428 
Q 1925 3584 2291 3584 
Q 2894 3584 3203 3211 
Q 3513 2838 3513 2113 
z
" transform="scale(0.015625)"/>
     </defs>
     <use xlink:href="#DejaVuSans-28"/>
     <use xlink:href="#DejaVuSans-61" transform="translate(39.013672 0)"/>
     <use xlink:href="#DejaVuSans-29" transform="translate(100.292969 0)"/>
     <use xlink:href="#DejaVuSans-20" transform="translate(139.306641 0)"/>
     <use xlink:href="#DejaVuSans-44" transform="translate(171.09375 0)"/>
     <use xlink:href="#DejaVuSans-69" transform="translate(248.095703 0)"/>
     <use xlink:href="#DejaVuSans-73" transform="translate(275.878906 0)"/>
     <use xlink:href="#DejaVuSans-70" transform="translate(327.978516 0)"/>
     <use xlink:href="#DejaVuSans-65" transform="translate(391.455078 0)"/>
     <use xlink:href="#DejaVuSans-72" transform="translate(452.978516 0)"/>
     <use xlink:href="#DejaVuSans-73" transform="translate(494.091797 0)"/>
     <use xlink:href="#DejaVuSans-69" transform="translate(546.191406 0)"/>
     <use xlink:href="#DejaVuSans-6f" transform="translate(573.974609 0)"/>
     <use xlink:href="#DejaVuSans-6e" transform="translate(635.15625 0)"/>
     <use xlink:href="#DejaVuSans-20" transform="translate(698.535156 0)"/>
     <use xlink:href="#DejaVuSans-6f" transform="translate(730.322266 0)"/>
     <use xlink:href="#DejaVuSans-66" transform="translate(791.503906 0)"/>
     <use xlink:href="#DejaVuSans-20" transform="translate(826.708984 0)"/>
     <use xlink:href="#DejaVuSans-31" transform="translate(858.496094 0)"/>
     <use xlink:href="#DejaVuSans-44" transform="translate(922.119141 0)"/>
     <use xlink:href="#DejaVuSans-20" transform="translate(999.121094 0)"/>
     <use xlink:href="#DejaVuSans-6f" transform="translate(1030.908203 0)"/>
     <use xlink:href="#DejaVuSans-73" transform="translate(1092.089844 0)"/>
     <use xlink:href="#DejaVuSans-63" transform="translate(1144.189453 0)"/>
     <use xlink:href="#DejaVuSans-69" transform="translate(1199.169922 0)"/>
     <use xlink:href="#DejaVuSans-6c" transform="translate(1226.953125 0)"/>
     <use xlink:href="#DejaVuSans-6c" transform="translate(1254.736328 0)"/>
     <use xlink:href="#DejaVuSans-61" transform="translate(1282.519531 0)"/>
     <use xlink:href="#DejaVuSans-74" transform="translate(1343.798828 0)"/>
     <use xlink:href="#DejaVuSans-6f" transform="translate(1383.007812 0)"/>
     <use xlink:href="#DejaVuSans-72" transform="translate(1444.189453 0)"/>
     <use xlink:href="#DejaVuSans-20" transform="translate(1485.302734 0)"/>
     <use xlink:href="#DejaVuSans-63" transform="translate(1517.089844 0)"/>
     <use xlink:href="#DejaVuSans-68" transform="translate(1572.070312 0)"/>
     <use xlink:href="#DejaVuSans-61" transform="translate(1635.449219 0)"/>
     <use xlink:href="#DejaVuSans-69" transform="translate(1696.728516 0)"/>
     <use xlink:href="#DejaVuSans-6e" transform="translate(1724.511719 0)"/>
    </g>
   </g>
  </g>
  <g id="axes_2">
   <g id="patch_7">
    <path d="M 357.420567 246.04 
L 615.499433 246.04 
L 615.499433 26.88 
L 357.420567 26.88 
z
" style="fill: #ffffff"/>
   </g>
   <g id="matplotlib.axis_3">
    <g id="xtick_6">
     <g id="line2d_30">
      <path d="M 369.151424 246.04 
L 369.151424 26.88 
" clip-path="url(#pdcdf6d0d73)" style="fill: none; stroke-dasharray: 0.8,1.32; stroke-dashoffset: 0; stroke: #b0b0b0; stroke-width: 0.8"/>
     </g>
     <g id="line2d_31">
      <g>
       <use xlink:href="#m356b3e27ef" x="369.151424" y="246.04" style="stroke: #000000; stroke-width: 0.8"/>
      </g>
     </g>
     <g id="text_19">
      <!-- 0 -->
      <g transform="translate(365.970174 260.638438) scale(0.1 -0.1)">
       <use xlink:href="#DejaVuSans-30"/>
      </g>
     </g>
    </g>
    <g id="xtick_7">
     <g id="line2d_32">
      <path d="M 417.032476 246.04 
L 417.032476 26.88 
" clip-path="url(#pdcdf6d0d73)" style="fill: none; stroke-dasharray: 0.8,1.32; stroke-dashoffset: 0; stroke: #b0b0b0; stroke-width: 0.8"/>
     </g>
     <g id="line2d_33">
      <g>
       <use xlink:href="#m356b3e27ef" x="417.032476" y="246.04" style="stroke: #000000; stroke-width: 0.8"/>
      </g>
     </g>
     <g id="text_20">
      <!-- 10 -->
      <g transform="translate(410.669976 260.638438) scale(0.1 -0.1)">
       <use xlink:href="#DejaVuSans-31"/>
       <use xlink:href="#DejaVuSans-30" transform="translate(63.623047 0)"/>
      </g>
     </g>
    </g>
    <g id="xtick_8">
     <g id="line2d_34">
      <path d="M 464.913527 246.04 
L 464.913527 26.88 
" clip-path="url(#pdcdf6d0d73)" style="fill: none; stroke-dasharray: 0.8,1.32; stroke-dashoffset: 0; stroke: #b0b0b0; stroke-width: 0.8"/>
     </g>
     <g id="line2d_35">
      <g>
       <use xlink:href="#m356b3e27ef" x="464.913527" y="246.04" style="stroke: #000000; stroke-width: 0.8"/>
      </g>
     </g>
     <g id="text_21">
      <!-- 20 -->
      <g transform="translate(458.551027 260.638438) scale(0.1 -0.1)">
       <use xlink:href="#DejaVuSans-32"/>
       <use xlink:href="#DejaVuSans-30" transform="translate(63.623047 0)"/>
      </g>
     </g>
    </g>
    <g id="xtick_9">
     <g id="line2d_36">
      <path d="M 512.794578 246.04 
L 512.794578 26.88 
" clip-path="url(#pdcdf6d0d73)" style="fill: none; stroke-dasharray: 0.8,1.32; stroke-dashoffset: 0; stroke: #b0b0b0; stroke-width: 0.8"/>
     </g>
     <g id="line2d_37">
      <g>
       <use xlink:href="#m356b3e27ef" x="512.794578" y="246.04" style="stroke: #000000; stroke-width: 0.8"/>
      </g>
     </g>
     <g id="text_22">
      <!-- 30 -->
      <g transform="translate(506.432078 260.638438) scale(0.1 -0.1)">
       <use xlink:href="#DejaVuSans-33"/>
       <use xlink:href="#DejaVuSans-30" transform="translate(63.623047 0)"/>
      </g>
     </g>
    </g>
    <g id="xtick_10">
     <g id="line2d_38">
      <path d="M 560.67563 246.04 
L 560.67563 26.88 
" clip-path="url(#pdcdf6d0d73)" style="fill: none; stroke-dasharray: 0.8,1.32; stroke-dashoffset: 0; stroke: #b0b0b0; stroke-width: 0.8"/>
     </g>
     <g id="line2d_39">
      <g>
       <use xlink:href="#m356b3e27ef" x="560.67563" y="246.04" style="stroke: #000000; stroke-width: 0.8"/>
      </g>
     </g>
     <g id="text_23">
      <!-- 40 -->
      <g transform="translate(554.31313 260.638438) scale(0.1 -0.1)">
       <use xlink:href="#DejaVuSans-34"/>
       <use xlink:href="#DejaVuSans-30" transform="translate(63.623047 0)"/>
      </g>
     </g>
    </g>
    <g id="xtick_11">
     <g id="line2d_40">
      <path d="M 608.556681 246.04 
L 608.556681 26.88 
" clip-path="url(#pdcdf6d0d73)" style="fill: none; stroke-dasharray: 0.8,1.32; stroke-dashoffset: 0; stroke: #b0b0b0; stroke-width: 0.8"/>
     </g>
     <g id="line2d_41">
      <g>
       <use xlink:href="#m356b3e27ef" x="608.556681" y="246.04" style="stroke: #000000; stroke-width: 0.8"/>
      </g>
     </g>
     <g id="text_24">
      <!-- 50 -->
      <g transform="translate(602.194181 260.638438) scale(0.1 -0.1)">
       <use xlink:href="#DejaVuSans-35"/>
       <use xlink:href="#DejaVuSans-30" transform="translate(63.623047 0)"/>
      </g>
     </g>
    </g>
    <g id="text_25">
     <!-- mode index -->
     <g transform="translate(457.01 274.316562) scale(0.1 -0.1)">
      <defs>
       <path id="DejaVuSans-78" d="M 3513 3500 
L 2247 1797 
L 3578 0 
L 2900 0 
L 1881 1375 
L 863 0 
L 184 0 
L 1544 1831 
L 300 3500 
L 978 3500 
L 1906 2253 
L 2834 3500 
L 3513 3500 
z
" transform="scale(0.015625)"/>
      </defs>
      <use xlink:href="#DejaVuSans-6d"/>
      <use xlink:href="#DejaVuSans-6f" transform="translate(97.412109 0)"/>
      <use xlink:href="#DejaVuSans-64" transform="translate(158.59375 0)"/>
      <use xlink:href="#DejaVuSans-65" transform="translate(222.070312 0)"/>
      <use xlink:href="#DejaVuSans-20" transform="translate(283.59375 0)"/>
      <use xlink:href="#DejaVuSans-69" transform="translate(315.380859 0)"/>
      <use xlink:href="#DejaVuSans-6e" transform="translate(343.164062 0)"/>
      <use xlink:href="#DejaVuSans-64" transform="translate(406.542969 0)"/>
      <use xlink:href="#DejaVuSans-65" transform="translate(470.019531 0)"/>
      <use xlink:href="#DejaVuSans-78" transform="translate(529.792969 0)"/>
     </g>
    </g>
   </g>
   <g id="matplotlib.axis_4">
    <g id="ytick_10">
     <g id="line2d_42">
      <path d="M 357.420567 236.078182 
L 615.499433 236.078182 
" clip-path="url(#pdcdf6d0d73)" style="fill: none; stroke-dasharray: 0.8,1.32; stroke-dashoffset: 0; stroke: #b0b0b0; stroke-width: 0.8"/>
     </g>
     <g id="line2d_43">
      <g>
       <use xlink:href="#mea39538103" x="357.420567" y="236.078182" style="stroke: #000000; stroke-width: 0.8"/>
      </g>
     </g>
     <g id="text_26">
      <!-- 0.0 -->
      <g transform="translate(334.517442 239.877401) scale(0.1 -0.1)">
       <use xlink:href="#DejaVuSans-30"/>
       <use xlink:href="#DejaVuSans-2e" transform="translate(63.623047 0)"/>
       <use xlink:href="#DejaVuSans-30" transform="translate(95.410156 0)"/>
      </g>
     </g>
    </g>
    <g id="ytick_11">
     <g id="line2d_44">
      <path d="M 357.420567 188.846604 
L 615.499433 188.846604 
" clip-path="url(#pdcdf6d0d73)" style="fill: none; stroke-dasharray: 0.8,1.32; stroke-dashoffset: 0; stroke: #b0b0b0; stroke-width: 0.8"/>
     </g>
     <g id="line2d_45">
      <g>
       <use xlink:href="#mea39538103" x="357.420567" y="188.846604" style="stroke: #000000; stroke-width: 0.8"/>
      </g>
     </g>
     <g id="text_27">
      <!-- 0.5 -->
      <g transform="translate(334.517442 192.645823) scale(0.1 -0.1)">
       <use xlink:href="#DejaVuSans-30"/>
       <use xlink:href="#DejaVuSans-2e" transform="translate(63.623047 0)"/>
       <use xlink:href="#DejaVuSans-35" transform="translate(95.410156 0)"/>
      </g>
     </g>
    </g>
    <g id="ytick_12">
     <g id="line2d_46">
      <path d="M 357.420567 141.615026 
L 615.499433 141.615026 
" clip-path="url(#pdcdf6d0d73)" style="fill: none; stroke-dasharray: 0.8,1.32; stroke-dashoffset: 0; stroke: #b0b0b0; stroke-width: 0.8"/>
     </g>
     <g id="line2d_47">
      <g>
       <use xlink:href="#mea39538103" x="357.420567" y="141.615026" style="stroke: #000000; stroke-width: 0.8"/>
      </g>
     </g>
     <g id="text_28">
      <!-- 1.0 -->
      <g transform="translate(334.517442 145.414245) scale(0.1 -0.1)">
       <use xlink:href="#DejaVuSans-31"/>
       <use xlink:href="#DejaVuSans-2e" transform="translate(63.623047 0)"/>
       <use xlink:href="#DejaVuSans-30" transform="translate(95.410156 0)"/>
      </g>
     </g>
    </g>
    <g id="ytick_13">
     <g id="line2d_48">
      <path d="M 357.420567 94.383448 
L 615.499433 94.383448 
" clip-path="url(#pdcdf6d0d73)" style="fill: none; stroke-dasharray: 0.8,1.32; stroke-dashoffset: 0; stroke: #b0b0b0; stroke-width: 0.8"/>
     </g>
     <g id="line2d_49">
      <g>
       <use xlink:href="#mea39538103" x="357.420567" y="94.383448" style="stroke: #000000; stroke-width: 0.8"/>
      </g>
     </g>
     <g id="text_29">
      <!-- 1.5 -->
      <g transform="translate(334.517442 98.182667) scale(0.1 -0.1)">
       <use xlink:href="#DejaVuSans-31"/>
       <use xlink:href="#DejaVuSans-2e" transform="translate(63.623047 0)"/>
       <use xlink:href="#DejaVuSans-35" transform="translate(95.410156 0)"/>
      </g>
     </g>
    </g>
    <g id="ytick_14">
     <g id="line2d_50">
      <path d="M 357.420567 47.15187 
L 615.499433 47.15187 
" clip-path="url(#pdcdf6d0d73)" style="fill: none; stroke-dasharray: 0.8,1.32; stroke-dashoffset: 0; stroke: #b0b0b0; stroke-width: 0.8"/>
     </g>
     <g id="line2d_51">
      <g>
       <use xlink:href="#mea39538103" x="357.420567" y="47.15187" style="stroke: #000000; stroke-width: 0.8"/>
      </g>
     </g>
     <g id="text_30">
      <!-- 2.0 -->
      <g transform="translate(334.517442 50.951089) scale(0.1 -0.1)">
       <use xlink:href="#DejaVuSans-32"/>
       <use xlink:href="#DejaVuSans-2e" transform="translate(63.623047 0)"/>
       <use xlink:href="#DejaVuSans-30" transform="translate(95.410156 0)"/>
      </g>
     </g>
    </g>
    <g id="text_31">
     <!-- per-mode zero-point energy (1e-22 J) -->
     <g transform="translate(328.437754 229.364688) rotate(-90) scale(0.1 -0.1)">
      <defs>
       <path id="DejaVuSans-2d" d="M 313 2009 
L 1997 2009 
L 1997 1497 
L 313 1497 
L 313 2009 
z
" transform="scale(0.015625)"/>
       <path id="DejaVuSans-79" d="M 2059 -325 
Q 1816 -950 1584 -1140 
Q 1353 -1331 966 -1331 
L 506 -1331 
L 506 -850 
L 844 -850 
Q 1081 -850 1212 -737 
Q 1344 -625 1503 -206 
L 1606 56 
L 191 3500 
L 800 3500 
L 1894 763 
L 2988 3500 
L 3597 3500 
L 2059 -325 
z
" transform="scale(0.015625)"/>
       <path id="DejaVuSans-4a" d="M 628 4666 
L 1259 4666 
L 1259 325 
Q 1259 -519 939 -900 
Q 619 -1281 -91 -1281 
L -331 -1281 
L -331 -750 
L -134 -750 
Q 284 -750 456 -515 
Q 628 -281 628 325 
L 628 4666 
z
" transform="scale(0.015625)"/>
      </defs>
      <use xlink:href="#DejaVuSans-70"/>
      <use xlink:href="#DejaVuSans-65" transform="translate(63.476562 0)"/>
      <use xlink:href="#DejaVuSans-72" transform="translate(125 0)"/>
      <use xlink:href="#DejaVuSans-2d" transform="translate(159.738281 0)"/>
      <use xlink:href="#DejaVuSans-6d" transform="translate(195.822266 0)"/>
      <use xlink:href="#DejaVuSans-6f" transform="translate(293.234375 0)"/>
      <use xlink:href="#DejaVuSans-64" transform="translate(354.416016 0)"/>
      <use xlink:href="#DejaVuSans-65" transform="translate(417.892578 0)"/>
      <use xlink:href="#DejaVuSans-20" transform="translate(479.416016 0)"/>
      <use xlink:href="#DejaVuSans-7a" transform="translate(511.203125 0)"/>
      <use xlink:href="#DejaVuSans-65" transform="translate(563.693359 0)"/>
      <use xlink:href="#DejaVuSans-72" transform="translate(625.216797 0)"/>
      <use xlink:href="#DejaVuSans-6f" transform="translate(664.080078 0)"/>
      <use xlink:href="#DejaVuSans-2d" transform="translate(727.136719 0)"/>
      <use xlink:href="#DejaVuSans-70" transform="translate(763.220703 0)"/>
      <use xlink:href="#DejaVuSans-6f" transform="translate(826.697266 0)"/>
      <use xlink:href="#DejaVuSans-69" transform="translate(887.878906 0)"/>
      <use xlink:href="#DejaVuSans-6e" transform="translate(915.662109 0)"/>
      <use xlink:href="#DejaVuSans-74" transform="translate(979.041016 0)"/>
      <use xlink:href="#DejaVuSans-20" transform="translate(1018.25 0)"/>
      <use xlink:href="#DejaVuSans-65" transform="translate(1050.037109 0)"/>
      <use xlink:href="#DejaVuSans-6e" transform="translate(1111.560547 0)"/>
      <use xlink:href="#DejaVuSans-65" transform="translate(1174.939453 0)"/>
      <use xlink:href="#DejaVuSans-72" transform="translate(1236.462891 0)"/>
      <use xlink:href="#DejaVuSans-67" transform="translate(1275.826172 0)"/>
      <use xlink:href="#DejaVuSans-79" transform="translate(1339.302734 0)"/>
      <use xlink:href="#DejaVuSans-20" transform="translate(1398.482422 0)"/>
      <use xlink:href="#DejaVuSans-28" transform="translate(1430.269531 0)"/>
      <use xlink:href="#DejaVuSans-31" transform="translate(1469.283203 0)"/>
      <use xlink:href="#DejaVuSans-65" transform="translate(1532.90625 0)"/>
      <use xlink:href="#DejaVuSans-2d" transform="translate(1594.429688 0)"/>
      <use xlink:href="#DejaVuSans-32" transform="translate(1630.513672 0)"/>
      <use xlink:href="#DejaVuSans-32" transform="translate(1694.136719 0)"/>
      <use xlink:href="#DejaVuSans-20" transform="translate(1757.759766 0)"/>
      <use xlink:href="#DejaVuSans-4a" transform="translate(1789.546875 0)"/>
      <use xlink:href="#DejaVuSans-29" transform="translate(1819.039062 0)"/>
     </g>
    </g>
   </g>
   <g id="line2d_52">
    <path d="M 369.151424 36.841818 
L 373.939529 37.234966 
L 378.727634 38.412856 
L 383.51574 40.370842 
L 388.303845 43.101195 
L 393.09195 46.59314 
L 397.880055 50.832896 
L 402.66816 55.80373 
L 407.456265 61.486025 
L 412.24437 67.857356 
L 417.032476 74.892578 
L 421.820581 82.563925 
L 426.608686 90.841123 
L 431.396791 99.691506 
L 436.184896 109.080144 
L 440.973001 118.969986 
L 445.761106 129.322 
L 450.549211 140.095332 
L 455.337317 151.247464 
L 460.125422 162.734385 
L 464.913527 174.51076 
L 469.701632 186.530113 
L 474.489737 198.74501 
L 479.277842 211.107244 
L 484.065947 223.568027 
L 488.854053 236.078182 
L 493.642158 223.568027 
L 498.430263 211.107244 
L 503.218368 198.74501 
L 508.006473 186.530113 
L 512.794578 174.51076 
L 517.582683 162.734385 
L 522.370789 151.247464 
L 527.158894 140.095332 
L 531.946999 129.322 
L 536.735104 118.969986 
L 541.523209 109.080144 
L 546.311314 99.691506 
L 551.099419 90.841123 
L 555.887524 82.563925 
L 560.67563 74.892578 
L 565.463735 67.857356 
L 570.25184 61.486025 
L 575.039945 55.80373 
L 579.82805 50.832896 
L 584.616155 46.59314 
L 589.40426 43.101195 
L 594.192366 40.370842 
L 598.980471 38.412856 
L 603.768576 37.234966 
" clip-path="url(#pdcdf6d0d73)" style="fill: none; stroke: #008000; stroke-width: 1.5; stroke-linecap: square"/>
    <defs>
     <path id="me8206011bd" d="M 0 1.5 
C 0.397805 1.5 0.77937 1.341951 1.06066 1.06066 
C 1.341951 0.77937 1.5 0.397805 1.5 0 
C 1.5 -0.397805 1.341951 -0.77937 1.06066 -1.06066 
C 0.77937 -1.341951 0.397805 -1.5 0 -1.5 
C -0.397805 -1.5 -0.77937 -1.341951 -1.06066 -1.06066 
C -1.341951 -0.77937 -1.5 -0.397805 -1.5 0 
C -1.5 0.397805 -1.341951 0.77937 -1.06066 1.06066 
C -0.77937 1.341951 -0.397805 1.5 0 1.5 
z
" style="stroke: #008000"/>
    </defs>
    <g clip-path="url(#pdcdf6d0d73)">
     <use xlink:href="#me8206011bd" x="369.151424" y="36.841818" style="fill: #008000; stroke: #008000"/>
     <use xlink:href="#me8206011bd" x="373.939529" y="37.234966" style="fill: #008000; stroke: #008000"/>
     <use xlink:href="#me8206011bd" x="378.727634" y="38.412856" style="fill: #008000; stroke: #008000"/>
     <use xlink:href="#me8206011bd" x="383.51574" y="40.370842" style="fill: #008000; stroke: #008000"/>
     <use xlink:href="#me8206011bd" x="388.303845" y="43.101195" style="fill: #008000; stroke: #008000"/>
     <use xlink:href="#me8206011bd" x="393.09195" y="46.59314" style="fill: #008000; stroke: #008000"/>
     <use xlink:href="#me8206011bd" x="397.880055" y="50.832896" style="fill: #008000; stroke: #008000"/>
     <use xlink:href="#me8206011bd" x="402.66816" y="55.80373" style="fill: #008000; stroke: #008000"/>
     <use xlink:href="#me8206011bd" x="407.456265" y="61.486025" style="fill: #008000; stroke: #008000"/>
     <use xlink:href="#me8206011bd" x="412.24437" y="67.857356" style="fill: #008000; stroke: #008000"/>
     <use xlink:href="#me8206011bd" x="417.032476" y="74.892578" style="fill: #008000; stroke: #008000"/>
     <use xlink:href="#me8206011bd" x="421.820581" y="82.563925" style="fill: #008000; stroke: #008000"/>
     <use xlink:href="#me8206011bd" x="426.608686" y="90.841123" style="fill: #008000; stroke: #008000"/>
     <use xlink:href="#me8206011bd" x="431.396791" y="99.691506" style="fill: #008000; stroke: #008000"/>
     <use xlink:href="#me8206011bd" x="436.184896" y="109.080144" style="fill: #008000; stroke: #008000"/>
     <use xlink:href="#me8206011bd" x="440.973001" y="118.969986" style="fill: #008000; stroke: #008000"/>
     <use xlink:href="#me8206011bd" x="445.761106" y="129.322" style="fill: #008000; stroke: #008000"/>
     <use xlink:href="#me8206011bd" x="450.549211" y="140.095332" style="fill: #008000; stroke: #008000"/>
     <use xlink:href="#me8206011bd" x="455.337317" y="151.247464" style="fill: #008000; stroke: #008000"/>
     <use xlink:href="#me8206011bd" x="460.125422" y="162.734385" style="fill: #008000; stroke: #008000"/>
     <use xlink:href="#me8206011bd" x="464.913527" y="174.51076" style="fill: #008000; stroke: #008000"/>
     <use xlink:href="#me8206011bd" x="469.701632" y="186.530113" style="fill: #008000; stroke: #008000"/>
     <use xlink:href="#me8206011bd" x="474.489737" y="198.74501" style="fill: #008000; stroke: #008000"/>
     <use xlink:href="#me8206011bd" x="479.277842" y="211.107244" style="fill: #008000; stroke: #008000"/>
     <use xlink:href="#me8206011bd" x="484.065947" y="223.568027" style="fill: #008000; stroke: #008000"/>
     <use xlink:href="#me8206011bd" x="488.854053" y="236.078182" style="fill: #008000; stroke: #008000"/>
     <use xlink:href="#me8206011bd" x="493.642158" y="223.568027" style="fill: #008000; stroke: #008000"/>
     <use xlink:href="#me8206011bd" x="498.430263" y="211.107244" style="fill: #008000; stroke: #008000"/>
     <use xlink:href="#me8206011bd" x="503.218368" y="198.74501" style="fill: #008000; stroke: #008000"/>
     <use xlink:href="#me8206011bd" x="508.006473" y="186.530113" style="fill: #008000; stroke: #008000"/>
     <use xlink:href="#me8206011bd" x="512.794578" y="174.51076" style="fill: #008000; stroke: #008000"/>
     <use xlink:href="#me8206011bd" x="517.582683" y="162.734385" style="fill: #008000; stroke: #008000"/>
     <use xlink:href="#me8206011bd" x="522.370789" y="151.247464" style="fill: #008000; stroke: #008000"/>
     <use xlink:href="#me8206011bd" x="527.158894" y="140.095332" style="fill: #008000; stroke: #008000"/>
     <use xlink:href="#me8206011bd" x="531.946999" y="129.322" style="fill: #008000; stroke: #008000"/>
     <use xlink:href="#me8206011bd" x="536.735104" y="118.969986" style="fill: #008000; stroke: #008000"/>
     <use xlink:href="#me8206011bd" x="541.523209" y="109.080144" style="fill: #008000; stroke: #008000"/>
     <use xlink:href="#me8206011bd" x="546.311314" y="99.691506" style="fill: #008000; stroke: #008000"/>
     <use xlink:href="#me8206011bd" x="551.099419" y="90.841123" style="fill: #008000; stroke: #008000"/>
     <use xlink:href="#me8206011bd" x="555.887524" y="82.563925" style="fill: #008000; stroke: #008000"/>
     <use xlink:href="#me8206011bd" x="560.67563" y="74.892578" style="fill: #008000; stroke: #008000"/>
     <use xlink:href="#me8206011bd" x="565.463735" y="67.857356" style="fill: #008000; stroke: #008000"/>
     <use xlink:href="#me8206011bd" x="570.25184" y="61.486025" style="fill: #008000; stroke: #008000"/>
     <use xlink:href="#me8206011bd" x="575.039945" y="55.80373" style="fill: #008000; stroke: #008000"/>
     <use xlink:href="#me8206011bd" x="579.82805" y="50.832896" style="fill: #008000; stroke: #008000"/>
     <use xlink:href="#me8206011bd" x="584.616155" y="46.59314" style="fill: #008000; stroke: #008000"/>
     <use xlink:href="#me8206011bd" x="589.40426" y="43.101195" style="fill: #008000; stroke: #008000"/>
     <use xlink:href="#me8206011bd" x="594.192366" y="40.370842" style="fill: #008000; stroke: #008000"/>
     <use xlink:href="#me8206011bd" x="598.980471" y="38.412856" style="fill: #008000; stroke: #008000"/>
     <use xlink:href="#me8206011bd" x="603.768576" y="37.234966" style="fill: #008000; stroke: #008000"/>
    </g>
   </g>
   <g id="patch_8">
    <path d="M 357.420567 246.04 
L 357.420567 26.88 
" style="fill: none; stroke: #000000; stroke-width: 0.8; stroke-linejoin: miter; stroke-linecap: square"/>
   </g>
   <g id="patch_9">
    <path d="M 615.499433 246.04 
L 615.499433 26.88 
" style="fill: none; stroke: #000000; stroke-width: 0.8; stroke-linejoin: miter; stroke-linecap: square"/>
   </g>
   <g id="patch_10">
    <path d="M 357.420567 246.04 
L 615.499433 246.04 
" style="fill: none; stroke: #000000; stroke-width: 0.8; stroke-linejoin: miter; stroke-linecap: square"/>
   </g>
   <g id="patch_11">
    <path d="M 357.420567 26.88 
L 615.499433 26.88 
" style="fill: none; stroke: #000000; stroke-width: 0.8; stroke-linejoin: miter; stroke-linecap: square"/>
   </g>
   <g id="text_32">
    <!-- (b) Per-mode zero-point energy -->
    <g transform="translate(392.56 20.88) scale(0.12 -0.12)">
     <defs>
      <path id="DejaVuSans-62" d="M 3116 1747 
Q 3116 2381 2855 2742 
Q 2594 3103 2138 3103 
Q 1681 3103 1420 2742 
Q 1159 2381 1159 1747 
Q 1159 1113 1420 752 
Q 1681 391 2138 391 
Q 2594 391 2855 752 
Q 3116 1113 3116 1747 
z
M 1159 2969 
Q 1341 3281 1617 3432 
Q 1894 3584 2278 3584 
Q 2916 3584 3314 3078 
Q 3713 2572 3713 1747 
Q 3713 922 3314 415 
Q 2916 -91 2278 -91 
Q 1894 -91 1617 61 
Q 1341 213 1159 525 
L 1159 0 
L 581 0 
L 581 4863 
L 1159 4863 
L 1159 2969 
z
" transform="scale(0.015625)"/>
      <path id="DejaVuSans-50" d="M 1259 4147 
L 1259 2394 
L 2053 2394 
Q 2494 2394 2734 2622 
Q 2975 2850 2975 3272 
Q 2975 3691 2734 3919 
Q 2494 4147 2053 4147 
L 1259 4147 
z
M 628 4666 
L 2053 4666 
Q 2838 4666 3239 4311 
Q 3641 3956 3641 3272 
Q 3641 2581 3239 2228 
Q 2838 1875 2053 1875 
L 1259 1875 
L 1259 0 
L 628 0 
L 628 4666 
z
" transform="scale(0.015625)"/>
     </defs>
     <use xlink:href="#DejaVuSans-28"/>
     <use xlink:href="#DejaVuSans-62" transform="translate(39.013672 0)"/>
     <use xlink:href="#DejaVuSans-29" transform="translate(102.490234 0)"/>
     <use xlink:href="#DejaVuSans-20" transform="translate(141.503906 0)"/>
     <use xlink:href="#DejaVuSans-50" transform="translate(173.291016 0)"/>
     <use xlink:href="#DejaVuSans-65" transform="translate(229.96875 0)"/>
     <use xlink:href="#DejaVuSans-72" transform="translate(291.492188 0)"/>
     <use xlink:href="#DejaVuSans-2d" transform="translate(326.230469 0)"/>
     <use xlink:href="#DejaVuSans-6d" transform="translate(362.314453 0)"/>
     <use xlink:href="#DejaVuSans-6f" transform="translate(459.726562 0)"/>
     <use xlink:href="#DejaVuSans-64" transform="translate(520.908203 0)"/>
     <use xlink:href="#DejaVuSans-65" transform="translate(584.384766 0)"/>
     <use xlink:href="#DejaVuSans-20" transform="translate(645.908203 0)"/>
     <use xlink:href="#DejaVuSans-7a" transform="translate(677.695312 0)"/>
     <use xlink:href="#DejaVuSans-65" transform="translate(730.185547 0)"/>
     <use xlink:href="#DejaVuSans-72" transform="translate(791.708984 0)"/>
     <use xlink:href="#DejaVuSans-6f" transform="translate(830.572266 0)"/>
     <use xlink:href="#DejaVuSans-2d" transform="translate(893.628906 0)"/>
     <use xlink:href="#DejaVuSans-70" transform="translate(929.712891 0)"/>
     <use xlink:href="#DejaVuSans-6f" transform="translate(993.189453 0)"/>
     <use xlink:href="#DejaVuSans-69" transform="translate(1054.371094 0)"/>
     <use xlink:href="#DejaVuSans-6e" transform="translate(1082.154297 0)"/>
     <use xlink:href="#DejaVuSans-74" transform="translate(1145.533203 0)"/>
     <use xlink:href="#DejaVuSans-20" transform="translate(1184.742188 0)"/>
     <use xlink:href="#DejaVuSans-65" transform="translate(1216.529297 0)"/>
     <use xlink:href="#DejaVuSans-6e" transform="translate(1278.052734 0)"/>
     <use xlink:href="#DejaVuSans-65" transform="translate(1341.431641 0)"/>
     <use xlink:href="#DejaVuSans-72" transform="translate(1402.955078 0)"/>
     <use xlink:href="#DejaVuSans-67" transform="translate(1442.318359 0)"/>
     <use xlink:href="#DejaVuSans-79" transform="translate(1505.794922 0)"/>
    </g>
   </g>
  </g>
  <g id="axes_3">
   <g id="patch_12">
    <path d="M 667.121133 246.04 
L 925.2 246.04 
L 925.2 26.88 
L 667.121133 26.88 
z
" style="fill: #ffffff"/>
   </g>
   <g id="matplotlib.axis_5">
    <g id="xtick_12">
     <g id="line2d_53">
      <path d="M 703.298294 246.04 
L 703.298294 26.88 
" clip-path="url(#p339fb5e13c)" style="fill: none; stroke-dasharray: 0.8,1.32; stroke-dashoffset: 0; stroke: #b0b0b0; stroke-width: 0.8"/>
     </g>
     <g id="line2d_54">
      <g>
       <use xlink:href="#m356b3e27ef" x="703.298294" y="246.04" style="stroke: #000000; stroke-width: 0.8"/>
      </g>
     </g>
     <g id="text_33">
      <!-- −1.0 -->
      <g transform="translate(691.156888 260.638438) scale(0.1 -0.1)">
       <use xlink:href="#DejaVuSans-2212"/>
       <use xlink:href="#DejaVuSans-31" transform="translate(83.789062 0)"/>
       <use xlink:href="#DejaVuSans-2e" transform="translate(147.412109 0)"/>
       <use xlink:href="#DejaVuSans-30" transform="translate(179.199219 0)"/>
      </g>
     </g>
    </g>
    <g id="xtick_13">
     <g id="line2d_55">
      <path d="M 750.926457 246.04 
L 750.926457 26.88 
" clip-path="url(#p339fb5e13c)" style="fill: none; stroke-dasharray: 0.8,1.32; stroke-dashoffset: 0; stroke: #b0b0b0; stroke-width: 0.8"/>
     </g>
     <g id="line2d_56">
      <g>
       <use xlink:href="#m356b3e27ef" x="750.926457" y="246.04" style="stroke: #000000; stroke-width: 0.8"/>
      </g>
     </g>
     <g id="text_34">
      <!-- −0.5 -->
      <g transform="translate(738.78505 260.638438) scale(0.1 -0.1)">
       <use xlink:href="#DejaVuSans-2212"/>
       <use xlink:href="#DejaVuSans-30" transform="translate(83.789062 0)"/>
       <use xlink:href="#DejaVuSans-2e" transform="translate(147.412109 0)"/>
       <use xlink:href="#DejaVuSans-35" transform="translate(179.199219 0)"/>
      </g>
     </g>
    </g>
    <g id="xtick_14">
     <g id="line2d_57">
      <path d="M 798.554619 246.04 
L 798.554619 26.88 
" clip-path="url(#p339fb5e13c)" style="fill: none; stroke-dasharray: 0.8,1.32; stroke-dashoffset: 0; stroke: #b0b0b0; stroke-width: 0.8"/>
     </g>
     <g id="line2d_58">
      <g>
       <use xlink:href="#m356b3e27ef" x="798.554619" y="246.04" style="stroke: #000000; stroke-width: 0.8"/>
      </g>
     </g>
     <g id="text_35">
      <!-- 0.0 -->
      <g transform="translate(790.603057 260.638438) scale(0.1 -0.1)">
       <use xlink:href="#DejaVuSans-30"/>
       <use xlink:href="#DejaVuSans-2e" transform="translate(63.623047 0)"/>
       <use xlink:href="#DejaVuSans-30" transform="translate(95.410156 0)"/>
      </g>
     </g>
    </g>
    <g id="xtick_15">
     <g id="line2d_59">
      <path d="M 846.182782 246.04 
L 846.182782 26.88 
" clip-path="url(#p339fb5e13c)" style="fill: none; stroke-dasharray: 0.8,1.32; stroke-dashoffset: 0; stroke: #b0b0b0; stroke-width: 0.8"/>
     </g>
     <g id="line2d_60">
      <g>
       <use xlink:href="#m356b3e27ef" x="846.182782" y="246.04" style="stroke: #000000; stroke-width: 0.8"/>
      </g>
     </g>
     <g id="text_36">
      <!-- 0.5 -->
      <g transform="translate(838.231219 260.638438) scale(0.1 -0.1)">
       <use xlink:href="#DejaVuSans-30"/>
       <use xlink:href="#DejaVuSans-2e" transform="translate(63.623047 0)"/>
       <use xlink:href="#DejaVuSans-35" transform="translate(95.410156 0)"/>
      </g>
     </g>
    </g>
    <g id="xtick_16">
     <g id="line2d_61">
      <path d="M 893.810944 246.04 
L 893.810944 26.88 
" clip-path="url(#p339fb5e13c)" style="fill: none; stroke-dasharray: 0.8,1.32; stroke-dashoffset: 0; stroke: #b0b0b0; stroke-width: 0.8"/>
     </g>
     <g id="line2d_62">
      <g>
       <use xlink:href="#m356b3e27ef" x="893.810944" y="246.04" style="stroke: #000000; stroke-width: 0.8"/>
      </g>
     </g>
     <g id="text_37">
      <!-- 1.0 -->
      <g transform="translate(885.859382 260.638438) scale(0.1 -0.1)">
       <use xlink:href="#DejaVuSans-31"/>
       <use xlink:href="#DejaVuSans-2e" transform="translate(63.623047 0)"/>
       <use xlink:href="#DejaVuSans-30" transform="translate(95.410156 0)"/>
      </g>
     </g>
    </g>
    <g id="text_38">
     <!-- k a / (2 pi)  (dimensionless) -->
     <g transform="translate(727.859004 274.316562) scale(0.1 -0.1)">
      <use xlink:href="#DejaVuSans-6b"/>
      <use xlink:href="#DejaVuSans-20" transform="translate(57.910156 0)"/>
      <use xlink:href="#DejaVuSans-61" transform="translate(89.697266 0)"/>
      <use xlink:href="#DejaVuSans-20" transform="translate(150.976562 0)"/>
      <use xlink:href="#DejaVuSans-2f" transform="translate(182.763672 0)"/>
      <use xlink:href="#DejaVuSans-20" transform="translate(216.455078 0)"/>
      <use xlink:href="#DejaVuSans-28" transform="translate(248.242188 0)"/>
      <use xlink:href="#DejaVuSans-32" transform="translate(287.255859 0)"/>
      <use xlink:href="#DejaVuSans-20" transform="translate(350.878906 0)"/>
      <use xlink:href="#DejaVuSans-70" transform="translate(382.666016 0)"/>
      <use xlink:href="#DejaVuSans-69" transform="translate(446.142578 0)"/>
      <use xlink:href="#DejaVuSans-29" transform="translate(473.925781 0)"/>
      <use xlink:href="#DejaVuSans-20" transform="translate(512.939453 0)"/>
      <use xlink:href="#DejaVuSans-20" transform="translate(544.726562 0)"/>
      <use xlink:href="#DejaVuSans-28" transform="translate(576.513672 0)"/>
      <use xlink:href="#DejaVuSans-64" transform="translate(615.527344 0)"/>
      <use xlink:href="#DejaVuSans-69" transform="translate(679.003906 0)"/>
      <use xlink:href="#DejaVuSans-6d" transform="translate(706.787109 0)"/>
      <use xlink:href="#DejaVuSans-65" transform="translate(804.199219 0)"/>
      <use xlink:href="#DejaVuSans-6e" transform="translate(865.722656 0)"/>
      <use xlink:href="#DejaVuSans-73" transform="translate(929.101562 0)"/>
      <use xlink:href="#DejaVuSans-69" transform="translate(981.201172 0)"/>
      <use xlink:href="#DejaVuSans-6f" transform="translate(1008.984375 0)"/>
      <use xlink:href="#DejaVuSans-6e" transform="translate(1070.166016 0)"/>
      <use xlink:href="#DejaVuSans-6c" transform="translate(1133.544922 0)"/>
      <use xlink:href="#DejaVuSans-65" transform="translate(1161.328125 0)"/>
      <use xlink:href="#DejaVuSans-73" transform="translate(1222.851562 0)"/>
      <use xlink:href="#DejaVuSans-73" transform="translate(1274.951172 0)"/>
      <use xlink:href="#DejaVuSans-29" transform="translate(1327.050781 0)"/>
     </g>
    </g>
    <g id="text_39">
     <!-- 1e19 -->
     <g transform="translate(899.959375 273.316562) scale(0.1 -0.1)">
      <use xlink:href="#DejaVuSans-31"/>
      <use xlink:href="#DejaVuSans-65" transform="translate(63.623047 0)"/>
      <use xlink:href="#DejaVuSans-31" transform="translate(125.146484 0)"/>
      <use xlink:href="#DejaVuSans-39" transform="translate(188.769531 0)"/>
     </g>
    </g>
   </g>
   <g id="matplotlib.axis_6">
    <g id="ytick_15">
     <g id="line2d_63">
      <path d="M 667.121133 236.078182 
L 925.2 236.078182 
" clip-path="url(#p339fb5e13c)" style="fill: none; stroke-dasharray: 0.8,1.32; stroke-dashoffset: 0; stroke: #b0b0b0; stroke-width: 0.8"/>
     </g>
     <g id="line2d_64">
      <g>
       <use xlink:href="#mea39538103" x="667.121133" y="236.078182" style="stroke: #000000; stroke-width: 0.8"/>
      </g>
     </g>
     <g id="text_40">
      <!-- 0 -->
      <g transform="translate(653.758633 239.877401) scale(0.1 -0.1)">
       <use xlink:href="#DejaVuSans-30"/>
      </g>
     </g>
    </g>
    <g id="ytick_16">
     <g id="line2d_65">
      <path d="M 667.121133 210.515075 
L 925.2 210.515075 
" clip-path="url(#p339fb5e13c)" style="fill: none; stroke-dasharray: 0.8,1.32; stroke-dashoffset: 0; stroke: #b0b0b0; stroke-width: 0.8"/>
     </g>
     <g id="line2d_66">
      <g>
       <use xlink:href="#mea39538103" x="667.121133" y="210.515075" style="stroke: #000000; stroke-width: 0.8"/>
      </g>
     </g>
     <g id="text_41">
      <!-- 20 -->
      <g transform="translate(647.396133 214.314293) scale(0.1 -0.1)">
       <use xlink:href="#DejaVuSans-32"/>
       <use xlink:href="#DejaVuSans-30" transform="translate(63.623047 0)"/>
      </g>
     </g>
    </g>
    <g id="ytick_17">
     <g id="line2d_67">
      <path d="M 667.121133 184.951967 
L 925.2 184.951967 
" clip-path="url(#p339fb5e13c)" style="fill: none; stroke-dasharray: 0.8,1.32; stroke-dashoffset: 0; stroke: #b0b0b0; stroke-width: 0.8"/>
     </g>
     <g id="line2d_68">
      <g>
       <use xlink:href="#mea39538103" x="667.121133" y="184.951967" style="stroke: #000000; stroke-width: 0.8"/>
      </g>
     </g>
     <g id="text_42">
      <!-- 40 -->
      <g transform="translate(647.396133 188.751186) scale(0.1 -0.1)">
       <use xlink:href="#DejaVuSans-34"/>
       <use xlink:href="#DejaVuSans-30" transform="translate(63.623047 0)"/>
      </g>
     </g>
    </g>
    <g id="ytick_18">
     <g id="line2d_69">
      <path d="M 667.121133 159.38886 
L 925.2 159.38886 
" clip-path="url(#p339fb5e13c)" style="fill: none; stroke-dasharray: 0.8,1.32; stroke-dashoffset: 0; stroke: #b0b0b0; stroke-width: 0.8"/>
     </g>
     <g id="line2d_70">
      <g>
       <use xlink:href="#mea39538103" x="667.121133" y="159.38886" style="stroke: #000000; stroke-width: 0.8"/>
      </g>
     </g>
     <g id="text_43">
      <!-- 60 -->
      <g transform="translate(647.396133 163.188079) scale(0.1 -0.1)">
       <defs>
        <path id="DejaVuSans-36" d="M 2113 2584 
Q 1688 2584 1439 2293 
Q 1191 2003 1191 1497 
Q 1191 994 1439 701 
Q 1688 409 2113 409 
Q 2538 409 2786 701 
Q 3034 994 3034 1497 
Q 3034 2003 2786 2293 
Q 2538 2584 2113 2584 
z
M 3366 4563 
L 3366 3988 
Q 3128 4100 2886 4159 
Q 2644 4219 2406 4219 
Q 1781 4219 1451 3797 
Q 1122 3375 1075 2522 
Q 1259 2794 1537 2939 
Q 1816 3084 2150 3084 
Q 2853 3084 3261 2657 
Q 3669 2231 3669 1497 
Q 3669 778 3244 343 
Q 2819 -91 2113 -91 
Q 1303 -91 875 529 
Q 447 1150 447 2328 
Q 447 3434 972 4092 
Q 1497 4750 2381 4750 
Q 2619 4750 2861 4703 
Q 3103 4656 3366 4563 
z
" transform="scale(0.015625)"/>
       </defs>
       <use xlink:href="#DejaVuSans-36"/>
       <use xlink:href="#DejaVuSans-30" transform="translate(63.623047 0)"/>
      </g>
     </g>
    </g>
    <g id="ytick_19">
     <g id="line2d_71">
      <path d="M 667.121133 133.825753 
L 925.2 133.825753 
" clip-path="url(#p339fb5e13c)" style="fill: none; stroke-dasharray: 0.8,1.32; stroke-dashoffset: 0; stroke: #b0b0b0; stroke-width: 0.8"/>
     </g>
     <g id="line2d_72">
      <g>
       <use xlink:href="#mea39538103" x="667.121133" y="133.825753" style="stroke: #000000; stroke-width: 0.8"/>
      </g>
     </g>
     <g id="text_44">
      <!-- 80 -->
      <g transform="translate(647.396133 137.624971) scale(0.1 -0.1)">
       <defs>
        <path id="DejaVuSans-38" d="M 2034 2216 
Q 1584 2216 1326 1975 
Q 1069 1734 1069 1313 
Q 1069 891 1326 650 
Q 1584 409 2034 409 
Q 2484 409 2743 651 
Q 3003 894 3003 1313 
Q 3003 1734 2745 1975 
Q 2488 2216 2034 2216 
z
M 1403 2484 
Q 997 2584 770 2862 
Q 544 3141 544 3541 
Q 544 4100 942 4425 
Q 1341 4750 2034 4750 
Q 2731 4750 3128 4425 
Q 3525 4100 3525 3541 
Q 3525 3141 3298 2862 
Q 3072 2584 2669 2484 
Q 3125 2378 3379 2068 
Q 3634 1759 3634 1313 
Q 3634 634 3220 271 
Q 2806 -91 2034 -91 
Q 1263 -91 848 271 
Q 434 634 434 1313 
Q 434 1759 690 2068 
Q 947 2378 1403 2484 
z
M 1172 3481 
Q 1172 3119 1398 2916 
Q 1625 2713 2034 2713 
Q 2441 2713 2670 2916 
Q 2900 3119 2900 3481 
Q 2900 3844 2670 4047 
Q 2441 4250 2034 4250 
Q 1625 4250 1398 4047 
Q 1172 3844 1172 3481 
z
" transform="scale(0.015625)"/>
       </defs>
       <use xlink:href="#DejaVuSans-38"/>
       <use xlink:href="#DejaVuSans-30" transform="translate(63.623047 0)"/>
      </g>
     </g>
    </g>
    <g id="ytick_20">
     <g id="line2d_73">
      <path d="M 667.121133 108.262645 
L 925.2 108.262645 
" clip-path="url(#p339fb5e13c)" style="fill: none; stroke-dasharray: 0.8,1.32; stroke-dashoffset: 0; stroke: #b0b0b0; stroke-width: 0.8"/>
     </g>
     <g id="line2d_74">
      <g>
       <use xlink:href="#mea39538103" x="667.121133" y="108.262645" style="stroke: #000000; stroke-width: 0.8"/>
      </g>
     </g>
     <g id="text_45">
      <!-- 100 -->
      <g transform="translate(641.033633 112.061864) scale(0.1 -0.1)">
       <use xlink:href="#DejaVuSans-31"/>
       <use xlink:href="#DejaVuSans-30" transform="translate(63.623047 0)"/>
       <use xlink:href="#DejaVuSans-30" transform="translate(127.246094 0)"/>
      </g>
     </g>
    </g>
    <g id="ytick_21">
     <g id="line2d_75">
      <path d="M 667.121133 82.699538 
L 925.2 82.699538 
" clip-path="url(#p339fb5e13c)" style="fill: none; stroke-dasharray: 0.8,1.32; stroke-dashoffset: 0; stroke: #b0b0b0; stroke-width: 0.8"/>
     </g>
     <g id="line2d_76">
      <g>
       <use xlink:href="#mea39538103" x="667.121133" y="82.699538" style="stroke: #000000; stroke-width: 0.8"/>
      </g>
     </g>
     <g id="text_46">
      <!-- 120 -->
      <g transform="translate(641.033633 86.498757) scale(0.1 -0.1)">
       <use xlink:href="#DejaVuSans-31"/>
       <use xlink:href="#DejaVuSans-32" transform="translate(63.623047 0)"/>
       <use xlink:href="#DejaVuSans-30" transform="translate(127.246094 0)"/>
      </g>
     </g>
    </g>
    <g id="ytick_22">
     <g id="line2d_77">
      <path d="M 667.121133 57.136431 
L 925.2 57.136431 
" clip-path="url(#p339fb5e13c)" style="fill: none; stroke-dasharray: 0.8,1.32; stroke-dashoffset: 0; stroke: #b0b0b0; stroke-width: 0.8"/>
     </g>
     <g id="line2d_78">
      <g>
       <use xlink:href="#mea39538103" x="667.121133" y="57.136431" style="stroke: #000000; stroke-width: 0.8"/>
      </g>
     </g>
     <g id="text_47">
      <!-- 140 -->
      <g transform="translate(641.033633 60.93565) scale(0.1 -0.1)">
       <use xlink:href="#DejaVuSans-31"/>
       <use xlink:href="#DejaVuSans-34" transform="translate(63.623047 0)"/>
       <use xlink:href="#DejaVuSans-30" transform="translate(127.246094 0)"/>
      </g>
     </g>
    </g>
    <g id="ytick_23">
     <g id="line2d_79">
      <path d="M 667.121133 31.573324 
L 925.2 31.573324 
" clip-path="url(#p339fb5e13c)" style="fill: none; stroke-dasharray: 0.8,1.32; stroke-dashoffset: 0; stroke: #b0b0b0; stroke-width: 0.8"/>
     </g>
     <g id="line2d_80">
      <g>
       <use xlink:href="#mea39538103" x="667.121133" y="31.573324" style="stroke: #000000; stroke-width: 0.8"/>
      </g>
     </g>
     <g id="text_48">
      <!-- 160 -->
      <g transform="translate(641.033633 35.372542) scale(0.1 -0.1)">
       <use xlink:href="#DejaVuSans-31"/>
       <use xlink:href="#DejaVuSans-36" transform="translate(63.623047 0)"/>
       <use xlink:href="#DejaVuSans-30" transform="translate(127.246094 0)"/>
      </g>
     </g>
    </g>
    <g id="text_49">
     <!-- mean occupation &lt;n_k&gt; -->
     <g transform="translate(634.675821 198.30375) rotate(-90) scale(0.1 -0.1)">
      <defs>
       <path id="DejaVuSans-75" d="M 544 1381 
L 544 3500 
L 1119 3500 
L 1119 1403 
Q 1119 906 1312 657 
Q 1506 409 1894 409 
Q 2359 409 2629 706 
Q 2900 1003 2900 1516 
L 2900 3500 
L 3475 3500 
L 3475 0 
L 2900 0 
L 2900 538 
Q 2691 219 2414 64 
Q 2138 -91 1772 -91 
Q 1169 -91 856 284 
Q 544 659 544 1381 
z
M 1991 3584 
L 1991 3584 
z
" transform="scale(0.015625)"/>
       <path id="DejaVuSans-3c" d="M 4684 3150 
L 1459 2003 
L 4684 863 
L 4684 294 
L 678 1747 
L 678 2266 
L 4684 3719 
L 4684 3150 
z
" transform="scale(0.015625)"/>
       <path id="DejaVuSans-5f" d="M 3263 -1063 
L 3263 -1509 
L -63 -1509 
L -63 -1063 
L 3263 -1063 
z
" transform="scale(0.015625)"/>
       <path id="DejaVuSans-3e" d="M 678 3150 
L 678 3719 
L 4684 2266 
L 4684 1747 
L 678 294 
L 678 863 
L 3897 2003 
L 678 3150 
z
" transform="scale(0.015625)"/>
      </defs>
      <use xlink:href="#DejaVuSans-6d"/>
      <use xlink:href="#DejaVuSans-65" transform="translate(97.412109 0)"/>
      <use xlink:href="#DejaVuSans-61" transform="translate(158.935547 0)"/>
      <use xlink:href="#DejaVuSans-6e" transform="translate(220.214844 0)"/>
      <use xlink:href="#DejaVuSans-20" transform="translate(283.59375 0)"/>
      <use xlink:href="#DejaVuSans-6f" transform="translate(315.380859 0)"/>
      <use xlink:href="#DejaVuSans-63" transform="translate(376.5625 0)"/>
      <use xlink:href="#DejaVuSans-63" transform="translate(431.542969 0)"/>
      <use xlink:href="#DejaVuSans-75" transform="translate(486.523438 0)"/>
      <use xlink:href="#DejaVuSans-70" transform="translate(549.902344 0)"/>
      <use xlink:href="#DejaVuSans-61" transform="translate(613.378906 0)"/>
      <use xlink:href="#DejaVuSans-74" transform="translate(674.658203 0)"/>
      <use xlink:href="#DejaVuSans-69" transform="translate(713.867188 0)"/>
      <use xlink:href="#DejaVuSans-6f" transform="translate(741.650391 0)"/>
      <use xlink:href="#DejaVuSans-6e" transform="translate(802.832031 0)"/>
      <use xlink:href="#DejaVuSans-20" transform="translate(866.210938 0)"/>
      <use xlink:href="#DejaVuSans-3c" transform="translate(897.998047 0)"/>
      <use xlink:href="#DejaVuSans-6e" transform="translate(981.787109 0)"/>
      <use xlink:href="#DejaVuSans-5f" transform="translate(1045.166016 0)"/>
      <use xlink:href="#DejaVuSans-6b" transform="translate(1095.166016 0)"/>
      <use xlink:href="#DejaVuSans-3e" transform="translate(1153.076172 0)"/>
     </g>
    </g>
   </g>
   <g id="line2d_81">
    <path d="M 678.851991 236.014993 
L 683.640096 236.014591 
L 688.428201 236.013374 
L 693.216306 236.011295 
L 698.004411 236.008278 
L 702.792516 236.00421 
L 707.580622 235.998933 
L 712.368727 235.992234 
L 717.156832 235.983831 
L 721.944937 235.973353 
L 726.733042 235.960309 
L 731.521147 235.94405 
L 736.309252 235.923703 
L 741.097357 235.898084 
L 745.885463 235.865555 
L 750.673568 235.823804 
L 755.461673 235.76947 
L 760.249778 235.697495 
L 765.037883 235.599925 
L 769.825988 235.463501 
L 774.614093 235.264379 
L 779.402199 234.954916 
L 784.190304 234.424044 
L 788.978409 233.338739 
L 793.766514 230.034346 
L 798.554619 236.078182 
L 803.342724 230.034346 
L 808.130829 233.338739 
L 812.918935 234.424044 
L 817.70704 234.954916 
L 822.495145 235.264379 
L 827.28325 235.463501 
L 832.071355 235.599925 
L 836.85946 235.697495 
L 841.647565 235.76947 
L 846.43567 235.823804 
L 851.223776 235.865555 
L 856.011881 235.898084 
L 860.799986 235.923703 
L 865.588091 235.94405 
L 870.376196 235.960309 
L 875.164301 235.973353 
L 879.952406 235.983831 
L 884.740512 235.992234 
L 889.528617 235.998933 
L 894.316722 236.00421 
L 899.104827 236.008278 
L 903.892932 236.011295 
L 908.681037 236.013374 
L 913.469142 236.014591 
" clip-path="url(#p339fb5e13c)" style="fill: none; stroke: #1f77b4; stroke-width: 1.5; stroke-linecap: square"/>
   </g>
   <g id="line2d_82">
    <path d="M 678.851991 224.156174 
L 683.640096 224.131381 
L 688.428201 224.05651 
L 693.216306 223.930058 
L 698.004411 223.749436 
L 702.792516 223.510841 
L 707.580622 223.209049 
L 712.368727 222.837126 
L 717.156832 222.386011 
L 721.944937 221.843924 
L 726.733042 221.195535 
L 731.521147 220.420746 
L 736.309252 219.492919 
L 741.097357 218.376195 
L 745.885463 217.021347 
L 750.673568 215.35914 
L 755.461673 213.289252 
L 760.249778 210.660878 
L 765.037883 207.236712 
L 769.825988 202.620892 
L 774.614093 196.100478 
L 779.402199 186.24914 
L 784.190304 169.738218 
L 788.978409 136.580926 
L 793.766514 36.841818 
L 798.554619 236.078182 
L 803.342724 36.841818 
L 808.130829 136.580926 
L 812.918935 169.738218 
L 817.70704 186.24914 
L 822.495145 196.100478 
L 827.28325 202.620892 
L 832.071355 207.236712 
L 836.85946 210.660878 
L 841.647565 213.289252 
L 846.43567 215.35914 
L 851.223776 217.021347 
L 856.011881 218.376195 
L 860.799986 219.492919 
L 865.588091 220.420746 
L 870.376196 221.195535 
L 875.164301 221.843924 
L 879.952406 222.386011 
L 884.740512 222.837126 
L 889.528617 223.209049 
L 894.316722 223.510841 
L 899.104827 223.749436 
L 903.892932 223.930058 
L 908.681037 224.05651 
L 913.469142 224.131381 
" clip-path="url(#p339fb5e13c)" style="fill: none; stroke: #ff7f0e; stroke-width: 1.5; stroke-linecap: square"/>
   </g>
   <g id="patch_13">
    <path d="M 667.121133 246.04 
L 667.121133 26.88 
" style="fill: none; stroke: #000000; stroke-width: 0.8; stroke-linejoin: miter; stroke-linecap: square"/>
   </g>
   <g id="patch_14">
    <path d="M 925.2 246.04 
L 925.2 26.88 
" style="fill: none; stroke: #000000; stroke-width: 0.8; stroke-linejoin: miter; stroke-linecap: square"/>
   </g>
   <g id="patch_15">
    <path d="M 667.121133 246.04 
L 925.2 246.04 
" style="fill: none; stroke: #000000; stroke-width: 0.8; stroke-linejoin: miter; stroke-linecap: square"/>
   </g>
   <g id="patch_16">
    <path d="M 667.121133 26.88 
L 925.2 26.88 
" style="fill: none; stroke: #000000; stroke-width: 0.8; stroke-linejoin: miter; stroke-linecap: square"/>
   </g>
   <g id="text_50">
    <!-- (c) Bose-Einstein occupation -->
    <g transform="translate(710.645567 20.88) scale(0.12 -0.12)">
     <defs>
      <path id="DejaVuSans-42" d="M 1259 2228 
L 1259 519 
L 2272 519 
Q 2781 519 3026 730 
Q 3272 941 3272 1375 
Q 3272 1813 3026 2020 
Q 2781 2228 2272 2228 
L 1259 2228 
z
M 1259 4147 
L 1259 2741 
L 2194 2741 
Q 2656 2741 2882 2914 
Q 3109 3088 3109 3444 
Q 3109 3797 2882 3972 
Q 2656 4147 2194 4147 
L 1259 4147 
z
M 628 4666 
L 2241 4666 
Q 2963 4666 3353 4366 
Q 3744 4066 3744 3513 
Q 3744 3084 3544 2831 
Q 3344 2578 2956 2516 
Q 3422 2416 3680 2098 
Q 3938 1781 3938 1306 
Q 3938 681 3513 340 
Q 3088 0 2303 0 
L 628 0 
L 628 4666 
z
" transform="scale(0.015625)"/>
      <path id="DejaVuSans-45" d="M 628 4666 
L 3578 4666 
L 3578 4134 
L 1259 4134 
L 1259 2753 
L 3481 2753 
L 3481 2222 
L 1259 2222 
L 1259 531 
L 3634 531 
L 3634 0 
L 628 0 
L 628 4666 
z
" transform="scale(0.015625)"/>
     </defs>
     <use xlink:href="#DejaVuSans-28"/>
     <use xlink:href="#DejaVuSans-63" transform="translate(39.013672 0)"/>
     <use xlink:href="#DejaVuSans-29" transform="translate(93.994141 0)"/>
     <use xlink:href="#DejaVuSans-20" transform="translate(133.007812 0)"/>
     <use xlink:href="#DejaVuSans-42" transform="translate(164.794922 0)"/>
     <use xlink:href="#DejaVuSans-6f" transform="translate(233.398438 0)"/>
     <use xlink:href="#DejaVuSans-73" transform="translate(294.580078 0)"/>
     <use xlink:href="#DejaVuSans-65" transform="translate(346.679688 0)"/>
     <use xlink:href="#DejaVuSans-2d" transform="translate(408.203125 0)"/>
     <use xlink:href="#DejaVuSans-45" transform="translate(444.287109 0)"/>
     <use xlink:href="#DejaVuSans-69" transform="translate(507.470703 0)"/>
     <use xlink:href="#DejaVuSans-6e" transform="translate(535.253906 0)"/>
     <use xlink:href="#DejaVuSans-73" transform="translate(598.632812 0)"/>
     <use xlink:href="#DejaVuSans-74" transform="translate(650.732422 0)"/>
     <use xlink:href="#DejaVuSans-65" transform="translate(689.941406 0)"/>
     <use xlink:href="#DejaVuSans-69" transform="translate(751.464844 0)"/>
     <use xlink:href="#DejaVuSans-6e" transform="translate(779.248047 0)"/>
     <use xlink:href="#DejaVuSans-20" transform="translate(842.626953 0)"/>
     <use xlink:href="#DejaVuSans-6f" transform="translate(874.414062 0)"/>
     <use xlink:href="#DejaVuSans-63" transform="translate(935.595703 0)"/>
     <use xlink:href="#DejaVuSans-63" transform="translate(990.576172 0)"/>
     <use xlink:href="#DejaVuSans-75" transform="translate(1045.556641 0)"/>
     <use xlink:href="#DejaVuSans-70" transform="translate(1108.935547 0)"/>
     <use xlink:href="#DejaVuSans-61" transform="translate(1172.412109 0)"/>
     <use xlink:href="#DejaVuSans-74" transform="translate(1233.691406 0)"/>
     <use xlink:href="#DejaVuSans-69" transform="translate(1272.900391 0)"/>
     <use xlink:href="#DejaVuSans-6f" transform="translate(1300.683594 0)"/>
     <use xlink:href="#DejaVuSans-6e" transform="translate(1361.865234 0)"/>
    </g>
   </g>
   <g id="legend_1">
    <g id="patch_17">
     <path d="M 836.532813 64.23625 
L 918.2 64.23625 
Q 920.2 64.23625 920.2 62.23625 
L 920.2 33.88 
Q 920.2 31.88 918.2 31.88 
L 836.532813 31.88 
Q 834.532813 31.88 834.532813 33.88 
L 834.532813 62.23625 
Q 834.532813 64.23625 836.532813 64.23625 
z
" style="fill: #ffffff; opacity: 0.8; stroke: #cccccc; stroke-linejoin: miter"/>
    </g>
    <g id="line2d_83">
     <path d="M 838.532813 39.978438 
L 848.532813 39.978438 
L 858.532813 39.978438 
" style="fill: none; stroke: #1f77b4; stroke-width: 1.5; stroke-linecap: square"/>
    </g>
    <g id="text_51">
     <!-- T = 10 K -->
     <g transform="translate(866.532813 43.478438) scale(0.1 -0.1)">
      <defs>
       <path id="DejaVuSans-3d" d="M 678 2906 
L 4684 2906 
L 4684 2381 
L 678 2381 
L 678 2906 
z
M 678 1631 
L 4684 1631 
L 4684 1100 
L 678 1100 
L 678 1631 
z
" transform="scale(0.015625)"/>
       <path id="DejaVuSans-4b" d="M 628 4666 
L 1259 4666 
L 1259 2694 
L 3353 4666 
L 4166 4666 
L 1850 2491 
L 4331 0 
L 3500 0 
L 1259 2247 
L 1259 0 
L 628 0 
L 628 4666 
z
" transform="scale(0.015625)"/>
      </defs>
      <use xlink:href="#DejaVuSans-54"/>
      <use xlink:href="#DejaVuSans-20" transform="translate(61.083984 0)"/>
      <use xlink:href="#DejaVuSans-3d" transform="translate(92.871094 0)"/>
      <use xlink:href="#DejaVuSans-20" transform="translate(176.660156 0)"/>
      <use xlink:href="#DejaVuSans-31" transform="translate(208.447266 0)"/>
      <use xlink:href="#DejaVuSans-30" transform="translate(272.070312 0)"/>
      <use xlink:href="#DejaVuSans-20" transform="translate(335.693359 0)"/>
      <use xlink:href="#DejaVuSans-4b" transform="translate(367.480469 0)"/>
     </g>
    </g>
    <g id="line2d_84">
     <path d="M 838.532813 54.656563 
L 848.532813 54.656563 
L 858.532813 54.656563 
" style="fill: none; stroke: #ff7f0e; stroke-width: 1.5; stroke-linecap: square"/>
    </g>
    <g id="text_52">
     <!-- T = 300 K -->
     <g transform="translate(866.532813 58.156563) scale(0.1 -0.1)">
      <use xlink:href="#DejaVuSans-54"/>
      <use xlink:href="#DejaVuSans-20" transform="translate(61.083984 0)"/>
      <use xlink:href="#DejaVuSans-3d" transform="translate(92.871094 0)"/>
      <use xlink:href="#DejaVuSans-20" transform="translate(176.660156 0)"/>
      <use xlink:href="#DejaVuSans-33" transform="translate(208.447266 0)"/>
      <use xlink:href="#DejaVuSans-30" transform="translate(272.070312 0)"/>
      <use xlink:href="#DejaVuSans-30" transform="translate(335.693359 0)"/>
      <use xlink:href="#DejaVuSans-20" transform="translate(399.316406 0)"/>
      <use xlink:href="#DejaVuSans-4b" transform="translate(431.103516 0)"/>
     </g>
    </g>
   </g>
  </g>
 </g>
 <defs>
  <clipPath id="pba4c77f8a6">
   <rect x="47.72" y="26.88" width="258.078867" height="219.16"/>
  </clipPath>
  <clipPath id="pdcdf6d0d73">
   <rect x="357.420567" y="26.88" width="258.078867" height="219.16"/>
  </clipPath>
  <clipPath id="p339fb5e13c">
   <rect x="667.121133" y="26.88" width="258.078867" height="219.16"/>
  </clipPath>
 </defs>
</svg>
