<?xml version="1.0" encoding="utf-8" standalone="no"?>
<!DOCTYPE svg PUBLIC "-//W3C//DTD SVG 1.1//EN"
  "http://www.w3.org/Graphics/SVG/1.1/DTD/svg11.dtd">
<svg xmlns:xlink="http://www.w3.org/1999/xlink" width="612pt" height="374.4pt" viewBox="0 0 612 374.4" xmlns="http://www.w3.org/2000/svg" version="1.1">
 <metadata>
  <rdf:RDF xmlns:dc="http://purl.org/dc/elements/1.1/" xmlns:cc="http://creativecommons.org/ns#" xmlns:rdf="http://www.w3.org/1999/02/22-rdf-syntax-ns#">
   <cc:Work>
    <dc:type rdf:resource="http://purl.org/dc/dcmitype/StillImage"/>
    <dc:date>2026-09-01T16:06:39.326592</dc:date>
    <dc:format>image/svg+xml</dc:format>
    <dc:creator>
     <cc:Agent>
      <dc:title>Matplotlib v3.10.9, https://matplotlib.org/</dc:title>
     </cc:Agent>
    </dc:creator>
   </cc:Work>
  </rdf:RDF>
 </metadata>
 <defs>
  <style type="text/css">*{stroke-linejoin: round; stroke-linecap: butt}</style>
 </defs>
 <g id="figure_1">
  <g id="patch_1">
   <path d="M 0 374.4 
L 612 374.4 
L 612 0 
L 0 0 
z
" style="fill: #ffffff"/>
  </g>
  <g id="axes_1">
   <g id="patch_2">
    <path d="M 47.72 332.44 
L 601.2 332.44 
L 601.2 26.88 
L 47.72 26.88 
z
" style="fill: #ffffff"/>
   </g>
   <g id="matplotlib.axis_1">
    <g id="xtick_1">
     <g id="line2d_1">
      <defs>
       <path id="mc755e9b03f" d="M 0 0 
L 0 3.5 
" style="stroke: #000000; stroke-width: 0.8"/>
      </defs>
      <g>
       <use xlink:href="#mc755e9b03f" x="64.349985" y="332.44" style="stroke: #000000; stroke-width: 0.8"/>
      </g>
     </g>
     <g id="text_1">
      <!-- 0 -->
      <g transform="translate(61.168735 347.038437) scale(0.1 -0.1)">
       <defs>
        <path id="DejaVuSans-30" d="M 2034 4250 
Q 1547 4250 1301 3770 
Q 1056 3291 1056 2328 
Q 1056 1369 1301 889 
Q 1547 409 2034 409 
Q 2525 409 2770 889 
Q 3016 1369 3016 2328 
Q 3016 3291 2770 3770 
Q 2525 4250 2034 4250 
z
M 2034 4750 
Q 2819 4750 3233 4129 
Q 3647 3509 3647 2328 
Q 3647 1150 3233 529 
Q 2819 -91 2034 -91 
Q 1250 -91 836 529 
Q 422 1150 422 2328 
Q 422 3509 836 4129 
Q 1250 4750 2034 4750 
z
" transform="scale(0.015625)"/>
       </defs>
       <use xlink:href="#DejaVuSans-30"/>
      </g>
     </g>
    </g>
    <g id="xtick_2">
     <g id="line2d_2">
      <g>
       <use xlink:href="#mc755e9b03f" x="149.631957" y="332.44" style="stroke: #000000; stroke-width: 0.8"/>
      </g>
     </g>
     <g id="text_2">
      <!-- 500 -->
      <g transform="translate(140.088207 347.038437) scale(0.1 -0.1)">
       <defs>
        <path id="DejaVuSans-35" d="M 691 4666 
L 3169 4666 
L 3169 4134 
L 1269 4134 
L 1269 2991 
Q 1406 3038 1543 3061 
Q 1681 3084 1819 3084 
Q 2600 3084 3056 2656 
Q 3513 2228 3513 1497 
Q 3513 744 3044 326 
Q 2575 -91 1722 -91 
Q 1428 -91 1123 -41 
Q 819 9 494 109 
L 494 744 
Q 775 591 1075 516 
Q 1375 441 1709 441 
Q 2250 441 2565 725 
Q 2881 1009 2881 1497 
Q 2881 1984 2565 2268 
Q 2250 2553 1709 2553 
Q 1456 2553 1204 2497 
Q 953 2441 691 2322 
L 691 4666 
z
" transform="scale(0.015625)"/>
       </defs>
       <use xlink:href="#DejaVuSans-35"/>
       <use xlink:href="#DejaVuSans-30" transform="translate(63.623047 0)"/>
       <use xlink:href="#DejaVuSans-30" transform="translate(127.246094 0)"/>
      </g>
     </g>
    </g>
    <g id="xtick_3">
     <g id="line2d_3">
      <g>
       <use xlink:href="#mc755e9b03f" x="234.913929" y="332.44" style="stroke: #000000; stroke-width: 0.8"/>
      </g>
     </g>
     <g id="text_3">
      <!-- 1000 -->
      <g transform="translate(222.188929 347.038437) scale(0.1 -0.1)">
       <defs>
        <path id="DejaVuSans-31" d="M 794 531 
L 1825 531 
L 1825 4091 
L 703 3866 
L 703 4441 
L 1819 4666 
L 2450 4666 
L 2450 531 
L 3481 531 
L 3481 0 
L 794 0 
L 794 531 
z
" transform="scale(0.015625)"/>
       </defs>
       <use xlink:href="#DejaVuSans-31"/>
       <use xlink:href="#DejaVuSans-30" transform="translate(63.623047 0)"/>
       <use xlink:href="#DejaVuSans-30" transform="translate(127.246094 0)"/>
       <use xlink:href="#DejaVuSans-30" transform="translate(190.869141 0)"/>
      </g>
     </g>
    </g>
    <g id="xtick_4">
     <g id="line2d_4">
      <g>
       <use xlink:href="#mc755e9b03f" x="320.195901" y="332.44" style="stroke: #000000; stroke-width: 0.8"/>
      </g>
     </g>
     <g id="text_4">
      <!-- 1500 -->
      <g transform="translate(307.470901 347.038437) scale(0.1 -0.1)">
       <use xlink:href="#DejaVuSans-31"/>
       <use xlink:href="#DejaVuSans-35" transform="translate(63.623047 0)"/>
       <use xlink:href="#DejaVuSans-30" transform="translate(127.246094 0)"/>
       <use xlink:href="#DejaVuSans-30" transform="translate(190.869141 0)"/>
      </g>
     </g>
    </g>
    <g id="xtick_5">
     <g id="line2d_5">
      <g>
       <use xlink:href="#mc755e9b03f" x="405.477874" y="332.44" style="stroke: #000000; stroke-width: 0.8"/>
      </g>
     </g>
     <g id="text_5">
      <!-- 2000 -->
      <g transform="translate(392.752874 347.038437) scale(0.1 -0.1)">
       <defs>
        <path id="DejaVuSans-32" d="M 1228 531 
L 3431 531 
L 3431 0 
L 469 0 
L 469 531 
Q 828 903 1448 1529 
Q 2069 2156 2228 2338 
Q 2531 2678 2651 2914 
Q 2772 3150 2772 3378 
Q 2772 3750 2511 3984 
Q 2250 4219 1831 4219 
Q 1534 4219 1204 4116 
Q 875 4013 500 3803 
L 500 4441 
Q 881 4594 1212 4672 
Q 1544 4750 1819 4750 
Q 2544 4750 2975 4387 
Q 3406 4025 3406 3419 
Q 3406 3131 3298 2873 
Q 3191 2616 2906 2266 
Q 2828 2175 2409 1742 
Q 1991 1309 1228 531 
z
" transform="scale(0.015625)"/>
       </defs>
       <use xlink:href="#DejaVuSans-32"/>
       <use xlink:href="#DejaVuSans-30" transform="translate(63.623047 0)"/>
       <use xlink:href="#DejaVuSans-30" transform="translate(127.246094 0)"/>
       <use xlink:href="#DejaVuSans-30" transform="translate(190.869141 0)"/>
      </g>
     </g>
    </g>
    <g id="xtick_6">
     <g id="line2d_6">
      <g>
       <use xlink:href="#mc755e9b03f" x="490.759846" y="332.44" style="stroke: #000000; stroke-width: 0.8"/>
      </g>
     </g>
     <g id="text_6">
      <!-- 2500 -->
      <g transform="translate(478.034846 347.038437) scale(0.1 -0.1)">
       <use xlink:href="#DejaVuSans-32"/>
       <use xlink:href="#DejaVuSans-35" transform="translate(63.623047 0)"/>
       <use xlink:href="#DejaVuSans-30" transform="translate(127.246094 0)"/>
       <use xlink:href="#DejaVuSans-30" transform="translate(190.869141 0)"/>
      </g>
     </g>
    </g>
    <g id="xtick_7">
     <g id="line2d_7">
      <g>
       <use xlink:href="#mc755e9b03f" x="576.041818" y="332.44" style="stroke: #000000; stroke-width: 0.8"/>
      </g>
     </g>
     <g id="text_7">
      <!-- 3000 -->
      <g transform="translate(563.316818 347.038437) scale(0.1 -0.1)">
       <defs>
        <path id="DejaVuSans-33" d="M 2597 2516 
Q 3050 2419 3304 2112 
Q 3559 1806 3559 1356 
Q 3559 666 3084 287 
Q 2609 -91 1734 -91 
Q 1441 -91 1130 -33 
Q 819 25 488 141 
L 488 750 
Q 750 597 1062 519 
Q 1375 441 1716 441 
Q 2309 441 2620 675 
Q 2931 909 2931 1356 
Q 2931 1769 2642 2001 
Q 2353 2234 1838 2234 
L 1294 2234 
L 1294 2753 
L 1863 2753 
Q 2328 2753 2575 2939 
Q 2822 3125 2822 3475 
Q 2822 3834 2567 4026 
Q 2313 4219 1838 4219 
Q 1578 4219 1281 4162 
Q 984 4106 628 3988 
L 628 4550 
Q 988 4650 1302 4700 
Q 1616 4750 1894 4750 
Q 2613 4750 3031 4423 
Q 3450 4097 3450 3541 
Q 3450 3153 3228 2886 
Q 3006 2619 2597 2516 
z
" transform="scale(0.015625)"/>
       </defs>
       <use xlink:href="#DejaVuSans-33"/>
       <use xlink:href="#DejaVuSans-30" transform="translate(63.623047 0)"/>
       <use xlink:href="#DejaVuSans-30" transform="translate(127.246094 0)"/>
       <use xlink:href="#DejaVuSans-30" transform="translate(190.869141 0)"/>
      </g>
     </g>
    </g>
    <g id="text_8">
     <!-- wavelength (nm) -->
     <g transform="translate(281.80375 360.716563) scale(0.1 -0.1)">
      <defs>
       <path id="DejaVuSans-77" d="M 269 3500 
L 844 3500 
L 1563 769 
L 2278 3500 
L 2956 3500 
L 3675 769 
L 4391 3500 
L 4966 3500 
L 4050 0 
L 3372 0 
L 2619 2869 
L 1863 0 
L 1184 0 
L 269 3500 
z
" transform="scale(0.015625)"/>
       <path id="DejaVuSans-61" d="M 2194 1759 
Q 1497 1759 1228 1600 
Q 959 1441 959 1056 
Q 959 750 1161 570 
Q 1363 391 1709 391 
Q 2188 391 2477 730 
Q 2766 1069 2766 1631 
L 2766 1759 
L 2194 1759 
z
M 3341 1997 
L 3341 0 
L 2766 0 
L 2766 531 
Q 2569 213 2275 61 
Q 1981 -91 1556 -91 
Q 1019 -91 701 211 
Q 384 513 384 1019 
Q 384 1609 779 1909 
Q 1175 2209 1959 2209 
L 2766 2209 
L 2766 2266 
Q 2766 2663 2505 2880 
Q 2244 3097 1772 3097 
Q 1472 3097 1187 3025 
Q 903 2953 641 2809 
L 641 3341 
Q 956 3463 1253 3523 
Q 1550 3584 1831 3584 
Q 2591 3584 2966 3190 
Q 3341 2797 3341 1997 
z
" transform="scale(0.015625)"/>
       <path id="DejaVuSans-76" d="M 191 3500 
L 800 3500 
L 1894 563 
L 2988 3500 
L 3597 3500 
L 2284 0 
L 1503 0 
L 191 3500 
z
" transform="scale(0.015625)"/>
       <path id="DejaVuSans-65" d="M 3597 1894 
L 3597 1613 
L 953 1613 
Q 991 1019 1311 708 
Q 1631 397 2203 397 
Q 2534 397 2845 478 
Q 3156 559 3463 722 
L 3463 178 
Q 3153 47 2828 -22 
Q 2503 -91 2169 -91 
Q 1331 -91 842 396 
Q 353 884 353 1716 
Q 353 2575 817 3079 
Q 1281 3584 2069 3584 
Q 2775 3584 3186 3129 
Q 3597 2675 3597 1894 
z
M 3022 2063 
Q 3016 2534 2758 2815 
Q 2500 3097 2075 3097 
Q 1594 3097 1305 2825 
Q 1016 2553 972 2059 
L 3022 2063 
z
" transform="scale(0.015625)"/>
       <path id="DejaVuSans-6c" d="M 603 4863 
L 1178 4863 
L 1178 0 
L 603 0 
L 603 4863 
z
" transform="scale(0.015625)"/>
       <path id="DejaVuSans-6e" d="M 3513 2113 
L 3513 0 
L 2938 0 
L 2938 2094 
Q 2938 2591 2744 2837 
Q 2550 3084 2163 3084 
Q 1697 3084 1428 2787 
Q 1159 2491 1159 1978 
L 1159 0 
L 581 0 
L 581 3500 
L 1159 3500 
L 1159 2956 
Q 1366 3272 1645 3428 
Q 1925 3584 2291 3584 
Q 2894 3584 3203 3211 
Q 3513 2838 3513 2113 
z
" transform="scale(0.015625)"/>
       <path id="DejaVuSans-67" d="M 2906 1791 
Q 2906 2416 2648 2759 
Q 2391 3103 1925 3103 
Q 1463 3103 1205 2759 
Q 947 2416 947 1791 
Q 947 1169 1205 825 
Q 1463 481 1925 481 
Q 2391 481 2648 825 
Q 2906 1169 2906 1791 
z
M 3481 434 
Q 3481 -459 3084 -895 
Q 2688 -1331 1869 -1331 
Q 1566 -1331 1297 -1286 
Q 1028 -1241 775 -1147 
L 775 -588 
Q 1028 -725 1275 -790 
Q 1522 -856 1778 -856 
Q 2344 -856 2625 -561 
Q 2906 -266 2906 331 
L 2906 616 
Q 2728 306 2450 153 
Q 2172 0 1784 0 
Q 1141 0 747 490 
Q 353 981 353 1791 
Q 353 2603 747 3093 
Q 1141 3584 1784 3584 
Q 2172 3584 2450 3431 
Q 2728 3278 2906 2969 
L 2906 3500 
L 3481 3500 
L 3481 434 
z
" transform="scale(0.015625)"/>
       <path id="DejaVuSans-74" d="M 1172 4494 
L 1172 3500 
L 2356 3500 
L 2356 3053 
L 1172 3053 
L 1172 1153 
Q 1172 725 1289 603 
Q 1406 481 1766 481 
L 2356 481 
L 2356 0 
L 1766 0 
Q 1100 0 847 248 
Q 594 497 594 1153 
L 594 3053 
L 172 3053 
L 172 3500 
L 594 3500 
L 594 4494 
L 1172 4494 
z
" transform="scale(0.015625)"/>
       <path id="DejaVuSans-68" d="M 3513 2113 
L 3513 0 
L 2938 0 
L 2938 2094 
Q 2938 2591 2744 2837 
Q 2550 3084 2163 3084 
Q 1697 3084 1428 2787 
Q 1159 2491 1159 1978 
L 1159 0 
L 581 0 
L 581 4863 
L 1159 4863 
L 1159 2956 
Q 1366 3272 1645 3428 
Q 1925 3584 2291 3584 
Q 2894 3584 3203 3211 
Q 3513 2838 3513 2113 
z
" transform="scale(0.015625)"/>
       <path id="DejaVuSans-20" transform="scale(0.015625)"/>
       <path id="DejaVuSans-28" d="M 1984 4856 
Q 1566 4138 1362 3434 
Q 1159 2731 1159 2009 
Q 1159 1288 1364 580 
Q 1569 -128 1984 -844 
L 1484 -844 
Q 1016 -109 783 600 
Q 550 1309 550 2009 
Q 550 2706 781 3412 
Q 1013 4119 1484 4856 
L 1984 4856 
z
" transform="scale(0.015625)"/>
       <path id="DejaVuSans-6d" d="M 3328 2828 
Q 3544 3216 3844 3400 
Q 4144 3584 4550 3584 
Q 5097 3584 5394 3201 
Q 5691 2819 5691 2113 
L 5691 0 
L 5113 0 
L 5113 2094 
Q 5113 2597 4934 2840 
Q 4756 3084 4391 3084 
Q 3944 3084 3684 2787 
Q 3425 2491 3425 1978 
L 3425 0 
L 2847 0 
L 2847 2094 
Q 2847 2600 2669 2842 
Q 2491 3084 2119 3084 
Q 1678 3084 1418 2786 
Q 1159 2488 1159 1978 
L 1159 0 
L 581 0 
L 581 3500 
L 1159 3500 
L 1159 2956 
Q 1356 3278 1631 3431 
Q 1906 3584 2284 3584 
Q 2666 3584 2933 3390 
Q 3200 3197 3328 2828 
z
" transform="scale(0.015625)"/>
       <path id="DejaVuSans-29" d="M 513 4856 
L 1013 4856 
Q 1481 4119 1714 3412 
Q 1947 2706 1947 2009 
Q 1947 1309 1714 600 
Q 1481 -109 1013 -844 
L 513 -844 
Q 928 -128 1133 580 
Q 1338 1288 1338 2009 
Q 1338 2731 1133 3434 
Q 928 4138 513 4856 
z
" transform="scale(0.015625)"/>
      </defs>
      <use xlink:href="#DejaVuSans-77"/>
      <use xlink:href="#DejaVuSans-61" transform="translate(81.787109 0)"/>
      <use xlink:href="#DejaVuSans-76" transform="translate(143.066406 0)"/>
      <use xlink:href="#DejaVuSans-65" transform="translate(202.246094 0)"/>
      <use xlink:href="#DejaVuSans-6c" transform="translate(263.769531 0)"/>
      <use xlink:href="#DejaVuSans-65" transform="translate(291.552734 0)"/>
      <use xlink:href="#DejaVuSans-6e" transform="translate(353.076172 0)"/>
      <use xlink:href="#DejaVuSans-67" transform="translate(416.455078 0)"/>
      <use xlink:href="#DejaVuSans-74" transform="translate(479.931641 0)"/>
      <use xlink:href="#DejaVuSans-68" transform="translate(519.140625 0)"/>
      <use xlink:href="#DejaVuSans-20" transform="translate(582.519531 0)"/>
      <use xlink:href="#DejaVuSans-28" transform="translate(614.306641 0)"/>
      <use xlink:href="#DejaVuSans-6e" transform="translate(653.320312 0)"/>
      <use xlink:href="#DejaVuSans-6d" transform="translate(716.699219 0)"/>
      <use xlink:href="#DejaVuSans-29" transform="translate(814.111328 0)"/>
     </g>
    </g>
   </g>
   <g id="matplotlib.axis_2">
    <g id="ytick_1">
     <g id="line2d_8">
      <defs>
       <path id="m014a22535e" d="M 0 0 
L -3.5 0 
" style="stroke: #000000; stroke-width: 0.8"/>
      </defs>
      <g>
       <use xlink:href="#m014a22535e" x="47.72" y="332.44" style="stroke: #000000; stroke-width: 0.8"/>
      </g>
     </g>
     <g id="text_9">
      <!-- 0.0 -->
      <g transform="translate(24.816875 336.239219) scale(0.1 -0.1)">
       <defs>
        <path id="DejaVuSans-2e" d="M 684 794 
L 1344 794 
L 1344 0 
L 684 0 
L 684 794 
z
" transform="scale(0.015625)"/>
       </defs>
       <use xlink:href="#DejaVuSans-30"/>
       <use xlink:href="#DejaVuSans-2e" transform="translate(63.623047 0)"/>
       <use xlink:href="#DejaVuSans-30" transform="translate(95.410156 0)"/>
      </g>
     </g>
    </g>
    <g id="ytick_2">
     <g id="line2d_9">
      <g>
       <use xlink:href="#m014a22535e" x="47.72" y="284.124938" style="stroke: #000000; stroke-width: 0.8"/>
      </g>
     </g>
     <g id="text_10">
      <!-- 0.2 -->
      <g transform="translate(24.816875 287.924157) scale(0.1 -0.1)">
       <use xlink:href="#DejaVuSans-30"/>
       <use xlink:href="#DejaVuSans-2e" transform="translate(63.623047 0)"/>
       <use xlink:href="#DejaVuSans-32" transform="translate(95.410156 0)"/>
      </g>
     </g>
    </g>
    <g id="ytick_3">
     <g id="line2d_10">
      <g>
       <use xlink:href="#m014a22535e" x="47.72" y="235.809877" style="stroke: #000000; stroke-width: 0.8"/>
      </g>
     </g>
     <g id="text_11">
      <!-- 0.4 -->
      <g transform="translate(24.816875 239.609095) scale(0.1 -0.1)">
       <defs>
        <path id="DejaVuSans-34" d="M 2419 4116 
L 825 1625 
L 2419 1625 
L 2419 4116 
z
M 2253 4666 
L 3047 4666 
L 3047 1625 
L 3713 1625 
L 3713 1100 
L 3047 1100 
L 3047 0 
L 2419 0 
L 2419 1100 
L 313 1100 
L 313 1709 
L 2253 4666 
z
" transform="scale(0.015625)"/>
       </defs>
       <use xlink:href="#DejaVuSans-30"/>
       <use xlink:href="#DejaVuSans-2e" transform="translate(63.623047 0)"/>
       <use xlink:href="#DejaVuSans-34" transform="translate(95.410156 0)"/>
      </g>
     </g>
    </g>
    <g id="ytick_4">
     <g id="line2d_11">
      <g>
       <use xlink:href="#m014a22535e" x="47.72" y="187.494815" style="stroke: #000000; stroke-width: 0.8"/>
      </g>
     </g>
     <g id="text_12">
      <!-- 0.6 -->
      <g transform="translate(24.816875 191.294034) scale(0.1 -0.1)">
       <defs>
        <path id="DejaVuSans-36" d="M 2113 2584 
Q 1688 2584 1439 2293 
Q 1191 2003 1191 1497 
Q 1191 994 1439 701 
Q 1688 409 2113 409 
Q 2538 409 2786 701 
Q 3034 994 3034 1497 
Q 3034 2003 2786 2293 
Q 2538 2584 2113 2584 
z
M 3366 4563 
L 3366 3988 
Q 3128 4100 2886 4159 
Q 2644 4219 2406 4219 
Q 1781 4219 1451 3797 
Q 1122 3375 1075 2522 
Q 1259 2794 1537 2939 
Q 1816 3084 2150 3084 
Q 2853 3084 3261 2657 
Q 3669 2231 3669 1497 
Q 3669 778 3244 343 
Q 2819 -91 2113 -91 
Q 1303 -91 875 529 
Q 447 1150 447 2328 
Q 447 3434 972 4092 
Q 1497 4750 2381 4750 
Q 2619 4750 2861 4703 
Q 3103 4656 3366 4563 
z
" transform="scale(0.015625)"/>
       </defs>
       <use xlink:href="#DejaVuSans-30"/>
       <use xlink:href="#DejaVuSans-2e" transform="translate(63.623047 0)"/>
       <use xlink:href="#DejaVuSans-36" transform="translate(95.410156 0)"/>
      </g>
     </g>
    </g>
    <g id="ytick_5">
     <g id="line2d_12">
      <g>
       <use xlink:href="#m014a22535e" x="47.72" y="139.179753" style="stroke: #000000; stroke-width: 0.8"/>
      </g>
     </g>
     <g id="text_13">
      <!-- 0.8 -->
      <g transform="translate(24.816875 142.978972) scale(0.1 -0.1)">
       <defs>
        <path id="DejaVuSans-38" d="M 2034 2216 
Q 1584 2216 1326 1975 
Q 1069 1734 1069 1313 
Q 1069 891 1326 650 
Q 1584 409 2034 409 
Q 2484 409 2743 651 
Q 3003 894 3003 1313 
Q 3003 1734 2745 1975 
Q 2488 2216 2034 2216 
z
M 1403 2484 
Q 997 2584 770 2862 
Q 544 3141 544 3541 
Q 544 4100 942 4425 
Q 1341 4750 2034 4750 
Q 2731 4750 3128 4425 
Q 3525 4100 3525 3541 
Q 3525 3141 3298 2862 
Q 3072 2584 2669 2484 
Q 3125 2378 3379 2068 
Q 3634 1759 3634 1313 
Q 3634 634 3220 271 
Q 2806 -91 2034 -91 
Q 1263 -91 848 271 
Q 434 634 434 1313 
Q 434 1759 690 2068 
Q 947 2378 1403 2484 
z
M 1172 3481 
Q 1172 3119 1398 2916 
Q 1625 2713 2034 2713 
Q 2441 2713 2670 2916 
Q 2900 3119 2900 3481 
Q 2900 3844 2670 4047 
Q 2441 4250 2034 4250 
Q 1625 4250 1398 4047 
Q 1172 3844 1172 3481 
z
" transform="scale(0.015625)"/>
       </defs>
       <use xlink:href="#DejaVuSans-30"/>
       <use xlink:href="#DejaVuSans-2e" transform="translate(63.623047 0)"/>
       <use xlink:href="#DejaVuSans-38" transform="translate(95.410156 0)"/>
      </g>
     </g>
    </g>
    <g id="ytick_6">
     <g id="line2d_13">
      <g>
       <use xlink:href="#m014a22535e" x="47.72" y="90.864692" style="stroke: #000000; stroke-width: 0.8"/>
      </g>
     </g>
     <g id="text_14">
      <!-- 1.0 -->
      <g transform="translate(24.816875 94.66391) scale(0.1 -0.1)">
       <use xlink:href="#DejaVuSans-31"/>
       <use xlink:href="#DejaVuSans-2e" transform="translate(63.623047 0)"/>
       <use xlink:href="#DejaVuSans-30" transform="translate(95.410156 0)"/>
      </g>
     </g>
    </g>
    <g id="ytick_7">
     <g id="line2d_14">
      <g>
       <use xlink:href="#m014a22535e" x="47.72" y="42.54963" style="stroke: #000000; stroke-width: 0.8"/>
      </g>
     </g>
     <g id="text_15">
      <!-- 1.2 -->
      <g transform="translate(24.816875 46.348849) scale(0.1 -0.1)">
       <use xlink:href="#DejaVuSans-31"/>
       <use xlink:href="#DejaVuSans-2e" transform="translate(63.623047 0)"/>
       <use xlink:href="#DejaVuSans-32" transform="translate(95.410156 0)"/>
      </g>
     </g>
    </g>
    <g id="text_16">
     <!-- spectral energy density (J / m^4 / nm) -->
     <g transform="translate(18.737188 275.638906) rotate(-90) scale(0.1 -0.1)">
      <defs>
       <path id="DejaVuSans-73" d="M 2834 3397 
L 2834 2853 
Q 2591 2978 2328 3040 
Q 2066 3103 1784 3103 
Q 1356 3103 1142 2972 
Q 928 2841 928 2578 
Q 928 2378 1081 2264 
Q 1234 2150 1697 2047 
L 1894 2003 
Q 2506 1872 2764 1633 
Q 3022 1394 3022 966 
Q 3022 478 2636 193 
Q 2250 -91 1575 -91 
Q 1294 -91 989 -36 
Q 684 19 347 128 
L 347 722 
Q 666 556 975 473 
Q 1284 391 1588 391 
Q 1994 391 2212 530 
Q 2431 669 2431 922 
Q 2431 1156 2273 1281 
Q 2116 1406 1581 1522 
L 1381 1569 
Q 847 1681 609 1914 
Q 372 2147 372 2553 
Q 372 3047 722 3315 
Q 1072 3584 1716 3584 
Q 2034 3584 2315 3537 
Q 2597 3491 2834 3397 
z
" transform="scale(0.015625)"/>
       <path id="DejaVuSans-70" d="M 1159 525 
L 1159 -1331 
L 581 -1331 
L 581 3500 
L 1159 3500 
L 1159 2969 
Q 1341 3281 1617 3432 
Q 1894 3584 2278 3584 
Q 2916 3584 3314 3078 
Q 3713 2572 3713 1747 
Q 3713 922 3314 415 
Q 2916 -91 2278 -91 
Q 1894 -91 1617 61 
Q 1341 213 1159 525 
z
M 3116 1747 
Q 3116 2381 2855 2742 
Q 2594 3103 2138 3103 
Q 1681 3103 1420 2742 
Q 1159 2381 1159 1747 
Q 1159 1113 1420 752 
Q 1681 391 2138 391 
Q 2594 391 2855 752 
Q 3116 1113 3116 1747 
z
" transform="scale(0.015625)"/>
       <path id="DejaVuSans-63" d="M 3122 3366 
L 3122 2828 
Q 2878 2963 2633 3030 
Q 2388 3097 2138 3097 
Q 1578 3097 1268 2742 
Q 959 2388 959 1747 
Q 959 1106 1268 751 
Q 1578 397 2138 397 
Q 2388 397 2633 464 
Q 2878 531 3122 666 
L 3122 134 
Q 2881 22 2623 -34 
Q 2366 -91 2075 -91 
Q 1284 -91 818 406 
Q 353 903 353 1747 
Q 353 2603 823 3093 
Q 1294 3584 2113 3584 
Q 2378 3584 2631 3529 
Q 2884 3475 3122 3366 
z
" transform="scale(0.015625)"/>
       <path id="DejaVuSans-72" d="M 2631 2963 
Q 2534 3019 2420 3045 
Q 2306 3072 2169 3072 
Q 1681 3072 1420 2755 
Q 1159 2438 1159 1844 
L 1159 0 
L 581 0 
L 581 3500 
L 1159 3500 
L 1159 2956 
Q 1341 3275 1631 3429 
Q 1922 3584 2338 3584 
Q 2397 3584 2469 3576 
Q 2541 3569 2628 3553 
L 2631 2963 
z
" transform="scale(0.015625)"/>
       <path id="DejaVuSans-79" d="M 2059 -325 
Q 1816 -950 1584 -1140 
Q 1353 -1331 966 -1331 
L 506 -1331 
L 506 -850 
L 844 -850 
Q 1081 -850 1212 -737 
Q 1344 -625 1503 -206 
L 1606 56 
L 191 3500 
L 800 3500 
L 1894 763 
L 2988 3500 
L 3597 3500 
L 2059 -325 
z
" transform="scale(0.015625)"/>
       <path id="DejaVuSans-64" d="M 2906 2969 
L 2906 4863 
L 3481 4863 
L 3481 0 
L 2906 0 
L 2906 525 
Q 2725 213 2448 61 
Q 2172 -91 1784 -91 
Q 1150 -91 751 415 
Q 353 922 353 1747 
Q 353 2572 751 3078 
Q 1150 3584 1784 3584 
Q 2172 3584 2448 3432 
Q 2725 3281 2906 2969 
z
M 947 1747 
Q 947 1113 1208 752 
Q 1469 391 1925 391 
Q 2381 391 2643 752 
Q 2906 1113 2906 1747 
Q 2906 2381 2643 2742 
Q 2381 3103 1925 3103 
Q 1469 3103 1208 2742 
Q 947 2381 947 1747 
z
" transform="scale(0.015625)"/>
       <path id="DejaVuSans-69" d="M 603 3500 
L 1178 3500 
L 1178 0 
L 603 0 
L 603 3500 
z
M 603 4863 
L 1178 4863 
L 1178 4134 
L 603 4134 
L 603 4863 
z
" transform="scale(0.015625)"/>
       <path id="DejaVuSans-4a" d="M 628 4666 
L 1259 4666 
L 1259 325 
Q 1259 -519 939 -900 
Q 619 -1281 -91 -1281 
L -331 -1281 
L -331 -750 
L -134 -750 
Q 284 -750 456 -515 
Q 628 -281 628 325 
L 628 4666 
z
" transform="scale(0.015625)"/>
       <path id="DejaVuSans-2f" d="M 1625 4666 
L 2156 4666 
L 531 -594 
L 0 -594 
L 1625 4666 
z
" transform="scale(0.015625)"/>
       <path id="DejaVuSans-5e" d="M 2988 4666 
L 4684 2925 
L 4056 2925 
L 2681 4159 
L 1306 2925 
L 678 2925 
L 2375 4666 
L 2988 4666 
z
" transform="scale(0.015625)"/>
      </defs>
      <use xlink:href="#DejaVuSans-73"/>
      <use xlink:href="#DejaVuSans-70" transform="translate(52.099609 0)"/>
      <use xlink:href="#DejaVuSans-65" transform="translate(115.576172 0)"/>
      <use xlink:href="#DejaVuSans-63" transform="translate(177.099609 0)"/>
      <use xlink:href="#DejaVuSans-74" transform="translate(232.080078 0)"/>
      <use xlink:href="#DejaVuSans-72" transform="translate(271.289062 0)"/>
      <use xlink:href="#DejaVuSans-61" transform="translate(312.402344 0)"/>
      <use xlink:href="#DejaVuSans-6c" transform="translate(373.681641 0)"/>
      <use xlink:href="#DejaVuSans-20" transform="translate(401.464844 0)"/>
      <use xlink:href="#DejaVuSans-65" transform="translate(433.251953 0)"/>
      <use xlink:href="#DejaVuSans-6e" transform="translate(494.775391 0)"/>
      <use xlink:href="#DejaVuSans-65" transform="translate(558.154297 0)"/>
      <use xlink:href="#DejaVuSans-72" transform="translate(619.677734 0)"/>
      <use xlink:href="#DejaVuSans-67" transform="translate(659.041016 0)"/>
      <use xlink:href="#DejaVuSans-79" transform="translate(722.517578 0)"/>
      <use xlink:href="#DejaVuSans-20" transform="translate(781.697266 0)"/>
      <use xlink:href="#DejaVuSans-64" transform="translate(813.484375 0)"/>
      <use xlink:href="#DejaVuSans-65" transform="translate(876.960938 0)"/>
      <use xlink:href="#DejaVuSans-6e" transform="translate(938.484375 0)"/>
      <use xlink:href="#DejaVuSans-73" transform="translate(1001.863281 0)"/>
      <use xlink:href="#DejaVuSans-69" transform="translate(1053.962891 0)"/>
      <use xlink:href="#DejaVuSans-74" transform="translate(1081.746094 0)"/>
      <use xlink:href="#DejaVuSans-79" transform="translate(1120.955078 0)"/>
      <use xlink:href="#DejaVuSans-20" transform="translate(1180.134766 0)"/>
      <use xlink:href="#DejaVuSans-28" transform="translate(1211.921875 0)"/>
      <use xlink:href="#DejaVuSans-4a" transform="translate(1250.935547 0)"/>
      <use xlink:href="#DejaVuSans-20" transform="translate(1280.427734 0)"/>
      <use xlink:href="#DejaVuSans-2f" transform="translate(1312.214844 0)"/>
      <use xlink:href="#DejaVuSans-20" transform="translate(1345.90625 0)"/>
      <use xlink:href="#DejaVuSans-6d" transform="translate(1377.693359 0)"/>
      <use xlink:href="#DejaVuSans-5e" transform="translate(1475.105469 0)"/>
      <use xlink:href="#DejaVuSans-34" transform="translate(1558.894531 0)"/>
      <use xlink:href="#DejaVuSans-20" transform="translate(1622.517578 0)"/>
      <use xlink:href="#DejaVuSans-2f" transform="translate(1654.304688 0)"/>
      <use xlink:href="#DejaVuSans-20" transform="translate(1687.996094 0)"/>
      <use xlink:href="#DejaVuSans-6e" transform="translate(1719.783203 0)"/>
      <use xlink:href="#DejaVuSans-6d" transform="translate(1783.162109 0)"/>
      <use xlink:href="#DejaVuSans-29" transform="translate(1880.574219 0)"/>
     </g>
    </g>
    <g id="text_17">
     <!-- 1e15 -->
     <g transform="translate(47.72 23.88) scale(0.1 -0.1)">
      <use xlink:href="#DejaVuSans-31"/>
      <use xlink:href="#DejaVuSans-65" transform="translate(63.623047 0)"/>
      <use xlink:href="#DejaVuSans-31" transform="translate(125.146484 0)"/>
      <use xlink:href="#DejaVuSans-35" transform="translate(188.769531 0)"/>
     </g>
    </g>
   </g>
   <g id="line2d_15">
    <path d="M 72.878182 332.44 
L 85.963708 332.334274 
L 87.976866 332.077995 
L 89.486734 331.657253 
L 90.744958 331.066842 
L 91.877359 330.280876 
L 92.883938 329.328883 
L 93.890517 328.093563 
L 94.897096 326.533345 
L 96.029497 324.34218 
L 97.161898 321.644139 
L 98.420122 318.006619 
L 99.678345 313.662423 
L 101.062392 308.048782 
L 102.57226 300.933888 
L 104.207951 292.107676 
L 106.095286 280.603009 
L 108.234266 266.106415 
L 110.876536 246.589409 
L 115.154496 213.051085 
L 120.061569 175.049635 
L 122.955483 154.296688 
L 125.47193 137.77061 
L 127.736733 124.304671 
L 129.875713 112.907412 
L 131.888871 103.393077 
L 133.776206 95.549872 
L 135.537719 89.160608 
L 137.17341 84.015714 
L 138.809101 79.607243 
L 140.318969 76.168319 
L 141.703015 73.526576 
L 143.087061 71.352551 
L 144.345285 69.764207 
L 145.603509 68.52841 
L 146.73591 67.703734 
L 147.868311 67.138636 
L 149.000712 66.820719 
L 150.133114 66.737636 
L 151.265515 66.87715 
L 152.397916 67.227195 
L 153.65614 67.848643 
L 155.040186 68.796587 
L 156.550054 70.123175 
L 158.185745 71.875769 
L 159.947258 74.095241 
L 161.960416 77.007301 
L 164.225219 80.700742 
L 166.741666 85.243768 
L 169.63558 90.934496 
L 173.158606 98.379131 
L 177.562389 108.233029 
L 184.608442 124.629075 
L 195.17752 149.156983 
L 201.091171 162.298246 
L 206.375711 173.507875 
L 211.282783 183.405393 
L 216.064033 192.547871 
L 220.71946 200.964719 
L 225.249065 208.695874 
L 229.778671 215.983106 
L 234.182453 222.654404 
L 238.586236 228.932846 
L 242.990019 234.835087 
L 247.519624 240.532271 
L 252.049229 245.87037 
L 256.578834 250.869593 
L 261.234262 255.675587 
L 265.889689 260.165922 
L 270.670939 264.470499 
L 275.578011 268.58673 
L 280.610906 272.513613 
L 285.769623 276.251573 
L 291.054162 279.802296 
L 296.464524 283.168575 
L 302.000708 286.354149 
L 307.788537 289.427739 
L 313.82801 292.379247 
L 320.119128 295.200941 
L 326.661891 297.887309 
L 333.456299 300.434884 
L 340.628174 302.883009 
L 348.177516 305.220246 
L 356.104325 307.438175 
L 364.534423 309.561205 
L 373.467811 311.576776 
L 382.904488 313.476015 
L 392.970278 315.274557 
L 403.791001 316.980978 
L 415.492481 318.598458 
L 428.20054 320.126316 
L 442.041 321.561435 
L 457.139684 322.89955 
L 473.748236 324.145024 
L 492.244123 325.304501 
L 512.878991 326.371029 
L 536.281951 327.352346 
L 562.956292 328.242605 
L 576.041818 328.608501 
L 576.041818 328.608501 
" clip-path="url(#p65d6ca0c13)" style="fill: none; stroke: #1f77b4; stroke-width: 1.7; stroke-linecap: square"/>
   </g>
   <g id="line2d_16">
    <path d="M 72.878182 332.44 
L 85.963708 332.334274 
L 87.976866 332.077995 
L 89.486734 331.657253 
L 90.744958 331.066843 
L 91.877359 330.280877 
L 92.883938 329.328884 
L 93.890517 328.093565 
L 94.897096 326.53335 
L 96.029497 324.342192 
L 97.161898 321.644165 
L 98.420122 318.006674 
L 99.678345 313.662534 
L 101.062392 308.04901 
L 102.57226 300.934354 
L 104.207951 292.108616 
L 106.095286 280.604966 
L 108.234266 266.110528 
L 110.876536 246.598638 
L 115.280319 212.083156 
L 120.061569 175.12596 
L 122.955483 154.422614 
L 125.47193 137.956118 
L 127.736733 124.558972 
L 129.875713 113.241293 
L 131.888871 103.815756 
L 133.776206 96.068617 
L 135.537719 89.780511 
L 137.17341 84.739602 
L 138.683279 80.74926 
L 140.193147 77.373578 
L 141.577193 74.798686 
L 142.961239 72.699959 
L 144.219463 71.187296 
L 145.477686 70.033919 
L 146.610088 69.289032 
L 147.742489 68.808874 
L 148.87489 68.580868 
L 150.007291 68.592467 
L 151.139693 68.831218 
L 152.272094 69.284825 
L 153.530318 70.026121 
L 154.914364 71.11131 
L 156.424232 72.593545 
L 158.059923 74.521023 
L 159.947258 77.12011 
L 161.960416 80.28538 
L 164.225219 84.26681 
L 166.867488 89.385605 
L 169.887225 95.738983 
L 173.536074 103.953429 
L 178.317323 115.298955 
L 188.76058 140.857219 
L 195.932454 158.039761 
L 201.468639 170.739384 
L 206.501533 181.739968 
L 211.282783 191.658567 
L 215.812388 200.55466 
L 220.216171 208.730019 
L 224.619954 216.441003 
L 228.897914 223.495518 
L 233.175874 230.132729 
L 237.453835 236.367945 
L 241.731795 242.218394 
L 246.009756 247.702473 
L 250.413538 252.985188 
L 254.817321 257.92067 
L 259.221104 262.529602 
L 263.750709 266.950812 
L 268.406137 271.179432 
L 273.061564 275.110188 
L 277.842814 278.859128 
L 282.749886 282.425446 
L 287.782781 285.809728 
L 292.941498 289.013803 
L 298.351859 292.109677 
L 303.888043 295.020943 
L 309.675872 297.811431 
L 315.715346 300.472546 
L 322.006464 302.998114 
L 328.549227 305.38421 
L 335.469457 307.66844 
L 342.767154 309.838979 
L 350.442318 311.887294 
L 358.620772 313.836202 
L 367.302515 315.673366 
L 376.61337 317.4125 
L 386.553337 319.040649 
L 397.248238 320.566266 
L 408.949718 322.007109 
L 421.657777 323.34455 
L 435.624059 324.587592 
L 451.10021 325.737695 
L 468.337874 326.791845 
L 487.840341 327.756409 
L 509.985077 328.624372 
L 535.652839 329.402416 
L 565.850207 330.088942 
L 576.041818 330.27773 
L 576.041818 330.27773 
" clip-path="url(#p65d6ca0c13)" style="fill: none; stroke-dasharray: 4.44,1.92; stroke-dashoffset: 0; stroke: #9467bd; stroke-width: 1.2"/>
   </g>
   <g id="line2d_17">
    <path d="M 251.551055 -1 
L 254.439854 18.811846 
L 257.459591 37.973822 
L 260.479328 55.694455 
L 263.499064 72.101909 
L 266.518801 87.311246 
L 269.538538 101.425939 
L 272.684097 115.065105 
L 275.829656 127.712387 
L 278.975215 139.453099 
L 282.120774 150.364116 
L 285.392156 160.905934 
L 288.663537 170.69574 
L 291.934919 179.796999 
L 295.332123 188.580898 
L 298.729326 196.741949 
L 302.12653 204.332405 
L 305.649556 211.65174 
L 309.172583 218.45573 
L 312.695609 224.787311 
L 316.344457 230.888376 
L 319.993306 236.563289 
L 323.767977 242.022904 
L 327.542648 247.099376 
L 331.443141 251.97632 
L 335.469457 256.650666 
L 339.495773 260.990457 
L 343.647911 265.14542 
L 347.925871 269.115213 
L 352.329654 272.900715 
L 356.859259 276.503876 
L 361.514686 279.927578 
L 366.421759 283.257529 
L 371.454653 286.403186 
L 376.739193 289.44016 
L 382.149554 292.294422 
L 387.811561 295.032375 
L 393.725212 297.647374 
L 400.01633 300.183315 
L 406.559093 302.580353 
L 413.479323 304.878329 
L 420.77702 307.067201 
L 428.578007 309.172083 
L 436.882283 311.178436 
L 445.689848 313.075687 
L 455.126526 314.879495 
L 465.318137 316.597949 
L 476.264683 318.215999 
L 488.217808 319.753871 
L 501.177511 321.193667 
L 515.395438 322.54605 
L 531.123234 323.81365 
L 548.48672 324.986182 
L 567.989187 326.075375 
L 576.041818 326.466663 
L 576.041818 326.466663 
" clip-path="url(#p65d6ca0c13)" style="fill: none; stroke-dasharray: 1.3,2.145; stroke-dashoffset: 0; stroke: #d62728; stroke-width: 1.3"/>
   </g>
   <g id="line2d_18">
    <path d="M 149.979821 332.44 
L 149.979821 26.88 
" clip-path="url(#p65d6ca0c13)" style="fill: none; stroke: #808080; stroke-width: 0.8; stroke-linecap: square"/>
   </g>
   <g id="patch_3">
    <path d="M 47.72 332.44 
L 47.72 26.88 
" style="fill: none; stroke: #000000; stroke-width: 0.8; stroke-linejoin: miter; stroke-linecap: square"/>
   </g>
   <g id="patch_4">
    <path d="M 601.2 332.44 
L 601.2 26.88 
" style="fill: none; stroke: #000000; stroke-width: 0.8; stroke-linejoin: miter; stroke-linecap: square"/>
   </g>
   <g id="patch_5">
    <path d="M 47.72 332.44 
L 601.2 332.44 
" style="fill: none; stroke: #000000; stroke-width: 0.8; stroke-linejoin: miter; stroke-linecap: square"/>
   </g>
   <g id="patch_6">
    <path d="M 47.72 26.88 
L 601.2 26.88 
" style="fill: none; stroke: #000000; stroke-width: 0.8; stroke-linejoin: miter; stroke-linecap: square"/>
   </g>
   <g id="text_18">
    <!-- lambda_max = 502 nm -->
    <g style="fill: #808080" transform="translate(151.344332 199.587826) scale(0.08 -0.08)">
     <defs>
      <path id="DejaVuSans-62" d="M 3116 1747 
Q 3116 2381 2855 2742 
Q 2594 3103 2138 3103 
Q 1681 3103 1420 2742 
Q 1159 2381 1159 1747 
Q 1159 1113 1420 752 
Q 1681 391 2138 391 
Q 2594 391 2855 752 
Q 3116 1113 3116 1747 
z
M 1159 2969 
Q 1341 3281 1617 3432 
Q 1894 3584 2278 3584 
Q 2916 3584 3314 3078 
Q 3713 2572 3713 1747 
Q 3713 922 3314 415 
Q 2916 -91 2278 -91 
Q 1894 -91 1617 61 
Q 1341 213 1159 525 
L 1159 0 
L 581 0 
L 581 4863 
L 1159 4863 
L 1159 2969 
z
" transform="scale(0.015625)"/>
      <path id="DejaVuSans-5f" d="M 3263 -1063 
L 3263 -1509 
L -63 -1509 
L -63 -1063 
L 3263 -1063 
z
" transform="scale(0.015625)"/>
      <path id="DejaVuSans-78" d="M 3513 3500 
L 2247 1797 
L 3578 0 
L 2900 0 
L 1881 1375 
L 863 0 
L 184 0 
L 1544 1831 
L 300 3500 
L 978 3500 
L 1906 2253 
L 2834 3500 
L 3513 3500 
z
" transform="scale(0.015625)"/>
      <path id="DejaVuSans-3d" d="M 678 2906 
L 4684 2906 
L 4684 2381 
L 678 2381 
L 678 2906 
z
M 678 1631 
L 4684 1631 
L 4684 1100 
L 678 1100 
L 678 1631 
z
" transform="scale(0.015625)"/>
     </defs>
     <use xlink:href="#DejaVuSans-6c"/>
     <use xlink:href="#DejaVuSans-61" transform="translate(27.783203 0)"/>
     <use xlink:href="#DejaVuSans-6d" transform="translate(89.0625 0)"/>
     <use xlink:href="#DejaVuSans-62" transform="translate(186.474609 0)"/>
     <use xlink:href="#DejaVuSans-64" transform="translate(249.951172 0)"/>
     <use xlink:href="#DejaVuSans-61" transform="translate(313.427734 0)"/>
     <use xlink:href="#DejaVuSans-5f" transform="translate(374.707031 0)"/>
     <use xlink:href="#DejaVuSans-6d" transform="translate(424.707031 0)"/>
     <use xlink:href="#DejaVuSans-61" transform="translate(522.119141 0)"/>
     <use xlink:href="#DejaVuSans-78" transform="translate(583.398438 0)"/>
     <use xlink:href="#DejaVuSans-20" transform="translate(642.578125 0)"/>
     <use xlink:href="#DejaVuSans-3d" transform="translate(674.365234 0)"/>
     <use xlink:href="#DejaVuSans-20" transform="translate(758.154297 0)"/>
     <use xlink:href="#DejaVuSans-35" transform="translate(789.941406 0)"/>
     <use xlink:href="#DejaVuSans-30" transform="translate(853.564453 0)"/>
     <use xlink:href="#DejaVuSans-32" transform="translate(917.1875 0)"/>
     <use xlink:href="#DejaVuSans-20" transform="translate(980.810547 0)"/>
     <use xlink:href="#DejaVuSans-6e" transform="translate(1012.597656 0)"/>
     <use xlink:href="#DejaVuSans-6d" transform="translate(1075.976562 0)"/>
    </g>
   </g>
   <g id="text_19">
    <!-- Blackbody spectrum at T = 5772 K (Sun effective temperature) -->
    <g transform="translate(133.93 20.88) scale(0.12 -0.12)">
     <defs>
      <path id="DejaVuSans-42" d="M 1259 2228 
L 1259 519 
L 2272 519 
Q 2781 519 3026 730 
Q 3272 941 3272 1375 
Q 3272 1813 3026 2020 
Q 2781 2228 2272 2228 
L 1259 2228 
z
M 1259 4147 
L 1259 2741 
L 2194 2741 
Q 2656 2741 2882 2914 
Q 3109 3088 3109 3444 
Q 3109 3797 2882 3972 
Q 2656 4147 2194 4147 
L 1259 4147 
z
M 628 4666 
L 2241 4666 
Q 2963 4666 3353 4366 
Q 3744 4066 3744 3513 
Q 3744 3084 3544 2831 
Q 3344 2578 2956 2516 
Q 3422 2416 3680 2098 
Q 3938 1781 3938 1306 
Q 3938 681 3513 340 
Q 3088 0 2303 0 
L 628 0 
L 628 4666 
z
" transform="scale(0.015625)"/>
      <path id="DejaVuSans-6b" d="M 581 4863 
L 1159 4863 
L 1159 1991 
L 2875 3500 
L 3609 3500 
L 1753 1863 
L 3688 0 
L 2938 0 
L 1159 1709 
L 1159 0 
L 581 0 
L 581 4863 
z
" transform="scale(0.015625)"/>
      <path id="DejaVuSans-6f" d="M 1959 3097 
Q 1497 3097 1228 2736 
Q 959 2375 959 1747 
Q 959 1119 1226 758 
Q 1494 397 1959 397 
Q 2419 397 2687 759 
Q 2956 1122 2956 1747 
Q 2956 2369 2687 2733 
Q 2419 3097 1959 3097 
z
M 1959 3584 
Q 2709 3584 3137 3096 
Q 3566 2609 3566 1747 
Q 3566 888 3137 398 
Q 2709 -91 1959 -91 
Q 1206 -91 779 398 
Q 353 888 353 1747 
Q 353 2609 779 3096 
Q 1206 3584 1959 3584 
z
" transform="scale(0.015625)"/>
      <path id="DejaVuSans-75" d="M 544 1381 
L 544 3500 
L 1119 3500 
L 1119 1403 
Q 1119 906 1312 657 
Q 1506 409 1894 409 
Q 2359 409 2629 706 
Q 2900 1003 2900 1516 
L 2900 3500 
L 3475 3500 
L 3475 0 
L 2900 0 
L 2900 538 
Q 2691 219 2414 64 
Q 2138 -91 1772 -91 
Q 1169 -91 856 284 
Q 544 659 544 1381 
z
M 1991 3584 
L 1991 3584 
z
" transform="scale(0.015625)"/>
      <path id="DejaVuSans-54" d="M -19 4666 
L 3928 4666 
L 3928 4134 
L 2272 4134 
L 2272 0 
L 1638 0 
L 1638 4134 
L -19 4134 
L -19 4666 
z
" transform="scale(0.015625)"/>
      <path id="DejaVuSans-37" d="M 525 4666 
L 3525 4666 
L 3525 4397 
L 1831 0 
L 1172 0 
L 2766 4134 
L 525 4134 
L 525 4666 
z
" transform="scale(0.015625)"/>
      <path id="DejaVuSans-4b" d="M 628 4666 
L 1259 4666 
L 1259 2694 
L 3353 4666 
L 4166 4666 
L 1850 2491 
L 4331 0 
L 3500 0 
L 1259 2247 
L 1259 0 
L 628 0 
L 628 4666 
z
" transform="scale(0.015625)"/>
      <path id="DejaVuSans-53" d="M 3425 4513 
L 3425 3897 
Q 3066 4069 2747 4153 
Q 2428 4238 2131 4238 
Q 1616 4238 1336 4038 
Q 1056 3838 1056 3469 
Q 1056 3159 1242 3001 
Q 1428 2844 1947 2747 
L 2328 2669 
Q 3034 2534 3370 2195 
Q 3706 1856 3706 1288 
Q 3706 609 3251 259 
Q 2797 -91 1919 -91 
Q 1588 -91 1214 -16 
Q 841 59 441 206 
L 441 856 
Q 825 641 1194 531 
Q 1563 422 1919 422 
Q 2459 422 2753 634 
Q 3047 847 3047 1241 
Q 3047 1584 2836 1778 
Q 2625 1972 2144 2069 
L 1759 2144 
Q 1053 2284 737 2584 
Q 422 2884 422 3419 
Q 422 4038 858 4394 
Q 1294 4750 2059 4750 
Q 2388 4750 2728 4690 
Q 3069 4631 3425 4513 
z
" transform="scale(0.015625)"/>
      <path id="DejaVuSans-66" d="M 2375 4863 
L 2375 4384 
L 1825 4384 
Q 1516 4384 1395 4259 
Q 1275 4134 1275 3809 
L 1275 3500 
L 2222 3500 
L 2222 3053 
L 1275 3053 
L 1275 0 
L 697 0 
L 697 3053 
L 147 3053 
L 147 3500 
L 697 3500 
L 697 3744 
Q 697 4328 969 4595 
Q 1241 4863 1831 4863 
L 2375 4863 
z
" transform="scale(0.015625)"/>
     </defs>
     <use xlink:href="#DejaVuSans-42"/>
     <use xlink:href="#DejaVuSans-6c" transform="translate(68.603516 0)"/>
     <use xlink:href="#DejaVuSans-61" transform="translate(96.386719 0)"/>
     <use xlink:href="#DejaVuSans-63" transform="translate(157.666016 0)"/>
     <use xlink:href="#DejaVuSans-6b" transform="translate(212.646484 0)"/>
     <use xlink:href="#DejaVuSans-62" transform="translate(270.556641 0)"/>
     <use xlink:href="#DejaVuSans-6f" transform="translate(334.033203 0)"/>
     <use xlink:href="#DejaVuSans-64" transform="translate(395.214844 0)"/>
     <use xlink:href="#DejaVuSans-79" transform="translate(458.691406 0)"/>
     <use xlink:href="#DejaVuSans-20" transform="translate(517.871094 0)"/>
     <use xlink:href="#DejaVuSans-73" transform="translate(549.658203 0)"/>
     <use xlink:href="#DejaVuSans-70" transform="translate(601.757812 0)"/>
     <use xlink:href="#DejaVuSans-65" transform="translate(665.234375 0)"/>
     <use xlink:href="#DejaVuSans-63" transform="translate(726.757812 0)"/>
     <use xlink:href="#DejaVuSans-74" transform="translate(781.738281 0)"/>
     <use xlink:href="#DejaVuSans-72" transform="translate(820.947266 0)"/>
     <use xlink:href="#DejaVuSans-75" transform="translate(862.060547 0)"/>
     <use xlink:href="#DejaVuSans-6d" transform="translate(925.439453 0)"/>
     <use xlink:href="#DejaVuSans-20" transform="translate(1022.851562 0)"/>
     <use xlink:href="#DejaVuSans-61" transform="translate(1054.638672 0)"/>
     <use xlink:href="#DejaVuSans-74" transform="translate(1115.917969 0)"/>
     <use xlink:href="#DejaVuSans-20" transform="translate(1155.126953 0)"/>
     <use xlink:href="#DejaVuSans-54" transform="translate(1186.914062 0)"/>
     <use xlink:href="#DejaVuSans-20" transform="translate(1247.998047 0)"/>
     <use xlink:href="#DejaVuSans-3d" transform="translate(1279.785156 0)"/>
     <use xlink:href="#DejaVuSans-20" transform="translate(1363.574219 0)"/>
     <use xlink:href="#DejaVuSans-35" transform="translate(1395.361328 0)"/>
     <use xlink:href="#DejaVuSans-37" transform="translate(1458.984375 0)"/>
     <use xlink:href="#DejaVuSans-37" transform="translate(1522.607422 0)"/>
     <use xlink:href="#DejaVuSans-32" transform="translate(1586.230469 0)"/>
     <use xlink:href="#DejaVuSans-20" transform="translate(1649.853516 0)"/>
     <use xlink:href="#DejaVuSans-4b" transform="translate(1681.640625 0)"/>
     <use xlink:href="#DejaVuSans-20" transform="translate(1747.216797 0)"/>
     <use xlink:href="#DejaVuSans-28" transform="translate(1779.003906 0)"/>
     <use xlink:href="#DejaVuSans-53" transform="translate(1818.017578 0)"/>
     <use xlink:href="#DejaVuSans-75" transform="translate(1881.494141 0)"/>
     <use xlink:href="#DejaVuSans-6e" transform="translate(1944.873047 0)"/>
     <use xlink:href="#DejaVuSans-20" transform="translate(2008.251953 0)"/>
     <use xlink:href="#DejaVuSans-65" transform="translate(2040.039062 0)"/>
     <use xlink:href="#DejaVuSans-66" transform="translate(2101.5625 0)"/>
     <use xlink:href="#DejaVuSans-66" transform="translate(2136.767578 0)"/>
     <use xlink:href="#DejaVuSans-65" transform="translate(2171.972656 0)"/>
     <use xlink:href="#DejaVuSans-63" transform="translate(2233.496094 0)"/>
     <use xlink:href="#DejaVuSans-74" transform="translate(2288.476562 0)"/>
     <use xlink:href="#DejaVuSans-69" transform="translate(2327.685547 0)"/>
     <use xlink:href="#DejaVuSans-76" transform="translate(2355.46875 0)"/>
     <use xlink:href="#DejaVuSans-65" transform="translate(2414.648438 0)"/>
     <use xlink:href="#DejaVuSans-20" transform="translate(2476.171875 0)"/>
     <use xlink:href="#DejaVuSans-74" transform="translate(2507.958984 0)"/>
     <use xlink:href="#DejaVuSans-65" transform="translate(2547.167969 0)"/>
     <use xlink:href="#DejaVuSans-6d" transform="translate(2608.691406 0)"/>
     <use xlink:href="#DejaVuSans-70" transform="translate(2706.103516 0)"/>
     <use xlink:href="#DejaVuSans-65" transform="translate(2769.580078 0)"/>
     <use xlink:href="#DejaVuSans-72" transform="translate(2831.103516 0)"/>
     <use xlink:href="#DejaVuSans-61" transform="translate(2872.216797 0)"/>
     <use xlink:href="#DejaVuSans-74" transform="translate(2933.496094 0)"/>
     <use xlink:href="#DejaVuSans-75" transform="translate(2972.705078 0)"/>
     <use xlink:href="#DejaVuSans-72" transform="translate(3036.083984 0)"/>
     <use xlink:href="#DejaVuSans-65" transform="translate(3074.947266 0)"/>
     <use xlink:href="#DejaVuSans-29" transform="translate(3136.470703 0)"/>
    </g>
   </g>
   <g id="legend_1">
    <g id="patch_7">
     <path d="M 453.7775 68.5075 
L 595.6 68.5075 
Q 597.2 68.5075 597.2 66.9075 
L 597.2 32.48 
Q 597.2 30.88 595.6 30.88 
L 453.7775 30.88 
Q 452.1775 30.88 452.1775 32.48 
L 452.1775 66.9075 
Q 452.1775 68.5075 453.7775 68.5075 
z
" style="fill: #ffffff; opacity: 0.8; stroke: #cccccc; stroke-linejoin: miter"/>
    </g>
    <g id="line2d_19">
     <path d="M 455.3775 37.35875 
L 463.3775 37.35875 
L 471.3775 37.35875 
" style="fill: none; stroke: #1f77b4; stroke-width: 1.7; stroke-linecap: square"/>
    </g>
    <g id="text_20">
     <!-- Planck (1901) -->
     <g transform="translate(477.7775 40.15875) scale(0.08 -0.08)">
      <defs>
       <path id="DejaVuSans-50" d="M 1259 4147 
L 1259 2394 
L 2053 2394 
Q 2494 2394 2734 2622 
Q 2975 2850 2975 3272 
Q 2975 3691 2734 3919 
Q 2494 4147 2053 4147 
L 1259 4147 
z
M 628 4666 
L 2053 4666 
Q 2838 4666 3239 4311 
Q 3641 3956 3641 3272 
Q 3641 2581 3239 2228 
Q 2838 1875 2053 1875 
L 1259 1875 
L 1259 0 
L 628 0 
L 628 4666 
z
" transform="scale(0.015625)"/>
       <path id="DejaVuSans-39" d="M 703 97 
L 703 672 
Q 941 559 1184 500 
Q 1428 441 1663 441 
Q 2288 441 2617 861 
Q 2947 1281 2994 2138 
Q 2813 1869 2534 1725 
Q 2256 1581 1919 1581 
Q 1219 1581 811 2004 
Q 403 2428 403 3163 
Q 403 3881 828 4315 
Q 1253 4750 1959 4750 
Q 2769 4750 3195 4129 
Q 3622 3509 3622 2328 
Q 3622 1225 3098 567 
Q 2575 -91 1691 -91 
Q 1453 -91 1209 -44 
Q 966 3 703 97 
z
M 1959 2075 
Q 2384 2075 2632 2365 
Q 2881 2656 2881 3163 
Q 2881 3666 2632 3958 
Q 2384 4250 1959 4250 
Q 1534 4250 1286 3958 
Q 1038 3666 1038 3163 
Q 1038 2656 1286 2365 
Q 1534 2075 1959 2075 
z
" transform="scale(0.015625)"/>
      </defs>
      <use xlink:href="#DejaVuSans-50"/>
      <use xlink:href="#DejaVuSans-6c" transform="translate(60.302734 0)"/>
      <use xlink:href="#DejaVuSans-61" transform="translate(88.085938 0)"/>
      <use xlink:href="#DejaVuSans-6e" transform="translate(149.365234 0)"/>
      <use xlink:href="#DejaVuSans-63" transform="translate(212.744141 0)"/>
      <use xlink:href="#DejaVuSans-6b" transform="translate(267.724609 0)"/>
      <use xlink:href="#DejaVuSans-20" transform="translate(325.634766 0)"/>
      <use xlink:href="#DejaVuSans-28" transform="translate(357.421875 0)"/>
      <use xlink:href="#DejaVuSans-31" transform="translate(396.435547 0)"/>
      <use xlink:href="#DejaVuSans-39" transform="translate(460.058594 0)"/>
      <use xlink:href="#DejaVuSans-30" transform="translate(523.681641 0)"/>
      <use xlink:href="#DejaVuSans-31" transform="translate(587.304688 0)"/>
      <use xlink:href="#DejaVuSans-29" transform="translate(650.927734 0)"/>
     </g>
    </g>
    <g id="line2d_20">
     <path d="M 455.3775 49.10125 
L 463.3775 49.10125 
L 471.3775 49.10125 
" style="fill: none; stroke-dasharray: 4.44,1.92; stroke-dashoffset: 0; stroke: #9467bd; stroke-width: 1.2"/>
    </g>
    <g id="text_21">
     <!-- Wien approx. -->
     <g transform="translate(477.7775 51.90125) scale(0.08 -0.08)">
      <defs>
       <path id="DejaVuSans-57" d="M 213 4666 
L 850 4666 
L 1831 722 
L 2809 4666 
L 3519 4666 
L 4500 722 
L 5478 4666 
L 6119 4666 
L 4947 0 
L 4153 0 
L 3169 4050 
L 2175 0 
L 1381 0 
L 213 4666 
z
" transform="scale(0.015625)"/>
      </defs>
      <use xlink:href="#DejaVuSans-57"/>
      <use xlink:href="#DejaVuSans-69" transform="translate(96.626953 0)"/>
      <use xlink:href="#DejaVuSans-65" transform="translate(124.410156 0)"/>
      <use xlink:href="#DejaVuSans-6e" transform="translate(185.933594 0)"/>
      <use xlink:href="#DejaVuSans-20" transform="translate(249.3125 0)"/>
      <use xlink:href="#DejaVuSans-61" transform="translate(281.099609 0)"/>
      <use xlink:href="#DejaVuSans-70" transform="translate(342.378906 0)"/>
      <use xlink:href="#DejaVuSans-70" transform="translate(405.855469 0)"/>
      <use xlink:href="#DejaVuSans-72" transform="translate(469.332031 0)"/>
      <use xlink:href="#DejaVuSans-6f" transform="translate(508.195312 0)"/>
      <use xlink:href="#DejaVuSans-78" transform="translate(566.251953 0)"/>
      <use xlink:href="#DejaVuSans-2e" transform="translate(625.431641 0)"/>
     </g>
    </g>
    <g id="line2d_21">
     <path d="M 455.3775 60.84375 
L 463.3775 60.84375 
L 471.3775 60.84375 
" style="fill: none; stroke-dasharray: 1.3,2.145; stroke-dashoffset: 0; stroke: #d62728; stroke-width: 1.3"/>
    </g>
    <g id="text_22">
     <!-- Rayleigh-Jeans (diverges UV) -->
     <g transform="translate(477.7775 63.64375) scale(0.08 -0.08)">
      <defs>
       <path id="DejaVuSans-52" d="M 2841 2188 
Q 3044 2119 3236 1894 
Q 3428 1669 3622 1275 
L 4263 0 
L 3584 0 
L 2988 1197 
Q 2756 1666 2539 1819 
Q 2322 1972 1947 1972 
L 1259 1972 
L 1259 0 
L 628 0 
L 628 4666 
L 2053 4666 
Q 2853 4666 3247 4331 
Q 3641 3997 3641 3322 
Q 3641 2881 3436 2590 
Q 3231 2300 2841 2188 
z
M 1259 4147 
L 1259 2491 
L 2053 2491 
Q 2509 2491 2742 2702 
Q 2975 2913 2975 3322 
Q 2975 3731 2742 3939 
Q 2509 4147 2053 4147 
L 1259 4147 
z
" transform="scale(0.015625)"/>
       <path id="DejaVuSans-2d" d="M 313 2009 
L 1997 2009 
L 1997 1497 
L 313 1497 
L 313 2009 
z
" transform="scale(0.015625)"/>
       <path id="DejaVuSans-55" d="M 556 4666 
L 1191 4666 
L 1191 1831 
Q 1191 1081 1462 751 
Q 1734 422 2344 422 
Q 2950 422 3222 751 
Q 3494 1081 3494 1831 
L 3494 4666 
L 4128 4666 
L 4128 1753 
Q 4128 841 3676 375 
Q 3225 -91 2344 -91 
Q 1459 -91 1007 375 
Q 556 841 556 1753 
L 556 4666 
z
" transform="scale(0.015625)"/>
       <path id="DejaVuSans-56" d="M 1831 0 
L 50 4666 
L 709 4666 
L 2188 738 
L 3669 4666 
L 4325 4666 
L 2547 0 
L 1831 0 
z
" transform="scale(0.015625)"/>
      </defs>
      <use xlink:href="#DejaVuSans-52"/>
      <use xlink:href="#DejaVuSans-61" transform="translate(67.232422 0)"/>
      <use xlink:href="#DejaVuSans-79" transform="translate(128.511719 0)"/>
      <use xlink:href="#DejaVuSans-6c" transform="translate(187.691406 0)"/>
      <use xlink:href="#DejaVuSans-65" transform="translate(215.474609 0)"/>
      <use xlink:href="#DejaVuSans-69" transform="translate(276.998047 0)"/>
      <use xlink:href="#DejaVuSans-67" transform="translate(304.78125 0)"/>
      <use xlink:href="#DejaVuSans-68" transform="translate(368.257812 0)"/>
      <use xlink:href="#DejaVuSans-2d" transform="translate(431.636719 0)"/>
      <use xlink:href="#DejaVuSans-4a" transform="translate(473.345703 0)"/>
      <use xlink:href="#DejaVuSans-65" transform="translate(502.837891 0)"/>
      <use xlink:href="#DejaVuSans-61" transform="translate(564.361328 0)"/>
      <use xlink:href="#DejaVuSans-6e" transform="translate(625.640625 0)"/>
      <use xlink:href="#DejaVuSans-73" transform="translate(689.019531 0)"/>
      <use xlink:href="#DejaVuSans-20" transform="translate(741.119141 0)"/>
      <use xlink:href="#DejaVuSans-28" transform="translate(772.90625 0)"/>
      <use xlink:href="#DejaVuSans-64" transform="translate(811.919922 0)"/>
      <use xlink:href="#DejaVuSans-69" transform="translate(875.396484 0)"/>
      <use xlink:href="#DejaVuSans-76" transform="translate(903.179688 0)"/>
      <use xlink:href="#DejaVuSans-65" transform="translate(962.359375 0)"/>
      <use xlink:href="#DejaVuSans-72" transform="translate(1023.882812 0)"/>
      <use xlink:href="#DejaVuSans-67" transform="translate(1063.246094 0)"/>
      <use xlink:href="#DejaVuSans-65" transform="translate(1126.722656 0)"/>
      <use xlink:href="#DejaVuSans-73" transform="translate(1188.246094 0)"/>
      <use xlink:href="#DejaVuSans-20" transform="translate(1240.345703 0)"/>
      <use xlink:href="#DejaVuSans-55" transform="translate(1272.132812 0)"/>
      <use xlink:href="#DejaVuSans-56" transform="translate(1345.326172 0)"/>
      <use xlink:href="#DejaVuSans-29" transform="translate(1413.734375 0)"/>
     </g>
    </g>
   </g>
  </g>
 </g>
 <defs>
  <clipPath id="p65d6ca0c13">
   <rect x="47.72" y="26.88" width="553.48" height="305.56"/>
  </clipPath>
 </defs>
</svg>
